<svg width="89" height="143" viewBox="0 0 89 143" fill="none" xmlns="http://www.w3.org/2000/svg">
<path d="M59.7 124.454L63.6598 120.029C59.0944 109.873 63.3104 104.073 65.9892 102.442L65.4068 101.278L62.4952 95.3379L63.6598 99.5307C61.2917 103.762 55.5072 113.111 51.3145 116.651C47.1217 120.192 45.9959 124.493 45.957 126.201L54.9249 120.844L59.7 124.454Z" fill="#00B4A6"/>
<path d="M22.0688 53.3692C22.5565 56.8334 23.9709 64.6984 25.7267 68.4455C26.5669 70.2386 27.6215 72.3321 29.0794 74.4467M22.0688 53.3692C22.8322 57.2237 23.4035 66.3377 19.5815 71.9584C18.6894 73.0208 17.4311 74.6513 16.3333 76.3374M22.0688 53.3692C22.1111 53.0616 22.1541 52.7566 22.1979 52.4544M64.3533 19.5575C65.3775 23.6559 67.7477 32.6724 69.0353 35.9511C70.3229 39.2298 70.6447 42.1963 70.6447 43.2696C69.962 46.8801 68.6841 55.5063 69.0353 61.1269C69.2379 64.3702 66.982 67.9887 64.3533 71.2288M64.3533 19.5575C62.5488 17.1668 58.2959 12.3854 55.7208 12.3854M64.3533 19.5575C65.4263 20.4846 68.6842 24.7094 73.1321 34.1929C78.692 46.0472 70.3849 40.7813 76.4974 67.0183C82.6099 93.2553 69.9132 84.2535 70.4985 94.2067C70.8724 100.566 68.2601 100.651 65.7142 102.404M55.7208 12.3854C52.5019 12.3854 46.5031 21.0212 34.7981 22.3386M55.7208 12.3854C61.4563 6.64762 62.3049 9.99463 62.0122 12.3854C62.0151 12.2614 62.0152 12.1356 62.0122 12.0082M34.7981 22.3386C36.5904 19.5575 39.9312 19.7527 39.4435 16.3374M34.7981 22.3386C33.7269 22.8571 32.1844 24.228 30.5088 26.7297C29.7764 27.8232 29.0186 29.1328 28.2637 30.6817C25.9406 35.4476 23.6444 42.4793 22.1979 52.4544M14.0216 82.058C14.6068 84.839 17.2405 89.0838 15.631 92.4503C14.0216 95.8168 13.4363 101.672 16.5089 102.404C19.5815 103.135 25.2877 104.745 23.6782 112.65C22.3907 118.973 18.3622 120.456 16.5089 120.407C19.5057 120.297 23.7192 119.539 27.1898 117.662M14.0216 82.058C2.90173 79.5989 1.58523 65.0423 1 62.7004C1 40.4886 4.51126 40.7813 8.90062 25.8515C12.4121 13.9076 23.8163 5.94505 29.0794 3.45676C55.2013 -3.53735 61.8751 6.0189 62.0122 12.0082M14.0216 82.058C9.25674 79.55 4.0872 71.5023 16.5089 57.9455M14.0216 82.058C13.7573 80.802 14.9104 78.523 16.3333 76.3374M29.0794 74.4467C27.279 74.1051 23.21 76.1153 21.3372 86.8882C20.0741 94.1543 22.6022 94.6019 25.7267 95.7732M29.0794 74.4467C30.135 75.1603 31.0136 75.7783 31.8102 76.3374M48.1857 35.9145H49.0636C49.3947 35.4611 49.8648 34.9568 50.4536 34.4913C50.5821 34.3896 50.7163 34.2899 50.856 34.1929C51.16 33.9817 51.49 33.7837 51.8436 33.6085M60.1103 34.8533L62.3415 34.1929C62.3329 34.313 61.8203 34.3786 60.1103 34.0095M60.1103 34.8533C59.1605 34.1249 58.2425 33.6274 57.3669 33.3132M60.1103 34.8533V34.0095M60.1103 34.8533C59.1819 35.0121 57.9282 35.2093 56.6289 35.386M49.0636 35.9511L50.4536 35.6949C50.7469 35.8612 51.6039 35.8769 52.7214 35.8058M51.8436 33.6085C52.032 33.5151 52.2272 33.4282 52.4288 33.3493C52.6183 33.275 52.8135 33.2078 53.0141 33.1488C53.0865 33.1275 53.1597 33.1073 53.2335 33.0882C53.4473 33.0329 53.6669 32.9871 53.892 32.9521C54.7333 32.8214 55.651 32.8427 56.6289 33.0882M51.8436 33.6085C51.746 34.3047 51.785 35.7189 52.7214 35.8058M57.3669 33.3132C58.5128 33.6352 59.4115 33.8586 60.1103 34.0095M57.3669 33.3132C57.1174 33.2237 56.8713 33.1491 56.6289 33.0882M52.7214 35.8058C53.8602 35.7334 55.2695 35.571 56.6289 35.386M56.6289 33.0882C57.0047 33.678 57.5309 34.9633 56.6289 35.386M49.0636 34.0095C49.6245 32.827 51.6826 30.6378 55.4282 31.3404C59.1738 32.043 60.3053 32.7983 60.4029 33.0882M38.4925 37.7441C38.4315 39.4396 36.7733 46.38 36.2247 47.4778C35.1761 49.1611 33.9349 52.8203 37.3586 53.9913M39.4435 46.8557C39.8215 46.1849 41.4261 45.2456 44.8205 46.8557M48.1857 45.5384C49.722 47.1119 52.0484 50.7565 49.0636 52.7472M40.6506 51.9787C39.9259 50.9419 38.3114 49.3587 37.6512 51.32M43.1745 51.32C43.6622 50.1369 45.2814 48.2902 47.8565 50.3686M36.5904 37.2684H35.4199M35.4199 37.2684C34.7 36.8093 33.4999 36.181 32.2634 35.8058M35.4199 37.2684C34.289 37.6138 33.0183 37.9022 31.8102 38.1328M28.9822 35.8058C29.8442 35.3176 31.0707 35.4439 32.2634 35.8058M35.0176 22.3386C34.4731 23.5072 33.8656 24.8187 33.219 26.2232M22.1979 52.4544C21.8506 52.0499 24.4188 45.8644 27.5514 38.7687M22.1979 52.4544C19.9866 54.3754 18.1029 56.2058 16.5089 57.9455M31.8102 29.2967C33.5036 29.0993 35.2451 29.2929 36.2612 29.5108C36.2612 28.3398 35.2858 27.1688 34.7981 26.7297C34.3941 26.5544 33.8212 26.3538 33.219 26.2232M31.8102 29.2967C32.2934 28.238 32.7658 27.2077 33.219 26.2232M31.8102 29.2967C31.1372 30.7712 30.4431 32.301 29.7503 33.8397M27.5514 38.7687C28.4201 38.6819 30.0486 38.4689 31.8102 38.1328M27.5514 38.7687C28.2644 37.1537 29.0066 35.4915 29.7503 33.8397M32.2634 35.8058C32.4331 36.4305 32.5801 37.7704 31.8102 38.1328M35.237 35.329C34.1411 34.7148 31.5095 33.5571 29.7503 33.8397M55.6477 59.8906C49.6974 57.0655 45.3805 58.561 43.9061 59.7364C40.597 58.3718 36.65 60.9628 34.4323 63.0231M55.6477 59.8906C55.9958 60.0558 56.3495 59.6535 56.7085 59.8493C54.7698 62.0449 49.7732 67.0183 45.2961 67.0183C43.3208 67.6038 38.1999 67.1099 33.5179 63.2457C33.773 62.9638 34.081 63.3495 34.4323 63.0231M55.6477 59.8906L44.5281 63.2028L34.4323 63.0231M64.3533 71.2288C62.4265 73.6039 60.2993 75.7757 58.7934 77.4473C55.3794 79.9356 46.8542 84.1511 40.0653 81.1065C36.0735 79.3164 34.3631 78.1293 31.8102 76.3374M64.3533 71.2288C63.7598 77.0174 62.7148 87.7506 62.2485 94.2067M62.0122 98.7442C62.0122 98.0925 62.0595 97.0654 62.1416 95.7732M31.8102 76.3374C34.0376 83.1233 38.4925 97.6318 38.4925 101.379C38.4925 102.978 39.4478 104.68 40.6506 106.501M36.5539 109.722C39.0046 110.34 42.8234 113.196 38.4925 119.675C37.3944 121.318 36.8065 122.885 36.5539 124.311M27.1898 117.662C31.4007 115.384 34.5181 111.457 33.0423 105.038C31.4929 98.299 28.3927 96.7726 25.7267 95.7732M27.1898 117.662C28.1652 120.041 29.2382 125.179 25.7267 126.701C22.2151 128.223 21.3372 137.484 21.3372 141.924C22.3615 137.728 25.4926 129.482 29.8235 130.068C34.1543 130.653 36.1149 126.474 36.5539 124.311M36.5539 124.311C35.561 129.918 39.7463 133.366 38.4925 130.799C37.6362 129.046 39.3168 127.597 41.2501 125.53M29.0794 79.8624C26.8401 82.7119 23.0345 89.8834 25.7267 95.7732M62.0122 12.0082C68.6939 16.9642 81.9402 32.1747 81.472 53.3692C80.8868 79.8624 88.934 74.7394 87.9098 86.1563C86.8856 97.5733 73.8637 94.0604 76.4974 104.16C79.131 114.26 65.5237 109.137 69.0353 128.165C67.4388 126.443 65.1483 123.335 63.5419 119.675M58.7934 100.208L53.0141 112.65M45.2961 126.701C45.7716 124.334 47.3518 119.213 49.8683 117.662C50.2636 117.418 50.7844 116.948 51.3949 116.309M45.2961 126.701L54.843 120.407M45.2961 126.701L43.9061 122.112M45.2961 126.701C45.7748 128.262 47.1986 131.502 49.0636 131.97C51.3949 132.556 40.2401 131.385 41.2501 125.53M62.1416 95.7732C63.0643 95.7732 63.4153 98.7297 63.4754 100.208C60.536 104.567 54.6718 112.877 51.3949 116.309M62.1416 95.7732C62.1725 95.2866 62.2083 94.7625 62.2485 94.2067M62.2485 94.2067L65.7142 102.404M65.7142 102.404C64.2753 103.394 62.8576 104.916 62.0122 108.405C61.0973 112.18 62.0075 116.18 63.5419 119.675M54.843 120.407L51.3949 116.309M54.843 120.407L59.525 124.311L63.5419 119.675M43.9061 122.112C44.5175 121.066 45.0184 119.878 45.2961 118.504C46.2114 113.974 42.9705 110.015 40.6506 106.501M43.9061 122.112C43.123 123.451 42.1586 124.559 41.2501 125.53M35.0176 5.0668C30.4575 7.26236 21.3372 14.0832 21.3372 23.8023C21.3372 33.5213 15.9726 38.1954 13.2903 39.3176M30.9942 13.1172C29.4706 13.8537 25.5785 17.6072 22.1979 26.7297C17.9723 38.1328 15.5259 45.5384 8.90062 45.5384M73.1321 28.1934C74.888 31.5112 78.4581 39.1713 78.6922 43.2696C78.9848 48.3926 75.7047 56.7724 78.6922 59.7364M80.009 71.9584C82.8377 77.1301 87.0903 88.147 81.472 90.8402C74.4491 94.2067 71.6692 99.7688 72.5471 102.404C73.2494 104.511 70.4985 108.161 69.0353 109.722M16.5089 57.9455C17.1438 61.8765 17.9976 71.0584 16.3333 76.3374M23.6782 71.2288C21.2398 74.0091 16.5384 80.3015 17.2407 83.2289M24.849 116.309C27.19 115.479 30.6428 111.332 25.7267 101.379M33.0423 89.2301C31.9815 90.2059 30.4964 93.27 33.0423 97.7196C35.5882 102.169 39.1753 105.428 40.6506 106.501M31.8102 118.504C32.5135 120.749 33.1009 125.53 29.8235 126.701M46.5031 25.8515C45.5277 27.0712 44.3112 30.3331 46.5031 29.5108C50.0147 28.1934 55.2818 27.3152 62.0122 28.1934C61.8172 26.9249 55.8672 23.8608 46.5031 25.8515ZM51.3949 120.407C50.3772 120.82 48.6471 121.75 49.8683 122.164C51.3949 122.68 51.3949 121.139 51.3949 120.407Z" stroke="black" stroke-width="1.5"/>
<path d="M31.5156 36.7815C31.5115 36.7974 31.5022 36.8154 31.4866 36.832M31.4866 36.832C31.4362 36.8856 31.3194 36.9246 31.0942 36.832C30.7254 36.6805 31.1469 36.2765 31.4629 36.731L31.4866 36.832ZM30.3213 36.731C30.4267 36.7983 29.6088 37.6545 30.3213 36.731ZM30.3213 36.731C30.5859 37.8319 29.2189 36.731 30.3213 36.731Z" stroke="black" stroke-width="1.5"/>
<path d="M55.2734 34.219C55.2696 34.2349 55.261 34.2529 55.2465 34.2695M55.2465 34.2695C55.1997 34.3231 55.0913 34.3621 54.8821 34.2695C54.5397 34.118 54.931 33.714 55.2245 34.1685L55.2465 34.2695ZM54.1644 34.1685C54.2623 34.2358 53.5028 35.092 54.1644 34.1685ZM54.1644 34.1685C54.4101 35.2694 53.1408 34.1685 54.1644 34.1685Z" stroke="black" stroke-width="1.5"/>
</svg>
