<svg width="240" height="240" viewBox="0 0 240 240" fill="none" xmlns="http://www.w3.org/2000/svg">
<path d="M175.208 169.828C174.128 170.26 174.398 170.728 174.668 170.908C177.908 168.316 182.315 180.445 184.114 186.833H191.401C192.265 184.242 189.602 178.015 188.162 175.226C186.813 172.707 183.898 167.831 183.034 168.478C181.954 169.288 176.557 169.288 175.208 169.828Z" fill="#00B4A6"/>
<path d="M106.109 151.744C101.574 153.256 100.801 156.872 100.981 158.492C108.754 153.526 115.016 160.921 117.175 165.24L117.715 165.78L121.494 168.749L123.653 166.589C124.301 163.998 122.483 161.371 121.494 160.381C117.175 156.063 109.438 152.824 106.109 151.744Z" fill="#00B4A6"/>
<path d="M219.805 97.7699L217.376 95.8805C217.645 95.7006 218.779 92.4256 221.154 80.7654C224.123 66.1901 227.632 68.8892 214.137 51.3449C213.177 50.0971 212.184 48.9752 211.168 47.9685M194.433 70.5086C195.157 77.6027 194.716 83.2602 193.683 87.783M164.203 55.2807C164.844 54.6887 165.561 54.0118 166.362 53.2342C173.704 46.1085 180.038 42.7077 182.287 41.898C187.861 39.4388 200.754 37.6518 211.168 47.9685M164.203 55.2807C157.505 61.4695 159.121 58.3882 159.614 64.3006C160.154 70.7785 160.964 78.8759 158.535 82.1148C156.839 84.3763 162.775 93.2171 167.982 99.5414M164.203 55.2807C166.695 54.4816 171.772 54.0766 175 57.5412M193.683 87.783C193.182 87.783 187.306 78.7568 182.412 70.5086M193.683 87.783C193.274 89.5742 192.772 91.1874 192.213 92.6414M182.412 70.5086C179.028 69.159 173.65 72.9378 172.57 72.9378C171.707 72.9378 171.311 72.218 171.221 71.8581C173.29 70.8175 178.4 69.0483 182.287 70.2971M182.412 70.5086C182.37 70.438 182.329 70.3675 182.287 70.2971M182.287 70.2971C179.902 66.2704 177.765 62.4498 176.619 59.982C176.168 59.0102 175.618 58.2047 175 57.5412M167.442 74.5573L166.362 72.9378L163.343 72.398M167.442 74.5573C166.362 74.2874 164.095 73.7475 163.663 73.7475M167.442 74.5573C168.522 75.5469 170.25 78.606 168.522 82.9246C166.362 88.3228 169.062 86.7033 170.411 87.783M163.663 73.7475C164.023 74.6076 164.689 76.5134 164.473 77.2564C164.321 77.7794 164.34 77.7032 165.013 77.7084M163.663 73.7475C163.583 73.7475 163.455 73.24 163.343 72.398M175 57.5412C162.591 51.7867 162.703 67.5762 163.343 72.398M175 74.5573V76.4467M175 76.4467C175.24 76.4139 175.513 76.3796 175.809 76.3457M175 76.4467L173.38 76.1767C174.55 76.0968 177.375 75.9682 179.318 76.0936M175.809 76.3457C176.079 76.9192 176.673 78.1201 176.889 78.336C176.973 78.4196 177.651 78.3479 178.509 78.1851M175.809 76.3457C176.603 76.255 177.564 76.1675 178.509 76.1218M178.509 76.1218C178.651 76.7841 178.851 78.1241 178.509 78.1851M178.509 76.1218C178.781 76.1086 179.053 76.0989 179.318 76.0936M178.509 78.1851C180.42 77.822 183.219 77.0057 182.287 76.4467C181.789 76.1483 180.624 76.0675 179.318 76.0936M165.013 77.7084C165.398 77.7114 165.998 77.7411 166.902 77.9254M165.013 77.7084C165.013 78.3508 165.013 79.1686 165.498 79.5166M165.013 77.7084L162.854 77.2564L166.902 77.7084M166.902 77.9254C167.223 77.9907 167.581 78.0754 167.982 78.1851C167.917 78.6765 167.523 79.2411 166.902 79.5166M166.902 77.9254C167.082 78.2195 167.335 78.9495 166.902 79.5166M166.902 79.5166C166.664 79.6224 166.392 79.6856 166.093 79.6856C165.84 79.6856 165.646 79.6231 165.498 79.5166M165.498 79.5166C165.246 81.5523 165.391 86.5414 167.982 90.2122C169.492 92.3518 169.946 93.6698 170.411 94.9051M192.213 92.6414C188.919 101.205 183.637 104.246 183.637 105.597C183.637 107.757 177.969 109.106 173.65 105.597C173.01 105.077 172.173 104.265 171.221 103.25M192.213 92.6414C191.423 95.0706 188.711 100.469 184.177 102.628C178.509 105.327 177.699 104.248 173.65 99.9291C172.409 98.6045 171.7 97.61 171.221 96.7354M169.463 92.6414C169.733 92.2815 170.573 91.1299 171.221 91.5618C172.031 92.1016 172.57 89.9423 175 92.6414C175.975 93.7256 176.908 94.1565 177.429 94.4765M171.221 96.7354C171.491 97.7999 172.786 99.3353 175.809 96.96C178.07 95.1835 178.206 94.9531 177.429 94.4765M171.221 96.7354C170.866 96.0881 170.637 95.5064 170.411 94.9051M171.491 87.783C171.671 87.1532 172.355 86.0016 173.65 86.4334C174.946 86.8653 174.91 87.3331 174.73 87.5131C175.36 87.1532 176.295 86.0556 175 84.544M172.57 84.0042C173.38 83.7343 173.758 83.5724 174.19 84.0042M170.411 94.9051C170.771 94.6904 171.707 94.2609 172.57 94.2609C173.434 94.2609 176.169 94.4046 177.429 94.4765M171.221 103.25C170.951 104.302 170.411 106.947 170.411 109.106M171.221 103.25C170.236 102.2 169.126 100.931 167.982 99.5414M170.411 109.106C170.411 111.805 172.301 118.823 184.986 111.805C188.915 109.632 192.585 105.734 195.795 101.279M170.411 109.106C168.305 110.636 164.374 115.044 165.498 120.442M204.96 44.327C213.867 61.6015 208.739 72.398 208.199 76.0936C207.826 78.6447 202.952 91.3472 195.795 101.279M211.168 47.9685C213.237 54.5473 215.703 70.4251 209.009 81.3051C202.315 92.1851 197.411 99.1541 195.795 101.279M165.498 120.442C166.621 125.841 168.609 130.069 169.463 131.509C171.078 131.294 178.184 127.269 193.683 112.885C209.183 98.501 218.816 78.1009 221.695 69.6988M165.498 120.442C163.717 120.712 160.262 122.278 160.694 126.381C161.078 130.03 161.053 133.132 162.854 134.424M184.177 126.381C179.858 129.08 170.195 134.586 166.093 135.018C164.614 135.173 163.584 134.947 162.854 134.424M164.473 123.411C164.886 125.211 165.237 128.864 163.343 129.08C161.449 129.296 162.554 130.789 163.343 131.509C164.184 132.139 166.18 133.128 167.442 132.049M162.854 134.424C163.017 135.03 163.265 135.692 163.607 136.367M184.177 186.841C182.197 180.273 177.537 167.893 174.73 170.916M184.177 186.841C175.94 185.821 158.347 184.323 146.389 185.387M184.177 186.841C186.136 186.904 188.624 186.954 191.361 186.972M174.73 170.916C174.28 170.376 174.46 169.297 178.778 169.297M174.73 170.916C165.193 172.356 143.474 174.965 132.893 173.885L121.557 168.737M178.778 169.297C179.879 169.297 181.069 169.084 182.287 168.737M178.778 169.297L158.535 163.224M204.69 160.39C204.69 161.901 202.891 162.999 201.991 163.359C200.192 163.089 196.107 162.711 194.163 163.359C192.925 163.771 190.354 165.306 187.416 166.712M204.69 160.39C204.69 158.5 200.91 106.2 219.805 98.206M204.69 160.39C204.42 159.67 204.636 157.474 207.659 154.451C211.438 150.673 205.5 121.522 211.438 112.885C216.188 105.975 218.995 104.608 219.805 104.787M219.805 98.206C215.998 98.937 211.226 101.223 205.23 106.407C194.186 115.954 195.085 124.981 191.361 132.049M219.805 98.206C226.107 96.9958 229.764 100.049 231.951 101.279C235.46 103.25 239.509 126.381 235.73 151.752C233.471 166.923 232.98 172.183 233.065 173.345M191.361 132.049C189.716 135.172 187.168 137.913 182.287 140.146C181.05 140.712 179.882 141.155 178.778 141.49M191.361 132.049C191.126 136.727 190.007 147.002 187.416 150.673C184.825 154.343 186.336 162.895 187.416 166.712M187.416 166.712C186.09 167.347 184.689 167.955 183.302 168.422M178.778 141.49C178.508 150.386 178.832 168.29 182.287 168.737M178.778 141.49C170.104 144.121 165.471 140.054 163.607 136.367M182.287 168.737C182.623 168.642 182.962 168.536 183.302 168.422M133.433 160.39L145.579 159.63M146.389 159.58C142.97 157.87 135.862 153.912 134.783 151.752M146.389 159.58L145.579 159.63M146.389 159.58L153.407 161.685M163.607 136.367C161.916 139.336 158.535 146.354 158.535 150.673C158.535 154.991 158.535 160.839 158.535 163.224M158.535 163.224L153.407 161.685M167.982 99.5414C164.293 102.82 155.62 110.942 150.438 117.203C143.96 125.031 134.243 138.803 131.004 140.146C127.765 141.49 129.384 137.447 119.668 143.655C109.411 149.323 110.491 150.403 105.902 151.752M105.902 151.752C102.231 152.832 100.954 156.701 100.774 158.5M105.902 151.752C112.504 153.808 125.294 159.678 123.633 166.712M100.774 158.5C102.483 157.151 106.982 155.261 111.3 158.5C115.619 161.739 117.058 164.528 117.238 165.518M100.774 158.5C100.144 159.94 97.5356 162.225 92.1373 159.85C85.3895 156.881 79.1815 156.341 77.562 159.58C76.68 161.344 76.1107 162.666 75.8087 163.359M117.238 165.518C118.588 166.591 121.341 168.737 121.557 168.737M117.238 165.518C114.359 164.888 107.953 163.682 105.362 163.898M121.557 168.737C121.671 168.737 122.41 167.803 123.633 166.712M145.579 159.63C142.52 160.828 135.323 163.251 131.004 163.359C127.885 163.437 125.306 165.22 123.633 166.712M105.362 163.898C104.821 163.944 104.174 164.215 103.473 164.648M105.362 163.898C105.542 164.348 105.794 165.302 105.362 165.518M95.3754 175.235C95.6453 177.934 99.6932 174.425 100.774 173.345C101.638 172.482 104.553 169.914 105.902 168.737C105.992 168.924 107.037 169.297 110.491 169.297C108.787 169.54 105.018 170.882 102.394 174.313M95.3754 175.235C95.3113 174.593 95.6585 173.632 96.2688 172.536M95.3754 175.235H96.2688C96.4211 174.927 96.8876 174.119 97.5348 173.345C98.182 172.572 97.2652 172.483 96.7258 172.536M101.584 175.505C101.838 175.082 102.109 174.685 102.394 174.313M101.584 175.505C100.806 176.801 100.075 178.02 99.4242 179.138M101.584 175.505C101.854 175.865 102.501 176.584 102.933 176.584M114.81 181.173C114.409 181.111 113.952 181.187 113.46 181.358M141.531 186.031C142.133 185.918 142.764 185.815 143.42 185.723M111.3 170.916C108.709 171.471 103.301 172.927 102.394 174.313M102.394 174.313C102.754 174.35 103.473 174.641 103.473 175.505M75.5556 163.898C75.5843 163.87 75.6671 163.683 75.8087 163.359M76.1596 166.058C77.5379 165.073 80.5431 162.716 81.8312 161.469M82.6904 160.39C82.632 160.623 82.3089 161.007 81.8312 161.469M81.8312 161.469C82.6127 161.8 84.156 162.333 85.9293 162.696M96.2688 172.536H95.9161C94.0267 173.128 89.978 174.389 88.8984 174.695C88.2335 174.883 86.848 175.607 85.446 176.002M96.2688 172.536C97.7976 169.788 100.977 166.191 103.473 164.648M93.7568 166.058L93.217 166.867M77.5186 170.916C77.6985 170.016 79.3435 167.893 81.0709 167.677C83.2302 167.407 89.7081 164.168 90.2479 165.518C90.6798 166.598 90.894 168.114 90.9472 168.737M90.9472 168.737C92.1583 167.172 92.6457 163.089 89.4382 163.089C88.2664 163.089 87.0518 162.926 85.9293 162.696M90.9472 168.737C90.7315 169.016 90.4928 169.215 90.2479 169.297C89.5073 169.544 87.3909 170.299 85.446 171.278M76.6126 167.677C77.934 166.078 82.191 162.195 85.9293 162.696M146.389 185.387L145.579 188.191C131.045 192.332 101.974 199.826 87.9321 200.876M146.389 185.387C145.354 185.479 144.361 185.59 143.42 185.723M146.389 185.387C144.68 184.882 140.235 184.304 136.132 186.031C134.83 186.579 132.751 186.49 130.346 186.031M85.9293 200.985C84.6709 201.023 83.581 200.99 82.6904 200.876C72.5424 199.581 37.7952 186.453 21.6901 180.051L3.60595 123.411C1.39977 116.502 5.74572 115.494 8.19447 115.854C21.5102 117.923 49.977 122.332 57.3186 123.411C64.6602 124.491 66.4956 129.26 66.4956 131.509L75.8087 164.803M85.9293 200.985L85.446 199.257M85.9293 200.985C86.5563 200.966 87.2252 200.929 87.9321 200.876M10.6229 117.203L55.1585 125.031C57.4975 125.121 62.6075 126.542 64.3356 131.509C66.0636 136.475 79.1292 178.744 85.446 199.257M85.446 199.257L82.6904 189.406M152.597 129.08C151.967 138.221 151.247 157.539 153.407 161.685M121.557 143.655C123.716 141.856 129.114 140.038 133.433 147.164M82.6904 189.406L99.4242 194.668L126.685 187.139M82.6904 189.406L78.3491 173.885M87.9321 200.876C89.3333 199.887 93.5935 197.584 99.4242 196.288C105.255 194.992 131.184 188.705 143.42 185.723M126.685 187.139L129.924 186.245L130.346 186.031M126.685 187.139L110.221 182.479M110.221 182.479C110.971 182 112.788 181.59 113.46 181.358M110.221 182.479C109.141 182.252 108.673 185.844 107.792 186.456C106.713 188.02 105.404 186.399 105.124 185.222M110.221 182.479C110.491 181.713 110.491 182.664 113.46 181.358M85.446 176.002L99.4242 179.138M85.446 176.002C84.6728 176.22 83.8946 176.338 83.2295 176.211M99.4242 179.138C98.0458 181.507 97.0279 183.426 96.6902 184.682M77.7451 171.726L85.446 171.278M77.7451 171.726L78.3491 173.885M77.7451 171.726L75.8087 164.803M85.446 171.278C83.449 172.283 81.6328 173.525 81.672 174.695M227.633 166.712C228.825 168.601 231.58 172.572 233.065 173.345M233.065 173.345C233.093 173.738 233.187 173.663 233.301 173.345C234.105 174.07 234.853 175.787 232.221 177.377M224.934 170.106C225.743 172.344 228.335 176.932 232.221 177.377M232.221 177.377C231.91 177.565 231.552 177.751 231.142 177.934C226.283 180.093 223.584 182.792 216.566 185.222C212.253 186.715 200.439 187.029 191.361 186.972M204.69 161.685C204.96 161.172 205.716 160.454 206.58 161.685M190.655 171.726C191.734 174.02 193.732 179.445 193.084 182.792M110.221 152.292C113.64 153.282 120.693 156.287 121.557 160.39M81.672 174.695C81.6781 174.877 81.729 175.057 81.8312 175.235C82.1609 175.807 82.6526 176.101 83.2295 176.211M81.672 174.695L78.3491 173.885M81.672 174.695C82.6024 173.885 84.5945 172.428 85.1188 173.075C85.389 173.229 85.9293 173.768 85.9293 174.695C85.9293 175.622 84.1294 176.092 83.2295 176.211M97.8676 186.456C97.3888 186.503 96.9871 186.38 96.7258 186.031C96.5225 185.76 96.5234 185.302 96.6902 184.682M97.8676 186.456C98.0266 186.315 98.5065 185.761 99.1543 184.682C99.8021 183.602 98.8844 183.512 98.3446 183.602C98.0511 183.512 97.3094 183.602 96.6902 184.682M97.8676 186.456C98.7126 186.374 99.7976 185.76 100.774 184.915M105.124 185.222C105.013 184.755 105.076 183.978 105.362 182.792C105.506 182.198 105.713 181.66 105.97 181.173M105.124 185.222C105.124 185.222 104.754 185.153 105.362 184.983C105.362 186.063 106.713 184.983 106.982 187.084M106.442 180.633C106.622 181.007 106.333 181.173 106.982 181.173M107.252 179.823C106.442 180.363 107.522 180.633 107.792 180.633M103.473 164.648C103.462 165.118 103.61 165.518 104.283 165.518M75.8087 163.359V164.803M100.774 184.915C100.959 184.755 101.14 184.586 101.314 184.412C101.919 183.808 102.523 182.527 103.45 181.173M100.774 184.915C101.388 185.017 102.783 184.412 103.45 181.173M103.45 181.173C103.572 180.994 103.7 180.813 103.835 180.633M103.835 180.633C105.41 178.523 107.252 175.748 112.38 175.235C119.086 174.564 110.462 175.45 106.713 180.051C106.435 180.391 106.185 180.764 105.97 181.173M103.835 180.633L105.97 181.173M113.46 181.358L114.81 180.633C118.495 182.353 125.173 185.045 130.346 186.031M183.302 168.422C186.224 171.5 191.927 179.519 191.361 186.972" stroke="black"/>
<line x1="22.4336" y1="58.6855" x2="105.027" y2="58.6855" stroke="#00B4A6" stroke-width="1.5" stroke-dasharray="5 5"/>
<line x1="22.4375" y1="73.2578" x2="105.031" y2="73.2578" stroke="#00B4A6" stroke-width="1.5" stroke-dasharray="5 5"/>
<line x1="22.4375" y1="87.834" x2="76.9599" y2="87.834" stroke="#00B4A6" stroke-width="1.5" stroke-dasharray="5 5"/>
<line x1="22.4336" y1="101.871" x2="87.2127" y2="101.871" stroke="#00B4A6" stroke-width="1.5" stroke-dasharray="5 5"/>
<path d="M98.5468 102.177L95.8477 102.081L97.4671 123.134L130.666 127.182L131.361 109.638M98.5468 102.177V94.523L106.104 95.0628M98.5468 102.177L106.104 102.447M106.104 95.0628V102.447M106.104 95.0628V78.3282L117.981 78.868M106.104 102.447L110.963 102.62L114.742 98.0318L129.857 99.7113M129.857 99.7113L131.746 99.9212L131.361 109.638M129.857 99.7113V79.4078L117.981 78.868M117.981 78.868L119.87 68.6113L144.702 75.3591L137.414 110.988L131.361 109.638M109.073 85.8857L126.618 86.9654M109.073 82.3769L126.618 83.4565M109.073 88.8548L126.618 89.9344M109.073 91.8238L126.618 92.9035M109.073 93.9831L126.618 95.0628M109.073 96.9522L126.618 98.0318M122.839 74.2795L140.113 79.4078" stroke="#00B4A6" stroke-width="1.5"/>
<path d="M177.258 76.869C177.257 76.8789 177.254 76.8901 177.25 76.9005M177.25 76.9005C177.237 76.9338 177.205 76.9581 177.145 76.9005C177.047 76.8061 177.159 76.5544 177.244 76.8375L177.25 76.9005ZM176.939 76.8375C176.967 76.8795 176.749 77.4128 176.939 76.8375ZM176.939 76.8375C177.01 77.5232 176.645 76.8375 176.939 76.8375Z" stroke="black" stroke-width="1.5"/>
<path d="M165.926 78.492C165.925 78.502 165.922 78.5132 165.918 78.5235M165.918 78.5235C165.905 78.5569 165.873 78.5811 165.813 78.5235C165.715 78.4291 165.827 78.1775 165.912 78.4606L165.918 78.5235ZM165.607 78.4606C165.635 78.5025 165.417 79.0358 165.607 78.4606ZM165.607 78.4606C165.678 79.1463 165.313 78.4606 165.607 78.4606Z" stroke="black" stroke-width="1.5"/>
<path d="M106.324 109.07C105.225 108.962 104.246 109.766 104.138 110.865C104.031 111.964 104.834 112.943 105.933 113.051L106.324 109.07ZM121.037 114.534L123.027 114.729L123.418 110.748L121.428 110.553L121.037 114.534ZM105.933 113.051L121.037 114.534L121.428 110.553L106.324 109.07L105.933 113.051Z" fill="#D21034"/>
<path d="M105.645 116.043C104.545 115.935 103.567 116.739 103.459 117.838C103.351 118.937 104.155 119.916 105.254 120.024L105.645 116.043ZM120.744 121.544L122.735 121.74L123.126 117.759L121.135 117.564L120.744 121.544ZM105.254 120.024L120.744 121.544L121.135 117.564L105.645 116.043L105.254 120.024Z" fill="black"/>
<path d="M108.274 113.17C107.174 113.062 106.196 113.865 106.088 114.965C105.98 116.064 106.783 117.043 107.883 117.151L108.274 113.17ZM122.986 118.633L124.976 118.829L125.367 114.848L123.377 114.653L122.986 118.633ZM107.883 117.151L122.986 118.633L123.377 114.653L108.274 113.17L107.883 117.151Z" fill="white"/>
<path d="M111.127 115.918L106.32 109.125L105.256 119.968L111.127 115.918Z" fill="#007229"/>
</svg>
