<svg width="240" height="240" viewBox="0 0 240 240" fill="none" xmlns="http://www.w3.org/2000/svg">
<path d="M48.5859 106.523C44.7458 97.5426 43 87.8447 43 77.4603C43 36.337 76.337 3 117.46 3C158.584 3 192.3 35.7672 192.3 76.8904C192.3 89.0261 189.397 100.484 184.247 110.607" stroke="#00B4A6" stroke-width="2" stroke-linecap="round"/>
<path d="M186.138 119.002C185.843 119.47 185.984 120.087 186.451 120.381C186.919 120.676 187.536 120.535 187.83 120.068L186.138 119.002ZM50.0781 80.1204C50.0781 39.5494 82.9674 6.66016 123.538 6.66016V4.66016C81.8628 4.66016 48.0781 38.4449 48.0781 80.1204H50.0781ZM123.538 6.66016C164.109 6.66016 196.999 39.5494 196.999 80.1204H198.999C198.999 38.4449 165.214 4.66016 123.538 4.66016V6.66016ZM196.999 80.1204C196.999 94.4967 193.251 107.699 186.138 119.002L187.83 120.068C195.155 108.428 198.999 94.8529 198.999 80.1204H196.999ZM53.3475 101.859C51.2227 94.9905 50.0781 87.69 50.0781 80.1204H48.0781C48.0781 87.8927 49.2535 95.3923 51.4369 102.45L53.3475 101.859Z" fill="#DE2010"/>
<path d="M121.068 229.608C120.004 219.275 123.917 209.189 126.007 205.01C131.629 201.363 134.934 203.902 135.884 206.054C129.045 213.956 129.869 225.049 131.135 229.608C130.122 231.001 127.678 233.217 126.007 233.217C124.335 233.217 122.018 231.001 121.068 229.608Z" fill="#00B4A6"/>
<path d="M151.65 22.7531C129.159 18.0424 124.677 31.1742 125.246 38.329C114.457 32.0986 119.105 25.919 122.967 23.7029C125.31 21.4235 132.237 17.0547 139.683 17.0547C147.129 17.0547 150.763 20.8536 151.65 22.7531Z" fill="#00B4A6"/>
<path d="M110.621 38.329L122.967 40.4185C105.036 40.4185 97.8939 50.1693 96.5642 55.0446C93.525 40.4565 104.669 37.8225 110.621 38.329Z" fill="#00B4A6"/>
<path d="M68.8312 101.582C65.792 81.8275 73.0101 72.4567 76.999 70.2406C65.6017 69.4808 63.8923 79.0416 64.4622 83.917C62.0309 85.4366 62.0562 90.5019 62.3728 92.8446L64.4622 99.113L63.5125 105.951L68.8312 101.582Z" fill="#00B4A6"/>
<path d="M126.198 220.738L126.71 232.599L130.191 232.087V231.396L131.567 230.513L130.191 228.368V220.928L131.772 212.923C132.259 212.587 132.672 212.129 132.96 211.566L134.798 207.983C135.731 206.162 135.012 203.93 133.192 202.997C131.879 202.324 130.353 202.51 129.254 203.348C127.898 203.337 126.587 204.074 125.926 205.363L124.089 208.946C123.55 209.998 123.562 211.187 124.02 212.184L121.449 219.032L122.829 219.621L124.588 220.21L124.543 220.442L125.943 220.719L126.198 220.738Z" fill="white"/>
<path d="M121.926 219.259C122.876 214.605 125.649 205.545 126.485 205.013M124.585 220.494C125.25 215.935 128.783 203.835 129.619 203.303M128.194 232.745C124.679 220.019 131.729 203.837 132.658 203.493M123.16 219.734C123.92 215.08 127.263 204.5 128.099 203.968M125.915 220.779C126.2 216.22 130.303 203.645 131.138 203.113M129.619 231.986C125.44 221.823 132.658 205.298 133.988 204.348M130.948 230.466C127.149 220.494 132.088 208.527 135.317 205.868" stroke="#DE2010"/>
<path d="M122.682 229.041L122.789 229.369H123.134L122.854 229.572L122.961 229.9L122.682 229.697L122.403 229.9L122.509 229.572L122.23 229.369H122.575L122.682 229.041Z" fill="white"/>
<path d="M122.682 229.041L122.789 229.369H123.134L122.854 229.572L122.961 229.9L122.682 229.697L122.403 229.9L122.509 229.572L122.23 229.369H122.575L122.682 229.041Z" fill="white"/>
<path d="M122.682 229.041L122.789 229.369H123.134L122.854 229.572L122.961 229.9L122.682 229.697L122.403 229.9L122.509 229.572L122.23 229.369H122.575L122.682 229.041Z" fill="white"/>
<path d="M122.682 228.092L122.789 228.42H123.134L122.854 228.623L122.961 228.951L122.682 228.748L122.403 228.951L122.509 228.623L122.23 228.42H122.575L122.682 228.092Z" fill="white"/>
<path d="M122.682 228.092L122.789 228.42H123.134L122.854 228.623L122.961 228.951L122.682 228.748L122.403 228.951L122.509 228.623L122.23 228.42H122.575L122.682 228.092Z" fill="white"/>
<path d="M122.682 228.092L122.789 228.42H123.134L122.854 228.623L122.961 228.951L122.682 228.748L122.403 228.951L122.509 228.623L122.23 228.42H122.575L122.682 228.092Z" fill="white"/>
<path d="M122.682 227.141L122.789 227.469H123.134L122.854 227.672L122.961 228L122.682 227.797L122.403 228L122.509 227.672L122.23 227.469H122.575L122.682 227.141Z" fill="white"/>
<path d="M122.682 227.141L122.789 227.469H123.134L122.854 227.672L122.961 228L122.682 227.797L122.403 228L122.509 227.672L122.23 227.469H122.575L122.682 227.141Z" fill="white"/>
<path d="M122.682 227.141L122.789 227.469H123.134L122.854 227.672L122.961 228L122.682 227.797L122.403 228L122.509 227.672L122.23 227.469H122.575L122.682 227.141Z" fill="white"/>
<path d="M122.682 226.193L122.789 226.521H123.134L122.854 226.724L122.961 227.052L122.682 226.85L122.403 227.052L122.509 226.724L122.23 226.521H122.575L122.682 226.193Z" fill="white"/>
<path d="M122.682 226.193L122.789 226.521H123.134L122.854 226.724L122.961 227.052L122.682 226.85L122.403 227.052L122.509 226.724L122.23 226.521H122.575L122.682 226.193Z" fill="white"/>
<path d="M122.682 226.193L122.789 226.521H123.134L122.854 226.724L122.961 227.052L122.682 226.85L122.403 227.052L122.509 226.724L122.23 226.521H122.575L122.682 226.193Z" fill="white"/>
<path d="M122.682 225.242L122.789 225.57H123.134L122.854 225.773L122.961 226.101L122.682 225.898L122.403 226.101L122.509 225.773L122.23 225.57H122.575L122.682 225.242Z" fill="white"/>
<path d="M122.682 225.242L122.789 225.57H123.134L122.854 225.773L122.961 226.101L122.682 225.898L122.403 226.101L122.509 225.773L122.23 225.57H122.575L122.682 225.242Z" fill="white"/>
<path d="M122.682 225.242L122.789 225.57H123.134L122.854 225.773L122.961 226.101L122.682 225.898L122.403 226.101L122.509 225.773L122.23 225.57H122.575L122.682 225.242Z" fill="white"/>
<path d="M123.635 229.23L123.742 229.559H124.087L123.808 229.761L123.914 230.09L123.635 229.887L123.356 230.09L123.463 229.761L123.183 229.559H123.528L123.635 229.23Z" fill="white"/>
<path d="M123.635 229.23L123.742 229.559H124.087L123.808 229.761L123.914 230.09L123.635 229.887L123.356 230.09L123.463 229.761L123.183 229.559H123.528L123.635 229.23Z" fill="white"/>
<path d="M123.635 229.23L123.742 229.559H124.087L123.808 229.761L123.914 230.09L123.635 229.887L123.356 230.09L123.463 229.761L123.183 229.559H123.528L123.635 229.23Z" fill="white"/>
<path d="M123.635 228.283L123.742 228.611H124.087L123.808 228.814L123.914 229.142L123.635 228.939L123.356 229.142L123.463 228.814L123.183 228.611H123.528L123.635 228.283Z" fill="white"/>
<path d="M123.635 228.283L123.742 228.611H124.087L123.808 228.814L123.914 229.142L123.635 228.939L123.356 229.142L123.463 228.814L123.183 228.611H123.528L123.635 228.283Z" fill="white"/>
<path d="M123.635 228.283L123.742 228.611H124.087L123.808 228.814L123.914 229.142L123.635 228.939L123.356 229.142L123.463 228.814L123.183 228.611H123.528L123.635 228.283Z" fill="white"/>
<path d="M123.635 227.33L123.742 227.658H124.087L123.808 227.861L123.914 228.189L123.635 227.986L123.356 228.189L123.463 227.861L123.183 227.658H123.528L123.635 227.33Z" fill="white"/>
<path d="M123.635 227.33L123.742 227.658H124.087L123.808 227.861L123.914 228.189L123.635 227.986L123.356 228.189L123.463 227.861L123.183 227.658H123.528L123.635 227.33Z" fill="white"/>
<path d="M123.635 227.33L123.742 227.658H124.087L123.808 227.861L123.914 228.189L123.635 227.986L123.356 228.189L123.463 227.861L123.183 227.658H123.528L123.635 227.33Z" fill="white"/>
<path d="M123.635 226.385L123.742 226.713H124.087L123.808 226.916L123.914 227.244L123.635 227.041L123.356 227.244L123.463 226.916L123.183 226.713H123.528L123.635 226.385Z" fill="white"/>
<path d="M123.635 226.385L123.742 226.713H124.087L123.808 226.916L123.914 227.244L123.635 227.041L123.356 227.244L123.463 226.916L123.183 226.713H123.528L123.635 226.385Z" fill="white"/>
<path d="M123.635 226.385L123.742 226.713H124.087L123.808 226.916L123.914 227.244L123.635 227.041L123.356 227.244L123.463 226.916L123.183 226.713H123.528L123.635 226.385Z" fill="white"/>
<path d="M123.635 225.432L123.742 225.76H124.087L123.808 225.963L123.914 226.291L123.635 226.088L123.356 226.291L123.463 225.963L123.183 225.76H123.528L123.635 225.432Z" fill="white"/>
<path d="M123.635 225.432L123.742 225.76H124.087L123.808 225.963L123.914 226.291L123.635 226.088L123.356 226.291L123.463 225.963L123.183 225.76H123.528L123.635 225.432Z" fill="white"/>
<path d="M123.635 225.432L123.742 225.76H124.087L123.808 225.963L123.914 226.291L123.635 226.088L123.356 226.291L123.463 225.963L123.183 225.76H123.528L123.635 225.432Z" fill="white"/>
<path d="M124.58 229.422L124.687 229.75H125.032L124.753 229.953L124.859 230.281L124.58 230.078L124.301 230.281L124.408 229.953L124.129 229.75H124.474L124.58 229.422Z" fill="white"/>
<path d="M124.58 229.422L124.687 229.75H125.032L124.753 229.953L124.859 230.281L124.58 230.078L124.301 230.281L124.408 229.953L124.129 229.75H124.474L124.58 229.422Z" fill="white"/>
<path d="M124.58 229.422L124.687 229.75H125.032L124.753 229.953L124.859 230.281L124.58 230.078L124.301 230.281L124.408 229.953L124.129 229.75H124.474L124.58 229.422Z" fill="white"/>
<path d="M124.58 228.475L124.687 228.803H125.032L124.753 229.006L124.859 229.334L124.58 229.131L124.301 229.334L124.408 229.006L124.129 228.803H124.474L124.58 228.475Z" fill="white"/>
<path d="M124.58 228.475L124.687 228.803H125.032L124.753 229.006L124.859 229.334L124.58 229.131L124.301 229.334L124.408 229.006L124.129 228.803H124.474L124.58 228.475Z" fill="white"/>
<path d="M124.58 228.475L124.687 228.803H125.032L124.753 229.006L124.859 229.334L124.58 229.131L124.301 229.334L124.408 229.006L124.129 228.803H124.474L124.58 228.475Z" fill="white"/>
<path d="M124.58 227.523L124.687 227.852H125.032L124.753 228.054L124.859 228.382L124.58 228.18L124.301 228.382L124.408 228.054L124.129 227.852H124.474L124.58 227.523Z" fill="white"/>
<path d="M124.58 227.523L124.687 227.852H125.032L124.753 228.054L124.859 228.382L124.58 228.18L124.301 228.382L124.408 228.054L124.129 227.852H124.474L124.58 227.523Z" fill="white"/>
<path d="M124.58 227.523L124.687 227.852H125.032L124.753 228.054L124.859 228.382L124.58 228.18L124.301 228.382L124.408 228.054L124.129 227.852H124.474L124.58 227.523Z" fill="white"/>
<path d="M124.58 226.574L124.687 226.902H125.032L124.753 227.105L124.859 227.433L124.58 227.23L124.301 227.433L124.408 227.105L124.129 226.902H124.474L124.58 226.574Z" fill="white"/>
<path d="M124.58 226.574L124.687 226.902H125.032L124.753 227.105L124.859 227.433L124.58 227.23L124.301 227.433L124.408 227.105L124.129 226.902H124.474L124.58 226.574Z" fill="white"/>
<path d="M124.58 226.574L124.687 226.902H125.032L124.753 227.105L124.859 227.433L124.58 227.23L124.301 227.433L124.408 227.105L124.129 226.902H124.474L124.58 226.574Z" fill="white"/>
<path d="M124.58 225.623L124.687 225.951H125.032L124.753 226.154L124.859 226.482L124.58 226.279L124.301 226.482L124.408 226.154L124.129 225.951H124.474L124.58 225.623Z" fill="white"/>
<path d="M124.58 225.623L124.687 225.951H125.032L124.753 226.154L124.859 226.482L124.58 226.279L124.301 226.482L124.408 226.154L124.129 225.951H124.474L124.58 225.623Z" fill="white"/>
<path d="M124.58 225.623L124.687 225.951H125.032L124.753 226.154L124.859 226.482L124.58 226.279L124.301 226.482L124.408 226.154L124.129 225.951H124.474L124.58 225.623Z" fill="white"/>
<path d="M122.682 224.484L122.789 224.813H123.134L122.854 225.015L122.961 225.343L122.682 225.141L122.403 225.343L122.509 225.015L122.23 224.813H122.575L122.682 224.484Z" fill="white"/>
<path d="M122.682 224.484L122.789 224.813H123.134L122.854 225.015L122.961 225.343L122.682 225.141L122.403 225.343L122.509 225.015L122.23 224.813H122.575L122.682 224.484Z" fill="white"/>
<path d="M122.682 224.484L122.789 224.813H123.134L122.854 225.015L122.961 225.343L122.682 225.141L122.403 225.343L122.509 225.015L122.23 224.813H122.575L122.682 224.484Z" fill="white"/>
<path d="M122.682 223.533L122.789 223.861H123.134L122.854 224.064L122.961 224.392L122.682 224.189L122.403 224.392L122.509 224.064L122.23 223.861H122.575L122.682 223.533Z" fill="white"/>
<path d="M122.682 223.533L122.789 223.861H123.134L122.854 224.064L122.961 224.392L122.682 224.189L122.403 224.392L122.509 224.064L122.23 223.861H122.575L122.682 223.533Z" fill="white"/>
<path d="M122.682 223.533L122.789 223.861H123.134L122.854 224.064L122.961 224.392L122.682 224.189L122.403 224.392L122.509 224.064L122.23 223.861H122.575L122.682 223.533Z" fill="white"/>
<path d="M122.682 222.584L122.789 222.912H123.134L122.854 223.115L122.961 223.443L122.682 223.24L122.403 223.443L122.509 223.115L122.23 222.912H122.575L122.682 222.584Z" fill="white"/>
<path d="M122.682 222.584L122.789 222.912H123.134L122.854 223.115L122.961 223.443L122.682 223.24L122.403 223.443L122.509 223.115L122.23 222.912H122.575L122.682 222.584Z" fill="white"/>
<path d="M122.682 222.584L122.789 222.912H123.134L122.854 223.115L122.961 223.443L122.682 223.24L122.403 223.443L122.509 223.115L122.23 222.912H122.575L122.682 222.584Z" fill="white"/>
<path d="M122.682 221.635L122.789 221.963H123.134L122.854 222.166L122.961 222.494L122.682 222.291L122.403 222.494L122.509 222.166L122.23 221.963H122.575L122.682 221.635Z" fill="white"/>
<path d="M122.682 221.635L122.789 221.963H123.134L122.854 222.166L122.961 222.494L122.682 222.291L122.403 222.494L122.509 222.166L122.23 221.963H122.575L122.682 221.635Z" fill="white"/>
<path d="M122.682 221.635L122.789 221.963H123.134L122.854 222.166L122.961 222.494L122.682 222.291L122.403 222.494L122.509 222.166L122.23 221.963H122.575L122.682 221.635Z" fill="white"/>
<path d="M122.682 220.686L122.789 221.014H123.134L122.854 221.216L122.961 221.545L122.682 221.342L122.403 221.545L122.509 221.216L122.23 221.014H122.575L122.682 220.686Z" fill="white"/>
<path d="M122.682 220.686L122.789 221.014H123.134L122.854 221.216L122.961 221.545L122.682 221.342L122.403 221.545L122.509 221.216L122.23 221.014H122.575L122.682 220.686Z" fill="white"/>
<path d="M122.682 220.686L122.789 221.014H123.134L122.854 221.216L122.961 221.545L122.682 221.342L122.403 221.545L122.509 221.216L122.23 221.014H122.575L122.682 220.686Z" fill="white"/>
<path d="M125.533 229.611L125.64 229.939H125.985L125.706 230.142L125.813 230.47L125.533 230.268L125.254 230.47L125.361 230.142L125.082 229.939H125.427L125.533 229.611Z" fill="white"/>
<path d="M125.533 229.611L125.64 229.939H125.985L125.706 230.142L125.813 230.47L125.533 230.268L125.254 230.47L125.361 230.142L125.082 229.939H125.427L125.533 229.611Z" fill="white"/>
<path d="M125.533 229.611L125.64 229.939H125.985L125.706 230.142L125.813 230.47L125.533 230.268L125.254 230.47L125.361 230.142L125.082 229.939H125.427L125.533 229.611Z" fill="white"/>
<path d="M125.533 228.662L125.64 228.99H125.985L125.706 229.193L125.813 229.521L125.533 229.318L125.254 229.521L125.361 229.193L125.082 228.99H125.427L125.533 228.662Z" fill="white"/>
<path d="M125.533 228.662L125.64 228.99H125.985L125.706 229.193L125.813 229.521L125.533 229.318L125.254 229.521L125.361 229.193L125.082 228.99H125.427L125.533 228.662Z" fill="white"/>
<path d="M125.533 228.662L125.64 228.99H125.985L125.706 229.193L125.813 229.521L125.533 229.318L125.254 229.521L125.361 229.193L125.082 228.99H125.427L125.533 228.662Z" fill="white"/>
<path d="M125.533 227.713L125.64 228.041H125.985L125.706 228.244L125.813 228.572L125.533 228.369L125.254 228.572L125.361 228.244L125.082 228.041H125.427L125.533 227.713Z" fill="white"/>
<path d="M125.533 227.713L125.64 228.041H125.985L125.706 228.244L125.813 228.572L125.533 228.369L125.254 228.572L125.361 228.244L125.082 228.041H125.427L125.533 227.713Z" fill="white"/>
<path d="M125.533 227.713L125.64 228.041H125.985L125.706 228.244L125.813 228.572L125.533 228.369L125.254 228.572L125.361 228.244L125.082 228.041H125.427L125.533 227.713Z" fill="white"/>
<path d="M125.533 226.762L125.64 227.09H125.985L125.706 227.293L125.813 227.621L125.533 227.418L125.254 227.621L125.361 227.293L125.082 227.09H125.427L125.533 226.762Z" fill="white"/>
<path d="M125.533 226.762L125.64 227.09H125.985L125.706 227.293L125.813 227.621L125.533 227.418L125.254 227.621L125.361 227.293L125.082 227.09H125.427L125.533 226.762Z" fill="white"/>
<path d="M125.533 226.762L125.64 227.09H125.985L125.706 227.293L125.813 227.621L125.533 227.418L125.254 227.621L125.361 227.293L125.082 227.09H125.427L125.533 226.762Z" fill="white"/>
<path d="M125.533 225.812L125.64 226.141H125.985L125.706 226.343L125.813 226.672L125.533 226.469L125.254 226.672L125.361 226.343L125.082 226.141H125.427L125.533 225.812Z" fill="white"/>
<path d="M125.533 225.812L125.64 226.141H125.985L125.706 226.343L125.813 226.672L125.533 226.469L125.254 226.672L125.361 226.343L125.082 226.141H125.427L125.533 225.812Z" fill="white"/>
<path d="M125.533 225.812L125.64 226.141H125.985L125.706 226.343L125.813 226.672L125.533 226.469L125.254 226.672L125.361 226.343L125.082 226.141H125.427L125.533 225.812Z" fill="white"/>
<path d="M123.635 224.674L123.742 225.002H124.087L123.808 225.205L123.914 225.533L123.635 225.33L123.356 225.533L123.463 225.205L123.183 225.002H123.528L123.635 224.674Z" fill="white"/>
<path d="M123.635 224.674L123.742 225.002H124.087L123.808 225.205L123.914 225.533L123.635 225.33L123.356 225.533L123.463 225.205L123.183 225.002H123.528L123.635 224.674Z" fill="white"/>
<path d="M123.635 224.674L123.742 225.002H124.087L123.808 225.205L123.914 225.533L123.635 225.33L123.356 225.533L123.463 225.205L123.183 225.002H123.528L123.635 224.674Z" fill="white"/>
<path d="M123.635 223.723L123.742 224.051H124.087L123.808 224.254L123.914 224.582L123.635 224.379L123.356 224.582L123.463 224.254L123.183 224.051H123.528L123.635 223.723Z" fill="white"/>
<path d="M123.635 223.723L123.742 224.051H124.087L123.808 224.254L123.914 224.582L123.635 224.379L123.356 224.582L123.463 224.254L123.183 224.051H123.528L123.635 223.723Z" fill="white"/>
<path d="M123.635 223.723L123.742 224.051H124.087L123.808 224.254L123.914 224.582L123.635 224.379L123.356 224.582L123.463 224.254L123.183 224.051H123.528L123.635 223.723Z" fill="white"/>
<path d="M123.635 222.773L123.742 223.102H124.087L123.808 223.304L123.914 223.632L123.635 223.43L123.356 223.632L123.463 223.304L123.183 223.102H123.528L123.635 222.773Z" fill="white"/>
<path d="M123.635 222.773L123.742 223.102H124.087L123.808 223.304L123.914 223.632L123.635 223.43L123.356 223.632L123.463 223.304L123.183 223.102H123.528L123.635 222.773Z" fill="white"/>
<path d="M123.635 222.773L123.742 223.102H124.087L123.808 223.304L123.914 223.632L123.635 223.43L123.356 223.632L123.463 223.304L123.183 223.102H123.528L123.635 222.773Z" fill="white"/>
<path d="M123.635 221.822L123.742 222.15H124.087L123.808 222.353L123.914 222.681L123.635 222.479L123.356 222.681L123.463 222.353L123.183 222.15H123.528L123.635 221.822Z" fill="white"/>
<path d="M123.635 221.822L123.742 222.15H124.087L123.808 222.353L123.914 222.681L123.635 222.479L123.356 222.681L123.463 222.353L123.183 222.15H123.528L123.635 221.822Z" fill="white"/>
<path d="M123.635 221.822L123.742 222.15H124.087L123.808 222.353L123.914 222.681L123.635 222.479L123.356 222.681L123.463 222.353L123.183 222.15H123.528L123.635 221.822Z" fill="white"/>
<path d="M123.635 220.873L123.742 221.201H124.087L123.808 221.404L123.914 221.732L123.635 221.529L123.356 221.732L123.463 221.404L123.183 221.201H123.528L123.635 220.873Z" fill="white"/>
<path d="M123.635 220.873L123.742 221.201H124.087L123.808 221.404L123.914 221.732L123.635 221.529L123.356 221.732L123.463 221.404L123.183 221.201H123.528L123.635 220.873Z" fill="white"/>
<path d="M123.635 220.873L123.742 221.201H124.087L123.808 221.404L123.914 221.732L123.635 221.529L123.356 221.732L123.463 221.404L123.183 221.201H123.528L123.635 220.873Z" fill="white"/>
<path d="M125.533 224.863L125.64 225.191H125.985L125.706 225.394L125.813 225.722L125.533 225.52L125.254 225.722L125.361 225.394L125.082 225.191H125.427L125.533 224.863Z" fill="white"/>
<path d="M125.533 224.863L125.64 225.191H125.985L125.706 225.394L125.813 225.722L125.533 225.52L125.254 225.722L125.361 225.394L125.082 225.191H125.427L125.533 224.863Z" fill="white"/>
<path d="M125.533 224.863L125.64 225.191H125.985L125.706 225.394L125.813 225.722L125.533 225.52L125.254 225.722L125.361 225.394L125.082 225.191H125.427L125.533 224.863Z" fill="white"/>
<path d="M125.533 223.914L125.64 224.242H125.985L125.706 224.445L125.813 224.773L125.533 224.57L125.254 224.773L125.361 224.445L125.082 224.242H125.427L125.533 223.914Z" fill="white"/>
<path d="M125.533 223.914L125.64 224.242H125.985L125.706 224.445L125.813 224.773L125.533 224.57L125.254 224.773L125.361 224.445L125.082 224.242H125.427L125.533 223.914Z" fill="white"/>
<path d="M125.533 223.914L125.64 224.242H125.985L125.706 224.445L125.813 224.773L125.533 224.57L125.254 224.773L125.361 224.445L125.082 224.242H125.427L125.533 223.914Z" fill="white"/>
<path d="M125.533 222.965L125.64 223.293H125.985L125.706 223.496L125.813 223.824L125.533 223.621L125.254 223.824L125.361 223.496L125.082 223.293H125.427L125.533 222.965Z" fill="white"/>
<path d="M125.533 222.965L125.64 223.293H125.985L125.706 223.496L125.813 223.824L125.533 223.621L125.254 223.824L125.361 223.496L125.082 223.293H125.427L125.533 222.965Z" fill="white"/>
<path d="M125.533 222.965L125.64 223.293H125.985L125.706 223.496L125.813 223.824L125.533 223.621L125.254 223.824L125.361 223.496L125.082 223.293H125.427L125.533 222.965Z" fill="white"/>
<path d="M125.533 222.014L125.64 222.342H125.985L125.706 222.545L125.813 222.873L125.533 222.67L125.254 222.873L125.361 222.545L125.082 222.342H125.427L125.533 222.014Z" fill="white"/>
<path d="M125.533 222.014L125.64 222.342H125.985L125.706 222.545L125.813 222.873L125.533 222.67L125.254 222.873L125.361 222.545L125.082 222.342H125.427L125.533 222.014Z" fill="white"/>
<path d="M125.533 222.014L125.64 222.342H125.985L125.706 222.545L125.813 222.873L125.533 222.67L125.254 222.873L125.361 222.545L125.082 222.342H125.427L125.533 222.014Z" fill="white"/>
<path d="M125.533 221.064L125.64 221.393H125.985L125.706 221.595L125.813 221.924L125.533 221.721L125.254 221.924L125.361 221.595L125.082 221.393H125.427L125.533 221.064Z" fill="white"/>
<path d="M125.533 221.064L125.64 221.393H125.985L125.706 221.595L125.813 221.924L125.533 221.721L125.254 221.924L125.361 221.595L125.082 221.393H125.427L125.533 221.064Z" fill="white"/>
<path d="M125.533 221.064L125.64 221.393H125.985L125.706 221.595L125.813 221.924L125.533 221.721L125.254 221.924L125.361 221.595L125.082 221.393H125.427L125.533 221.064Z" fill="white"/>
<path d="M124.58 224.104L124.687 224.432H125.032L124.753 224.634L124.859 224.963L124.58 224.76L124.301 224.963L124.408 224.634L124.129 224.432H124.474L124.58 224.104Z" fill="white"/>
<path d="M124.58 224.104L124.687 224.432H125.032L124.753 224.634L124.859 224.963L124.58 224.76L124.301 224.963L124.408 224.634L124.129 224.432H124.474L124.58 224.104Z" fill="white"/>
<path d="M124.58 224.104L124.687 224.432H125.032L124.753 224.634L124.859 224.963L124.58 224.76L124.301 224.963L124.408 224.634L124.129 224.432H124.474L124.58 224.104Z" fill="white"/>
<path d="M124.58 223.156L124.687 223.484H125.032L124.753 223.687L124.859 224.015L124.58 223.813L124.301 224.015L124.408 223.687L124.129 223.484H124.474L124.58 223.156Z" fill="white"/>
<path d="M124.58 223.156L124.687 223.484H125.032L124.753 223.687L124.859 224.015L124.58 223.813L124.301 224.015L124.408 223.687L124.129 223.484H124.474L124.58 223.156Z" fill="white"/>
<path d="M124.58 223.156L124.687 223.484H125.032L124.753 223.687L124.859 224.015L124.58 223.813L124.301 224.015L124.408 223.687L124.129 223.484H124.474L124.58 223.156Z" fill="white"/>
<path d="M124.58 222.203L124.687 222.531H125.032L124.753 222.734L124.859 223.062L124.58 222.859L124.301 223.062L124.408 222.734L124.129 222.531H124.474L124.58 222.203Z" fill="white"/>
<path d="M124.58 222.203L124.687 222.531H125.032L124.753 222.734L124.859 223.062L124.58 222.859L124.301 223.062L124.408 222.734L124.129 222.531H124.474L124.58 222.203Z" fill="white"/>
<path d="M124.58 222.203L124.687 222.531H125.032L124.753 222.734L124.859 223.062L124.58 222.859L124.301 223.062L124.408 222.734L124.129 222.531H124.474L124.58 222.203Z" fill="white"/>
<path d="M124.58 221.256L124.687 221.584H125.032L124.753 221.787L124.859 222.115L124.58 221.912L124.301 222.115L124.408 221.787L124.129 221.584H124.474L124.58 221.256Z" fill="white"/>
<path d="M124.58 221.256L124.687 221.584H125.032L124.753 221.787L124.859 222.115L124.58 221.912L124.301 222.115L124.408 221.787L124.129 221.584H124.474L124.58 221.256Z" fill="white"/>
<path d="M124.58 221.256L124.687 221.584H125.032L124.753 221.787L124.859 222.115L124.58 221.912L124.301 222.115L124.408 221.787L124.129 221.584H124.474L124.58 221.256Z" fill="white"/>
<path d="M124.58 224.863L124.687 225.191H125.032L124.753 225.394L124.859 225.722L124.58 225.52L124.301 225.722L124.408 225.394L124.129 225.191H124.474L124.58 224.863Z" fill="white"/>
<path d="M124.58 224.863L124.687 225.191H125.032L124.753 225.394L124.859 225.722L124.58 225.52L124.301 225.722L124.408 225.394L124.129 225.191H124.474L124.58 224.863Z" fill="white"/>
<path d="M124.58 224.863L124.687 225.191H125.032L124.753 225.394L124.859 225.722L124.58 225.52L124.301 225.722L124.408 225.394L124.129 225.191H124.474L124.58 224.863Z" fill="white"/>
<path d="M121.924 228.852L122.031 229.18H122.376L122.097 229.382L122.203 229.711L121.924 229.508L121.645 229.711L121.752 229.382L121.472 229.18H121.817L121.924 228.852Z" fill="white"/>
<path d="M121.924 228.852L122.031 229.18H122.376L122.097 229.382L122.203 229.711L121.924 229.508L121.645 229.711L121.752 229.382L121.472 229.18H121.817L121.924 228.852Z" fill="white"/>
<path d="M121.924 228.852L122.031 229.18H122.376L122.097 229.382L122.203 229.711L121.924 229.508L121.645 229.711L121.752 229.382L121.472 229.18H121.817L121.924 228.852Z" fill="white"/>
<path d="M121.924 227.902L122.031 228.23H122.376L122.097 228.433L122.203 228.761L121.924 228.559L121.645 228.761L121.752 228.433L121.472 228.23H121.817L121.924 227.902Z" fill="white"/>
<path d="M121.924 227.902L122.031 228.23H122.376L122.097 228.433L122.203 228.761L121.924 228.559L121.645 228.761L121.752 228.433L121.472 228.23H121.817L121.924 227.902Z" fill="white"/>
<path d="M121.924 227.902L122.031 228.23H122.376L122.097 228.433L122.203 228.761L121.924 228.559L121.645 228.761L121.752 228.433L121.472 228.23H121.817L121.924 227.902Z" fill="white"/>
<path d="M121.924 226.953L122.031 227.281H122.376L122.097 227.484L122.203 227.812L121.924 227.609L121.645 227.812L121.752 227.484L121.472 227.281H121.817L121.924 226.953Z" fill="white"/>
<path d="M121.924 226.953L122.031 227.281H122.376L122.097 227.484L122.203 227.812L121.924 227.609L121.645 227.812L121.752 227.484L121.472 227.281H121.817L121.924 226.953Z" fill="white"/>
<path d="M121.924 226.953L122.031 227.281H122.376L122.097 227.484L122.203 227.812L121.924 227.609L121.645 227.812L121.752 227.484L121.472 227.281H121.817L121.924 226.953Z" fill="white"/>
<path d="M121.924 226.002L122.031 226.33H122.376L122.097 226.533L122.203 226.861L121.924 226.658L121.645 226.861L121.752 226.533L121.472 226.33H121.817L121.924 226.002Z" fill="white"/>
<path d="M121.924 226.002L122.031 226.33H122.376L122.097 226.533L122.203 226.861L121.924 226.658L121.645 226.861L121.752 226.533L121.472 226.33H121.817L121.924 226.002Z" fill="white"/>
<path d="M121.924 226.002L122.031 226.33H122.376L122.097 226.533L122.203 226.861L121.924 226.658L121.645 226.861L121.752 226.533L121.472 226.33H121.817L121.924 226.002Z" fill="white"/>
<path d="M121.924 225.055L122.031 225.383H122.376L122.097 225.586L122.203 225.914L121.924 225.711L121.645 225.914L121.752 225.586L121.472 225.383H121.817L121.924 225.055Z" fill="white"/>
<path d="M121.924 225.055L122.031 225.383H122.376L122.097 225.586L122.203 225.914L121.924 225.711L121.645 225.914L121.752 225.586L121.472 225.383H121.817L121.924 225.055Z" fill="white"/>
<path d="M121.924 225.055L122.031 225.383H122.376L122.097 225.586L122.203 225.914L121.924 225.711L121.645 225.914L121.752 225.586L121.472 225.383H121.817L121.924 225.055Z" fill="white"/>
<path d="M121.924 224.293L122.031 224.621H122.376L122.097 224.824L122.203 225.152L121.924 224.949L121.645 225.152L121.752 224.824L121.472 224.621H121.817L121.924 224.293Z" fill="white"/>
<path d="M121.924 224.293L122.031 224.621H122.376L122.097 224.824L122.203 225.152L121.924 224.949L121.645 225.152L121.752 224.824L121.472 224.621H121.817L121.924 224.293Z" fill="white"/>
<path d="M121.924 224.293L122.031 224.621H122.376L122.097 224.824L122.203 225.152L121.924 224.949L121.645 225.152L121.752 224.824L121.472 224.621H121.817L121.924 224.293Z" fill="white"/>
<path d="M121.924 223.344L122.031 223.672H122.376L122.097 223.875L122.203 224.203L121.924 224L121.645 224.203L121.752 223.875L121.472 223.672H121.817L121.924 223.344Z" fill="white"/>
<path d="M121.924 223.344L122.031 223.672H122.376L122.097 223.875L122.203 224.203L121.924 224L121.645 224.203L121.752 223.875L121.472 223.672H121.817L121.924 223.344Z" fill="white"/>
<path d="M121.924 223.344L122.031 223.672H122.376L122.097 223.875L122.203 224.203L121.924 224L121.645 224.203L121.752 223.875L121.472 223.672H121.817L121.924 223.344Z" fill="white"/>
<path d="M121.924 222.393L122.031 222.721H122.376L122.097 222.924L122.203 223.252L121.924 223.049L121.645 223.252L121.752 222.924L121.472 222.721H121.817L121.924 222.393Z" fill="white"/>
<path d="M121.924 222.393L122.031 222.721H122.376L122.097 222.924L122.203 223.252L121.924 223.049L121.645 223.252L121.752 222.924L121.472 222.721H121.817L121.924 222.393Z" fill="white"/>
<path d="M121.924 222.393L122.031 222.721H122.376L122.097 222.924L122.203 223.252L121.924 223.049L121.645 223.252L121.752 222.924L121.472 222.721H121.817L121.924 222.393Z" fill="white"/>
<path d="M121.924 221.443L122.031 221.771H122.376L122.097 221.974L122.203 222.302L121.924 222.1L121.645 222.302L121.752 221.974L121.472 221.771H121.817L121.924 221.443Z" fill="white"/>
<path d="M121.924 221.443L122.031 221.771H122.376L122.097 221.974L122.203 222.302L121.924 222.1L121.645 222.302L121.752 221.974L121.472 221.771H121.817L121.924 221.443Z" fill="white"/>
<path d="M121.924 221.443L122.031 221.771H122.376L122.097 221.974L122.203 222.302L121.924 222.1L121.645 222.302L121.752 221.974L121.472 221.771H121.817L121.924 221.443Z" fill="white"/>
<path d="M121.924 220.494L122.031 220.822H122.376L122.097 221.025L122.203 221.353L121.924 221.15L121.645 221.353L121.752 221.025L121.472 220.822H121.817L121.924 220.494Z" fill="white"/>
<path d="M121.924 220.494L122.031 220.822H122.376L122.097 221.025L122.203 221.353L121.924 221.15L121.645 221.353L121.752 221.025L121.472 220.822H121.817L121.924 220.494Z" fill="white"/>
<path d="M121.924 220.494L122.031 220.822H122.376L122.097 221.025L122.203 221.353L121.924 221.15L121.645 221.353L121.752 221.025L121.472 220.822H121.817L121.924 220.494Z" fill="white"/>
<path d="M166.562 231.368C169.458 232.287 174.189 235.044 174.505 235.674C180.193 235.674 178.938 233.807 177.885 232.493M166.562 231.368C160.769 228.609 166.228 229.952 157.54 228.375L164.412 230.655M166.562 231.368C167.454 231.528 168.222 232.073 168.842 232.827M166.562 231.368L164.412 230.655M130.414 227.71C130.569 227.779 130.747 227.846 130.947 227.911L131.4 229.115M131.853 230.319C132.248 229.53 123.953 238.2 120.794 228.742V226.378M131.853 230.319C129.082 229.627 129.652 215.896 133.833 208.81M131.853 230.319L131.4 229.115M120.794 226.378C113.816 226.772 81.6157 222.595 70.2415 221.649C64.3173 219.733 63.2905 218.023 60.7629 214.555M120.794 226.378C120.794 217.235 123.953 208.644 125.533 205.491M60.7629 214.555L63.5146 218.028C62.5869 217.719 58.1745 219.281 56.8663 218.68M60.7629 214.555C57.6035 206.279 76.5605 193.275 76.1655 193.669M50.8894 214.161C50.1514 212.197 47.7277 208.245 46.0047 199.925C45.55 197.729 45.1441 195.228 44.8308 192.38M50.8894 214.161C50.8678 211.054 51.4236 205.546 53.3406 200.928M50.8894 214.161C51.5192 215.837 54.2761 217.489 56.8663 218.68M45.3603 137.314C41.0159 151.107 46.0047 161.353 46.0047 184.605C46.0047 189.55 44.4256 188.695 44.8308 192.38M45.3603 137.314C40.0497 122.258 45.3603 112.571 45.3603 112.571C48.9775 105.393 56.6817 97.6428 58.7882 93.1765M45.3603 137.314C45.7552 135.212 46.624 130.615 46.94 129.038M58.7882 93.1765C58.6565 89.2356 59.578 81.9056 64.3173 84.1125M58.7882 93.1765C59.5184 94.903 60.2676 97.5401 60.3747 100.27M64.3173 84.1125C64.1857 79.3835 66.608 69.8466 77.3503 69.5313M64.3173 84.1125C59.3296 91.2012 64.7123 94.7529 64.3173 102.241C64.1353 105.691 60.2404 107.635 55.9105 109.692M77.3503 69.5313C77.8769 66.2472 80.9838 58.4181 89.1985 53.3738M77.3503 69.5313C73.8996 70.7785 67.8204 82.1682 68.3523 87.6872C68.3523 90.0518 69.7769 98.4735 67.9724 101.933C67.2056 103.403 64.8154 105.096 62.2302 106.576M89.1985 53.3738C86.4339 48.1193 86.9078 34.0635 110.92 19.8764M89.1985 53.3738C87.9343 54.715 77.7805 67.7367 82.6995 74.2604C84.6025 76.3992 86.6709 81.5719 79.72 85.1532C72.769 88.7345 72.9262 92.5198 73.8737 93.9648M89.1985 53.3738C90.3245 59.4893 77.3503 64.0142 84.2191 72.6841C91.0878 81.354 78.5206 88.7204 77.3503 88.7204C76.4141 88.7204 74.6425 92.2166 73.8737 93.9648M110.92 19.8764C103.021 37.0489 117.371 40.3632 125.533 39.8739M110.92 19.8764C111.968 19.2571 113.164 18.6551 114.475 18.0972M153.179 24.2114C158.971 27.3641 170.556 35.8764 170.556 44.7039M153.179 24.2114C150.809 19.8764 145.442 18.3319 140.936 17.1149M153.179 24.2114C131.497 16.6551 125.792 29.9872 125.533 38.6345M170.556 44.7039C171.609 49.5643 175.295 59.6792 181.614 61.2556C181.746 63.3574 181.772 68.5856 180.824 72.6841C181.878 73.735 183.905 75.0486 183.589 71.8959C183.233 68.3433 188.975 77.2806 183.745 86.8712M170.556 44.7039C170.556 49.4709 171.662 60.0855 176.085 64.4083C178.225 66.4995 177.88 69.4203 177.039 72.6841M181.614 90.0239C184.379 93.1766 188.249 100.901 181.614 106.576M181.614 90.0239C179.403 89.0781 176.322 85.4127 175.059 83.6983M181.614 90.0239C182.47 88.9755 183.173 87.9194 183.745 86.8712M181.614 106.576C185.169 112.093 190.698 127.147 184.379 143.226C178.06 159.304 176.48 172.257 176.48 176.723C176.159 182.6 174.166 193.883 168.842 199.925C167.621 201.311 166.225 206.03 164.633 206.736M181.614 106.576C179.771 105.131 175.927 102.241 175.295 102.241M181.614 106.576C182.353 103.36 182.503 95.3117 177.193 88.8416C175.862 87.2194 175.243 85.4824 175.059 83.6983M177.095 225.371C179.86 224.977 179.245 222.423 178.85 222.029C178.749 221.928 178.202 221.229 177.475 220.786C176.285 220.06 174.8 218.622 173.803 217.643C173.501 217.347 173.071 217.438 172.926 217.168C172.426 216.739 171.885 216.356 171.311 216.008C171 215.82 170.68 215.643 170.352 215.474M177.095 225.371C179.728 227.999 183.572 232.493 177.885 232.493M177.095 225.371C174.719 223.185 173.794 221.386 165.992 218.954M177.885 232.493C176.451 231.46 174.614 229.995 172.478 228.552M135.801 206.279C134.748 203.915 131.22 200.447 125.533 205.491M135.801 206.279C135.074 206.957 134.418 207.819 133.833 208.81M135.801 206.279L135.126 208.749M125.533 205.491C121.32 204.834 90.3043 196.821 80.5098 196.821C78.9301 195.902 75.8496 193.984 76.1655 193.669M76.1655 193.669C76.7603 189.184 77.574 181.536 78.0771 173.195M78.1402 148.743C78.6601 154.708 78.6186 161.856 78.3072 168.826M78.1402 148.743C78.4035 146.904 79.8479 144.365 80.4798 144.365C81.1117 144.365 78.9301 146.904 78.1402 148.743ZM78.1402 148.743L74.7216 144.365M78.1402 148.743C81.2111 157.037 79.3402 164.381 80.4798 173.195M175.295 102.241C174.663 102.241 175.559 100.927 176.085 100.27C176.217 99.6133 176.243 94.9106 175.295 93.9648C174.347 93.0189 170.951 88.3162 169.371 86.083M175.295 102.241C166.212 106.181 147.255 124.309 146.07 126.28C145.122 127.856 147.255 137.446 148.439 142.043C148.776 144.391 149.626 148.322 151.126 153.06M169.371 86.083C168.055 85.5576 165.343 84.8219 165.027 86.083M169.371 86.083C168.772 83.7614 169.305 80.3301 169.784 76.2309M165.027 86.083C163.974 86.5276 162.183 87.6776 163.447 88.7204M165.027 86.083C165.002 86.183 165.004 86.229 165.027 86.226C165.306 86.1891 166.541 77.1218 163.648 71.8959M161.867 62.0437L161.078 69.1373C162.171 69.7781 163.01 70.7436 163.648 71.8959M161.867 62.0437C159.34 60.4674 154.232 64.0586 151.994 65.7663M161.867 62.0437L160.288 59.5666M115.659 58.1029L117.634 62.8319M115.659 58.1029C97.4922 76.3319 108.153 80.4691 104.164 87.6872C100.973 93.4616 107.338 101.897 110.92 105.393M115.659 58.1029C112.912 59.3346 108.952 61.4729 105.662 64.0142M115.659 58.1029C116.042 56.0654 116.318 51.6071 116.817 50.1075L116.305 51.817M117.634 62.8319C115.659 64.1455 111.868 67.8762 112.5 72.29C113.132 76.7038 114.08 75.4427 114.475 74.2604C113.816 76.2309 112.026 79.3836 110.13 76.2309M117.634 62.8319C108.156 65.4442 108.682 72.853 110.13 76.2309M110.13 76.2309C108.527 73.5651 109.997 81.1779 111.849 86.8712M139.356 110.516C150.414 110.91 146.465 106.97 155.153 103.029M139.356 110.516C137.509 110.451 135.651 109.945 133.827 109.141M139.356 110.516L133.037 113.71M155.153 103.029C162.104 99.876 163.085 99.0639 162.953 99.5894C161.9 99.1953 160.446 99.2455 161.078 98.2997C161.512 97.6497 160.394 98.5483 159.103 99.0962M155.153 103.029C156.602 101.983 159.419 99.7334 159.103 99.0962M175.295 94.7529L167.792 88.0535L163.447 88.7204M133.827 109.141C124.725 105.132 116.449 93.7015 114.475 92.3884C113.708 91.8784 112.735 89.5944 111.849 86.8712M133.827 109.141C132.247 110.782 129.166 114.772 129.482 117.61C129.606 118.719 129.572 120.668 129.462 122.858M142.059 208.81C140.742 209.549 135.801 201.944 132.642 184.605C129.482 167.265 128.692 142.7 128.692 132.585C128.933 130.265 129.291 126.269 129.462 122.858M142.059 208.81C144.789 208.146 146.362 208.409 149.752 208.431M142.059 208.81C141.338 209.112 137.84 208.552 135.126 208.749M149.752 208.431C156.861 204.338 169.292 187.679 161.078 174.752C156.358 167.326 153.151 159.458 151.126 153.06M149.752 208.431C151.322 208.441 154.211 208.14 155.735 208.241M151.204 64.0142L151.994 65.7663M151.994 65.7663C148.966 67.8681 145.201 74.4181 154.364 86.083C154.495 87.3966 153.258 89.9451 147.255 89.6298C147.255 88.3687 145.632 88.8132 145.105 88.8133C144.264 89.4438 144.433 89.0599 144.053 89.454M150.809 64.0142C153.442 62.1 159.024 58.5307 160.288 59.5666M160.288 59.5666L156.338 53.3738C156.285 52.2658 156.056 50.9415 155.591 49.5376M135.011 68.7432C132.247 68.7432 126.481 69.689 125.533 73.4723C126.03 72.8521 126.706 72.1557 127.508 71.5201M137.381 71.8959L139.356 73.4723H137.381M137.381 71.8959C134.471 68.5766 131.172 69.1706 128.657 70.7137M137.381 71.8959C137.908 72.4214 138.645 73.4723 137.381 73.4723M137.381 73.4723H135.801C134.877 73.7605 133.471 74.0386 132.051 74.0202M127.508 71.8959V71.5201M127.508 71.8959C127.799 72.4195 128.194 72.8258 128.657 73.1363M127.508 71.8959H124.773L128.657 70.7137M127.508 71.5201C127.867 71.2349 128.252 70.962 128.657 70.7137M133.037 69.9255C133.433 71.0789 133.789 73.5127 132.051 74.0202M132.051 74.0202C130.831 74.0044 129.602 73.7701 128.657 73.1363M128.657 70.7137C128.539 71.4505 128.374 72.9667 128.657 73.1363M158.708 65.7663C157.659 65.4522 156.667 65.5061 155.778 65.7663M158.708 65.7663C159.516 66.0081 160.014 66.2522 160.288 66.4925M158.708 65.7663C159.381 65.8438 159.903 65.7663 160.288 65.6328M155.778 65.7663C156.883 66.1604 158.66 67.0092 156.926 69.5314M155.778 65.7663C154.471 66.1486 153.382 66.9763 152.651 67.7367M156.926 69.5314C158.311 69.1779 158.943 68.6672 159.103 68.3491C159.985 67.8602 161.085 67.1922 160.288 66.4925M156.926 69.5314C156.257 69.7019 155.414 69.8359 154.364 69.894M152.651 67.7367C152.381 68.0172 152.16 68.2885 151.994 68.5249L151.599 69.8163M152.651 67.7367C152.695 68.3725 153.1 69.2383 154.364 69.894M154.364 69.894C153.995 69.9144 153.6 69.9255 153.179 69.9255L152.191 70.5166M133.827 95.5411C135.012 96.0665 138.092 96.8022 140.936 95.5411C142.647 95.0156 146.386 94.1224 147.65 94.7529C149.098 94.2275 152.231 93.3342 153.179 93.9648C153.947 94.476 155.372 93.1217 156.338 91.9608M133.827 95.5411C148.36 106.26 155.282 97.1174 156.926 91.2061C156.764 91.4298 156.564 91.69 156.338 91.9608M133.827 95.5411C136.891 97.4327 141.541 97.3802 143.483 97.1174C144.488 96.9861 146.728 96.8022 147.65 97.1174C148.802 97.5115 148.967 96.1703 150.809 96.3602C152.282 96.5122 155.109 93.4906 156.338 91.9608M46.94 129.038C47.2559 127.462 51.8109 126.28 54.0489 125.886C50.6261 127.068 45.4392 126.989 52.0742 117.216C53.1274 114.983 56.3395 111.383 60.7629 114.851C65.3705 114.589 73.8749 113.275 71.0313 110.122M46.94 129.038C45.7297 126.868 44.9683 122.481 47.8215 117.61M71.0313 110.122C76.2972 111.961 82.4056 117.058 64.7123 122.733C63.9224 123.521 62.7375 125.255 64.3173 125.886C64.1857 125.098 64.4753 123.6 66.687 123.915C68.8986 124.231 76.2972 121.419 79.72 119.974C80.7731 118.924 82.4055 116.428 80.5098 114.851M71.0313 110.122C68.4334 107.607 66.3476 101.474 73.8737 93.9648M80.5098 114.851C78.6141 113.275 90.3833 102.635 101.837 103.817L108.438 104.962M80.5098 114.851C77.987 111.305 74.2971 103.817 79.72 102.241C86.4985 100.27 95.4475 97.4608 91.2579 89.6298C87.0683 81.7988 101.511 80.9599 99.795 73.4723C99.0659 70.2904 101.934 66.8936 105.662 64.0142M80.5098 114.851C78.4538 111.83 76.3172 105.078 84.2191 102.241C94.0965 98.6938 95.271 93.5707 94.6838 91.2061C94.0965 88.8416 97.7533 83.0718 99.795 84.1125M110.92 105.393C116.031 111.042 127.609 122.094 129.533 121.149L129.462 122.858M110.92 105.393L108.438 104.962M110.92 105.393C115.11 102.395 113.285 91.7958 111.849 86.8712M110.92 105.393C115.11 98.7396 110.061 92.3747 107.013 90.0239M55.9105 109.692C57.5137 109.02 59.9479 107.881 62.2302 106.576M55.9105 109.692C59.5364 107.646 60.5161 103.877 60.3747 100.27M55.9105 109.692C51.876 112.295 49.3381 115.021 47.8215 117.61M97.2246 58.7198C99.0291 57.5168 92.8966 52.0306 98.0794 43.5239C101.622 37.7097 107.755 37.6703 113.471 38.5757M97.2246 58.7198C96.1964 53.1755 100.419 41.6442 125.533 39.8739M97.2246 58.7198C96.2282 59.6064 95.389 60.4497 94.6838 61.2556M129.308 38.352C129.615 38.3306 134.694 37.6226 135.011 37.6104C136.563 37.5509 138.009 37.5939 139.356 37.7253M129.308 38.352C131.588 35.1487 144.554 31.2025 159.103 43.8088C171.65 54.6807 170.851 67.1095 169.784 76.2309M129.308 38.352C130.111 35.2996 133.031 28.3392 137.381 27.8834M129.308 38.352C128.744 38.352 127.564 40.061 126.958 40.8949M129.308 38.352C134.666 38.388 145.858 39.4726 147.757 43.5239C150.132 48.5879 154.843 44.8839 155.591 49.5376M163.447 88.7204L162.657 88.8416C161.999 89.1044 159.103 90.3845 159.103 91.9608C159.103 93.5384 162.262 93.3079 164.237 93.5707C165.422 93.1766 167.555 92.6249 166.607 93.5707C165.422 94.7529 172.071 97.9056 172.071 97.1174C172.071 96.4869 169.288 97.7743 168.367 98.2997C168.762 95.9352 165.027 94.7529 162.657 93.5707C160.762 92.6249 158.708 94.4902 157.918 95.5411C157.421 95.6827 156.726 96.0381 156.338 96.632C156.007 97.1397 155.901 97.8219 156.338 98.6938C156.872 99.7583 158.045 99.5448 159.103 99.0962M125.533 39.8739C121.715 37.4498 115.422 31.1581 120.794 25.3837C125.359 20.475 133.483 18.1897 138.566 17.3996M125.533 39.8739C123.194 40.8954 118.493 39.371 113.471 38.5757M125.533 39.8739C122.489 39.0779 118.666 37.5356 115.659 35.2528M125.533 39.8739C125.521 39.4741 125.52 39.06 125.533 38.6345M125.533 39.8739C125.881 40.1826 126.654 40.8189 126.958 40.8949M125.533 39.8739C125 40.1437 124.494 40.4333 124.014 40.7403M159.249 223.627C164.189 223.627 168.781 226.055 172.478 228.552M161.339 217.643C161.837 217.772 162.317 217.898 162.778 218.023M159.249 210.805C160.962 210.422 161.858 211.19 163.683 211.773C165.684 212.412 168.608 214.578 170.352 215.474M140.936 17.1149C132.025 13.3531 121.56 15.0819 114.475 18.0972M140.936 17.1149C140.264 17.1674 139.463 17.2602 138.566 17.3996M175.059 83.6983C174.805 81.2395 175.378 78.6913 176.053 76.2309M164.237 103.817L167.792 101.933M142.819 85.1532C142.755 85.9979 142.8 87.6872 143.483 87.6872M78.3072 168.826L68.6432 178.513M78.3072 168.826C78.2416 170.294 78.164 171.755 78.0771 173.195M68.6432 178.513L60.368 181.838C61.9867 184.402 63.7805 190.537 58.006 194.564C55.9274 196.014 54.4188 198.33 53.3406 200.928M68.6432 178.513L64.3173 183.262C65.6338 184.646 67.4768 188.664 64.3173 193.669C61.1578 198.673 55.6831 200.593 53.3406 200.928M152.389 144.323L151.126 153.06M78.1402 186.681C78.4252 188.3 79.66 191.964 82.3196 193.669M44.8308 192.38C45.1766 193.072 48.0573 192.486 52.0742 184.605M56.8663 218.68C56.7171 214.825 57.2085 206.398 60.368 203.521C64.3173 199.925 65.3387 196.821 68.6432 196.821C71.2868 196.821 73.797 193.1 74.7216 191.24M44.9102 150.529C47.9811 158.823 46.9891 175.791 48.1286 184.605M160.288 66.4925L161.078 65.1135C160.974 65.2644 160.717 65.4836 160.288 65.6328M129.462 122.858C124.02 121.719 113.178 110.453 108.438 104.962M164.633 176.723C168.187 182.109 171.82 198.539 157.918 206.736M165.217 189.531C165.317 192.104 164.397 203.351 155.735 208.241M155.735 208.241C157.969 208.79 161.422 208.412 163.623 210.132C165.113 210.293 168.954 212.608 170.162 213.292C171.369 213.976 170.352 214.551 170.352 215.474M71.0313 74.2604C69.5832 75.1439 66.687 78.7739 66.687 86.226C66.687 95.5411 70.4115 106.576 62.2302 106.576M60.3747 100.27C60.6357 101.225 59.736 104.077 54.0489 107.852C48.3618 111.627 47.5277 115.93 47.8215 117.61M113.471 38.5757C107.653 35.7511 97.904 33.9665 94.0965 44.7039C93.4633 46.6916 92.5769 52.2775 94.0965 58.7198L94.6838 61.2556M94.6838 61.2556C88.3081 68.5412 92.8826 72.7663 91.2579 78.1897C90.4247 80.971 87.961 84.0675 81.5538 88.0535C78.2842 90.0875 75.7729 92.0699 73.8737 93.9648M114.475 18.0972C108 25.7858 110.734 31.513 115.659 35.2528M117.634 21.615C115.265 23.0106 111.552 27.6919 115.659 35.2528M125.533 38.6345C123.36 34.6922 120.319 26.2884 125.533 24.2114C132.051 21.615 133.079 17.6843 138.566 17.3996M139.356 37.7253C144.753 37.8503 156.654 40.6917 161.078 51.0572C166.607 64.0142 161.78 63.4823 163.648 71.8959M139.356 37.7253C149.411 38.7063 153.957 44.6117 155.591 49.5376M149.372 33.202C151.562 31.9753 157.128 31.1627 161.867 37.7253C167.792 45.9286 169.694 48.0279 169.371 53.3738C169.048 58.7198 174.065 65.9421 174.065 67.7367C174.065 69.5313 174.094 73.102 169.784 76.2309M176.053 76.2309C176.335 80.8353 178.268 89.4096 183.745 86.8712M176.053 76.2309C176.386 75.0203 176.743 73.831 177.039 72.6841M183.589 76.2309C182.397 77.9386 179.417 79.62 177.039 72.6841M78.0771 173.195C76.7482 175.735 73.4784 180.66 71.0313 180.033C67.9724 179.25 67.9724 182.528 67.9724 184.605M126.958 40.8949C127.262 40.9709 125.122 40.8235 124.014 40.7403M124.014 40.7403C119.596 43.5611 117.316 47.8507 116.305 51.817M116.305 51.817C112.845 53.9123 105.873 59.2851 105.662 64.0142M151.599 69.8163L151.204 71.1077L152.191 70.5166M151.599 69.8163L152.191 70.5166M155.153 65.1135L160.288 65.6328M170.352 217.168C170.192 217.168 170.285 217.738 170.352 218.023L169.696 218.688M170.732 225.561C170.912 225.512 170.654 224.639 171.786 223.437M133.833 208.81C134.28 208.8 134.711 208.779 135.126 208.749M168.177 230.655C168.149 229.886 169.155 228.694 169.222 228.552M67.9724 216.313C68.6392 216.668 69.7069 217.507 68.6432 218.028M156.926 96.3602L157.918 95.8854M160.579 90.5668L161.078 90.0239M164.237 86.8628L165.027 86.4829M162.778 218.023L165.027 218.213L165.992 218.954M162.778 218.023C163.964 218.344 165.031 218.654 165.992 218.954M168.842 232.827C169.413 233.52 169.859 234.388 170.162 235.294C170.794 237.186 170.483 236.198 170.162 237.089C168.714 237.746 166.291 236.834 165.027 236.519C163.763 236.204 158.544 234.068 154.858 232.754C150.398 231.28 151.558 230.347 140.541 228.742M168.842 232.827C169.087 233.017 168.543 232.85 164.412 230.655M140.541 228.742C135.84 228.353 127.431 227.883 131.4 229.115M140.541 228.742L139.115 227.71M172.478 228.552L174.505 229.115M139.356 65.9846C135.582 65.7219 126.586 66.2999 120.794 70.7137C122.505 68.0864 128.456 63.1472 138.566 64.4083L139.356 65.9846ZM145.675 64.4083C145.148 65.0651 144.49 66.4575 146.07 66.7728C147.65 67.0881 146.465 65.3278 145.675 64.4083ZM178.345 228.185C177.888 228.28 177.134 228.793 177.766 230.085C178.397 231.376 179.391 231.763 179.859 231.699C180.239 231.351 180.96 230.237 180.809 230.085C180.619 229.895 179.674 228.375 178.345 228.185ZM175.775 232.317C175.015 232.618 174.619 232.782 174.695 233.694C174.771 234.606 176.755 235.172 177.704 235.294L178.455 233.694C178.141 233.343 176.535 232.317 175.775 232.317ZM167.227 234.549C166.657 234.905 165.783 235.821 166.847 236.638C167.911 237.455 168.747 237.295 169.032 237.113C169.665 236.733 170.19 235.688 167.227 234.549ZM177.766 224.196C178.032 224.018 178.543 223.426 178.455 222.487C178.367 221.548 177.011 220.962 176.345 220.786C176.155 220.973 175.775 221.575 175.775 222.487C175.775 223.399 177.102 224.006 177.766 224.196Z" stroke="black" stroke-width="1.5"/>
<path d="M157.918 212.807C158.487 212.586 159.72 212.275 160.101 212.807" stroke="black" stroke-width="1.5"/>
<path d="M158.301 218.126C158.87 217.904 159.723 217.594 160.104 218.126" stroke="black" stroke-width="1.5"/>
<path d="M156.02 228.384C156.588 228.162 157.821 227.852 158.202 228.384" stroke="black" stroke-width="1.5"/>
<path d="M155.123 67.2207C155.319 67.3488 153.795 68.978 155.123 67.2207ZM155.123 67.2207C155.616 69.3153 153.068 67.2207 155.123 67.2207Z" stroke="black" stroke-width="2"/>
<path d="M131.002 71.3438C131.198 71.4536 129.674 72.85 131.002 71.3438ZM131.002 71.3438C131.495 73.1392 128.947 71.3438 131.002 71.3438Z" stroke="black" stroke-width="2"/>
</svg>
