<svg width="240" height="240" viewBox="0 0 240 240" fill="none" xmlns="http://www.w3.org/2000/svg">
<path d="M108.627 16.4118C118.901 12.4838 130.054 10.332 141.708 10.332C192.884 10.332 234.37 51.8181 234.37 102.994C234.37 134.498 218.648 162.33 194.622 179.071M50.0231 89.4944C49.3799 93.9011 49.0469 98.4085 49.0469 102.994C49.0469 104.334 49.0753 105.667 49.1316 106.993" stroke="#DE2010" stroke-width="2"/>
<path d="M92.6293 12.5813C105.01 6.44768 118.958 3 133.71 3C184.886 3 226.372 44.486 226.372 95.6616C226.372 123.677 213.939 148.788 194.29 165.779M43.6355 73.8295C41.9447 80.8304 41.0488 88.1414 41.0488 95.6616C41.0488 100.305 41.3903 104.868 42.0495 109.328" stroke="#097B0D" stroke-width="2"/>
<path d="M100.134 77.1632C100.001 75.6299 101.412 74.1356 102.134 73.5801L103.675 73.0801L105.259 74.0384L106.717 74.5383L107.8 75.7466L107.925 76.7882L107.009 78.4964L106.05 79.3297L105.009 80.788L104.05 81.413C103.8 81.4546 103.275 81.5963 103.175 81.8296C103.075 82.0629 101.995 81.7324 101.467 81.538V80.288L100.634 80.038C100.523 79.7186 100.267 78.6964 100.134 77.1632Z" fill="#DE2010"/>
<path d="M104.842 82.0379L105.925 80.288L107.342 79.4547L108.425 80.038L109.425 80.163C109.661 80.9408 110.158 82.6712 110.258 83.3712C110.383 84.2461 109.342 86.371 109.3 87.121C109.267 87.7209 107.758 88.4265 107.009 88.7042L106.3 88.2459L105.425 87.121L104.634 85.9544L103.675 85.0794V83.7045L104.842 82.0379Z" fill="#DE2010"/>
<path d="M101.092 81.8296L99.3839 82.7046C98.384 83.9378 100.106 86.7182 101.092 87.9543L102.05 88.0793L103.092 87.4126C103.286 86.9821 103.675 86.0877 103.675 85.9544C103.675 85.8211 103.536 84.6767 103.467 84.1211L102.884 83.0379L102.342 82.2046L101.092 81.8296Z" fill="#DE2010"/>
<path d="M105.132 84.1219L106.09 82.2053L106.632 81.247H108.381L109.131 81.997L110.006 82.497L110.256 85.3301L108.923 87.5384H108.131L107.215 86.8301L105.923 85.9134L105.132 84.1219Z" fill="#097B0D"/>
<path d="M105.923 77.1639L106.423 75.9557L104.923 74.789L103.798 74.5391L102.298 74.914L101.215 76.2473V78.2472L101.715 79.4971L103.09 80.2054H104.465L105.923 78.9555V77.1639Z" fill="#097B0D"/>
<path d="M100.757 82.497L99.4653 83.2886C98.832 84.3219 100.201 86.2468 100.965 87.08L102.632 86.9134L102.673 85.0802L101.923 83.7469L101.09 83.5802L100.757 82.497Z" fill="#097B0D"/>
<path d="M108.425 83.9944L108.216 82.5778L107.883 82.4528L107.008 83.4944L107.966 84.7443L108.425 83.9944Z" fill="white"/>
<path d="M103.383 77.9531C103.383 77.8197 103.55 76.9809 103.633 76.5781H104.3L104.508 77.2448C104.133 77.5364 103.383 78.0864 103.383 77.9531Z" fill="white"/>
<path d="M101.217 85.7443L100.467 85.0777C100.467 84.6777 101.383 84.911 101.842 85.0777L101.217 85.7443Z" fill="white"/>
<path d="M37.3853 179.742L46.9681 188.075C46.9681 188.742 50.6902 191.686 52.5512 193.075C53.7178 194.547 55.351 196.925 52.5512 194.658C49.7513 192.392 37.6631 190.381 31.969 189.658L30.8024 190.325C27.8692 192.525 29.9135 195.186 31.3023 196.241L40.8851 201.908L34.4688 200.158L31.3023 200.741L7.8036 181.492C4.53711 178.159 6.44256 175.27 7.8036 174.243C11.0256 173.27 18.3364 171.093 21.8028 170.16C25.2693 169.226 28.3025 170.548 29.3858 171.326L37.3853 179.742Z" fill="#00B4A6"/>
<path d="M49.718 184.492H50.9679C50.0013 183.325 51.3707 174.173 52.1762 169.743C53.2178 166.937 55.5927 160.552 56.7593 157.452C57.9259 154.352 58.0509 152.521 57.9676 151.994V151.077V149.744L59.5091 149.119L62.3423 134.245L61.759 133.536L63.3006 130.453C68.567 126.82 75.1055 116.301 77.7165 111.496C78.6053 109.26 80.458 104.771 80.758 104.705C81.058 104.638 90.438 92.122 95.0905 85.8723C97.3012 83.8724 98.1782 79.8726 98.3404 78.1227L97.8404 74.9562L100.507 67.79C102.04 66.69 102.812 63.5819 103.007 62.1653L103.84 61.9153L104.798 60.3321C105.465 59.4988 106.815 57.6072 106.882 56.7072C106.965 55.5823 106.298 55.1241 104.548 54.5408C103.148 54.0741 102.021 55.9296 101.632 56.9156C101.646 57.4295 101.765 58.4905 102.132 58.6239C102.498 58.7572 102.729 59.8182 102.798 60.3321L102.132 62.1653L100.09 66.5818L97.2154 76.2896C97.2154 76.9979 97.2821 78.4811 97.5487 78.7478C97.8154 79.0144 97.4376 79.831 97.2154 80.206L94.6739 85.1641L88.0909 94.1636L82.6329 101.455L78.2998 106.746C78.2664 109.079 72.1196 118.607 69.0503 123.079C67.0365 125.065 62.9839 129.162 62.884 129.662C62.784 130.162 61.9534 130.12 61.5507 130.037C61.1618 127.342 60.3424 121.679 60.1758 120.579C59.9674 119.204 60.2591 117.704 60.3841 116.412C60.4841 115.379 59.8425 110.788 59.5091 108.621C58.9536 107.038 57.6759 103.638 57.0093 102.705C56.176 101.538 54.9677 98.705 54.8427 97.8717C54.7427 97.2051 55.0788 92.7887 55.2594 90.6638C55.2177 89.0389 55.1177 85.5807 55.051 84.7474C54.9844 83.9142 53.5511 81.5948 52.8428 80.5393C52.8151 80.9838 52.8678 82.2226 53.3011 83.6225C53.7345 85.0224 53.8983 88.65 53.9261 90.2888L53.6761 99.1633L55.4677 104.163C58.6342 107.663 58.8008 114.246 58.5925 115.746C58.4259 116.946 59.273 124.606 59.7175 128.287L60.3424 131.745C60.3424 132.162 60.2174 133.195 59.7175 133.995C59.2175 134.795 57.5092 141.967 56.7176 145.452L56.0927 149.327H56.7176V150.161C56.3982 150.924 55.7677 152.602 55.801 153.202C55.8343 153.802 55.1205 157.48 54.7594 159.243L53.1345 163.785L50.9679 169.743C49.7013 176.209 49.6069 182.27 49.718 184.492Z" fill="#00B4A6"/>
<path d="M70.9417 113.865C69.4974 111.642 66.8086 106.698 67.6086 104.698L67.3308 103.532M65.2753 96.8655C66.7752 96.8655 57.2758 92.0324 53.276 80.533M65.2753 96.8655C66.7197 98.8654 71.3418 102.532 78.2746 101.199M65.2753 96.8655C64.2593 96.8655 65.3224 98.9368 66.2792 100.448M53.276 80.533C57.9426 88.8243 52.6925 95.9487 56.0257 101.199C56.5033 101.951 56.9399 102.732 57.3354 103.532M53.276 80.533C52.7116 78.9104 52.1904 77.4139 51.7165 76.0332M49.2762 61.3674L54.0259 59.3675M49.2762 61.3674C47.1589 62.3631 45.5257 62.52 44.2763 62.2279M49.2762 61.3674C48.459 62.4818 48.3704 64.1261 48.8775 66.6252M54.0259 59.3675C54.0676 60.2841 54.3842 62.1839 55.3174 62.4506M54.0259 59.3675C54.0951 59.0649 54.2019 58.6504 54.3364 58.2008M55.5258 55.5344C56.1925 54.8011 57.0257 51.4513 57.3591 49.868C57.6368 49.3125 58.459 48.4181 59.5256 49.2847C60.8589 50.368 62.0255 53.3677 63.4421 54.4511C64.8587 55.5344 77.6913 51.7846 78.2746 49.868C78.8579 47.9514 79.3579 44.3683 80.0245 43.6183C80.6911 42.8683 80.9411 41.9517 81.7744 42.2017M55.5258 55.5344C55.0667 56.0394 54.6339 57.2059 54.3364 58.2008M55.5258 55.5344C55.5865 55.1381 55.638 54.6851 55.6711 54.201M81.7744 42.2017C82.441 42.4017 89.0518 43.2294 92.2738 43.6183C92.9127 44.0072 94.857 44.6682 97.5236 44.2016M81.7744 42.2017C81.7466 40.9136 81.2244 38.2936 79.3578 38.1186M97.5236 44.2016C97.1446 43.5952 96.3674 42.4046 95.5308 41.2434M97.5236 44.2016C98.5766 46.5903 100.167 51.9261 98.1067 54.1594C96.046 56.3926 98.498 57.6175 99.9816 57.9508C99.2039 57.6175 97.9317 56.7009 99.065 55.7009C100.482 54.451 102.065 52.0763 100.69 49.868C99.315 47.6597 103.731 44.1599 105.648 44.8265C107.565 45.4932 110.564 46.7848 110.398 53.7427C110.374 54.7178 110.307 55.6202 110.205 56.4509M70.275 22.3695C71.4416 23.4527 71.9416 23.2028 78.2746 23.1194C78.9129 23.111 79.4944 23.1492 80.0245 23.2282M70.275 22.3695C69.1084 21.2862 62.0255 20.4529 64.7753 17.8697C67.5252 15.2865 63.6087 10.2035 60.6922 11.7867C59.181 12.6071 58.8332 11.5258 58.4083 10.5367M70.275 22.3695C69.0806 22.0639 66.0252 21.3528 63.3587 20.9528C60.0255 20.4528 59.5256 16.1198 61.7754 14.8698C64.0252 13.6199 60.1922 12.0046 58.9423 12.9533C57.6923 13.9019 56.0258 12.9533 56.0258 11.7867C56.0258 10.6202 53.1926 11.7867 51.8593 12.9533C50.8214 13.8614 48.5715 13.3556 47.2325 12.5366M70.275 22.3695C68.0252 22.3417 62.9588 22.8027 60.6922 24.8693M60.6922 24.8693C59.8311 24.286 57.6923 23.2194 56.0258 23.6193C53.9426 24.1193 52.9426 20.9528 54.0259 19.1196C54.8925 17.653 52.3315 16.2956 50.9427 15.8002M60.6922 24.8693C59.6295 25.8382 58.4378 26.0451 57.3591 25.8462M50.9427 15.8002C54.2997 14.9601 54.2606 16.5944 55.5258 18.7029C57.0257 21.2028 53.9425 21.6195 54.0259 23.1194C54.0779 24.0568 55.5618 25.5147 57.3591 25.8462M50.9427 15.8002C50.3197 15.9561 49.5798 16.1973 48.6928 16.5364C43.0265 18.7029 52.9426 20.0362 49.3594 20.9528C46.4929 21.6861 45.4985 20.8695 45.3597 20.3695C46.5818 20.6473 48.6595 20.9528 47.1929 19.9529C45.3597 18.7029 44.3597 18.9529 45.7763 17.1197C46.9096 15.6531 49.6928 15.629 50.9427 15.8002ZM57.3591 25.8462C55.3592 25.0761 51.5427 24.5693 52.2759 28.7024C53.1926 33.8688 49.3594 28.4524 49.3594 34.5354C48.5047 37.6277 46.8762 43.7373 46.5749 45.6598M46.5263 47.868C47.4429 47.2569 50.601 46.2181 55.9007 46.9514C56.6369 47.007 58.3924 46.7264 59.5256 45.1598C60.8156 43.3766 69.3612 37.7582 77.1079 37.901M46.5263 47.868C46.5263 47.8203 46.5263 47.7247 46.5263 47.5764M46.5263 47.868C43.7625 49.1457 38.2184 51.9761 38.1517 53.0761C38.0851 54.1761 38.5406 55.7843 38.7767 56.4509C39.3461 56.5898 40.4932 57.0592 40.5265 57.8258C40.5494 58.3532 41.0773 60.37 42.7143 61.5281M79.3578 38.1186L95.5308 41.2434M79.3578 38.1186C79.1644 38.0834 78.9699 38.0527 78.7745 38.0262M95.5308 41.2434C95.1411 40.7025 94.7384 40.1679 94.3571 39.7019C92.8571 37.8686 85.8575 34.5355 85.6075 31.0357C85.3827 27.8886 84.7537 23.933 80.0245 23.2282M55.3174 62.4506C55.6196 62.5369 55.9502 62.7216 56.2757 62.9512M55.3174 62.4506C55.3313 63.3811 55.8758 65.5171 57.9423 66.617M56.2757 62.9512C56.9558 63.431 57.6136 64.107 57.9423 64.4921V65.1588C57.2896 64.5898 56.0424 63.3518 56.2757 62.9512ZM59.9422 61.9506C60.4506 61.6768 61.192 61.359 61.9421 61.1832M61.9421 61.1832C63.0565 60.922 64.1903 60.9744 64.6086 61.9506C65.3086 63.5838 63.1226 62.1195 61.9421 61.1832ZM62.6087 57.4092C64.678 57.4647 68.5501 58.5508 67.4835 62.4506M58.7339 76.6998C58.4978 74.9082 58.5256 71.2168 60.5255 70.7834C63.0254 70.2418 61.6504 69.4919 63.567 69.4919C65.1002 69.4919 70.1777 71.3251 72.5248 72.2417M58.7339 76.6998C59.8728 75.6582 62.3671 73.5 63.2337 73.2C64.1003 72.9 69.7889 72.4361 72.5248 72.2417M58.7339 76.6998C59.3311 77.8664 61.6921 79.4996 66.3585 76.6998C71.0249 73.8999 72.4137 72.5611 72.5248 72.2417M46.5263 47.5764C46.5263 47.2932 46.5263 46.8181 46.5263 46.1181C46.5263 46.0169 46.5433 45.8614 46.5749 45.6598M46.5263 47.5764C48.2067 46.7709 51.8593 45.1098 53.0259 44.9099C54.1925 44.7099 53.0398 43.6321 52.3176 43.1183C50.5029 43.3266 46.8137 44.1266 46.5749 45.6598M77.1079 37.901L76.3163 37.5353C72.6081 35.7853 70.8583 36.702 69.9 36.7853C68.9417 36.8686 64.0253 40.4934 62.6087 41.0767C61.4754 41.5434 61.6365 39.7157 61.8588 38.7435C62.6087 38.0908 65.0752 36.402 68.9417 34.8687C72.8082 33.3355 77.1079 36.3349 78.7745 38.0262M77.1079 37.901C77.6687 37.9114 78.2252 37.9519 78.7745 38.0262M54.3364 58.2008C53.0134 58.7126 50.9607 59.464 49.026 60.0854M46.5749 48.8916C48.6572 48.1696 50.8769 47.715 52.5259 47.618C55.1282 47.465 55.7484 50.5894 55.7094 53.2844M46.5749 48.8916C43.2905 50.0304 40.348 51.8347 40.5265 53.951C40.8182 57.4092 42.4014 60.999 44.2763 61.1832C45.0489 61.2591 46.9709 60.7455 49.026 60.0854M46.5749 48.8916C46.6003 50.2448 46.9512 53.5344 48.1511 55.8676C49.351 58.2008 49.2344 59.6516 49.026 60.0854M55.7094 53.2844C55.7049 53.5977 55.6914 53.9052 55.6711 54.201M55.7094 53.2844C55.4243 53.0234 55.0769 52.7494 54.6924 52.5019M55.6711 54.201C55.1065 54.4807 54.551 54.7604 54.0259 55.0228M49.7185 54.641C49.6747 54.4799 49.6379 54.3294 49.6093 54.201C49.8728 53.2676 50.2495 52.6367 50.6926 52.2358M49.7185 54.641C49.9306 55.4207 50.3059 56.4509 50.6926 56.4509C50.9817 56.4509 51.6494 56.1745 52.5259 55.7588M49.7185 54.641H48.5677C48.665 52.7366 50.026 49.6428 54.6924 52.5019M54.6924 52.5019C53.4612 51.7094 51.8502 51.1884 50.6926 52.2358M54.6924 52.5019C54.8148 53.1717 54.853 54.6135 54.0259 55.0228M49.2762 51.7845C50.3873 50.7429 53.151 49.2846 55.3174 51.7845M75.7746 46.1181C76.3024 45.7293 77.308 44.8765 77.1079 44.5765C76.8579 44.2016 69.5992 42.0675 67.958 47.2847M75.7746 46.1181C75.8712 45.2808 74.8662 44.6675 73.4861 44.5765M75.7746 46.1181C75.6969 46.7913 74.7725 47.4464 73.4861 48.0196M67.958 47.2847C67.5645 47.8479 67.2306 48.5108 66.9834 49.2847L66.6084 49.868C67.995 49.6909 69.8962 49.2795 71.6083 48.7267M67.958 47.2847C68.5122 46.4916 69.1846 45.8966 69.9 45.4685M66.8584 46.7848C67.2334 44.771 69.5916 41.3185 76.0246 43.6183M78.7744 88.5741C75.3024 91.1712 67.1334 95.2238 62.2337 90.6574M101.773 65.8254L102.461 63.9088M101.773 65.8254C100.329 68.1169 97.5734 73.3666 98.1067 76.0332C98.64 78.6997 97.7178 81.5884 97.1901 82.6995C93.6625 87.8103 86.2407 98.3653 84.7741 99.6985C83.3075 101.032 81.0521 104.032 80.1077 105.365C77.4794 112.786 73.473 119.015 69.8391 123.531M101.773 65.8254C103.471 67.1737 104.391 67.1454 104.96 66.6252M103.148 61.9923C103.454 62.1173 104.14 62.1089 104.44 61.0756C104.74 60.0424 106.287 58.2841 107.023 57.5342C106.976 56.5883 106.483 54.8615 104.96 54.4511M103.148 61.9923C102.63 61.7915 102.353 61.6647 102.231 61.5281M103.148 61.9923L102.461 63.9088M102.231 61.5281C102.051 61.3245 102.215 61.0994 102.44 60.5757C102.74 59.8757 102.731 59.2007 102.69 58.9508L101.565 58.4508C101.468 57.1453 101.832 54.501 104.065 54.3677C104.397 54.3478 104.694 54.3794 104.96 54.4511M102.231 61.5281L101.565 63.5755M101.565 63.5755L102.461 63.9088M101.565 63.5755C99.8011 67.2003 96.5068 75.2499 97.4401 78.4497C98.6067 82.4495 81.7743 101.698 79.2744 105.365C77.3792 108.145 75.2444 115.091 69.0939 122.864M61.8587 130.447L61.2754 133.28H61.8587M61.8587 130.447C61.0254 127.558 59.4921 120.914 60.0254 117.448C60.5965 113.735 59.6999 108.311 57.3354 103.532M61.8587 130.447C63.7012 128.835 65.3296 127.213 66.7752 125.608M61.8587 133.28L63.1919 130.447C64.2829 129.566 65.7871 128.158 67.4835 126.289M61.8587 133.28V133.697M51.7165 76.0332C52.7363 79.6857 54.0259 86.9102 54.0259 87.7825M51.7165 76.0332C50.3291 71.9908 49.3475 68.941 48.8775 66.6252M54.0259 87.7825C54.0259 93.2341 52.228 97.7868 55.664 104.282M54.0259 87.7825C54.1863 89.0492 52.0372 89.4213 50.9427 89.4491C40.0099 86.2492 42.3876 81.3384 44.943 79.283C43.7487 81.144 42.6598 84.766 47.8596 84.366C53.0593 83.966 47.6373 76.8833 44.2763 73.392M60.0254 133.28L60.5254 131.78C56.7756 114.281 60.5255 112.448 56.2757 105.365C56.0554 104.998 55.8519 104.637 55.664 104.282M60.0254 133.28L61.8587 133.697M60.0254 133.28L58.8588 136.363L56.0257 149.279L57.0673 149.488M60.0254 133.28L57.1089 148.779L58.1089 149.279M61.8587 133.697C63.1253 134.63 60.7754 144.474 59.4421 149.279L58.1089 149.696M58.1089 149.696V149.279M58.1089 149.696L57.0673 149.488M58.1089 149.279C57.97 150.418 57.6922 152.612 57.6922 152.279M57.0673 149.488L56.0257 152.279M56.0257 152.279C56.5812 152.14 57.6922 151.946 57.6922 152.279M56.0257 152.279C55.9979 154.168 55.2924 159.379 52.6925 165.112C50.0927 170.845 49.4982 180.5 49.526 184.611M57.6922 152.279C58.7059 154.029 53.8591 165.112 52.1925 170.195C50.8593 174.261 50.6371 181.649 50.6926 184.835M49.526 184.611L47.6095 185.444M49.526 184.611L50.6926 184.835M47.6095 185.444C48.0816 186.194 49.5093 187.96 51.4426 189.027C53.2845 190.043 53.8102 187.358 53.8558 185.685M47.6095 185.444C46.9706 185.944 46.0762 187.36 47.6095 189.027M47.6095 189.027C43.6375 185.444 34.8102 177.261 31.277 173.195C27.7438 169.128 23.2497 169.5 21.4443 170.195L8.86159 173.945C4.46183 175.811 6.36173 179.666 7.86165 181.361L31.8603 200.903M47.6095 189.027C48.7379 190.254 50.733 192.318 53.1525 193.485M70.1916 184.194C72.3914 184.261 71.8859 189.666 71.3582 192.36C76.4412 195.693 67.3584 225.608 67.3584 228.108C67.3584 229.604 65.9444 231.908 64.6854 232.858M70.1916 184.194C78.1495 184.431 78.2746 189.027 90.7739 189.86M70.1916 184.194C68.5585 184.144 63.5139 183.795 59.4421 184.044M53.8558 185.685C53.858 185.602 53.8591 185.521 53.8591 185.444L50.6926 184.835M53.8558 185.685C54.3282 184.666 56.6577 184.215 59.4421 184.044M57.609 208.276L49.526 205.167M49.526 205.167L44.6097 203.276C41.832 202.082 35.2768 199.01 31.277 196.277C27.2772 193.543 29.6104 190.86 31.277 189.86C33.2434 189.794 37.1875 190.041 41.9431 191.099M49.526 205.167C44.8874 203.342 35.2268 199.826 33.6936 200.36C33.1754 200.54 32.5171 200.702 31.8603 200.903M29.3605 204.526C30.7771 207.609 33.2839 207.089 34.7768 207.776C38.135 209.322 36.8216 209.697 38.86 211.109M29.3605 204.526L31.277 205.609V202.776V201.693L29.1322 202.776M29.3605 204.526C29.0323 203.812 28.9859 203.241 29.1322 202.776M56.1923 217.026C53.6092 216.498 48.0928 215.442 46.6929 215.442C45.6467 215.442 41.8902 213.208 38.86 211.109M38.86 211.109C39.5544 213.248 41.1432 217.659 41.9431 218.192C42.8985 218.829 43.0887 225.059 50.6926 224.493M56.1923 224.858C55.8248 224.918 51.0472 224.467 50.6926 224.493M50.6926 224.493C50.276 225.395 50.1093 230.782 52.4425 231.115C54.7757 231.448 62.2754 232.858 63.5253 233.275C63.8544 233.345 64.2611 233.178 64.6854 232.858M29.1322 202.776C29.4466 201.778 30.6508 201.274 31.8603 200.903M7.86165 175.694L22.3609 171.778C23.7498 171.889 26.9107 172.828 28.4439 175.694M36.1102 180.361L38.1934 182.194M38.86 183.027L40.9433 184.835M29.1322 179.361L41.9431 191.099M41.9431 191.099C45.114 191.804 48.6457 192.87 52.1925 194.443C52.7687 194.699 53.3241 194.93 53.8591 195.137M103.148 64.4921C103.759 64.756 104.798 65.8337 104.065 68.0336M104.065 68.0336C104.99 69.4856 106.049 71.3337 107.023 73.3285M104.065 68.0336C103.435 69.9218 101.568 72.5958 100.285 75.4082M102.44 51.7845C102.968 49.3541 104.706 45.1182 107.44 47.618C110.856 50.7429 108.94 59.3675 108.19 59.3675M102.69 52.5019C103.481 52.485 105.043 52.8512 104.96 54.4511M58.4083 10.5367C58.0132 9.61697 57.5516 8.77697 56.0258 9.62015C52.8593 11.3701 48.7762 12.12 47.8596 10.5367C46.943 8.95347 42.3599 11.2867 43.0265 12.5366C43.8598 11.8978 45.693 10.8535 46.3596 11.7867C46.5442 12.0451 46.8515 12.3036 47.2325 12.5366M58.4083 10.5367C59.4613 8.39795 63.042 5.00369 68.9417 8.53683M68.9417 8.53683C76.3163 12.9533 62.0254 11.7034 73.2748 19.9529C74.7192 21.0809 78.0913 23.3152 80.0245 23.2282M68.9417 8.53683C72.4415 6.14809 80.1411 3.02051 82.941 9.62015C83.3903 10.6793 83.5622 11.6477 83.5351 12.5366M80.0245 23.2282C73.9962 20.9463 83.351 18.5714 83.5351 12.5366M83.5351 12.5366C87.4757 12.0366 95.7904 11.8033 97.5236 14.8698M97.5236 14.8698C97.653 15.0989 97.7647 15.35 97.8594 15.6197M97.5236 14.8698C100.746 14.0921 107.39 13.1532 108.19 15.6197C108.413 16.3094 108.416 16.9057 108.324 17.453M93.6071 28.7024C96.6626 28.7024 99.3499 19.8625 97.8594 15.6197M97.8594 15.6197C98.8882 16.4735 100.201 17.628 101.565 18.927M108.19 42.2017C111.939 41.7018 109.273 33.7854 109.19 29.369C109.141 26.8054 105.172 22.3614 101.565 18.927M112.106 30.4523C112.273 29.1468 111.923 25.8743 109.19 23.2282C106.537 20.6604 108.003 19.3522 108.324 17.453M112.106 30.4523C111.568 28.9523 110.231 25.9692 109.19 26.0358C107.887 26.1192 106.389 23.4526 107.023 21.7027C107.656 19.9529 107.689 17.8697 105.648 17.8697C103.607 17.8697 107.231 14.5924 103.148 15.6197C99.8816 16.4416 100.732 18.167 101.565 18.927M112.106 30.4523C112.106 31.5633 112.606 33.6688 114.606 33.2021C116.606 32.7355 116.884 35.8964 116.772 37.5353C116.348 36.3081 117.473 35.9097 117.772 35.1287M108.324 17.453C110.751 17.3311 115.673 18.3155 115.939 23.2282C116.272 29.369 111.773 28.4524 115.939 32.1188C117.746 33.7086 118.001 34.5308 117.772 35.1287M108.19 19.9529C109.652 19.7029 112.484 19.9863 112.106 23.1194C111.634 27.0358 114.023 23.6193 113.439 27.0358M104.96 66.6252C105.816 65.8433 105.881 63.9505 106.606 63.9505C107.356 63.9505 108.571 62.6986 109.425 60.0854M104.96 66.6252L107.023 73.3285M107.023 73.3285C107.355 74.0091 107.677 74.7067 107.981 75.4115M109.939 81.4495C110.606 83.8938 112.556 88.9158 115.023 89.4491C116.263 89.7172 118.271 90.446 120.272 91.2456M109.939 81.4495C109.901 81.2494 109.86 81.0473 109.815 80.8435M109.939 81.4495C110.019 81.8759 110.081 82.2934 110.123 82.6995M125.439 93.4488C113.288 106.948 85.1562 131.863 69.8391 123.531M125.439 93.4488C124.223 92.8964 122.251 92.0364 120.272 91.2456M125.439 93.4488C126.405 93.4661 127.468 93.4938 128.605 93.5332M69.8391 123.531C69.0289 124.537 68.2372 125.459 67.4835 126.289M69.0939 122.864C65.0249 119.475 58.9757 110.865 67.3308 103.532M69.0939 122.864C68.3775 123.769 67.6066 124.686 66.7752 125.608M67.3308 103.532L67.053 102.365M66.2792 100.448C66.4524 100.722 66.622 100.977 66.7752 101.199L67.053 102.365M66.2792 100.448L57.3354 103.532M55.664 104.282C46.5629 107.643 28.4273 114.531 28.6939 115.198C29.0272 116.031 15.778 125.031 15.778 133.697M69.9 45.4685C69.4972 46.4996 69.275 48.5947 71.6083 48.7267M69.9 45.4685C71.0927 44.7547 72.4046 44.5053 73.4861 44.5765M71.6083 48.7267C72.2771 48.5107 72.917 48.2732 73.4861 48.0196M73.4861 44.5765C74.1121 45.4885 74.9884 47.454 73.4861 48.0196M50.6926 52.2358C50.5815 53.4294 50.7926 55.805 52.5259 55.7588M52.5259 55.7588C52.9781 55.5443 53.4858 55.2927 54.0259 55.0228M47.2325 12.5366C45.4416 15.842 41.0099 21.3861 37.6101 17.1197C33.3603 11.7867 28.5273 21.6195 30.8605 22.3695C32.727 22.9694 34.027 21.2862 34.4436 20.3695C33.3326 20.925 31.3438 21.7028 32.2771 20.3695C33.4437 18.7029 35.4019 16.4531 36.7768 18.7029C38.1517 20.9528 36.5268 24.0869 38.7767 23.2282C41.0266 22.3695 44.1098 21.3925 43.0265 23.6193C41.9432 25.8462 34.4436 21.2861 34.4436 27.4524C34.4436 33.6188 32.527 37.8686 29.7772 34.5354C27.5773 31.8689 30.1938 32.591 31.7771 33.2854C30.3605 31.8688 27.4773 29.8856 27.2773 33.2854C27.0639 36.9133 30.9191 38.5373 33.0369 37.5353M44.943 23.9526C44.7208 25.7025 43.3097 28.669 39.4433 26.5358C34.6104 23.8693 36.7768 30.2023 35.8602 30.0356C34.9436 29.869 35.5269 34.5354 33.9436 36.7853C33.7119 37.1145 33.4 37.3635 33.0369 37.5353M33.0369 37.5353C32.2281 37.6186 30.8438 38.2685 31.7771 40.2017C32.7104 42.135 34.888 41.0072 35.8602 40.2017C33.9714 40.5629 31.3271 40.3851 35.8602 36.7853C41.5266 32.2855 42.1933 33.5355 41.3599 38.1186C40.6828 41.8419 36.3761 42.5954 36.1692 45.1598M46.5749 26.9525C44.1977 28.1468 40.16 30.5356 43.0265 30.5356C46.6097 30.5356 45.3597 34.5354 44.943 38.7435C44.5264 42.9516 41.3599 39.6185 39.4433 45.1598C37.9101 49.5929 41.1933 48.6458 43.0265 47.618C41.8043 49.0069 38.8432 50.8845 36.7768 47.2847C36.2923 46.4406 36.1215 45.752 36.1692 45.1598M36.1692 45.1598C34.233 46.1598 31.4604 49.7013 35.8602 55.8676C40.26 62.0339 35.8112 61.9089 33.0369 61.0756C33.3114 62.8811 34.6103 66.3587 37.6101 65.8254C40.6099 65.2921 42.2628 62.7383 42.7143 61.5281M42.7143 61.5281C43.1519 61.8377 43.6687 62.0859 44.2763 62.2279M44.2763 62.2279C41.8042 63.3704 37.1184 66.4225 38.1517 69.4919C39.1801 72.5467 42.084 74.2236 44.2763 73.392M48.8775 66.6252L47.1929 65.8254C45.8041 65.2004 42.9641 65.0588 42.7143 69.4919C42.4021 75.0332 47.8596 69.4919 45.7763 72.2417C45.3518 72.802 44.8373 73.1791 44.2763 73.392M117.772 35.1287C120.05 35.7249 123.739 38.4491 120.272 44.5765M120.272 44.5765C115.939 52.2358 118.772 54.641 122.106 54.641C125.439 54.641 124.439 59.9681 123.272 60.5757M120.272 44.5765C121.383 47.304 123.972 52.3558 125.439 50.7429C127.272 48.7267 131.772 55.8259 128.605 58.2008C126.072 60.1007 129.55 64.0755 131.605 65.8254C131.135 65.8704 130.562 65.8781 129.94 65.8254M123.272 60.5757C122.106 61.1832 123.605 65.8254 125.439 65.1588C123.367 65.5169 119.133 64.8599 118.772 59.3675C118.322 52.5019 118.439 57.6592 115.939 54.201C113.439 50.7429 117.606 47.3264 116.772 46.1181C115.939 44.9099 121.439 40.0768 116.772 39.4102C113.039 38.8768 112.106 36.1603 112.106 34.8687M123.272 60.5757C124.022 64.3884 127.401 65.6103 129.94 65.8254M120.272 91.2456C121.139 90.8161 122.25 90.1852 123.303 89.4491M110.205 56.4509C111.672 56.4509 115.039 58.3258 116.772 65.8254C118.939 75.1999 123.272 68.0336 126.439 70.7834C127.462 71.6721 127.493 72.4476 127.247 73.2M110.205 56.4509C110.03 57.8688 109.755 59.0782 109.425 60.0854M109.425 60.0854C110.597 61.2627 112.939 64.0588 112.939 65.8254C112.939 68.0336 111.439 70.7834 114.606 70.7834C117.772 70.7834 117.772 73.6166 117.772 76.0332C117.772 78.4497 120.14 70.7507 123.272 73.392C126.405 76.0332 118.939 83.8455 126.439 83.2725M126.439 83.2725C126.143 83.4912 126.097 83.8221 126.439 84.366C127.428 85.9405 125.488 87.9214 123.303 89.4491M126.439 83.2725C127.727 82.3186 133.752 83.4999 132.938 78.4497C131.938 72.2417 133.938 81.6996 128.605 78.4497C124.996 76.2501 126.73 74.7758 127.247 73.2M112.939 76.0332C113.05 79.3663 113.973 85.6992 116.772 84.366C119.572 83.0328 122.293 87.1992 123.303 89.4491M129.94 65.8254C129.662 68.3947 129.872 72.9833 132.938 70.7834C136.771 68.0336 129.055 76.176 127.247 73.2M164.437 99.6985C170.77 105.365 201.435 130.864 195.435 149.696C189.435 168.528 209.767 230.858 153.437 235.191C126.957 237.228 105.699 236.833 90.7739 235.71M164.437 99.6985C129.505 100.632 127.786 128.128 131.292 141.759M164.437 99.6985C159.82 95.5679 140.277 93.9373 128.605 93.5332M69.0939 232.858C69.4328 232.939 69.7987 233.021 70.1916 233.105M90.7739 235.71C94.9403 220.704 101.548 190.579 90.7739 189.86M90.7739 235.71C81.2211 234.991 74.2632 233.973 70.1916 233.105M90.7739 189.86C92.9008 188.772 95.9557 188.229 98.575 189.86M103.773 207.776C104.209 196.856 101.702 191.808 98.575 189.86M131.105 140.196C131.164 140.699 131.227 141.221 131.292 141.759M141.104 184.611C146.104 186.444 152.437 174.278 159.77 180.361C167.103 186.444 162.77 175.528 171.103 179.861M141.104 184.611C142.225 184.472 144.327 183.794 143.771 182.194C143.215 180.594 152.428 162.862 157.104 154.196M141.104 184.611C137.771 188.499 129.545 194.993 123.303 189.86M141.104 184.611C137.246 183.196 133.078 156.394 131.292 141.759M98.575 189.86C101.752 187.722 108.573 184.727 110.439 189.86M110.439 189.86C112.773 196.277 115.5 183.444 123.303 189.86M110.439 189.86C111.217 193.499 112.773 201.526 112.773 204.526M123.303 189.86C122.293 190.721 120.272 194.027 120.272 200.36C120.272 206.693 122.293 213.053 123.303 215.442M128.605 93.5332C117.8 109.646 90.4489 138.755 67.4835 126.289M66.7752 125.608C61.9329 120.249 55.2093 108.098 67.053 102.365M99.0248 82.6995C98.899 81.4659 98.9357 80.258 99.065 79.283C99.2347 78.0036 99.6989 76.6915 100.285 75.4082M99.0248 82.6995C99.2465 82.4634 99.7734 81.9911 100.107 81.9911C100.523 81.9911 100.69 81.4912 101.19 81.7411C101.449 81.8706 101.775 81.8325 102.023 81.8813M99.0248 82.6995C99.0644 83.0879 99.1201 83.4789 99.1941 83.866M101.19 87.997C101.757 88.6282 102.273 87.3242 102.815 87.5742C103.357 87.8241 103.232 86.2826 103.607 86.1992C103.842 86.147 103.716 85.7184 103.631 85.2826M101.19 87.997C102.48 89.2075 104.435 89.6744 107.315 88.6206M101.19 87.997C100.997 87.8163 100.819 87.6189 100.655 87.4075M102.023 81.8813C101.759 81.7235 101.282 81.2912 101.482 80.8245C101.732 80.2412 100.648 80.2829 100.607 79.9079C100.565 79.5329 99.94 78.5747 100.357 78.4497C100.773 78.3247 99.6067 77.0747 100.107 76.7414C100.607 76.4081 99.6067 76.0332 100.107 76.0332C100.507 76.0332 100.392 75.6165 100.285 75.4082M102.023 81.8813C102.119 81.9002 102.203 81.9319 102.267 81.9911M100.285 75.4082C100.698 74.7971 101.623 73.6583 102.023 73.9916M102.023 73.9916C102.523 74.4082 103.398 72.5821 104.398 73.3285C105.398 74.0749 105.981 74.0332 105.815 74.4082C105.648 74.7832 107.523 74.6582 107.606 74.9498M102.023 73.9916L104.231 70.3668L107.606 74.9498M107.606 74.9498C107.673 75.1832 107.884 75.3548 107.981 75.4115M107.981 75.4115C108.069 75.6187 108.174 76.0165 107.898 75.9498C107.552 75.8664 108.106 77.1581 107.773 77.0747C107.44 76.9914 107.356 78.6996 107.023 78.4497C106.689 78.1998 106.398 79.9079 105.981 79.6579C105.646 79.4567 105.743 80.4704 105.706 80.6995M107.981 75.4115C108.766 77.2312 109.426 79.0987 109.815 80.8435M102.267 81.9911C102.359 82.075 102.41 82.214 102.398 82.4494C102.357 83.2827 103.19 82.6994 103.065 83.3244C102.978 83.7603 103.357 83.953 103.537 84.1993M102.267 81.9911C102.547 82.0606 103.157 82.0495 103.357 81.4495C103.607 80.6995 103.773 81.7411 104.231 81.7411C104.69 81.7411 105.481 80.3662 105.648 80.6995M105.648 80.6995C105.384 80.8801 104.915 81.3412 105.148 81.7411C105.44 82.2411 104.606 82.1994 104.648 82.4494C104.69 82.6995 103.898 83.0744 103.898 83.4494C103.898 83.8244 103.302 83.8244 103.537 84.1993M105.648 80.6995C105.681 80.7645 105.697 80.7551 105.706 80.6995M103.537 84.1993C103.616 84.3062 103.657 84.4231 103.607 84.5743C103.544 84.761 103.581 85.0231 103.631 85.2826M103.631 85.2826C103.831 85.3382 104.231 85.5243 104.231 85.8243C104.231 86.1992 105.148 86.6992 105.273 86.4909C105.398 86.2826 105.148 87.4492 105.648 87.4075C106.148 87.3658 105.94 88.4908 106.606 88.3658C107.14 88.2658 107.301 88.494 107.315 88.6206M107.315 88.6206C107.356 88.6054 107.398 88.59 107.44 88.5741C108.213 88.2819 108.802 87.838 109.231 87.2734M105.706 80.6995C105.909 80.269 106.54 79.4579 107.44 79.6579C108.565 79.9079 107.815 80.1162 108.231 80.3246C108.648 80.5329 108.856 79.6579 109.106 80.0746C109.306 80.4079 109.662 80.7261 109.815 80.8435M99.1941 83.866C99.3733 83.5188 99.7484 82.8494 99.8151 82.9494C99.8984 83.0744 100.94 82.1995 100.94 82.5744C100.94 82.9494 101.023 83.866 101.398 83.866C101.773 83.866 102.398 83.4077 102.398 84.1993C102.398 84.991 102.94 85.1993 102.815 85.6993C102.69 86.1992 102.637 87.0325 102.267 86.9492C101.898 86.8659 100.94 86.9909 100.94 87.1992C100.94 87.3658 100.75 87.4075 100.655 87.4075M99.1941 83.866C99.4442 85.1744 99.9032 86.4382 100.655 87.4075M110.123 82.6995C110.182 82.3245 109.44 81.9911 109.106 81.9911C108.773 81.9911 108.606 81.4495 108.481 81.1578C108.356 80.8662 107.44 81.0329 107.023 81.0329C106.606 81.0329 106.606 82.1578 106.398 81.9911C106.19 81.8245 105.481 83.1994 105.648 83.4494C105.781 83.6494 105.37 83.8105 105.148 83.866C105.037 84.1855 104.881 84.8326 105.148 84.866C105.481 84.9076 105.981 86.1992 105.981 85.9493C105.981 85.6993 106.69 86.9909 107.148 86.7409C107.606 86.4909 107.481 87.9491 107.981 87.5742C108.481 87.1992 108.891 87.8058 109.231 87.2734M110.123 82.6995C110.314 84.5412 110.088 86.1474 109.231 87.2734M61.1337 186.444L59.4421 184.044M42.968 199.322C42.5153 197.529 42.2098 194.043 44.6097 194.443M64.6854 232.858L70.1916 233.105M53.1525 193.485C54.8423 194.3 56.7391 194.678 58.6922 194.027C59.9977 194.499 63.2586 195.343 65.8585 194.943C65.0534 196.32 61.5576 198.124 53.8591 195.137M53.1525 193.485L53.8591 195.137M75.7746 39.6185C75.594 39.4796 75.008 39.2435 74.108 39.4102C72.9831 39.6185 65.525 40.5037 60.5254 45.6598C60.0393 46.6181 60.0792 48.5278 61.567 50.7429C63.4421 53.5344 62.4836 55.7009 72.7747 51.7845C74.4135 51.3678 77.6911 49.7263 77.6911 46.4931C77.6911 42.4517 77.4412 40.4934 75.7746 39.6185ZM30.3604 191.527C31.277 190.277 33.4575 190.444 32.4436 193.485C31.8437 195.285 30.8048 195.054 30.3604 194.443C29.666 193.471 29.077 193.277 30.3604 191.527ZM11.2782 178.944C10.1463 178.805 8.22824 179.094 9.61163 181.361C10.995 183.627 14.1878 185.694 15.6113 186.444C16.7224 186.416 18.6111 186.011 17.2779 184.611C15.9446 183.211 12.7226 180.25 11.2782 178.944ZM12.1115 181.361C11.4726 181.416 10.2449 181.194 10.4449 179.861C10.6949 178.194 12.9448 181.361 12.5281 181.361C12.1115 181.361 11.9448 183.027 13.0281 183.027C13.8947 183.027 13.8892 182.472 13.7781 182.194L12.1115 181.361ZM31.277 176.361C30.8881 176.889 30.3437 178.044 31.277 178.444C32.2103 178.844 33.2769 178.611 33.6936 178.444C33.8324 177.75 33.5435 176.361 31.277 176.361ZM102.267 75.1165C101.95 75.2276 101.332 75.4998 101.398 75.6998C101.482 75.9498 100.69 76.5331 100.94 76.7414C101.19 76.9497 100.773 78.3663 101.19 78.283C101.607 78.1997 101.279 79.8662 101.773 79.6579C102.267 79.4496 102.398 80.8662 103.232 80.3246C104.065 79.7829 104.315 80.9079 105.148 79.9079C105.981 78.908 106.398 77.4914 106.106 77.2831C105.815 77.0747 106.815 76.0748 106.398 75.9498C105.981 75.8248 105.106 75.1998 105.065 74.9082C105.023 74.6165 104.315 74.4499 104.231 74.6165C104.148 74.7832 103.232 74.1999 103.232 74.4082C103.232 74.5749 102.589 74.9498 102.267 75.1165ZM103.631 76.7414C103.401 77.1997 103.023 78.1496 103.357 78.283C103.773 78.4497 105.656 76.1998 103.631 76.7414ZM100.482 84.6993C100.551 85.0326 100.74 85.7243 100.94 85.8243C101.19 85.9493 103.065 84.6993 100.482 84.6993ZM107.148 83.6994C107.287 84.0882 107.631 84.866 107.898 84.866C108.165 84.866 108.509 84.0882 108.648 83.6994C108.551 83.13 108.206 82.1078 107.606 82.5744C107.006 83.0411 107.051 83.5188 107.148 83.6994Z" stroke="black" stroke-width="1.5"/>
<path d="M72.7637 46.4631C72.7591 46.4814 72.7489 46.5021 72.7317 46.5212M72.7317 46.5212C72.6761 46.5828 72.5474 46.6276 72.2991 46.5212C71.8925 46.347 72.3571 45.8823 72.7056 46.405L72.7317 46.5212ZM71.447 46.405C71.5632 46.4824 70.6616 47.4671 71.447 46.405ZM71.447 46.405C71.7387 47.671 70.2318 46.405 71.447 46.405Z" stroke="black" stroke-width="1.5"/>
<path d="M53.5977 53.2151C53.5931 53.2334 53.5829 53.2541 53.5657 53.2731M53.5657 53.2731C53.5101 53.3347 53.3814 53.3796 53.133 53.2731C52.7265 53.0989 53.1911 52.6343 53.5396 53.157L53.5657 53.2731ZM52.281 53.157C52.3972 53.2344 51.4956 54.219 52.281 53.157ZM52.281 53.157C52.5727 54.4229 51.0658 53.157 52.281 53.157Z" stroke="black" stroke-width="1.5"/>
</svg>
