<svg width="240" height="240" viewBox="0 0 240 240" fill="none" xmlns="http://www.w3.org/2000/svg">
<path d="M129.211 181.32C129.211 183.67 129.75 188.761 131.908 190.321C134.606 192.271 133.407 196.996 133.108 196.171C132.868 195.511 130.584 196.446 129.473 196.996M129.211 181.32V180.345M129.211 181.32C128.659 181.1 127.867 180.762 126.887 180.315M83.7918 177.119C83.8517 176.519 86.0153 175.069 87.0895 174.419C87.1609 174.388 87.236 174.355 87.3144 174.321M83.7918 177.119L84.991 177.641M83.7918 177.119L81.4684 176.069C81.2772 176.017 80.9746 176.023 80.8689 176.294M130.335 197.371C130.695 197.756 131.194 198.552 130.432 198.773M130.335 197.371L129.473 196.996M130.335 197.371C130.94 198.176 135.686 198.258 136.882 199.472M122.465 202.547C124.714 201.372 129.435 198.977 130.335 198.797C130.369 198.79 130.402 198.782 130.432 198.773M122.465 202.547C121.466 202.972 116.799 203.372 106.126 201.572C105.854 201.572 105.606 201.545 105.377 201.492M122.465 202.547L80.4189 184.995M84.991 177.641L86.4899 177.194M84.991 177.641L85.8154 178M86.4899 177.194C86.4924 177.395 86.451 177.825 86.2651 177.945C86.0792 178.065 85.8878 178.032 85.8154 178M86.4899 177.194C86.9315 176.9 88.0529 176.283 89.4338 175.844M85.8154 178L91.2117 180.348M90.2373 175.619C90.3122 175.669 90.417 175.784 90.2373 175.844C90.0577 175.904 90.1625 176.519 90.2373 176.819M90.2373 175.619C90.4021 175.58 90.5776 175.536 90.7618 175.489M90.2373 175.619C89.9622 175.686 89.6934 175.762 89.4338 175.844M109.124 176.294C107.426 175.794 103.593 174.569 101.854 173.669C99.6808 172.544 98.4067 173.444 97.4324 173.669C96.5319 173.877 93.0068 174.918 90.7618 175.489M105.077 172.243C106.492 172.281 108.168 172.262 109.649 172.094C112.287 171.794 113.996 173.019 114.521 173.669C115.058 174.003 115.593 174.328 116.122 174.644M105.077 172.243C103.971 172.213 103.024 172.149 102.454 172.094C101.515 171.807 99.9592 171.415 98.422 171.2M105.077 172.243L109.574 173.144M91.2117 180.348C91.3616 179.972 91.9162 179.28 92.9355 179.52C93.2268 179.588 93.5046 179.646 93.7599 179.695M91.2117 180.348L92.7106 181M95.109 179.895C96.508 180.046 99.426 180.348 99.9057 180.348C100.077 180.348 100.471 180.348 100.955 180.348M95.109 179.895C95.109 180.27 95.0191 181.035 94.6593 181.095C94.2995 181.155 93.4601 181.166 93.0854 181.163M95.109 179.895C94.8949 179.877 94.3979 179.816 93.7599 179.695M110.473 181.845C109.199 181.695 106.501 181.29 105.902 180.87C105.402 180.52 104.522 180.39 103.953 180.357M93.0854 181.163L92.7106 181M93.0854 181.163L103.653 185.762M92.261 179.52C92.3609 179.77 92.5458 180.33 92.4858 180.57C92.4258 180.81 92.6107 180.957 92.7106 181M103.653 185.762C104.777 186.204 106.886 186.947 108.525 187.292M103.653 185.762L109.649 188.371M112.047 186.72C112.022 186.92 111.613 187.35 110.174 187.471C109.762 187.505 109.181 187.43 108.525 187.292M108.525 187.292L109.649 188.371M109.649 188.371L129.473 196.996M93.7599 179.695C95.159 179.478 98.1669 179.11 99.0063 179.37M99.0063 179.37C99.8457 179.63 100.655 180.13 100.955 180.348M99.0063 179.37C99.4738 179.25 99.4508 178.77 99.3808 178.545M100.955 180.348C101.823 180.348 102.979 180.348 103.653 180.348C103.737 180.348 103.838 180.351 103.953 180.357M87.3144 174.321V175.094M87.3144 174.321C87.4321 174.27 87.5573 174.216 87.6891 174.158M87.6891 174.158L87.7641 174.644M87.6891 174.158C88.9956 173.593 90.9472 172.761 92.5986 172.094M94.9591 171.2C94.881 171.22 94.806 171.244 94.7343 171.269C94.1766 171.467 93.4252 171.76 92.5986 172.094M94.9591 171.2C94.8342 171.523 94.6893 172.214 95.109 172.394M94.9591 171.2C95.3064 171.107 95.7137 171.059 96.1583 171.046M96.1583 171.719V171.046M96.1583 171.046C96.6255 171.032 97.1339 171.057 97.6572 171.108M97.6572 171.719C97.7322 171.583 97.8371 171.289 97.6572 171.2C97.4774 171.11 97.5823 171.101 97.6572 171.108M97.6572 171.108C97.9097 171.133 98.1656 171.164 98.422 171.2M98.2568 172.094C98.4009 171.808 98.6355 171.228 98.422 171.2M98.5566 175.319C98.9064 175.244 99.7708 175.199 100.43 175.619M99.9057 174.794L102.304 175.844M93.3852 182.745H91.8862C88.2888 181.245 81.0488 178.196 80.8688 178C80.6438 177.755 81.0936 177.795 80.8688 176.819C80.8141 176.582 80.8227 176.413 80.8689 176.294M93.3852 182.745L130.432 198.773M93.3852 182.745C93.1402 183.136 92.8124 183.684 92.4858 184.271M130.432 198.773L131.908 199.472M80.8689 176.294L80.4189 176.005M79.8195 175.619L77.9458 175.094C77.7709 174.769 77.5261 174.044 77.9458 173.744C78.3655 173.444 73.7738 172.869 71.4255 172.619C71.1506 172.944 70.646 173.654 70.8259 173.894C71.0057 174.134 53.9622 171.344 45.418 169.919M79.8195 175.619L80.4189 176.005M79.8195 175.619V176.294C79.3947 177.72 78.2154 180.689 76.8963 181.163C75.5772 181.638 74.6978 180.796 74.423 180.315M45.418 169.919L45.1182 168.869L44.8184 167.969L38.8975 167.144L39.4971 168.194C39.4971 168.469 39.527 169.034 39.6469 169.094M45.418 169.919C43.5443 169.669 39.7669 169.154 39.6469 169.094M39.6469 169.094H39.1973M39.4971 167.969L44.6685 168.644M39.1973 169.094L34.4046 159.268M39.1973 169.094C40.2229 169.564 41.508 170.156 42.9447 170.822M39.1973 169.094C36.0269 167.241 29.4118 164.085 28.3137 166.281C25.1569 166.432 16.9765 171.45 9.5098 190.321M80.4189 176.005C80.3189 175.941 80.4788 175.804 81.9179 175.769C83.3569 175.735 83.3169 174.255 83.117 173.519C71.8498 150.067 49.1204 102.862 48.341 101.662C47.5615 100.462 46.3673 100.362 45.8677 100.462L12.5906 101.887C11.1416 101.887 8.25857 101.977 8.31853 102.337C8.37849 102.697 8.19361 103.137 8.09367 103.312C7.614 104.812 9.09298 107.738 9.89243 109.013L34.4046 159.268M82.8172 173.744C82.7423 174.019 82.4425 174.464 81.8429 174.044C81.6667 173.921 79.6093 169.748 76.5094 163.318M47.7414 102.712C55.5918 119.379 69.0605 147.867 76.5094 163.318M47.4416 101.962C47.3916 101.762 46.902 101.377 45.343 101.437C43.7841 101.497 20.1604 102.462 8.54338 102.937M76.5094 163.318C75.0226 164.743 74.7978 164.346 72.0247 164.068C68.4272 163.708 45.6955 160.693 34.4046 159.268M90.9866 176.594C91.0116 176.201 91.0016 175.429 90.7618 175.489M89.7125 176.594L89.4338 175.844M104.402 183.195C104.103 182.235 103.593 180.324 103.953 180.357M105.077 181.845L104.777 181M105.676 181.845V181.163M129.211 180.345C129.51 180.345 130.514 180.345 132.133 180.345C133.077 180.345 135.033 179.839 137.605 179.535M129.211 180.345C130.384 176.153 134.944 143.734 136.065 141.416C136.345 135.715 138.707 126.239 139.853 122.214M148.247 180.345C155.667 182.67 151.92 180.27 156.267 181.32C160.614 182.37 159.564 180.195 162.487 182.445C165.41 184.695 161.438 180.42 169.233 182.145M148.247 180.345C150.196 181.645 154.093 185.07 154.093 188.371M148.247 180.345C144.289 179.104 140.544 179.187 137.605 179.535M169.233 182.145C177.027 183.87 175.229 182.97 177.627 182.145M169.233 182.145L173.805 166.468M177.627 182.145C179.546 181.485 182.574 182.07 183.848 182.445C184.081 182.137 184.586 181.685 185.347 181.32M177.627 182.145L181.749 157.093M192.692 181.245C189.319 179.37 191.717 180.87 188.494 180.72C187.186 180.659 186.131 180.943 185.347 181.32M118.418 62.6582C118.513 63.5439 119.168 65.6764 121.013 67.3836M124.264 82.5352C122.765 82.9852 121.266 82.7602 120.891 81.4851C120.591 80.465 121.216 76.5596 121.566 74.7344C121.77 73.1498 121.554 69.2213 121.361 67.9838M124.264 82.5352C124.569 82.3822 125.029 82.1882 125.538 82.0339M124.264 82.5352C124.634 82.4239 124.954 82.2028 125.249 81.9351M130.934 77.8097C131.714 79.7899 130.26 80.385 129.435 80.435C129.435 80.3349 129.135 80.1049 127.936 79.9849C126.808 79.872 126.146 81.1195 125.249 81.9351M127.936 81.9351C127.307 81.6386 126.359 81.7846 125.538 82.0339M119.842 63.7833C120.1 64.7938 121.171 66.5952 123.439 66.21M123.439 66.21C123.584 66.1853 123.734 66.1518 123.889 66.1085C127.112 65.2084 125.913 64.1583 129.435 64.1583C132.253 64.1583 134.557 63.1582 135.356 62.6582C133.857 62.5582 130.2 62.4182 127.561 62.6582C124.264 62.9582 123.214 65.9364 123.439 66.21ZM121.013 67.3836C121.095 67.4595 121.179 67.5346 121.266 67.6087C121.295 67.6346 121.328 67.7685 121.361 67.9838M121.013 67.3836C120.674 67.3561 120.267 67.306 119.842 67.2298M116.919 65.2834C117.443 63.5582 114.97 62.6581 115.57 57.4076C116.169 52.1571 113.996 50.7319 115.795 46.6815M116.919 65.2834C117.443 65.3584 118.568 65.6285 118.867 66.1085C119.167 66.5886 119.492 67.0278 119.617 67.1874M116.919 65.2834C116.607 66.3073 118.164 66.8991 119.617 67.1874M115.795 46.6815C116.069 47.4566 117.159 48.5417 119.317 46.6815C122.015 44.3563 124.713 46.1565 125.763 43.7562C126.812 41.356 137.38 44.5063 138.729 50.5069C140.078 56.5075 147.723 53.2072 149.222 58.5328C150.721 63.8583 151.995 70.909 150.121 71.8841C148.247 72.8592 142.401 83.6603 138.579 83.3602C135.521 83.1202 132.558 82.3101 131.459 81.9351C130.16 81.8601 127.516 81.8751 127.337 82.5352C127.157 83.1952 126.062 82.476 125.538 82.0339M115.795 46.6815C111.672 41.2809 111.593 37.6597 112.197 35.8056C113.321 32.3552 115.195 30.03 118.643 27.1047C122.09 24.1794 125.313 23.1293 126.062 22.5293C126.812 21.9292 130.035 21.1042 133.932 19.9041C137.05 18.944 140.178 19.304 141.352 19.604L138.129 21.1042C138.679 21.4542 140.093 21.9443 141.352 21.1042C142.926 20.0541 146.299 20.8041 149.446 20.279C152.594 19.754 158.365 23.6543 161.663 25.2295C164.961 26.8046 163.237 27.4797 166.385 28.6798C169.533 29.88 170.582 34.8304 172.156 37.0807C173.73 39.3309 174.029 46.0065 172.98 47.8067M125.249 81.9351C125.152 83.3852 125.018 86.3155 125.249 86.4355C125.396 86.5119 125.974 86.8412 126.564 87.1856M129.81 88.9108C129.985 89.0858 130.155 89.1358 130.634 89.1358C130.974 89.1358 132.583 88.5847 133.728 87.7857M128.66 88.0107C128.314 88.072 128.047 88.0848 127.936 88.0107C127.715 87.8634 127.134 87.5175 126.564 87.1856M128.66 88.0107C129.715 87.8237 131.513 87.1856 131.908 87.1856C132.328 87.1856 134.132 86.9856 134.981 86.8856C134.645 87.1342 134.201 87.4555 133.728 87.7857M128.66 88.0107C128.294 89.3608 127.831 92.1661 128.91 92.5861C129.193 92.6962 129.499 92.7634 129.81 92.7933M126.564 87.1856C126.372 86.8356 126.332 86.0905 127.711 85.9105C129.09 85.7305 132.733 86.0355 134.382 86.2105M129.81 92.7933C130.982 92.9061 132.228 92.4882 132.583 91.8361C133.222 91.186 134.744 89.2858 135.716 86.8856M129.81 92.7933L130.934 93.9363M130.934 93.9363C131.809 93.7362 133.917 93.1862 135.356 92.5861C136.325 92.1822 137.837 91.6477 139.178 91.3342M130.934 93.9363C130.465 94.1054 129.777 94.391 129.037 94.7613M141.802 91.236C142.776 91.8361 143.076 93.7112 141.802 94.7613C140.782 95.6014 136.83 97.2616 134.981 97.9867L133.707 98.7367M141.802 91.236C141.352 90.9591 140.328 91.0655 139.178 91.3342M141.802 91.236L141.952 93.3363C141.704 93.5363 140.938 93.9363 139.853 93.9363C138.768 93.9363 138.951 92.2015 139.178 91.3342M133.707 98.7367L139.853 97.3866C141.481 97.0937 144.38 96.9563 146.053 97.9867M133.707 98.7367C133.496 98.7113 133.118 98.7461 132.583 98.8965M120.966 105.937C121.84 105.462 124.414 103.912 127.711 101.512C128.967 100.598 130.046 99.9666 130.934 99.5395M116 122.214C115.95 118.139 116.079 107.558 116.319 105.937C116.559 104.317 118.218 102.912 119.017 102.412C120.741 101.287 124.489 98.6617 125.688 97.1616C125.999 96.7721 126.418 96.3978 126.89 96.0492M116 122.214C113.302 125.464 107.906 132.16 107.906 132.94M116 122.214C116.013 122.701 116.149 121.468 116 122.214ZM116 122.214C115.866 122.887 115.639 123.523 115.27 123.864C114.49 124.584 114.096 128.865 113.996 130.915C113.596 133.865 116.904 141.221 117.443 142.541C119.242 142.541 123.539 139.491 125.463 137.966M125.463 137.966C126.137 137.391 127.367 136.015 126.887 135.115M125.463 137.966C125.588 136.84 126.197 134.455 127.636 133.915C127.983 133.785 128.328 133.536 128.66 133.216M130.934 114.038C131.176 113.773 131.412 113.524 131.64 113.288M141.21 110.213C141.668 110.916 141.831 111.866 141.952 112.388C142.131 113.168 141.377 113.813 140.977 114.038C138.579 113.663 134.682 118.089 134.307 118.089C133.932 118.089 133.332 119.889 133.407 120.564C133.467 121.104 131.833 126.79 131.009 129.565C130.611 130.495 129.703 132.208 128.66 133.216M141.21 110.213C140.811 109.602 140.189 109.178 139.178 109.388C137.44 109.748 136.255 109.888 135.881 109.913C135.514 110.04 134.652 110.536 133.407 111.609M141.21 110.213C141.607 109.563 141.832 107.723 139.553 105.562M139.553 105.562C139.078 105.312 137.56 104.692 135.281 104.212M139.553 105.562L141.21 102.579M135.281 104.212C133.089 103.75 128.916 107.187 126.89 109.163M135.281 104.212C137.102 103.912 140.791 103.192 140.977 102.712C140.999 102.655 141.081 102.612 141.21 102.579M126.662 109.388C126.735 109.315 126.811 109.24 126.89 109.163M129.66 113.738L130.934 113.014M133.407 111.609L130.934 113.014M133.407 111.609C132.883 112.061 132.291 112.616 131.64 113.288M130.934 113.014C130.98 113.197 131.185 113.507 131.64 113.288M124.788 109.163H126.89M147.13 99.1868C147.19 99.3276 147.238 99.4774 147.273 99.6368C147.352 100.003 147.347 100.319 147.273 100.593M147.13 99.1868C147.323 99.0428 147.523 98.8927 147.73 98.7367C150.711 96.4907 155.097 93.0581 158.515 90.0753C161.166 87.762 161.344 86.742 164.471 84.8891M147.13 99.1868C147.061 99.025 146.976 98.8753 146.877 98.7367M173.805 71.5841C175.154 69.9339 175.379 67.4587 174.854 67.2336M167.809 62.2831C168.833 64.4834 170.897 69.0038 170.957 69.4838C171.032 70.0839 171.781 70.609 172.231 69.9339C172.59 69.3938 174.129 67.3086 174.854 66.3335C174.979 65.6585 175.154 63.9633 174.854 62.5832C174.479 60.858 171.931 49.6069 172.98 47.8067M167.809 62.2831C167.209 63.9333 165.111 66.3335 163.612 68.1338C162.412 69.574 160.364 69.0339 159.489 68.5838M167.809 62.2831C168.733 59.2079 169.593 52.6672 165.635 51.1071C160.689 49.1569 160.164 52.8323 158.89 54.5574C157.266 54.8324 154.078 56.0125 154.318 58.5328C154.618 61.6831 157.391 72.5592 158.89 73.0093C160.389 73.4593 162.263 79.8349 159.489 83.3602C158.176 85.0294 157.866 86.7025 157.956 88.0107L146.877 98.7367M172.98 47.8067C173.111 45.1664 170.786 41.8061 169.608 40.456M117.293 43.7562C118.143 41.006 120.711 34.6055 124.189 31.0051C128.536 26.5047 132.958 23.8794 136.705 24.2544C137.999 24.3839 139.396 24.956 140.677 25.6689M134.532 27.2547C136.69 25.1545 142.176 27.2297 144.65 28.5299C143.855 27.7909 142.365 26.6078 140.677 25.6689M117.293 33.9304C119.292 29.78 124.908 21.5842 131.384 22.0042C137.859 22.4243 140.278 24.6224 140.677 25.6689M128.91 40.9061C130.26 38.4058 134.187 33.6004 139.103 34.3804C144.02 35.1605 150.546 35.1555 153.194 35.0555C150.096 34.3304 143.256 32.7603 140.677 32.2802M130.185 67.3071L129.285 66.2586C129.187 66.0986 129.076 65.8598 129.061 65.6585M130.185 67.3071C130.644 67.3922 131.477 67.5212 132.133 67.5572M130.185 67.3071C129.81 67.6087 130.11 65.8891 130.185 65.7169M129.061 65.6585C129.045 65.451 129.131 65.2834 129.435 65.2834C130.185 65.2834 133.632 65.4335 134.906 64.9085C135.191 64.791 136.105 64.8087 136.065 64.9085M129.061 65.6585C129.365 65.6852 129.751 65.7073 130.185 65.7169M136.065 64.9085C135.928 65.2549 134.23 67.4157 133.706 67.5322C133.534 67.5705 132.441 67.5741 132.133 67.5572M136.065 64.9085C135.305 65.3557 133.302 65.5745 132.133 65.6662M132.133 65.6662C132.283 65.7304 132.493 66.8572 132.133 67.5572M132.133 65.6662C131.452 65.7196 130.774 65.7299 130.185 65.7169M128.611 65.6585C128.411 65.3585 128.551 64.7434 130.709 64.6834C132.868 64.6234 134.707 64.3084 135.356 64.1583C135.706 64.1334 136.51 64.2035 136.93 64.6834M119.617 67.1874C119.692 67.2024 119.767 67.2165 119.842 67.2298M119.842 67.2298C119.717 67.4562 119.317 67.8788 118.718 67.7587C117.968 67.6087 121.403 68.2088 121.361 67.9838M131.908 87.4107C131.759 87.4607 131.504 87.6057 131.684 87.7857C131.863 87.9657 132.108 88.3607 132.208 88.5358L133.728 87.7857M161.288 60.033C161.018 59.3985 160.691 58.403 160.55 57.4076M165.635 63.7083C166.06 63.0583 167.029 61.4431 167.509 60.183C168.109 58.6078 167.809 53.3573 166.385 52.5322C164.961 51.7072 162.712 53.1323 161.138 54.5574C160.471 55.1618 160.392 56.2847 160.55 57.4076M144.875 47.4317C148.422 46.1816 156.192 43.9364 158.89 44.9565C157.416 44.1563 153.599 42.796 150.121 43.7562C146.643 44.7164 145.024 44.1563 144.65 43.7562M143.825 24.2544C145.624 26.0796 150.016 29.985 153.194 31.0051C156.372 32.0252 158.015 31.6802 158.44 31.3801C157.791 32.1302 155.412 33.2853 151.095 31.9052M171.931 58.8329C172.131 59.6079 172.471 61.4581 172.231 62.6582C172.256 61.7581 172.036 59.7329 170.957 58.8329C169.877 57.9328 169.608 56.1576 169.608 55.3825M146.053 97.9867H144.125C144.023 98.7516 144.149 100.348 145.474 100.612C146.799 100.876 147.225 100.71 147.273 100.593M146.053 97.9867C146.381 98.1891 146.662 98.4365 146.877 98.7367M147.273 100.593C147.009 101.571 145.873 102.004 144.637 102.219M130.26 96.7116C129.978 95.9968 129.338 94.6062 129.037 94.7613M129.037 94.7613C128.319 95.1206 127.552 95.5596 126.89 96.0492M128.66 97.9867C127.921 97.6451 126.533 96.7794 126.89 96.0492M130.934 99.5395C130.959 100.197 131.249 101.512 132.208 101.512M130.934 99.5395C131.588 99.2249 132.14 99.021 132.583 98.8965M132.583 98.8965C132.858 99.1683 133.407 99.9819 133.407 101.062M118.493 109.163C118.842 109.029 119.557 109.187 119.617 110.888M120.966 113.014C122.065 112.506 124.264 112.358 124.264 115.838M126.89 118.089C127.796 118.314 129.418 119.124 128.66 120.564M136.855 110.888C137.13 111.255 137.664 112.195 137.605 113.014M134.307 104.962C134.831 104.987 135.881 105.382 135.881 106.763M151.92 110.888L153.078 107.963H154.318C152.759 107.963 153.668 107.163 154.318 106.763M180.55 77.1359C180.521 76.829 180.456 76.5009 180.364 76.1596M181.749 79.6849C207.157 89.1358 216.729 101.649 221.445 107.963M126.887 179.745V180.315M126.887 180.315C124.287 179.13 120.369 177.179 116.122 174.644M228.967 157.093C228.667 156.612 229.092 152.942 229.341 151.167C229.741 149.717 230.795 145.931 231.815 142.391C233.089 137.966 227.393 127.39 226.943 119.589C226.762 116.452 224.617 112.21 221.445 107.963M221.445 107.963C220.055 105.587 215.251 101.497 207.157 104.137C199.062 106.778 192.941 116.489 190.893 121.014M186.321 134.29C186.021 139.466 184.297 144.566 184.447 146.817M184.447 146.817C184.568 148.624 184.301 150.817 184.89 151.767M184.447 146.817L186.471 146.179L188.494 145.541M185.497 152.217C185.231 152.158 185.035 152 184.89 151.767M184.89 151.767C184.343 153.242 183.368 157.138 183.848 160.918C184.447 165.643 185.497 168.719 184.447 170.519C183.608 171.959 184.098 175.269 184.447 176.744L185.347 181.32M116.122 174.644C120.061 170.419 134.697 146.861 135.716 144.041M141.21 102.579C141.778 102.43 143.269 102.458 144.637 102.219M107.906 132.94C107.906 133.915 104.41 134.085 103.735 135.811C103.061 137.536 100.88 142.766 101.404 148.542M107.906 132.94C104.408 137.791 98.479 131.04 93.098 150.909C92.2121 154.18 86.6471 161.203 92.5986 172.094M107.906 132.94C107.081 136.909 106.891 143.966 112.047 148.542C117.204 153.118 121.688 149.298 123.285 146.817M110.998 166.468C122.465 157.093 120.758 150.473 123.285 146.817M128.66 133.216C130.058 135.292 121.566 145.541 124.264 145.541C124.462 145.541 123.768 146.118 123.285 146.817M160.55 57.4076C162.52 57.1826 166.295 57.3927 165.635 60.033C164.811 63.3333 162.337 61.3081 161.813 63.7083C161.393 65.6285 160.089 64.8084 159.489 64.1583C160.139 63.6333 161.048 62.2682 159.489 61.0081C157.931 59.7479 160.039 60.483 161.288 61.0081M165.635 55.7576C166.709 56.8739 168.213 59.8168 165.635 62.6582M73.8984 184.995L74.7978 182.745C74.3731 182.325 73.7035 181.252 74.423 180.315M73.8984 184.995C80.5042 186.97 94.657 191.656 98.422 194.596C99.6628 195.565 100.577 196.508 101.304 197.371M73.8984 184.995C73.5605 184.876 73.1567 184.73 72.6992 184.56M74.423 180.315C75.1425 179.379 76.1138 177.244 76.5094 176.294L50.7474 172.094M42.9447 170.822L48.4473 171.719M42.9447 170.822C44.4004 171.497 46.0117 172.248 47.6664 173.025M50.7474 172.094L48.4473 171.719M50.7474 172.094V173.287M50.7474 174.48C49.7215 173.993 48.6857 173.504 47.6664 173.025M50.7474 174.48C54.1036 176.073 57.3551 177.648 59.5832 178.794M50.7474 174.48V173.287M48.4473 171.719L47.6664 173.025M101.304 197.371L110.998 199.472M101.304 197.371C103.086 199.485 103.753 201.12 105.377 201.492M91.2117 187.292C91.2117 186.721 91.8465 185.421 92.4858 184.271M92.4858 184.271L120.441 196.171M69.8512 183.462C66.9421 182.304 63.2987 180.742 60.2578 179.145C60.0452 179.033 59.82 178.916 59.5832 178.794M69.8512 183.462L70.3758 180.57L59.5832 178.794M69.8512 183.462C70.9223 183.889 71.8939 184.261 72.6992 184.56M50.7474 173.287L73.8984 177.119C73.3987 177.592 72.4594 179.031 72.6992 181C72.9391 182.97 72.7991 184.194 72.6992 184.56M12.1409 107.738L41.3708 106.538M45.8677 202.547L44.6685 209.148M105.377 201.492C111.073 201.08 122.465 204.675 122.465 209.148C122.465 213.62 127.661 209.911 130.26 209.148M86.4899 190.321C84.1194 190.346 79.13 190.818 78.1373 192.497M156.267 110.213C156.34 110.114 156.416 110.014 156.493 109.913M180.55 90.0753C172.407 91.2873 161.273 103.613 156.493 109.913M168.558 209.148C162.263 209.148 145.667 207.732 140.451 205.811C137.824 204.843 138.916 201.536 136.882 199.472M144.637 102.219L143.471 105.937C143.547 106.175 143.643 106.456 143.755 106.763M156.493 109.913C148.34 119.233 147.273 111.609 146.053 110.888C145.241 110.408 144.307 108.277 143.755 106.763M143.755 106.763L143.471 116.869M137.605 179.535C138.354 180.08 139.853 183 139.853 190.321C139.853 199.472 139.73 203.383 136.882 199.472" stroke="black" stroke-width="1.5"/>
<path d="M41.7712 152.187L39.7911 147.526C39.9771 147.126 40.6241 143.079 40.9244 141.106L42.0762 142.769L41.7712 152.187Z" fill="#00B4A6"/>
<path d="M39.1806 137.125C37.8509 135.207 36.7905 132.786 36.4265 131.815L35.3716 126.572C36.6053 130.669 38.4469 133.624 39.1384 134.868C39.3336 135.219 40.2572 136.492 41.0745 137.634C41.0509 137.564 41.029 137.497 41.0092 137.436L40.7078 133.417L40.288 130.571L39.7027 127.637C38.5842 126.673 36.8898 127.991 36.1824 128.771L35.2888 126.315C35.934 122.663 38.1148 124.159 39.1245 125.364L41.1838 129.952C42.6409 135.035 42.2422 138.067 41.9796 138.945C42.0357 139.051 42.2986 139.427 43.0644 140.417C44.0962 141.75 46.5169 143.91 47.5984 144.823L48.7669 149.887C46.1255 146.433 40.5104 139.044 39.1806 137.125Z" fill="#00B4A6"/>
<path d="M38.1802 135.744C37.3605 134.494 36.3955 132.565 36.0154 131.757C35.9428 131.923 36.899 135.116 37.1336 135.844C37.3213 136.427 40.2216 140.669 41.6483 142.717C41.5963 144.248 41.3154 149.574 41.1815 152.045L42.8832 154.49L42.891 144.398L48.7261 152.691L49.6428 153.862L48.5721 149.476C42.5795 142.37 39.2048 137.306 38.1802 135.744Z" fill="#FFE34F"/>
<path d="M36.8914 131.239C36.8171 131.187 36.1638 129.612 35.8464 128.831C36.5246 126.872 38.4851 127.067 39.3806 127.409L39.5048 127.795C39.8372 129.051 39.9322 129.96 39.9381 130.258C38.1516 129.177 36.9841 131.303 36.8914 131.239Z" fill="#FFE34F"/>
<path d="M41.731 138.953C41.7574 133.986 41.2034 130.781 40.9231 129.799C41.0808 130.158 41.5155 131.169 41.9932 132.34C42.4709 133.511 42.6754 135.668 42.7179 136.601L42.7868 140.221L41.731 138.953Z" fill="#FFE34F"/>
<path d="M40.4267 140.61C40.2931 142.356 40.1248 145.13 39.606 146.606L42.2864 152.211L42.8545 143.755M40.4267 140.61C39.3222 139.152 37.4142 136.046 37.0521 135.178C36.5994 134.094 35.4976 130.726 34.6962 125.922M40.4267 140.61L42.8545 143.755M34.6962 125.922C35.0557 124.465 35.826 122.038 38.8131 123.557M34.6962 125.922C35.0264 126.909 35.7198 129.42 36.674 131.324M38.8131 123.557C39.9607 125.663 42.895 130.093 43.2052 132.188C43.297 132.774 42.9011 136.092 43.0348 139.77M38.8131 123.557C39.3787 125.204 39.4494 128.414 39.7084 130.129M43.0348 139.77C43.9486 140.722 45.9697 142.227 47.9226 143.302L50.2405 154.118L42.8545 143.755M43.0348 139.77C42.1029 138.812 41.5551 138.433 40.5405 137.082C40.3518 136.831 40.1811 136.548 39.9838 136.221M36.674 131.324C37.3431 132.66 38.1074 133.519 38.9761 134.69C39.4237 135.294 39.7264 135.795 39.9838 136.221M36.674 131.324C37.1733 130.58 37.9715 129.288 39.7084 130.129M39.7084 130.129L39.9838 136.221" stroke="black" stroke-width="1.5"/>
<path d="M188.633 78.4373C189.984 78.0713 193.275 76.5706 195.633 73.4961" stroke="black" stroke-width="1.5"/>
<path d="M149.102 119.344C148.601 117.098 147.533 115.205 146.433 113.206C146.163 112.715 146.22 112.291 146.22 111.688C146.22 111.102 146.86 110.878 147.15 110.423C147.578 109.75 147.67 109.005 147.73 108.227" stroke="black" stroke-width="1.5" stroke-linecap="round"/>
<path d="M148.827 119.617C148.807 119.889 147.802 122.796 148.384 122.774C148.805 122.758 149.101 121.088 149.101 120.715" stroke="black" stroke-width="1.5" stroke-linecap="round"/>
<path d="M154.315 122.087C153.812 121.936 153.626 121.414 154.224 121.294C154.499 121.239 154.519 121.67 154.582 121.889C154.72 122.373 153.746 121.864 153.644 121.721C152.98 120.786 153.052 119.673 153.11 118.58C153.206 116.79 153.716 115.197 153.423 113.379C153.233 112.2 153.354 110.93 153.354 109.734" stroke="black" stroke-width="1.5" stroke-linecap="round"/>
<path d="M159.941 88.8673C161.022 84.7097 173.337 69.7327 178.334 68.8281" stroke="black" stroke-width="1.5" stroke-linecap="round"/>
<path d="M175.541 64.4866C177.039 64.4866 178.505 64.1894 180.016 64.1894C181.193 64.1894 183.116 63.7841 184.204 64.2555C187.139 65.4718 190.412 69.4201 180.016 75.483C169.621 81.5458 165.136 84.5093 163.645 85.3019" stroke="black" stroke-width="1.5" stroke-linecap="round"/>
<path d="M175.039 59.2836C177.969 59.4265 183.648 59.0084 186.568 59.2836C189.542 59.5637 193.627 59.5573 196.207 61.3881C198.119 62.7452 200.344 68.3931 198.25 70.3555C196.808 71.7076 195.537 72.9549 195.292 75.0831C195.081 76.9141 194.811 79.0401 195.2 80.8783C195.688 83.18 197.45 84.1612 197.823 86.399M183.274 75.0831C186.019 73.3649 191.016 69.2148 189.039 66.3599C187.063 63.505 186.568 62.105 175.863 64.0265" stroke="black" stroke-width="1.5" stroke-linecap="round"/>
<path fill-rule="evenodd" clip-rule="evenodd" d="M160.916 130.036C161.053 130.252 161.312 130.76 161.254 131.063L160.369 130.942L159.978 131.762L160.501 131.833L160.483 131.96L160.517 131.964L160.446 132.483L160.285 132.461L160.258 132.662L160.332 132.672L160.282 133.042L160.356 133.149C160.179 133.175 159.8 133.347 159.697 133.824C159.673 133.934 159.655 134.091 159.632 134.284C159.53 135.142 159.344 136.715 158.25 138.034L158.153 138.743L159.394 138.912C159.369 139.081 159.364 139.423 159.548 139.439C159.731 139.456 159.821 139.135 159.843 138.973L161.124 139.147L161.22 138.439C160.96 138.209 160.543 137 160.958 133.996C160.965 133.742 160.895 133.222 160.557 133.176L160.61 133.087L160.66 132.716L160.741 132.727L160.768 132.526L160.614 132.505L160.685 131.987L160.718 131.992L160.735 131.865L161.198 131.928L161.272 131.938C161.137 133.044 161.184 135.354 162.447 135.75L161.834 140.257C161.812 140.451 161.602 140.824 160.939 140.76L160.91 140.972L163.364 141.306L163.393 141.094C163.159 141.138 162.687 141.054 162.665 140.37L163.278 135.863C163.809 135.795 164.984 135.044 165.439 132.58L165.982 132.654L165.903 133.236L165.709 133.209L165.673 133.474L165.753 133.485L165.717 133.749L165.823 133.828L165.802 133.976C165.678 133.952 165.382 134.008 165.189 134.421C165.121 134.567 165.075 134.878 165.017 135.281C164.867 136.306 164.632 137.92 163.721 138.887L163.637 139.5L164.904 139.673C164.888 139.861 164.892 140.244 165.041 140.273C165.19 140.302 165.276 139.921 165.3 139.726L166.661 139.912L166.738 139.351C166.415 138.908 166.021 137.594 166.429 134.59C166.4 134.404 166.275 134.026 166.01 134.005L166.031 133.857L166.167 133.81L166.203 133.546L166.27 133.555L166.306 133.291L166.111 133.264L166.19 132.682L166.72 132.754L166.566 131.828L165.694 131.71C165.827 131.455 166.134 130.918 166.301 130.812L166.33 130.6C166.084 130.502 165.459 130.566 164.93 131.606L163.924 131.469C163.945 131.131 164.07 130.465 164.403 130.51L164.845 130.571L164.889 130.253L162.361 129.909L162.326 130.163L162.742 130.22C162.885 130.239 163.135 130.465 162.989 131.212L162.972 131.339L161.965 131.159C161.904 130.752 161.614 129.924 160.939 129.867L160.916 130.036ZM166.36 143.329L158.649 141.978C158.413 141.903 157.895 142.1 157.706 143.488C157.47 145.223 157.473 147.206 159.323 149.268C160.804 150.917 162.808 149.828 163.625 149.077C164.477 148.015 165.865 145.693 164.596 144.9C163.01 143.908 159.625 143.49 159.332 144.183C159.317 144.22 159.3 144.259 159.283 144.299C158.972 145.019 158.422 146.292 159.761 147.862C161.174 149.52 163.385 148.528 163.378 146.975C163.372 145.733 161.835 145.731 161.068 145.885L160.669 146.606C161.651 146.481 163.326 146.554 162.167 147.845C160.718 149.458 157.035 144 162.049 144.898C166.06 145.616 163.931 148.429 162.292 149.284C161.05 149.761 157.542 148.508 158.231 144.249C158.205 143.699 158.449 142.684 159.628 143.017L166.011 143.885L166.36 143.329ZM164.546 132.523L163.768 132.418L163.374 135.316L163.468 135.329C164.086 135.12 164.444 133.372 164.546 132.523ZM162.115 132.195L162.893 132.301L162.499 135.2L162.405 135.187C161.865 134.82 161.987 133.04 162.115 132.195Z" fill="#00B4A6"/>
<path d="M156.672 142.618C156.814 138.361 157.765 134.721 158.222 133.433C159.405 130.042 160.96 128.906 161.59 128.762C162.028 128.549 163.403 128.285 165.391 128.935C167.379 129.584 168.02 133.904 168.092 135.983C167.929 139.796 166.915 147.968 164.171 150.146C161.427 152.324 159.034 150.826 158.18 149.805C157.618 149.182 156.53 146.874 156.672 142.618Z" stroke="#00B4A6" stroke-width="1.5"/>
<path d="M131.852 66.1584C131.849 66.1681 131.845 66.1791 131.836 66.1892M131.836 66.1892C131.81 66.2219 131.749 66.2456 131.631 66.1892C131.439 66.0969 131.659 65.8507 131.824 66.1277L131.836 66.1892ZM131.228 66.1277C131.283 66.1687 130.856 66.6904 131.228 66.1277ZM131.228 66.1277C131.366 66.7984 130.652 66.1277 131.228 66.1277Z" stroke="black"/>
</svg>
