<svg width="240" height="240" viewBox="0 0 240 240" fill="none" xmlns="http://www.w3.org/2000/svg">
<circle cx="189.356" cy="142.034" r="6.25044" fill="#FFE34F"/>
<circle cx="215.286" cy="142.034" r="6.25044" fill="#FFE34F"/>
<circle cx="207.715" cy="164.102" r="6.25044" fill="#FFE34F"/>
<path d="M111.576 58.4624C100.908 44.2202 84.0504 35.0039 64.8863 35.0039C32.5822 35.0039 6.39453 61.1916 6.39453 93.4957C6.39453 104.405 9.30418 114.54 14.5047 123.282" stroke="#00B4A6" stroke-width="2"/>
<path d="M12.3864 124.901C6.44849 115.749 3 104.832 3 93.109C3 60.8049 29.1877 34.6172 61.4918 34.6172C83.0144 34.6172 101.822 46.2415 111.979 63.5544" stroke="#FFE34F" stroke-width="2"/>
<path d="M18.7705 154.074L22.7833 156.435M34.5124 163.334C33.8951 162.511 33.0308 160.371 34.5124 158.396C36.3644 155.926 43.4637 135.246 51.4889 135.246C51.771 135.246 52.054 135.256 52.3377 135.275M34.5124 163.334C35.0491 163.503 35.5895 163.666 36.133 163.822C54.7333 169.184 76.9532 167.625 79.5773 166.575C81.4535 165.825 82.9224 164.283 83.6303 163.334M34.5124 163.334L24.7896 157.615M136.536 108.083C138.795 105.056 141.408 101.597 142.39 100.444C144.165 98.3606 141.773 97.6661 140.616 97.6661C139.69 97.6661 133.397 105.383 130.67 109.241C133.268 106 139.381 98.9625 140.616 96.7401C141.85 94.5177 139.484 94.3222 138.146 94.5023L127.42 106.54C131.844 100.264 137.716 88.811 131.789 91.5272C129.59 95.3226 124.358 102.446 123.88 102.446C123.323 102.993 122.644 103.397 121.768 103.604C117.57 104.591 117.655 97.486 118.478 93.5763C118.478 92.6847 118.318 91.7467 117.393 91.1069M136.536 108.083C135.529 109.433 133.984 110.963 133.294 111.899L136.536 108.083ZM136.536 108.083C138.23 107.209 141.696 105.475 142.005 105.537C142.39 105.614 144.397 105.846 143.625 107.543M143.625 107.543L159.984 106.355M143.625 107.543C143.365 108.116 142.692 108.592 141.677 109.241M76.8765 157.393C77.4681 155.463 79.1761 151.296 81.275 150.062M52.3377 135.275C58.512 135.693 64.9819 140.503 67.5394 142.962C68.0088 143.7 71.2676 143.083 80.0404 138.464M52.3377 135.275C51.6175 135.111 49.3746 134.459 46.1645 133.162M46.1645 133.162C42.1518 131.542 38.525 141.728 32.9691 141.651M46.1645 133.162C47.7695 133.098 45.8044 131.901 44.6211 131.31H44.2353M44.2353 131.31C40.7886 132.751 33.5247 136.11 32.0431 138.024M44.2353 131.31C44.1522 131.13 44.0015 130.925 43.7723 130.712M34.6667 129.304C40.036 128.646 42.7245 129.743 43.7723 130.712M31.6573 121.896C31.7811 121.938 31.9098 121.982 32.0431 122.029M43.7723 130.712C42.3443 126.563 35.5928 123.286 32.0431 122.029M7.04131 142.5C6.99898 141.825 6.9808 141.071 6.99461 140.262M21.7801 120.584C31.3487 118.856 31.2971 121.265 32.0431 122.029M6.99461 140.262C6.54178 144.197 5.90781 152.701 6.99461 155.232C8.35312 158.396 13.6005 178.613 16.8415 184.401C20.0824 190.188 15.0667 188.49 19.4651 190.42C23.8636 192.349 17.073 189.571 18.462 194.509C19.851 199.448 16.8415 196.13 17.3816 199.525C17.9218 202.92 14.6037 201.609 20.4683 201.3M6.99461 140.262C7.0892 134.719 8.68342 126.552 14.295 123.21C16.2638 120.981 19.7428 117.15 21.7801 115.216M28.4164 176.298C26.7959 176.916 24.6352 178.845 23.8636 181.623C23.0919 184.401 20.4683 185.481 20.4683 187.564M18.2305 165.804C20.3139 164.1 24.5426 160.077 24.7896 157.615M24.7896 157.615L22.7833 156.435M16.8415 155.849L22.7833 156.435M23.3234 114.025C24.1722 114.102 42.9236 126.085 57.5851 124.057L56.7537 120.584M23.3234 114.025C27.3361 114.025 28.3392 109.704 28.6479 108.006C28.8284 107.013 27.3584 103.073 25.9875 99.7495M23.3234 114.025C23.1347 114.008 22.5642 114.471 21.7801 115.216M54.9615 113.099C54.2927 109.987 53.0169 103.592 53.2638 102.913M54.9615 113.099C57.2507 113.099 62.107 113.099 63.2182 113.099M54.9615 113.099L56.7537 120.584M53.2638 102.913C53.5725 102.065 56.3505 93.6534 54.4985 87.2487C52.6465 80.8439 49.9457 73.8218 46.859 69.732M53.2638 102.913C48.5567 110.861 36.9818 106.309 31.4258 104.302C28.1467 103.118 25.8699 99.4812 24.6018 96.5086M46.859 69.732C43.7724 65.6422 45.2386 63.0957 42.2291 62.0154C39.2196 60.9351 28.0305 59.0059 23.6321 62.7871C19.2336 66.5682 16.3785 67.1084 15.3753 69.732C14.3722 72.3556 12.6745 73.8989 13.6005 76.9856C14.5265 80.0722 18.1533 87.4801 18.462 88.1746C18.5311 88.3301 18.7394 88.5165 19.0272 88.7148M46.859 69.732C46.4218 68.6002 44.3434 66.1206 39.5283 65.2563C33.5093 64.176 34.281 66.3367 30.3455 66.3367C27.1972 66.3367 24.0951 69.732 22.9376 71.4296C23.3749 73.2816 23.7555 77.4331 21.7801 79.2234C19.3108 81.4612 22.3974 87.2487 22.3974 88.7148C22.3974 89.8877 23.6321 92.1358 24.2494 93.1133L23.6321 93.7306M23.6321 93.7306C23.4006 92.7017 22.8296 90.5976 22.3974 90.4124C21.9782 90.2328 20.0249 89.4023 19.0272 88.7148M23.6321 93.7306C23.7431 94.1557 23.8954 94.6529 24.0887 95.1967M24.6018 96.5086C24.9922 97.3872 25.4831 98.5266 25.9875 99.7495M24.6018 96.5086C24.4069 96.0518 24.2359 95.6108 24.0887 95.1967M19.0272 88.7148C18.1185 88.6376 16.5174 89.008 17.3816 91.1069C18.462 93.7306 21.6295 101.91 25.9875 99.7495M21.7801 91.8014C20.494 90.6718 17.9218 88.8126 17.9218 90.4124C17.9218 92.0123 19.1565 93.2912 19.7738 93.7306M19.7738 92.5731C19.6709 93.4219 19.6349 95.2585 20.3139 95.8141C21.1628 96.5086 22.9376 96.1999 22.9376 96.9716M21.7801 92.5731C21.2657 92.9332 20.5454 93.8695 21.7801 94.7337C23.3234 95.8141 23.8588 94.5794 24.0887 95.1967M50.3315 113.099C50.8717 112.559 51.7514 111.062 50.9488 109.395M50.3315 91.1069C46.5134 91.1069 44.728 92.4445 44.3126 93.1133C42.9544 92.6194 38.6023 94.708 36.596 95.8141C36.754 95.9427 36.9082 96.0641 37.059 96.1788M50.3315 91.1069C47.9857 93.0207 40.5057 95.2855 37.059 96.1788M50.3315 91.1069C50.3208 91.5228 50.2708 92.0288 50.1675 92.5731M37.059 96.1788C37.7589 96.7107 38.3861 97.0955 38.9881 97.3672M38.9881 97.3672C40.9798 98.2661 42.9236 98.7464 45.8559 97.5889C48.4195 96.5769 49.7722 94.6546 50.1675 92.5731M38.9881 97.3672C41.8882 97.2353 48.1843 96.0919 50.1675 92.5731M38.9881 96.5086C40.6086 96.2513 44.2508 95.5363 45.8559 94.7337M27.9534 84.2392C28.5193 83.3132 30.114 81.4612 31.966 81.4612M41.9976 75.8281C41.442 76.6923 41.0459 75.468 40.9173 74.7478C46.4732 71.1673 48.3252 72.8958 48.5567 74.2076C46.9459 71.9698 42.6921 74.7478 41.9976 75.8281ZM41.9976 75.8281C41.0202 76.6512 39.4357 78.9302 40.9173 81.4612C42.3988 83.9922 43.7981 86.014 44.3126 86.7085M43.2322 77.6029C43.5856 77.0113 44.8982 75.8281 47.322 75.8281M38.2165 88.7148C37.8563 89.5122 38.1084 90.968 41.9976 90.4124C42.8721 90.5153 44.6521 90.5205 44.7756 89.718C44.899 88.9154 46.216 88.046 46.859 87.7116C46.8848 87.3001 46.7201 86.3998 45.8559 86.0912M34.5897 94.7337C34.3324 95.454 34.0958 97.0333 35.207 97.5889M50.9488 88.1746C51.3347 88.4576 52.0755 89.3013 51.952 90.4124M63.2182 113.099C64.6072 113.099 67.5394 117.498 67.5394 118.964M63.2182 113.099C64.993 112.816 68.8976 112.42 70.3175 113.099C70.5146 113.194 70.7773 113.379 71.0892 113.643M80.0404 138.464C80.0147 136.903 79.8861 132.622 79.5774 127.992C79.2344 122.847 73.5861 115.751 71.0892 113.643M80.0404 138.464C83.2807 136.758 87.2733 134.506 92.1555 131.575M71.0892 113.643C73.6147 114.967 78.2129 117.616 80.0404 119.437M80.8121 120.584C80.7639 120.271 80.4836 119.878 80.0404 119.437M80.0404 119.437C80.6048 119.313 81.6494 119.557 82.1939 121.125M81.5837 133.162C81.9953 130.95 82.7567 125.77 82.5097 122.745C82.4563 122.091 82.3441 121.557 82.1939 121.125M82.1939 121.125C83.1737 121.51 85.1488 122.529 85.2105 123.517M85.2105 123.517C85.2877 124.751 84.6776 131.388 83.4357 132.699M85.2105 123.517C87.6541 123.568 92.5413 123.918 92.5413 124.906M92.5413 124.906C92.5413 126.14 93.0025 131.068 92.1555 131.575M92.5413 124.906L98.2516 127.846M92.1555 131.575C94.0508 130.437 96.0801 129.197 98.2516 127.846M60.7489 129.844C61.1347 131.285 61.8447 134.551 61.5977 136.095M63.2954 132.699C63.2954 133.607 63.2954 135.727 63.2954 136.944M66.9994 135.246C67.2566 136.275 67.6167 138.518 66.9994 139.259M98.2516 127.846C98.5826 127.64 98.917 127.432 99.2546 127.221C105.505 123.314 110.197 117.961 111.678 115.491C112.399 114.29 112.746 110.657 113.01 106.54C113.424 100.08 113.634 92.4266 114.765 91.1069C114.874 90.9796 114.988 90.8761 115.107 90.7942M99.3268 150.062C93.8935 155.878 88.3199 160.946 83.8986 162.949C83.8275 163.06 83.7377 163.19 83.6303 163.334M99.3268 150.062C103.583 145.506 107.753 140.49 111.215 136.13M99.3268 150.062C105.064 150.062 109.952 148.21 111.678 147.284M111.678 147.284C112.049 144.506 111.37 138.614 111.215 136.13M111.678 147.284C112.399 160.273 112.851 186.422 110.752 188.027L158.441 194.895M111.215 136.13C115.599 130.611 118.849 126.141 119.704 124.983C122.096 121.742 126.108 124.134 132.282 117.112C134.485 114.606 136.462 112.886 138.129 111.633M158.441 194.895L159.984 111.633M158.441 194.895L235.221 190.034L236.996 112.328M159.984 111.633H154.583H140.616H138.129M159.984 111.633L220.945 112.183M138.129 111.633C139.557 110.56 140.758 109.829 141.677 109.241M236.996 112.328L220.945 109.241M236.996 112.328L220.945 112.183M113.556 97.6661C114.418 96.8042 112.041 64.657 110.289 38.6341M204.895 36.1648L207.364 102.913L159.984 106.355M204.895 36.1648L184.986 34.4671L147.792 36.1648M204.895 36.1648L149.798 38.712C149.078 38.3259 147.669 37.276 147.792 36.1648M114.765 40.3317L110.289 38.6341M114.765 40.3317L117.393 91.1069M114.765 40.3317V38.2483M110.289 38.6341H113.556L114.765 38.2483M83.6303 163.334C84.2856 168.144 85.2567 178.984 83.8986 183.86C82.5406 188.737 83.7444 200.863 84.516 206.316M117.393 91.1069C116.611 90.5662 115.789 90.322 115.107 90.7942M147.792 36.1648C147.916 35.0536 146.609 34.57 145.94 34.4671C136.557 33.109 121.247 35.033 114.765 36.1648V38.2483M159.984 106.355L155.74 109.241M31.6573 82.4852C32.6479 82.1626 33.8416 82.1959 35.207 82.9273C34.575 83.2487 33.6101 83.7039 32.5833 84.1258M31.6573 82.4852C32.1718 82.6599 33.0772 83.2325 32.5833 84.1258M31.6573 82.4852C30.9435 82.7177 30.3351 83.135 29.8439 83.609M32.5833 84.1258C31.9688 84.3782 31.3321 84.6187 30.7314 84.8114M29.8439 83.609C29.2911 84.1425 28.8869 84.7479 28.6479 85.2423C29.1844 85.2423 29.9256 85.0699 30.7314 84.8114M29.8439 83.609C29.8311 84.0334 29.9906 84.868 30.7314 84.8114M43.6952 78.2453C43.311 78.6586 42.9884 79.1833 42.7692 79.8407C43.2628 79.7553 43.9869 79.6089 44.7756 79.4147M43.6952 78.2453C43.8624 78.6846 44.3126 79.5335 44.7756 79.4147M43.6952 78.2453C44.3651 77.5247 45.2225 77.1426 46.0462 76.9856M44.7756 79.4147C45.1893 79.3129 45.6209 79.1979 46.0462 79.0716M46.0462 76.9856C47.9113 76.63 49.6038 77.4285 48.5567 78.0659C47.9357 78.4439 47.0068 78.7864 46.0462 79.0716M46.0462 76.9856C46.354 77.5957 46.7849 78.8671 46.0462 79.0716M28.6479 64.639C29.2909 64.7418 30.9783 64.7315 32.5833 63.8673C34.1884 63.0031 36.2359 63.5072 37.059 63.8673C36.6731 62.9928 34.96 61.3981 31.1943 62.0154M38.6023 62.7871C39.4768 62.6327 41.3803 62.5555 41.9976 63.4815C42.6149 64.4075 43.0779 65.0505 43.2322 65.2563C42.5635 64.6647 41.0562 63.4815 40.3771 63.4815M21.0084 69.0374C20.1596 68.986 18.3539 69.2998 17.9218 70.9666C17.4897 72.6334 16.7643 72.4842 16.4556 72.2012C16.6623 72.0469 17.2448 71.198 17.9218 69.0374C18.5988 66.8768 21.5478 66.9025 22.9376 67.1854M220.945 109.241H155.74M220.945 109.241V112.183M155.74 109.241H141.677M21.7801 115.216C29.5542 119.42 47.701 127.398 58.0957 125.673L59.7934 124.906L56.7537 120.584M114.736 92.8818C115.34 92.9047 116.194 93.3914 116.009 92.3761C115.777 91.1069 115.787 90.4814 115.107 90.7942M124.536 108.585C124.793 107.929 125.114 106.602 124.343 106.54M127.854 111.633C128.111 110.977 128.433 109.65 127.661 109.588M130.4 114.523C130.657 113.867 130.979 112.54 130.207 112.478M132.768 116.568C133.025 115.912 133.346 114.584 132.575 114.523M33.2007 76.9856C34.0495 76.9598 35.6391 77.1399 35.207 78.0659C34.6668 79.2234 27.3733 78.3746 25.9875 82.4644C26.0769 81.0496 27.1509 78.0968 30.7314 77.6029L33.2007 76.9856ZM132.599 92.3375C132.252 92.5933 131.681 92.7817 132.175 93.3406C132.792 94.0393 133.603 93.6575 133.603 93.1133C133.603 92.569 133.92 91.3729 132.599 92.3375ZM138.146 95.6942L139.352 96.7401C139.982 96.3543 140.833 95.8794 140.277 95.6942C139.583 95.4627 139.757 94.6483 138.146 95.6942ZM140.616 98.9352L141.677 100.444C142.182 99.9025 142.954 98.7886 142.005 98.6651C140.818 98.5108 140.616 98.2021 140.616 98.9352ZM142.39 106.883L142.67 107.543C142.965 107.634 143.318 107.78 143.133 106.883C142.947 105.986 142.561 106.51 142.39 106.883Z" stroke="black"/>
<path d="M45.6133 78.2123C45.6117 78.226 45.6083 78.2415 45.6026 78.2558M45.6026 78.2558C45.584 78.3019 45.5409 78.3355 45.4577 78.2558C45.3216 78.1253 45.4771 77.7773 45.5938 78.1688L45.6026 78.2558ZM45.1724 78.1688C45.2113 78.2268 44.9093 78.9643 45.1724 78.1688ZM45.1724 78.1688C45.27 79.1171 44.7654 78.1688 45.1724 78.1688Z" stroke="black"/>
<path d="M31.7148 83.6146C31.7133 83.6283 31.7099 83.6438 31.7041 83.6581M31.7041 83.6581C31.6855 83.7043 31.6424 83.7379 31.5593 83.6581C31.4231 83.5276 31.5787 83.1796 31.6954 83.5711L31.7041 83.6581ZM31.2739 83.5711C31.3128 83.6291 31.0109 84.3667 31.2739 83.5711ZM31.2739 83.5711C31.3716 84.5194 30.867 83.5711 31.2739 83.5711Z" stroke="black"/>
<path d="M205.468 136.025C205.683 136.61 205.502 137.262 205.038 137.679L202.13 140.328C202.204 140.886 202.245 141.457 202.245 142.036C202.245 142.614 202.204 143.185 202.13 143.743L205.038 146.392C205.502 146.809 205.683 147.461 205.468 148.046C205.173 148.846 204.817 149.613 204.407 150.352L204.092 150.897C203.648 151.636 203.151 152.336 202.607 152.994C202.211 153.478 201.553 153.64 200.962 153.452L197.221 152.262C196.321 152.954 195.327 153.532 194.266 153.969L193.427 157.808C193.292 158.42 192.822 158.904 192.204 159.005C191.277 159.16 190.324 159.24 189.35 159.24C188.376 159.24 187.422 159.16 186.496 159.005C185.878 158.904 185.408 158.42 185.273 157.808L184.434 153.969C183.373 153.532 182.379 152.954 181.479 152.262L177.745 153.458C177.154 153.647 176.496 153.478 176.099 153.001C175.555 152.342 175.058 151.643 174.615 150.903L174.299 150.359C173.89 149.619 173.534 148.853 173.238 148.053C173.023 147.468 173.205 146.816 173.668 146.399L176.576 143.75C176.502 143.185 176.462 142.614 176.462 142.036C176.462 141.457 176.502 140.886 176.576 140.328L173.668 137.679C173.205 137.262 173.023 136.61 173.238 136.025C173.534 135.225 173.89 134.459 174.299 133.719L174.615 133.174C175.058 132.435 175.555 131.736 176.099 131.077C176.496 130.593 177.154 130.431 177.745 130.62L181.486 131.81C182.385 131.117 183.379 130.539 184.441 130.102L185.28 126.263C185.414 125.651 185.884 125.167 186.502 125.066C187.429 124.905 188.383 124.824 189.357 124.824C190.33 124.824 191.284 124.905 192.211 125.06C192.829 125.16 193.299 125.644 193.433 126.256L194.273 130.095C195.334 130.532 196.328 131.11 197.228 131.803L200.969 130.613C201.56 130.425 202.218 130.593 202.614 131.07C203.158 131.729 203.655 132.428 204.098 133.168L204.414 133.712C204.824 134.452 205.18 135.218 205.475 136.018L205.468 136.025ZM189.357 147.414C190.782 147.414 192.148 146.847 193.156 145.839C194.163 144.83 194.729 143.462 194.729 142.036C194.729 140.609 194.163 139.241 193.156 138.232C192.148 137.224 190.782 136.657 189.357 136.657C187.932 136.657 186.565 137.224 185.558 138.232C184.55 139.241 183.984 140.609 183.984 142.036C183.984 143.462 184.55 144.83 185.558 145.839C186.565 146.847 187.932 147.414 189.357 147.414Z" fill="#00B4A6"/>
<path d="M219.079 159.87C219.23 160.282 219.102 160.741 218.776 161.035L216.726 162.9C216.778 163.292 216.807 163.695 216.807 164.102C216.807 164.509 216.778 164.911 216.726 165.304L218.776 167.169C219.102 167.462 219.23 167.922 219.079 168.333C218.87 168.897 218.619 169.436 218.331 169.957L218.108 170.34C217.796 170.861 217.446 171.353 217.062 171.817C216.783 172.158 216.319 172.272 215.903 172.139L213.266 171.301C212.632 171.789 211.932 172.196 211.184 172.504L210.592 175.206C210.497 175.637 210.166 175.978 209.731 176.049C209.077 176.158 208.405 176.214 207.719 176.214C207.033 176.214 206.361 176.158 205.707 176.049C205.272 175.978 204.941 175.637 204.846 175.206L204.254 172.504C203.506 172.196 202.806 171.789 202.172 171.301L199.54 172.144C199.124 172.276 198.66 172.158 198.38 171.822C197.997 171.358 197.647 170.866 197.334 170.345L197.112 169.962C196.823 169.441 196.572 168.901 196.364 168.338C196.213 167.926 196.34 167.467 196.667 167.174L198.716 165.309C198.664 164.911 198.636 164.509 198.636 164.102C198.636 163.695 198.664 163.292 198.716 162.9L196.667 161.035C196.34 160.741 196.213 160.282 196.364 159.87C196.572 159.307 196.823 158.767 197.112 158.247L197.334 157.863C197.647 157.343 197.997 156.85 198.38 156.386C198.66 156.046 199.124 155.932 199.54 156.065L202.176 156.902C202.811 156.415 203.511 156.008 204.259 155.7L204.851 152.997C204.945 152.567 205.277 152.226 205.712 152.155C206.365 152.041 207.037 151.984 207.724 151.984C208.41 151.984 209.082 152.041 209.735 152.15C210.171 152.221 210.502 152.562 210.597 152.993L211.188 155.695C211.936 156.003 212.637 156.41 213.271 156.898L215.907 156.06C216.324 155.927 216.788 156.046 217.067 156.382C217.45 156.846 217.801 157.338 218.113 157.858L218.335 158.242C218.624 158.763 218.875 159.302 219.083 159.865L219.079 159.87ZM207.724 167.888C208.728 167.888 209.691 167.49 210.401 166.779C211.111 166.069 211.51 165.106 211.51 164.102C211.51 163.098 211.111 162.134 210.401 161.424C209.691 160.714 208.728 160.315 207.724 160.315C206.719 160.315 205.756 160.714 205.046 161.424C204.336 162.134 203.937 163.098 203.937 164.102C203.937 165.106 204.336 166.069 205.046 166.779C205.756 167.49 206.719 167.888 207.724 167.888Z" fill="#00B4A6"/>
<path d="M224.954 138.475C225.083 138.825 224.975 139.216 224.697 139.465L222.952 141.051C222.996 141.385 223.02 141.727 223.02 142.073C223.02 142.419 222.996 142.761 222.952 143.096L224.697 144.681C224.975 144.931 225.083 145.321 224.954 145.671C224.777 146.15 224.564 146.609 224.318 147.052L224.128 147.378C223.862 147.821 223.564 148.239 223.238 148.634C223 148.924 222.605 149.02 222.251 148.907L220.006 148.195C219.466 148.61 218.87 148.956 218.233 149.217L217.729 151.516C217.649 151.882 217.367 152.172 216.996 152.232C216.44 152.325 215.868 152.373 215.283 152.373C214.699 152.373 214.127 152.325 213.571 152.232C213.2 152.172 212.918 151.882 212.837 151.516L212.334 149.217C211.697 148.956 211.101 148.61 210.561 148.195L208.32 148.911C207.966 149.024 207.571 148.924 207.333 148.638C207.007 148.243 206.708 147.825 206.442 147.382L206.253 147.056C206.007 146.613 205.794 146.154 205.616 145.675C205.487 145.325 205.596 144.935 205.874 144.685L207.619 143.1C207.575 142.761 207.551 142.419 207.551 142.073C207.551 141.727 207.575 141.385 207.619 141.051L205.874 139.465C205.596 139.216 205.487 138.825 205.616 138.475C205.794 137.996 206.007 137.537 206.253 137.094L206.442 136.768C206.708 136.326 207.007 135.907 207.333 135.513C207.571 135.223 207.966 135.126 208.32 135.239L210.565 135.951C211.105 135.537 211.701 135.191 212.338 134.929L212.841 132.631C212.922 132.265 213.204 131.975 213.575 131.914C214.131 131.818 214.703 131.77 215.287 131.77C215.872 131.77 216.444 131.818 217 131.91C217.371 131.971 217.653 132.261 217.733 132.627L218.237 134.925C218.874 135.187 219.47 135.533 220.01 135.947L222.255 135.235C222.609 135.122 223.004 135.223 223.242 135.509C223.568 135.903 223.866 136.322 224.132 136.764L224.322 137.09C224.568 137.533 224.781 137.992 224.958 138.471L224.954 138.475ZM215.287 145.293C216.142 145.293 216.962 144.954 217.567 144.35C218.171 143.746 218.511 142.927 218.511 142.073C218.511 141.219 218.171 140.4 217.567 139.796C216.962 139.193 216.142 138.853 215.287 138.853C214.432 138.853 213.613 139.193 213.008 139.796C212.403 140.4 212.064 141.219 212.064 142.073C212.064 142.927 212.403 143.746 213.008 144.35C213.613 144.954 214.432 145.293 215.287 145.293Z" fill="#00B4A6"/>
<circle cx="189.319" cy="142.071" r="8.22133" stroke="#DE2010" stroke-width="2"/>
<circle cx="215.288" cy="142.033" r="5.01895" stroke="#DE2010" stroke-width="2"/>
<circle cx="207.606" cy="164.219" r="5.90635" stroke="#DE2010" stroke-width="2"/>
</svg>
