<svg width="240" height="240" viewBox="0 0 240 240" fill="none" xmlns="http://www.w3.org/2000/svg">
<path d="M22.352 85.7432C22.1217 85.8506 21.7994 85.7524 22.352 84.5" stroke="#00B4A6" stroke-width="2"/>
<path d="M22.442 85.6066C31.8431 46.1543 67.3212 17 109.652 17C159.164 17 199.301 57.1372 199.301 106.649C199.301 123.235 194.796 138.769 186.944 152.095M151.23 186.06C153.856 184.71 155.762 183.603 158.229 182.009" stroke="#00B4A6" stroke-width="2"/>
<path d="M29.9471 80.9111C29.7629 80.8804 29.2288 80.7729 29.6708 79.852M57.2516 39.8852C57.5586 39.609 58.2002 39.1209 58.3107 39.3788C58.4212 39.6366 57.927 39.916 57.666 40.0235M72.1701 29.8477C71.8018 29.9858 71.0466 30.3726 70.973 30.8146M193.268 152.327C193.206 152.142 193.212 151.7 193.728 151.406M166.838 182.808C166.838 183.038 166.387 183.591 164.582 183.959C162.372 185.064 157.896 187.284 157.675 187.321C157.454 187.357 157.368 187.428 157.169 187.413" stroke="#FFE34F" stroke-width="2"/>
<path d="M158.777 182.023C158.792 182.162 158.556 182.493 157.487 182.714C156.419 182.935 152.1 185.078 150.074 186.121" stroke="#00B4A6" stroke-width="2"/>
<path d="M193.722 152.001C200.513 139.375 204.551 124.474 204.551 109.133C204.551 59.6216 164.414 19.4844 114.902 19.4844C99.3181 19.4844 84.8473 23.3685 72.0802 30.3617M166.242 182.902C163.753 184.657 161.08 186.012 158.414 187.512M29.9404 80.4476C35.3294 64.4804 45.0934 50.5272 57.8063 40.014" stroke="#FFE34F" stroke-width="2"/>
<path d="M114.951 80.8008L102.887 82.8267C104.36 83.9318 99.7558 86.4182 103.624 85.7736C106.718 85.2579 107.614 87.4619 107.675 88.6284H108.781C111.433 88.4074 111.666 90.992 111.451 92.312L107.123 95.9955L108.228 97.9294V100.692C108.688 100.876 110.383 100.913 113.477 99.587C116.571 98.2609 115.749 86.5103 114.951 80.8008Z" fill="#00B4A6"/>
<path d="M89.6719 86.2341L94.6447 84.7606C94.6447 85.1658 91.8513 88.1833 90.4546 89.6414L89.6719 86.2341Z" fill="#00B4A6"/>
<path d="M111.357 90.208L115.731 89.2871C115.731 88.5504 115.271 83.2705 115.041 80.7227L103.391 82.5644L103.115 83.0249L102.701 85.5576C106.421 85.0051 107.566 87.4454 107.673 88.7346C109.994 88.2925 111.096 89.5327 111.357 90.208Z" fill="#FFE34F"/>
<path d="M95.0111 85.0048L91.0973 89.2871L90.3145 89.7474C89.9922 89.0874 89.3752 87.5281 89.4857 86.5703C89.5962 85.6126 93.2154 85.1276 95.0111 85.0048Z" fill="#FFE34F"/>
<path d="M107.496 96.61C105.617 94.9524 112.085 94.3538 115.553 94.2617L113.666 99.4187L108.094 101.168L107.818 100.109C108.493 99.6336 109.374 98.2676 107.496 96.61Z" fill="#DE2010"/>
<path d="M114.947 88.3633C114.763 94.211 114.428 93.6592 114.3 94.0952C114.14 94.6402 112.216 97.9704 111.816 90.2041" stroke="#FFE34F"/>
<path d="M115.411 88.1797C115.411 93.0053 114.359 93.7312 114.242 94.1172C114.096 94.5998 112.47 96.8273 112.188 90.632" stroke="#00B4A6"/>
<path d="M115.039 88.1797C115.039 92.2919 114.405 93.1292 114.206 93.4591C114.05 93.719 112.725 95.9094 112.461 90.0495" stroke="#DE2010"/>
<path d="M113.868 92.7665C113.353 93.2758 113.082 92.3421 113.09 91.8116L114.51 90.793C114.51 91.2386 114.382 92.2572 113.868 92.7665Z" stroke="white"/>
<path d="M113.644 92.4371C113.927 92.2667 114.514 92.1711 114.175 90.2898C113.75 87.9382 113.22 92.4371 113.644 92.4371Z" fill="#00B4A6" stroke="#00B4A6"/>
<path d="M114.318 87.9648L113.845 89.7321L112.602 88.8235" stroke="black"/>
<path d="M69.735 98.7588C70.7787 98.0221 72.2213 91.5757 67.1565 90.1024C62.4552 88.7348 55.4469 80.8644 50.803 76.1046M69.735 98.7588C68.9399 98.3442 68.0734 97.8799 67.1565 97.3745M69.735 98.7588C69.5783 99.1224 69.4594 97.7875 69.4557 98.8507M48.5544 73.8946C49.2094 74.4935 49.968 75.2488 50.803 76.1046M52.238 72.9737C50.3348 71.9915 46.2706 71.353 45.2392 76.6573M45.2392 76.6573C44.3032 81.471 58.161 92.4161 67.1565 97.3745M45.2392 76.6573C44.6559 77.1177 42.2554 78.2411 37.3194 79.0515C32.3834 79.8619 28.5095 81.4765 27.1896 82.1825C26.3915 82.3974 24.5558 83.2324 23.5981 84.8531M67.1565 97.3745C66.297 97.7131 65.0937 97.9114 67.1565 104.1C69.2193 110.288 70.84 117.238 71.3925 119.939M71.3925 119.939C71.962 119.122 72.7613 117.903 73.5123 116.624M71.3925 119.939C71.2203 120.111 71.0069 120.331 70.7705 120.584M86.6793 136.147C88.3983 135.042 91.7258 131.1 91.2838 124.175C91.2035 122.918 90.8163 121.715 90.2129 120.584M86.6793 136.147C86.8 135.23 85.7194 133.674 84.0199 131.856M86.6793 136.147C85.521 138.296 83.8834 141.164 81.9375 144.343M10.4293 119.939C12.2097 125.342 19.0857 139.499 32.3466 152.907C48.9227 169.667 52.238 177.403 63.1044 168.562C65.3163 166.763 67.6546 164.289 69.9816 161.472M55.9215 150.052C55.6145 148.978 54.5217 146.35 52.6063 144.435C50.2119 142.041 53.1588 137.252 53.4351 135.686C53.5374 135.106 55.4483 133.603 57.8554 131.856M57.8554 131.856C61.9437 128.889 67.4636 125.219 67.9852 124.175C68.5153 123.115 69.8268 121.591 70.7705 120.584M57.8554 131.856C57.655 129.965 57.175 126.565 56.4766 123.715M56.7503 120.584C55.6452 119.295 53.785 117.361 55.1848 119.939C55.6711 120.835 56.1048 122.197 56.4766 123.715M56.7503 120.584L56.4766 123.715M56.7503 120.584C56.9038 120.062 56.9529 118.668 55.9215 117.269C54.6322 115.519 54.448 114.506 55.1848 110.822C55.7741 107.875 54.6936 102.964 54.0797 100.877M28.4788 88.9051C35.4162 91.0538 50.2488 98.4455 54.0797 110.822M23.5981 84.8531C22.4009 86.8791 25.2557 81.9984 35.846 85.6819C44.3182 88.6288 47.0502 92.3738 47.3572 93.8779M23.5981 84.8531C17.8272 88.8743 6.43264 100.987 7.02201 117.269C7.61138 133.55 15.617 168.01 19.5461 183.205C22.0939 194.041 26.9317 216.762 25.9003 220.961C24.611 226.211 34.6488 224 43.121 219.304C51.5932 214.607 58.592 203.833 73.9709 200.886C89.3499 197.939 96.5328 195.361 100.216 196.926C102.205 197.771 98.4054 193.854 94.1109 189.755M33.3596 82.1825C35.7232 82.3053 40.6162 82.9192 41.2793 84.3927C41.9423 85.8661 45.6075 88.0149 47.3572 88.9051M46.2521 85.6819C51.2863 89.3655 61.41 98.4271 61.631 105.205M48.5544 88.9051C51.7775 91.1766 58.5 97.3957 59.605 104.1M73.5123 116.624C70.2831 107.364 69.4455 101.737 69.4557 98.8507M73.5123 116.624C73.7093 116.288 73.9029 115.949 74.0882 115.611M69.4557 98.8507C71.1756 96.9475 75.0392 93.2885 76.7337 93.8779M76.7337 93.8779C77.1365 94.018 77.2696 94.278 77.221 94.6148M76.7337 93.8779C77.508 95.0751 80.3347 97.3222 85.4465 96.7328M74.984 95.3485C74.2696 96.2934 73.8045 97.0949 73.5123 97.7562M73.5123 97.7562C72.5238 99.9929 73.5123 100.625 73.5123 99.7716C73.5123 98.8767 77.0141 96.0491 77.221 94.6148M73.5123 97.7562C71.9323 98.2928 69.8354 102.615 74.0882 115.611M74.0882 115.611C74.9481 114.044 75.6286 112.519 75.6286 111.651C75.6286 111.286 76.0417 111.147 76.7337 111.209M50.803 76.1046C52.1101 74.2321 54.7243 70.3583 54.7243 69.8426M54.7243 69.8426C54.7243 69.1979 55.0006 49.675 55.7373 47.2807C56.474 44.8863 58.4079 34.9407 67.1564 31.9938C75.9049 29.0469 80.0489 30.7966 86.8635 33.0989C93.6781 35.4011 103.532 37.6114 104.453 41.0187C105.373 44.426 111.912 40.0058 107.031 50.7802C106.177 51.0807 105.055 51.4121 103.808 51.6907M54.7243 69.8426C56.5047 70.9477 60.3787 72.2923 61.631 68.8297C62.8834 65.3672 64.2593 63.642 64.7908 63.2123M93.4019 50.7802C90.455 47.9806 88.7974 44.0269 88.3369 42.4001C89.5648 44.334 92.5362 48.3122 94.599 48.7542C96.6618 49.1963 97.1468 49.2147 98.3747 48.7542M93.4019 50.7802C92.2661 49.7058 89.7551 48.2017 88.7974 50.7802C87.6002 54.0033 88.7053 57.779 87.7844 58.6078C86.8635 59.4366 82.1669 60.1733 82.1669 61.8309C82.1669 63.4886 78.2071 67.2642 78.6676 73.8946C79.128 80.5251 84.9296 82.4588 84.9296 85.6819C84.9296 87.4674 85.8057 88.8008 86.5872 89.5411C87.2625 87.6715 88.65 83.7851 88.7973 83.1957C88.9447 82.6063 93.8223 82.1291 96.2426 81.9641M93.4019 50.7802C95.5897 52.8588 100.214 52.4939 103.808 51.6907M91.0075 39.7295C92.0819 41.6327 95.9435 45.3285 102.795 44.8865C109.646 44.4445 104.852 43.0447 101.598 42.4001M87.7844 90.1024C87.7844 89.835 87.9191 90.3178 88.0664 90.9312M87.7844 90.1024C88.0473 90.2348 87.7844 90.239 87.7844 90.1024ZM87.7844 90.1024C88.2872 88.5981 88.9909 85.3503 89.534 84.3927C90.0771 83.4351 93.6895 83.8293 95.4278 84.1461M88.3369 92.1284C88.6591 91.6465 89.3068 91.0178 90.2129 90.3387M88.3369 92.1284C88.2642 91.7887 88.1626 91.332 88.0664 90.9312M88.3369 92.1284C87.71 93.0134 86.5735 94.7425 85.4465 96.7328M76.7337 111.209C78.3299 109.208 81.8907 104.339 83.3641 100.877C83.9524 99.4941 84.6974 98.0558 85.4465 96.7328M76.7337 111.209C79.6182 111.467 87.3494 115.216 90.2129 120.584M90.2129 120.584C90.754 118.435 92.4625 113.733 94.9674 112.112M94.9674 112.112C98.0984 110.086 98.4668 114.506 107.492 103.547C107.798 103.333 108.32 102.497 107.952 100.877M94.9674 112.112C95.5506 112.726 96.3672 114.285 94.9674 115.611M107.952 100.877C107.492 98.8507 109.517 98.7588 107.492 96.7328C105.466 94.7069 112.464 93.8779 111.636 90.9312C110.805 87.9797 108.136 88.5368 107.492 88.9051M107.952 100.877H108.689L113.017 99.7716C116.332 98.298 115.81 86.5108 115.135 80.8014L102.887 82.5874M107.492 88.9051L105.742 90.9312M107.492 88.9051C107.676 87.493 106.736 84.8714 101.506 85.6819M101.506 85.6819C102.316 85.5383 102.764 84.7626 102.887 84.3927C103.111 83.6072 103.067 83.0193 102.887 82.5874M101.506 85.6819C96.9755 86.3839 92.9626 88.3679 90.5359 90.1024M90.2129 90.3387L94.5069 85.6819C94.5955 85.3425 94.816 84.8357 95.193 84.3927M90.2129 90.3387C90.3172 90.2605 90.4249 90.1817 90.5359 90.1024M70.7705 120.584C74.439 123.287 80.5325 128.125 84.0199 131.856M84.0199 131.856C82.4813 133.501 79.3858 137.381 79.3122 139.739C79.2201 142.685 76.824 150.052 75.1682 150.052C73.8435 150.052 69.8276 154.903 67.9852 157.328V160.919L69.9816 161.472M69.9816 161.472C73.1566 157.627 76.3104 153.142 79.0933 148.855M34.0042 99.7716C33.7893 100.171 34.1515 101.393 37.3194 103.087C40.4873 104.781 47.1116 107.538 50.0278 108.704L46.2521 105.205M22.8614 112.48C25.1022 112.756 30.3575 113.143 33.4517 112.48C37.3194 111.651 22.3088 121.689 28.4788 122.702C34.6488 123.715 23.8744 122.057 37.964 118.374C49.2358 115.427 52.4221 115.979 52.6063 116.624M88.1527 184.218C90.2459 183.358 92.915 182.071 94.4148 180.9M88.1527 184.218C80.6935 188.086 65.3514 196.631 63.6569 199.873M88.1527 184.218C95.8974 184.218 92.8764 185.779 94.1109 187.625C94.4911 188.194 95.275 188.789 96.9012 189.375C103.808 191.861 102.795 193.611 105.65 193.703C108.504 193.795 104.268 188.822 102.795 185.507C102.515 184.878 102.027 184.313 101.414 183.811M88.1527 184.218C89.8591 185.765 92.0424 187.781 94.1109 189.755M83.364 162.577C82.5966 161.809 81.0618 159.685 81.0618 157.328C81.0618 154.97 79.7495 150.697 79.0933 148.855M83.364 162.577C81.7223 160.643 82.0748 159.446 82.9036 155.025C83.5666 151.489 81.2153 148.544 79.9568 147.513M83.364 162.577C85.6437 165.164 87.0543 167.113 87.8769 168.562M79.0933 148.855C79.3854 148.406 79.6733 147.958 79.9568 147.513M79.9568 147.513C80.6455 146.433 81.3076 145.372 81.9375 144.343M87.8769 168.562C89.4202 171.281 88.8936 172.238 88.1527 172.338C85.7295 177.883 84.4786 179.526 84.6533 179.694M87.8769 168.562C88.3372 169.821 89.5156 172.338 90.547 172.338C91.8363 172.338 94.7161 177.458 95.0594 178.674M95.0594 178.674C94.5724 178.408 93.7156 178.219 92.3888 178.14C87.287 177.834 84.8703 179.902 84.6533 179.694M95.0594 178.674C96.0135 179.195 95.5478 180.015 94.4148 180.9M94.4148 180.9C96.1712 181.228 99.4393 182.194 101.414 183.811M61.5389 178.674C64.8541 180.33 74.1183 182.852 84.6533 179.694M60.3417 183.573C65.4066 184.74 74.2288 187.92 68.9981 191.309M77.221 94.6148C75.6465 91.8827 72.3869 86.0133 71.945 84.3927C71.3925 82.3669 69.7349 78.6835 71.3925 77.3941C73.05 76.1046 77.7083 68.9218 77.221 67.7247C76.7337 66.5275 75.6321 61.8309 73.5123 61.8309C71.3925 61.8309 69.5506 56.9502 65.5908 61.8309C65.2391 62.2644 64.9761 62.7284 64.7908 63.2123M67.1565 69.8426C65.0937 66.6009 65.7443 63.6419 66.3275 62.5677C71.024 59.3445 71.945 63.3044 71.945 64.7778C71.945 66.2512 69.735 68.8297 70.3794 67.08C70.895 65.6803 72.1905 66.9266 72.7738 67.7247C72.4975 67.1414 71.945 66.5459 71.945 68.8297C71.945 71.6845 74.984 70.4873 71.945 72.9737C69.1758 75.2393 62.8898 68.177 64.7908 63.2123M70.3794 64.0411C70.1646 63.8262 69.3113 63.6175 67.6168 64.5015C66.7217 64.9685 66.9613 66.7181 67.3419 68.2772M71.3925 64.7778C69.6408 65.2996 66.8012 66.8406 69.4557 68.8297C72.1101 70.8189 71.8529 71.3775 71.3925 71.4082M103.808 51.6907C104.79 53.5974 105.981 59.1235 102.887 65.975C99.0192 74.5393 102.316 79.6175 101.496 81.5447M101.496 81.5447C101.5 81.5425 101.503 81.5403 101.506 81.5381C101.943 81.595 102.594 81.885 102.887 82.5874M101.496 81.5447C101.327 81.6652 101.111 81.8094 100.861 81.9641M101.496 81.5447L102.058 82.7209L99.4797 83.472V82.7209M100.861 81.9641C100.216 82.0984 98.8167 82.2024 98.3747 81.5447C98.1974 81.2808 97.6585 81.1048 96.9933 80.9903M100.861 81.9641C100.467 82.2079 99.9891 82.4776 99.4797 82.7209M96.9933 80.9903C96.0005 80.8194 94.7264 80.7856 93.9543 80.8014C92.9634 80.7892 93.5414 79.3842 93.9543 78.6833M96.9933 80.9903C96.8015 81.2153 96.5179 81.5721 96.2426 81.9641M95.4278 83.472C95.5343 83.0539 95.8813 82.4786 96.2426 81.9641M95.193 84.3927L89.534 86.2346L90.5359 90.1024M95.193 84.3927C95.2654 84.3076 95.3436 84.2249 95.4278 84.1461M90.5359 90.1024L88.0664 90.9312M98.3747 67.7247C98.2387 68.0447 97.6672 69.1033 96.0724 69.2547M95.2851 69.2902C93.1154 69.2902 92.0511 69.5049 91.8363 69.8426C92.3295 70.142 93.1723 70.6133 93.9543 70.9607M95.2851 69.2902C95.5697 69.2902 95.8316 69.2775 96.0724 69.2547M95.2851 69.2902L97.5458 69.8426M96.0724 69.2547C96.7022 69.2262 95.8744 70.5251 95.4278 71.4082C95.0824 71.4082 94.5351 71.2186 93.9543 70.9607M96.0724 69.2547C95.3971 69.8276 93.9543 70.6026 93.9543 70.9607M104.36 97.7562L105.742 95.9961M102.887 104.1L105.742 101.337L107.031 100.324M100.401 88.9051C101.561 89.3349 103.405 90.4523 101.496 91.4837C99.5883 92.5151 99.9708 93.0799 100.401 93.2334M99.4797 82.7209C98.6598 83.1125 97.7583 83.4355 96.9933 83.472C96.3329 83.5034 95.8167 83.7821 95.4278 84.1461M82.8115 107.691C82.9343 106.218 83.5299 103.198 84.9296 102.903C86.3294 102.608 87.416 99.0945 87.7844 97.3745M94.9674 115.611C93.5676 116.937 93.0334 118.19 92.9413 118.65M94.9674 115.611C95.5199 116.194 96.5881 117.619 96.4407 118.65C96.2566 119.939 99.9401 122.242 99.9401 124.636C99.9401 126.551 104.974 132.187 107.492 134.766C108.689 134.305 111.193 134.268 111.635 137.805M111.635 137.805C112.894 138.726 115.503 140.788 115.872 141.672C116.332 142.778 117.898 143.238 119.279 143.238M111.635 137.805C110.745 137.621 108.891 137.565 108.597 138.818C108.302 140.07 105.65 143.576 104.36 145.172M119.279 143.238C120.66 143.238 135.395 144.896 139.539 145.724C143.683 146.553 151.418 144.435 152.892 144.343M119.279 143.238C115.08 143.754 113.416 154.626 113.109 159.998M152.892 144.343C154.365 144.251 145.709 146.093 150.866 157.88M152.892 144.343C155.286 144.159 160.48 143.312 162.1 141.396C164.126 139.002 166.843 133.384 170.112 131.358C171.633 130.416 172.968 128.629 173.958 126.933M150.866 157.88C154.058 157.819 160.94 157.42 162.929 156.315C163.24 156.142 163.646 156.019 164.126 155.927M150.866 157.88C147.888 159.446 141.693 162.577 140.736 162.577C139.539 162.577 121.673 167.918 114.582 165.247C113.508 166.844 110.07 168.968 104.913 164.695C98.4667 159.354 102.334 164.603 98.3746 157.88C96.5635 157.174 92.6098 155.099 91.2837 152.447C89.9576 149.795 84.5004 145.939 81.9375 144.343M150.866 157.88C147.549 159.469 142.49 163.06 142.412 167.181M181.163 150.789C181.237 148.948 181.685 145.233 181.9 143.606M181.163 150.789C182.698 149.5 185.896 146.793 186.412 146.277C186.762 145.927 187.019 145.359 187.177 144.896M181.163 150.789C181.144 151.263 180.97 151.641 180.703 151.941M181.9 143.606L183.189 143.146V139.37C183.128 137.375 183.392 133.559 184.939 134.259M181.9 143.606C181.944 142.803 182.028 141.581 182.136 140.475M178.769 137.989C178.625 138.849 178.556 139.689 178.533 140.475M178.769 137.989C178.868 137.392 178.974 137.174 179.229 136.918C180.115 136.032 181.786 136.731 182.357 137.436M178.769 137.989L174.579 134.259M178.769 144.343L179.874 145.724M178.769 144.343C178.155 145.08 177.037 146.848 177.479 148.027M178.769 144.343C178.644 143.513 178.486 142.114 178.533 140.475M176.651 145.724C175.914 146.645 174.661 148.855 175.546 150.329M178.4 124.636C178.273 123.951 177.871 123.626 177.387 123.507M178.4 124.636L184.939 107.784L192.122 112.296L182.544 136.239L182.357 137.436M178.4 124.636C178.749 126.508 177.4 131.65 174.927 134.053C174.784 134.192 174.729 134.139 174.579 134.259M174.579 134.259C174.236 134.533 174.04 134.828 173.958 135.134M178.533 140.475C178.54 140.072 173.379 137.301 173.958 135.134M177.387 123.507C176.753 123.352 175.978 123.552 175.499 123.761C175.403 124.015 175.281 124.31 175.136 124.636M177.387 123.507L184.11 106.494C184.233 106.187 184.736 105.573 185.767 105.573C186.799 105.573 191.845 109.073 194.24 110.823C194.424 111.16 194.682 111.928 194.24 112.296C193.879 112.596 190.234 121.68 187.468 128.688M185.767 133.016C185.43 132.985 184.791 133.191 184.939 134.259M185.767 133.016C186.256 131.766 186.839 130.28 187.468 128.688M185.767 133.016C185.948 133.174 186.169 133.379 186.412 133.623M184.939 134.259C185.123 135.595 185.767 134.489 186.412 136.239M186.412 136.239C186.928 137.639 187.241 142.225 187.333 144.343C187.303 144.481 187.251 144.677 187.177 144.896M186.412 136.239L185.767 136.918L184.939 135.779M187.177 144.896C187.217 144.466 187.709 143.293 189.359 142.041C191.421 140.475 190.096 140.475 189.359 137.989C189.305 137.806 189.238 137.621 189.161 137.436M187.468 128.688C187.883 128.565 188.733 128.559 188.806 129.517M188.806 129.517C188.898 130.714 188.806 131.773 188.806 133.016M188.806 129.517L187.468 130.898V132.371L188.806 133.016M188.806 133.016C188.806 134.011 189.043 136.377 189.161 137.436M189.161 137.436C188.83 136.643 188.307 135.844 187.752 135.134M182.357 137.436C182.537 137.658 182.617 137.862 182.544 137.989C182.392 138.255 182.25 139.299 182.136 140.475M173.958 135.134C174.196 136.239 174.529 138.744 173.958 139.923C173.386 141.102 173.182 142.87 173.151 143.606M162.929 153.552C161.824 152.355 159.946 149.666 161.272 148.487C162.598 147.308 161.824 144.742 161.272 143.606M141.472 146.737C140.306 147.136 138.194 149.924 139.078 157.88M111.635 150.605C110.623 152.017 108.597 155.449 108.597 157.88M104.36 154.105C103.808 154.35 102.684 155.449 102.611 157.88C102.519 160.919 100.677 152.907 108.597 150.052M186.412 133.623L185.767 134.259C186.058 134.842 186.861 135.834 187.752 135.134M186.412 133.623C186.824 134.035 187.299 134.555 187.752 135.134M181.9 137.436C181.47 137.805 180.629 138.707 180.703 139.37C180.776 140.033 181.689 140.383 182.136 140.475M173.958 126.933H175.546C175.802 126.167 176.079 124.636 175.136 124.636M173.958 126.933C174.438 126.11 174.837 125.309 175.136 124.636M180.703 151.941C179.929 152.808 178.369 153.022 177.479 152.999C176.948 153.574 176.289 154.016 175.546 154.359M180.703 151.941L207.593 152.447M207.593 152.447L221.498 161.38M207.593 152.447L207.985 150.697M221.498 163.129H222.695C222.96 161.982 223.244 160.748 223.544 159.446M221.498 163.129L171.494 164.879L164.126 155.927M221.498 163.129V161.38M164.126 155.927C164.707 155.817 165.395 155.753 166.152 155.707M175.546 154.359H184.11L188.806 158.709L171.494 159.354L168.27 155.606M175.546 154.359C173.465 155.318 170.723 155.496 168.27 155.606M168.27 155.606C167.529 155.639 166.815 155.666 166.152 155.707M193.779 162.116L211.276 160.989L202.067 152.999L183.741 152.447H183.189L193.779 162.116ZM193.779 162.116L221.498 161.38M193.779 162.116L172.23 163.129L166.152 155.707M210.816 179.337C190.832 179.091 149.539 177.164 144.235 171.417C142.911 169.983 142.386 168.553 142.412 167.181M142.412 167.181V172.351M178.769 183.205C153.647 183.131 144.063 178.078 142.412 175.561V172.351M101.414 183.811C122.993 182.964 169.283 184.568 181.808 197.755C182.698 200.518 184.294 207.056 183.557 211.108C182.821 215.16 182.084 220.102 181.808 222.067M94.1109 189.755C95.7163 190.273 99.4244 191.788 101.414 193.703C103.17 195.395 108.282 198.419 111.359 201.056M113.754 204.017C113.564 203.179 112.637 202.151 111.359 201.056M102.795 199.136C104.237 199.382 107.398 199.873 108.504 199.873C109.611 199.873 110.869 200.661 111.359 201.056M112.188 204.017C120.568 206.258 138.71 211.476 144.235 214.423C151.142 218.107 158.601 220.225 160.259 222.711M198.43 153.414L208.467 161.011M197.279 153.69L206.257 161.011M190.326 153.644L199.351 161.011M188.162 153.644L196.174 160.643M216.523 112.664L216.709 111.835C216.74 111.498 217.133 110.823 218.459 110.823C219.785 110.823 228.528 112.296 232.733 113.033C233.071 113.309 233.709 114.156 233.562 115.335C233.555 115.391 233.532 115.516 233.494 115.703M216.523 112.664L233.494 115.703M216.523 112.664L207.985 150.697M233.494 115.703C232.799 119.159 227.089 144.058 223.544 159.446M207.985 150.697L223.544 159.446M187.793 154.451H203.172M192.168 159.215H208.744M190.188 157.051L205.843 156.775M188.254 155.74L203.633 155.556M190.832 158.042H206.211M192.168 160.413H208.744M186.136 153.644L194.148 160.643M185.952 153.53L201.331 153.346M194.148 161.173L209.527 160.989M192.72 153.644L201.745 161.011M194.93 153.644L203.955 161.011M201.377 153.644L210.401 161.011M142.412 172.351C143.818 174.07 148.232 178.079 161.272 179.258C174.312 180.437 185.614 180.639 188.806 180.731M88.429 127.03C87.9993 127.214 87.3976 127.841 88.429 128.872C89.4604 129.903 89.2885 128.074 89.0737 127.03H88.429ZM79.9568 145.172C79.2858 145.448 78.0885 146.24 78.6676 147.198C81.0987 147.198 80.54 145.847 79.9568 145.172ZM100.861 67.7247C98.9579 66.4661 94.3227 64.4831 91.0075 66.6196C92.6651 66.282 96.9564 66.0304 100.861 67.7247ZM176.144 136.528C175.975 136.735 175.739 137.205 176.144 137.436C176.48 137.23 176.95 136.76 176.144 136.528Z" stroke="black"/>
<path d="M95.4062 70.4783C95.4044 70.4946 95.4003 70.5131 95.3935 70.5302M95.3935 70.5302C95.3712 70.5853 95.3198 70.6253 95.2206 70.5302C95.0581 70.3744 95.2438 69.9591 95.383 70.4263L95.3935 70.5302ZM94.8801 70.4263C94.9265 70.4956 94.5662 71.3757 94.8801 70.4263ZM94.8801 70.4263C94.9966 71.558 94.3944 70.4263 94.8801 70.4263Z" stroke="black"/>
</svg>
