<svg width="240" height="240" viewBox="0 0 240 240" fill="none" xmlns="http://www.w3.org/2000/svg">
<path d="M186.183 179.175C197.314 164.892 203.945 146.93 203.945 127.419C203.945 80.8798 166.218 43.1523 119.679 43.1523C74.7451 43.1523 37.8083 77.9953 35.3281 122.309C35.5736 121.928 36.0429 121.036 35.9559 120.515" stroke="#007229" stroke-width="2"/>
<path d="M184.155 173.957C194.343 160.025 200.357 142.848 200.357 124.267C200.357 77.7274 162.63 40 116.091 40C69.5517 40 31.8242 77.7274 31.8242 124.267C31.8242 125.615 31.8559 126.739 31.9186 128.072C32.1325 127.692 32.4893 126.963 32.2048 126.659" stroke="#D21034" stroke-width="2"/>
<path fill-rule="evenodd" clip-rule="evenodd" d="M147.146 178.792L118.731 190.242L118.307 191.515C117.968 192.532 117.883 193.635 117.883 194.059L120.851 196.604L189.131 198.724L207.791 187.274L235.782 129.596C236.347 128.748 236.969 127.137 234.934 127.476C232.898 127.815 221.928 129.879 216.697 130.869C216.273 131.293 215.255 132.65 214.577 134.686C213.898 136.721 201.571 164.938 195.493 178.792H172.167C171.46 179.498 169.877 180.488 169.199 178.792H162.413C161.848 180.205 160.038 182.609 157.324 180.912C156.193 180.629 153.931 179.809 153.931 178.792H147.146ZM148.415 183.035L142.902 186.852H133.572L139.933 183.035H148.415Z" fill="#00B4A6"/>
<path d="M118.039 190.451C116.806 191.881 122.539 194.312 155.336 192.596C195.601 190.49 168.962 198.137 187.86 196.668M118.039 190.451V194.128L120.505 196.579L188.934 198.724L207.428 187.388L235.786 129.172M118.039 190.451L136.123 183.184M235.786 129.172L218.217 132.543L197.06 178.808M235.786 129.172C237.124 126.426 235.662 127.498 226.453 129.172C217.123 130.869 216.273 130.538 215.85 131.919L187.86 196.668M197.06 178.808L188.934 196.579C188.56 196.612 188.203 196.642 187.86 196.668M197.06 178.808H190.404M171.981 178.808C171.801 179.319 171.118 180.233 169.823 179.804C169.528 179.706 169.114 179.343 168.632 178.808M171.981 178.808H173.137M171.981 178.808C171.769 178.076 171.484 177.116 171.168 176.097M163.35 171.149C163.836 171.962 164.498 173.029 165.221 174.136M158.033 173.217C157.648 173.549 157.355 174.442 159.266 175.361C161.177 176.281 161.912 177.174 162.04 177.506C162.099 177.99 162.104 178.423 162.063 178.808M160.576 172.681C161.232 173.166 163.08 174.136 165.221 174.136M165.221 174.136C166.354 175.872 167.638 177.705 168.632 178.808M168.632 178.808H162.063M162.063 178.808C162.022 179.185 161.938 179.516 161.816 179.804M153.966 178.808C153.67 178.402 153.45 177.964 153.332 177.506C153.065 176.465 153.246 175.462 153.695 174.519M153.966 178.808H147.014L136.123 183.184M153.966 178.808C155.241 180.558 157.924 181.717 159.858 181.336M173.137 178.808H173.522H190.404M173.137 178.808C173.548 178.119 174.955 177.047 177.298 178.272M177.298 178.272C179.64 179.498 179.969 178.272 179.841 177.506M177.298 178.272C175.263 177.537 173.265 173.217 172.52 171.149M179.841 177.506C180.637 177.762 182.415 178.119 183.154 177.506M179.841 177.506L179.687 177.074M176.836 169.08C177.768 169.589 179.404 170.608 180.38 171.573M176.836 169.08C176.611 168.92 176.17 168.688 175.564 168.506M176.836 169.08L177.298 170.377M166.483 167.778C165.389 166.996 164.253 166.36 163.735 166.399C162.734 166.476 161.192 166.629 160.576 167.778C160.097 168.671 155.261 171.228 153.695 174.519M166.483 167.778C167.089 167.191 169.456 166.461 174.071 168.238M166.483 167.778C167.325 168.381 168.142 169.07 168.632 169.605M174.071 168.238C173.776 168.218 173.463 168.216 173.137 168.238C173.295 165.536 171.56 160.216 163.35 160.556M174.071 168.238C174.637 168.276 175.141 168.379 175.564 168.506M170.517 173.217C171.262 172.91 172.828 172.481 173.137 173.217M183.154 177.506C184.819 178.471 185.346 178.278 185.468 177.506M183.154 177.506C183.511 177.211 183.352 176.643 183 175.972M180.38 171.573C180.775 171.964 181.062 172.345 181.151 172.681C181.388 173.575 182.439 174.903 183 175.972M180.38 171.573C181.999 172.121 185.333 174.488 185.457 176.204M185.457 176.204C185.478 176.497 185.436 175.938 185.457 176.204ZM185.457 176.204C185.497 176.717 185.522 177.167 185.468 177.506M185.457 176.204L185.319 176.671L185.389 177.506H185.468M181.613 174.519C181.408 174.902 181.074 175.744 181.382 176.051C181.767 176.434 182.384 176.664 182.769 176.664C183.077 176.664 183.052 176.203 183 175.972M178.377 175.668C178.171 175.872 177.822 176.357 178.068 176.664C178.315 176.97 178.736 177.557 178.916 177.813C179.173 177.915 179.687 178.058 179.687 177.813C179.687 177.567 179.687 177.218 179.687 177.074M179.687 177.074L177.298 170.377M171.168 176.097C170.76 176.643 170.041 177.843 170.422 178.272C170.804 178.701 170.899 179.08 170.899 179.216M171.168 176.097C170.673 174.5 170.104 172.756 169.627 171.507M167.931 171.149C167.974 170.54 168.176 169.38 168.632 169.605M168.632 169.605C168.737 169.719 168.826 169.826 168.898 169.923C169.082 170.172 169.337 170.748 169.627 171.507M169.627 171.507H168.632M175.564 168.506V169.886M177.298 170.377L176.413 170.31M154.784 175.823L155.208 174.127M163.35 160.556C153.087 160.98 146.726 171.706 132.731 176.097M163.35 160.556C161.858 158.232 157.67 154.058 151.391 152.831M132.731 176.097C135.456 177.818 143.464 179.911 153.695 174.519M132.731 176.097C128.005 177.58 124.776 178.694 122.621 179.507M118.735 181.336C120.901 182.568 127.411 184.663 136.123 183.184M118.735 181.336C118.735 181.173 119.67 180.622 122.621 179.507M118.735 181.336C124.167 175.569 124.957 152.639 124.673 141.895M147.014 152.498C148.567 152.437 150.028 152.565 151.391 152.831M151.391 161.404C148.564 163.069 141.552 166.399 136.123 166.399C130.695 166.399 124.86 175.138 122.621 179.507M151.391 152.831C144.853 145.773 131.364 131.853 124.673 127.063M122.621 125.78C123.197 126.065 123.888 126.501 124.673 127.063M124.673 127.063C123.542 123.949 117.548 118.4 102.62 121.115M102.62 121.115C112.939 134.262 128.574 164.712 108.557 181.336C88.5397 197.961 86.3627 189.495 87.7763 183.184M102.62 121.115C101.63 119.631 98.6551 114.85 94.9231 112.051M87.7763 183.184C88.6242 184.311 91.6769 185.889 97.1053 183.184C102.835 180.33 91.6298 155.273 91.0697 132.99M87.7763 183.184C84.9792 168.523 79.3931 139.995 77.3077 131.919M92.8644 114.329L92.0162 121.115C91.2246 124.875 90.9665 128.885 91.0697 132.99M92.8644 114.329C93.6385 113.317 93.7836 113.838 94.9231 112.051M92.8644 114.329C90.5389 118.527 79.0108 115.758 68.4561 107.544M96.6812 78.8137C96.6396 79.8955 97.9234 83.3147 97.9751 84.2186C97.9917 84.5094 98.0125 84.7919 98.0371 85.0667M96.6812 78.8137C94.6228 67.8737 79.3292 70.224 74.2019 72.7248C70.3789 74.5895 75.7411 80.1186 72.4792 80.2273C69.8696 80.3143 67.4527 84.6208 66.5704 86.7631M96.6812 78.8137C96.4516 72.3623 89.8762 59.5683 71.2831 66.0922C56.1104 71.4159 59.3164 87.0149 61.479 93.7259M66.5704 86.7631H64.874L63.9789 89.9921M66.5704 86.7631L65.5101 90.58M64.4499 94.3969C65.1567 95.1037 66.8248 96.6022 67.8427 96.9414C69.1149 97.3655 69.1149 99.486 67.8427 99.486C67.3682 99.486 66.6295 99.1174 65.8758 98.6378M64.4499 94.3969C64.0243 94.255 63.486 94.1052 62.8755 93.9728M64.4499 94.3969L64.98 92.4884M63.6017 96.9414V95.6691M63.6017 96.9414L63.1776 97.3655M63.6017 96.9414C64.1299 97.3942 65.0127 98.0887 65.8758 98.6378M63.1776 97.3655C61.7632 96.0935 58.5951 93.5918 57.238 93.7611M63.1776 97.3655C63.3913 97.7929 63.7126 98.5648 63.9789 99.486M63.1776 104.999C63.6017 104.999 64.4499 104.49 64.4499 102.455C64.4499 101.445 64.2411 100.393 63.9789 99.486M63.1776 104.999C62.7535 104.151 61.9053 102.031 61.9053 100.334C61.9053 98.2137 61.9053 102.455 59.7848 98.6378C59.7125 98.5181 59.509 98.413 59.2185 98.3213M63.1776 104.999C62.2744 106.017 60.5394 107.12 59.7848 107.544M63.1776 104.999C62.8383 102.285 60.3968 99.4164 59.2185 98.3213M82.686 104.575C85.5134 103.618 86.5226 102.709 88.8976 103.727C90.0285 103.303 90.0653 102.709 92.4403 103.727C92.9081 103.927 93.5554 104.647 93.6274 104.999M82.686 104.575C88.1908 105.833 85.6547 105.13 88.6234 105.554L93.6274 104.999M82.686 104.575C84.3824 108.062 86.5794 108.062 88.8976 108.062C91.168 108.062 92.2139 107.301 93.6274 104.999M82.686 95.6691C82.4033 96.6587 82.5164 98.553 85.2306 98.2137M85.2306 98.2137C87.1197 97.9776 87.1681 98.3988 87.4255 98.7454M85.2306 98.2137L87.4255 98.7454M93.2885 97.3655C95.2747 96.687 93.5506 95.1037 92.4403 94.3969M93.2885 97.3655C92.2856 97.7081 92.0237 97.9816 91.8442 98.2137M93.2885 97.3655L91.8442 98.2137M89.4716 86.339C88.9061 87.3286 88.1145 89.647 89.4716 91.0041C91.168 92.7005 92.0162 96.9414 91.168 97.3655M92.8644 87.4311C92.0147 87.6894 91.2468 88.1243 90.7439 88.4595C91.0398 88.7555 92.1102 89.0514 93.2885 89.2212M92.8644 87.4311C92.7651 87.9879 92.711 89.1521 93.2885 89.2212M92.8644 87.4311C93.6908 87.1799 94.5945 87.0642 95.4068 87.2769M93.2885 89.2212C94.0046 89.3245 94.7605 89.3811 95.4068 89.3629M98.0371 85.0667C98.0499 85.2102 98.0637 85.3515 98.0785 85.4908C98.1979 86.2406 98.34 87.3216 98.0785 86.3911M98.0371 85.0667C97.7646 82.0132 92.7787 82.3808 90.3198 82.9463V84.2186C92.6876 84.0772 97.5293 84.2186 97.9535 85.9149C98.0028 86.1119 98.0441 86.2688 98.0785 86.3911M79.7174 86.9411C78.8332 87.0051 77.4103 87.7216 76.3246 88.3731C76.5194 88.7626 77.6278 89.2575 79.7174 89.2212M79.7174 86.9411C79.2907 87.4466 78.5268 88.9158 79.7174 89.2212M79.7174 86.9411C80.5276 86.8824 81.2416 87.0155 81.8379 87.2398M79.7174 89.2212C80.1585 89.2136 80.8612 89.2868 81.4138 89.2212M81.8379 87.2398C82.6244 87.5357 83.2062 88.4566 83.5342 88.8394C82.7475 89.008 82.043 89.1466 81.4138 89.2212M81.8379 87.2398C82.1926 87.702 82.6043 89.1361 81.4138 89.2212M30.098 131.919C33.5144 125.694 39.036 116.12 41.1245 114.329C44.0932 111.785 44.5173 102.031 44.5173 101.182C44.5173 100.334 51.3029 97.3655 54.6956 94.821C55.4183 94.279 56.2972 93.9454 57.238 93.7611M30.098 131.919C29.6296 132.773 29.2007 133.563 28.8257 134.262C30.413 139.421 32.526 146.044 34.8346 152.922M30.098 131.919C26.4225 133.972 18.3929 139.266 15.6787 144.016C15.1281 144.98 14.6668 146.122 14.2876 147.409M37.3066 186.85C30.0973 186.426 15.3394 183.288 13.9823 174.127C12.5613 164.535 12.3306 154.05 14.2876 147.409M14.2876 147.409C11.9237 148.116 7.02612 151.056 6.34756 157.163C5.49937 164.797 1.2584 163.525 3.80298 167.766C5.83865 171.158 10.305 190.667 12.2837 199.997M37.3066 144.016C44.5153 197.028 55.9657 191.515 50.8766 190.451C47.9482 189.84 40.7495 170.545 34.8346 152.922M37.3066 144.016L34.8346 152.922M37.3066 144.016C39.3987 139.376 43.1537 131.784 46.3789 127.052M50.8766 122.811C49.7878 122.691 48.1646 124.433 46.3789 127.052M50.8766 122.811C53.9643 123.154 58.1595 118.784 60.5495 116.874M50.8766 122.811C51.2159 121.455 48.7561 119.136 47.4838 118.146M57.238 114.329C58.087 113.057 60.4634 110.682 63.1776 111.361C63.8002 111.516 64.2085 111.758 64.4499 112.051M57.238 114.329L59.7848 107.544M57.238 114.329L55.9657 117.298L54.6956 116.874M59.7848 107.544C58.3109 107.544 59.0898 105.7 59.37 104.575M94.9231 112.051C97.0267 106.893 100.603 94.5406 98.0785 86.3911M46.3789 127.052C47.5717 126.937 49.267 126.702 50.8766 126.35M74.2019 139.351C72.9296 136.241 69.7065 130.021 66.9923 130.021C63.5995 130.021 61.0549 122.387 60.2067 120.691C60.1016 120.481 59.9575 120.342 59.7848 120.265M59.7848 120.265C58.5635 119.717 55.9132 122.226 55.5416 124.084C55.3413 125.085 53.198 125.841 50.8766 126.35M59.7848 120.265L60.5495 116.874M60.5495 116.874C61.1156 116.422 61.5804 116.107 61.9053 116.026C63.2904 115.68 65.5237 113.354 64.4499 112.051M64.4499 112.051L66.1441 110.937M66.1441 110.937V116.026C69.1127 119.277 75.3894 126.628 76.7465 130.021C76.8835 130.364 77.0735 131.012 77.3077 131.919M66.1441 110.937C66.2976 110.476 66.551 109.523 66.5363 108.606C66.5029 106.52 65.9095 103.749 65.4878 101.182M50.8766 126.35C50.1983 134.721 50.0126 154.45 54.6956 166.399C59.3787 178.349 59.4728 190.384 58.9344 194.908M77.3077 131.919L82.686 132.338M91.0697 132.99L82.686 132.338M82.686 132.338L87.7763 152.498L87.3489 159.708M57.238 93.7611C57.6528 93.6798 58.0796 93.6275 58.5103 93.5992M54.6956 97.7896C55.9181 97.8288 58.1532 97.985 59.2185 98.3213M51.7248 104.999C52.1249 104.942 52.6867 104.806 53.2142 104.575M53.2142 104.575C53.9922 104.234 54.6956 103.687 54.6956 102.878C54.6956 101.182 55.2575 103.727 57.238 102.031C57.5688 102.596 58.428 103.727 59.2185 103.727C59.5198 103.727 59.4929 104.082 59.37 104.575M53.2142 104.575L52.573 114.329L54.6956 116.874M54.6956 116.874L59.37 104.575M62.8755 93.9728L63.6984 91.0041L63.9789 89.9921M62.8755 93.9728C62.4416 93.8787 61.9713 93.7933 61.479 93.7259M58.5103 93.5992C58.3797 93.3183 61.6251 94.0434 61.479 93.7259M58.5103 93.5992C59.1909 93.5544 59.8812 93.5693 60.5495 93.624C60.8654 93.6498 61.1764 93.6845 61.479 93.7259M61.479 93.7259C61.783 92.1713 63.0853 90.6977 63.6984 90.1552L63.9789 89.9921M65.5101 90.58L64.98 92.4884M65.5101 90.58C65.8728 90.4635 66.5018 90.4499 66.8106 91.0041C66.9224 91.2048 66.9923 91.4799 66.9923 91.8516C66.9923 93.5992 65.5101 89.7318 64.98 92.4884M65.4878 101.182C65.9893 101.26 66.9923 101.198 66.9923 100.334C66.9923 99.4704 66.2479 98.8433 65.8758 98.6378M65.4878 101.182L63.9789 99.486M95.4068 87.2769C95.5306 87.3093 95.6523 87.3494 95.7713 87.3977C96.0995 87.5311 96.407 87.7612 96.6812 88.0354C97.5245 88.8787 96.8922 89.2525 95.7713 89.3435C95.6547 89.3529 95.5328 89.3593 95.4068 89.3629M95.4068 87.2769C95.6895 87.7625 96.0853 88.8595 95.4068 89.3629M87.4255 98.7454C87.6305 99.0213 87.9679 99.2499 89.4716 99.0619C91.4939 98.8091 91.5794 98.5563 91.8442 98.2137M89.4716 120.691C89.8964 121.681 90.6608 123.745 90.3198 124.084M190.404 178.808L188.809 179.804M159.858 181.336L145.45 189.394H173.441L188.809 179.804M159.858 181.336C160.727 181.165 161.445 180.683 161.816 179.804M181.382 192.596C182.693 190.854 185.824 188.415 187.86 192.596M161.816 179.804H178.068M188.809 179.804H183.154M183.154 179.804L170.422 187.388M183.154 179.804H178.068M163.735 187.388L178.068 179.804M90.7439 87.3977C91.9275 86.4855 94.8563 85.117 97.1031 86.9411M83.9561 87.3977C82.6853 86.2317 79.3798 84.5677 76.3246 87.2398M84.8962 111.833C86.5773 111.833 88.6234 110.746 92.4403 111.833M158.418 177.095L159.873 177.519C159.449 178.053 158.601 179.257 158.601 179.804C158.601 180.351 157.374 179.834 157.185 179.507C157.111 179.127 157.254 178.113 158.418 177.095ZM84.3824 82.9463C84.7359 83.0876 85.2306 83.4552 84.3824 83.7945C83.3222 84.2186 75.4764 82.669 74.6282 85.0667C74.0833 83.6531 75.2714 81.2499 84.3824 82.9463ZM148.843 183.184H140.361L132.731 186.85H142.906L148.843 183.184Z" stroke="black"/>
<path d="M94.9844 87.9289C94.9822 87.9482 94.9774 87.9701 94.9693 87.9902M94.9693 87.9902C94.943 88.0552 94.8823 88.1025 94.7651 87.9902C94.5733 87.8063 94.7925 87.3159 94.957 87.8676L94.9693 87.9902ZM94.3631 87.8676C94.4179 87.9493 93.9925 88.9886 94.3631 87.8676ZM94.3631 87.8676C94.5007 89.2038 93.7896 87.8676 94.3631 87.8676Z" stroke="black"/>
<path d="M81.418 87.9289C81.4158 87.9482 81.411 87.9701 81.4029 87.9902M81.4029 87.9902C81.3766 88.0552 81.3159 88.1025 81.1987 87.9902C81.0069 87.8063 81.2261 87.3159 81.3906 87.8676L81.4029 87.9902ZM80.7967 87.8676C80.8515 87.9493 80.4261 88.9886 80.7967 87.8676ZM80.7967 87.8676C80.9343 89.2038 80.2232 87.8676 80.7967 87.8676Z" stroke="black"/>
</svg>
