<svg width="240" height="240" viewBox="0 0 240 240" fill="none" xmlns="http://www.w3.org/2000/svg">
<path d="M86.6406 21.5288C101.005 12.5622 117.976 7.38086 136.157 7.38086C187.873 7.38086 229.797 49.3052 229.797 101.022C229.797 149.171 193.457 188.898 146.708 194.141M127.391 194.257C115.337 193.138 103.945 189.734 93.6529 184.483" stroke="#DE2010" stroke-width="2" stroke-linejoin="round"/>
<path d="M129.177 191.617C116.309 190.081 104.242 185.936 93.5202 179.725M149.619 192.163C197.003 187.528 234.031 147.243 234.031 98.6407C234.031 46.9244 192.106 5 140.39 5C120.563 5 102.175 11.1621 87.0371 21.6758" stroke="#097B0D" stroke-width="2" stroke-linejoin="round"/>
<path d="M101.222 151.335H103.785V150.195L100.611 148.445L92.5131 150.195L91.9434 152.433L93.449 152.759V153.41L96.2162 166.147C96.5825 166.649 97.6161 167.62 98.8207 167.49C100.025 167.36 103.175 166.161 104.599 165.578L105.169 164.031C104.127 164.585 102.89 163.801 102.402 163.339C101.534 161.495 99.7403 157.137 99.5124 154.468C99.2845 151.798 100.557 151.267 101.222 151.335Z" fill="#097B0D"/>
<path d="M136.982 167.21L139.595 164.663V164.068L129.705 170.914C128.558 171.785 126.225 173.607 126.066 173.924C125.908 174.242 126.132 176.13 126.265 177.034L128.911 178.787L132.318 180.474L132.549 178.787C131.546 177.938 129.288 176.154 128.282 175.81C127.277 175.466 127.312 174.277 127.456 173.726L136.982 167.21Z" fill="#00B4A6"/>
<path d="M155.505 152.921L150.576 156.758C151.944 155.875 154.949 154.005 156.034 153.582C157.119 153.159 157.677 154.001 157.82 154.475L157.39 155.137L161.789 157.254C162.01 157.088 162.742 156.758 163.906 156.758C165.071 156.758 164.833 157.904 164.568 158.477L150.742 168.698C152.144 169.042 156.795 167.033 158.945 165.986L166.685 159.9C167.717 157.942 166.145 156.636 165.229 156.228C163.906 155.578 160.963 154.138 159.772 153.582C158.581 153.026 156.431 152.91 155.505 152.921Z" fill="#00B4A6"/>
<path d="M118.329 151.467C120.578 151.313 125.301 151.229 126.201 152.129C128.957 150.805 134.708 148.821 135.661 151.467C135.693 151.556 135.721 151.644 135.746 151.732M105.098 164.018C106.869 163.473 110.088 162.782 111.779 163.507C114.095 164.499 119.056 163.375 120.776 162.515C122.496 161.655 124.282 160.53 124.812 159.472C125.235 158.625 130.501 157.619 133.081 157.222C134.296 156.434 136.462 154.265 135.746 151.732M105.098 164.018C104.929 164.07 104.774 164.121 104.635 164.168L105.098 164.018ZM105.098 164.018C105.032 164.62 104.582 165.915 103.312 166.285C102.041 166.656 99.4305 167.322 98.2839 167.608L96.6962 167.079M105.098 164.018C104.304 164.487 102.557 164.737 101.922 161.985C101.226 158.966 97.3697 152.126 100.864 151.391M96.6962 167.079C95.8565 163.753 94.4232 157.849 93.7783 154.51M96.6962 167.079L92.5253 169.262M93.4546 152.129C93.4437 152.201 93.4442 152.313 93.4549 152.459M149.553 149.416V150.739M149.553 149.416C148.281 148.506 146.079 146.902 144.459 145.651M149.553 149.416C149.724 149.534 149.925 149.673 150.14 149.825M149.553 150.739C148.914 150.1 147.324 149.205 146.08 150.739C145.921 150.936 145.779 151.135 145.65 151.337M149.553 150.739C149.711 151.294 149.886 152.02 150.033 152.823M115.815 205.845C126.928 196.848 131.383 188.866 132.221 185.999C132.184 185.579 132.16 185.16 132.147 184.742M115.815 205.845C119.21 204.17 126.876 205.157 130.368 222.516M115.815 205.845L105.098 211.535M130.368 222.516L132.221 226.618M130.368 222.516C131.427 219.297 135.158 211.191 141.615 204.522C142.188 203.596 143.573 200.844 144.525 197.245C145.478 193.647 150.303 191.247 152.596 190.498C153.081 188.998 154.237 185.999 154.978 185.999C155.719 185.999 155.904 183.971 155.904 182.956C157.095 181.81 159.026 178.564 157.227 174.753L161.725 171.71C162.519 169.99 163.287 166.246 160.005 165.029M132.221 226.618L127.061 232.439H124.15L124.812 225.956M132.221 226.618C131.268 228.1 126.884 226.794 124.812 225.956M124.812 225.956C123.224 218.723 117.058 205.713 105.098 211.535M105.098 211.535L98.3499 215.891M160.005 165.029L165.496 160.662C167.93 159.233 166.731 157.333 165.827 156.561C164.349 155.855 160.892 154.232 158.881 153.385C156.87 152.539 155.308 153.033 154.779 153.385L150.365 156.561M160.005 165.029C158.604 166.305 155.022 168.48 150.365 168.783M132.303 181.236C132.17 182.386 132.111 183.559 132.147 184.742M132.303 181.236C132.333 180.97 132.368 180.706 132.406 180.442M132.303 181.236C131.82 180.565 130.941 179.621 130.104 179.356M132.147 184.742C127.906 182.89 127.458 181.699 128.715 179.847C129.096 179.285 129.592 179.194 130.104 179.356M132.406 180.442L130.104 179.356M132.406 180.442C132.485 179.907 132.578 179.377 132.685 178.855M130.104 179.356L126.267 176.87C125.936 176.032 125.566 174.092 126.73 173.033C127.894 171.975 136.273 166.374 140.316 163.705M140.316 163.705C141.278 162.162 141.671 160.272 142.938 157.917C144.422 155.156 144.521 153.114 145.65 151.337M140.316 163.705C140.022 164.178 139.675 164.618 139.233 165.029C139.049 165.2 138.825 165.445 138.572 165.756M150.365 156.561C150.357 156.786 150.343 157.008 150.321 157.222M150.365 156.561C150.405 155.346 150.249 154.001 150.033 152.823M150.365 168.783C149.307 168.851 148.195 168.824 147.039 168.667C147.26 166.352 148.071 161.271 149.553 159.472C149.994 158.936 150.227 158.137 150.321 157.222M150.365 168.783C154.527 165.855 163.154 159.749 164.371 158.744C165.589 157.738 164.526 156.87 163.842 156.561L161.725 157.222L157.227 155.039L158.021 154.51C157.624 153.826 156.287 152.869 154.118 154.51C151.948 156.151 150.682 157.002 150.321 157.222M138.572 165.756L127.722 173.562C127.281 173.959 126.77 174.965 128.251 175.812C129.733 176.658 131.825 178.193 132.685 178.855M138.572 165.756C136.886 167.835 133.909 172.879 132.685 178.855M127.722 152.459C127.023 153.198 125.99 155 127.458 156.296M142.571 144.088C141.675 143.216 140.506 142.911 140.027 142.867C139.63 142.999 137.513 143.039 132.221 142.139C130.044 141.769 128.591 141.65 127.59 141.654M142.571 144.088C142.583 144.1 142.595 144.112 142.607 144.124C142.917 144.434 143.608 144.994 144.459 145.651M142.571 144.088C142.844 144.012 143.297 143.953 143.93 143.945M155.672 141.875L158.517 143.198C158.523 143.226 158.529 143.253 158.534 143.28M155.672 141.875L155.011 142.073C155.937 142.536 157.939 143.426 158.534 143.28M155.672 141.875C154.669 141.29 152.298 140.082 150.843 139.923C149.388 139.764 145.628 138.468 143.93 137.839C143.522 137.597 142.256 137.303 140.457 138.071C138.657 138.838 131.129 140.779 127.59 141.654M158.534 143.28C159.175 146.504 155.867 146.424 154.118 145.976C152.819 145.543 151.628 145.196 150.545 144.92M127.59 141.654C125.549 141.662 125.389 142.184 124.812 142.139C124.124 142.086 119.938 144.19 117.932 145.248C113.036 148.826 107.045 150.645 103.841 151.283M145.65 151.337C144.302 150.722 141.75 149.531 140.655 148.935M140.192 148.655C139.716 148.285 139.795 147.31 139.895 146.869M140.192 148.655C140.272 148.718 140.434 148.814 140.655 148.935M140.192 148.655L137.017 148.569M134.139 148.49L133.279 147.167M134.139 148.49C133.114 149.141 130.659 150.323 129.045 149.846C127.431 149.37 127.248 147.95 127.358 147.299M134.139 148.49L137.017 148.569M140.655 148.935L135.746 151.732M137.017 148.569L136.058 150.739M150.033 152.823L150.512 152.922C151.63 152.999 152.163 152.431 152.365 152.028M150.217 149.879C151.222 150.592 152.485 151.54 152.464 151.732C152.456 151.801 152.425 151.907 152.365 152.028M150.217 149.879C150.191 149.861 150.165 149.843 150.14 149.825M150.217 149.879C150.382 149.62 150.645 149.119 150.585 148.887M144.459 145.651C145.077 145.759 146.384 146.042 146.675 146.307C147.039 146.638 150.217 148.622 150.512 148.788C150.55 148.809 150.573 148.843 150.585 148.887M150.14 149.825C150.22 150.516 150.565 151.943 151.306 152.129C152.047 152.314 152.32 152.139 152.365 152.028M149.454 148.225C149.531 148.556 149.756 149.238 150.033 149.317C150.311 149.396 150.516 149.063 150.585 148.887M150.545 142.867V144.92M150.545 144.92C147.49 144.14 145.292 143.926 143.93 143.945M143.599 142.239L143.93 143.945M147.039 159.042C146.422 158.997 145.147 158.81 144.988 158.413C144.83 158.016 144.172 158.093 143.864 158.182M134.073 183.419C133.483 184.268 132.303 186.019 132.303 186.231M103.841 151.283C103.442 151.362 103.087 151.423 102.782 151.467C101.981 151.305 101.351 151.289 100.864 151.391M103.841 151.283V150.276L100.864 148.569L92.5946 150.276C92.1535 150.894 91.4567 152.195 92.1976 152.459C93.1238 152.79 94.1019 152.724 93.7783 154.51M93.7783 154.51C93.6029 153.602 93.4859 152.884 93.4549 152.459M92.1976 152.79L90.4115 153.319M90.4115 153.319C90.7202 149.218 89.697 140.38 83.1346 137.839C77.9031 135.814 77.3533 132.605 71.2239 123.682M90.4115 153.319C91.0639 157.433 91.8725 163.234 92.5253 169.262M92.793 195.327C94.954 173.827 91.9992 132.229 62.8915 137.839C49.0781 140.502 40.3401 147.123 35.0089 154.51M92.793 195.327C93.1214 194.82 93.4622 192.853 92.1976 189.042C90.617 184.279 89.2207 177.532 90.4115 173.033C91.3641 169.434 86.3981 154.091 83.7961 146.869M92.793 195.327C93.5744 193.323 93.7951 189.452 93.6748 184.742M92.793 195.327C94.2507 197.17 96.3385 200.506 97.303 203.932M100.864 234.027C103.73 229.264 107.744 219.129 100.864 216.695C99.9036 216.355 99.0696 216.094 98.3499 215.891M98.3499 215.891C92.6236 214.273 94.141 216.28 97.0269 210.873C98.1068 208.85 97.9888 206.368 97.303 203.932M95.9684 219.605C98.4822 220.311 102.663 222.569 99.2761 225.956M107.876 214.181C111.051 215.239 117.402 218.388 117.402 222.516M93.6748 184.742C94.7594 189.443 97.0035 199.861 97.303 203.932M93.6748 184.742C93.5555 180.073 93.101 174.579 92.5253 169.262M27.0361 78.8302C23.8608 78.2127 17.51 76.7133 17.51 75.6548C17.51 74.5963 19.8915 74.7397 21.0823 74.9436M27.0361 78.8302L21.0823 74.9436M27.0361 78.8302C28.6933 79.4848 30.7281 80.3202 32.99 81.289M21.0823 74.9436L17.51 72.6117L11.5561 85.3133C14.4228 88.1358 23.0404 93.9662 34.5777 94.7071C46.1149 95.448 51.9982 99.9553 53.4977 102.116C59.2997 108.322 63.5593 113.407 66.7865 117.596M73.6084 112.039V119.978L71.2239 123.682M73.6084 112.039L69.1653 120.772M73.6084 112.039C76.102 117.014 83.3797 113.23 86.7069 110.716C86.9715 109.57 88.1093 107.25 90.5438 107.144C92.9782 107.038 94.2043 104.454 94.513 103.175L99.9376 100.661V96.2948M73.6084 112.039C73.4024 111.051 72.6903 109.242 71.2239 106.926M71.2239 123.682C70.5992 122.773 69.9166 121.804 69.1653 120.772M69.1653 120.772C68.8915 120.395 68.6086 120.011 68.3161 119.617M68.3161 119.617C69.6921 119.329 68.8894 117.268 68.3161 116.273C67.8256 116.317 66.833 116.644 66.7865 117.596M68.3161 119.617C67.8333 118.968 67.3242 118.294 66.7865 117.596M32.99 81.289C42.7675 85.4768 56.7883 92.156 62.8915 97.4855C66.8963 100.983 69.5509 104.284 71.2239 106.926M32.99 81.289L41.3254 69.8333M41.3254 69.8333V66.261C42.9571 57.8815 48.2318 38.8997 56.2761 30.0087C66.3315 18.8948 87.7653 15.8518 102.584 30.8025C114.439 42.7631 116.785 49.9871 116.476 52.104C116.836 53.0533 116.793 54.3864 114.756 54.0586M41.3254 69.8333C46.0443 74.1994 58.79 79.5976 72.0207 66.261C88.5592 49.5902 91.0069 70.2798 91.6022 72.6117C90.8525 75.0116 88.8238 79.9591 86.7069 80.5502C84.0607 81.289 81.1499 96.1625 72.0207 98.4117M99.9376 96.2948C98.6145 98.2353 95.5185 101.825 93.7192 100.661C91.4699 99.2055 92.6607 80.0209 95.9684 75.6548C99.2761 71.2887 100.996 64.9379 107.876 61.101C114.756 57.264 105.759 50.1194 111.845 53.0302C113.101 53.6305 114.049 53.9448 114.756 54.0586M99.9376 96.2948C100.471 95.7202 100.948 95.0451 101.373 94.3102M70.0361 97.4855C70.8279 100.075 72.1741 105.588 71.2239 106.926M81.1499 82.5348C80.3561 84.5194 77.8952 86.9009 74.4023 80.5502C70.0361 72.6117 76.3869 62.2917 81.1499 62.5563C85.913 62.821 86.7069 65.2025 86.7069 67.9809M84.2261 69.4363C84.6781 68.2015 85.139 65.5862 83.3661 65.004C81.1499 64.2763 77.4784 65.7317 77.0815 68.3117C76.6846 70.8917 74.5015 74.3317 75.7915 77.6063M82.1423 72.1817C82.7046 72.2479 83.4389 72.9028 81.8776 74.9933C79.9261 77.6063 80.9515 78.764 79.2976 76.614M83.6969 69.4363C83.1125 69.8553 81.5138 70.5874 79.7938 70.164M78.2392 71.5863C79.452 71.5422 81.8776 71.5996 81.8776 72.1817M114.756 54.0586C115.307 57.6409 116.172 65.1231 115.219 66.3933C114.463 67.4013 115.12 70.7561 114.127 73.9348M107.148 82.7994C107.466 83.5403 108.295 83.4168 108.67 83.2625C108.163 82.7332 107.373 81.5689 108.273 81.1456C109.173 80.7222 109.927 79.3815 110.191 78.764C111.296 78.1584 112.127 77.4227 112.755 76.614M107.148 82.7994C106.831 82.0585 105.605 80.9912 105.031 80.5502L105.627 83.2625M107.148 82.7994H106.818M105.627 83.2625L106.818 82.7994M105.627 83.2625L104.304 84.6517C104.178 85.882 103.834 87.8675 103.202 89.944M106.818 82.7994C106.906 86.7686 106.527 94.7203 104.304 94.7732C103.78 94.7857 103.343 94.7764 102.981 94.7525M101.373 94.3102C101.412 94.445 101.805 94.6752 102.981 94.7525M101.373 94.3102C101.485 94.1156 101.594 93.9169 101.7 93.7148M102.981 94.7525C102.987 94.4066 102.739 93.7148 101.7 93.7148M101.7 93.7148C102.319 92.5258 102.814 91.2178 103.202 89.944M103.202 89.944L103.642 91.2671M35.0089 154.51C29.1062 162.689 27.38 171.808 27.5654 177.532L33.5192 193.144L38.7911 203.932M35.0089 154.51C30.5502 148.514 23.0753 139.019 16.655 132.15M5.99922 123.682C8.02707 123.682 12.0724 127.247 16.655 132.15M114.127 73.9348C112.925 74.0671 110.152 74.464 108.67 74.9933C107.188 75.5225 110.776 76.2943 112.755 76.614M114.127 73.9348C113.836 74.8639 113.405 75.778 112.755 76.614M53.4977 234.027L38.7911 203.932M15.2608 173.033C19.3046 182.695 29.672 202.401 38.7911 203.932M16.655 132.15L9.43922 139.923M100.864 151.391C101.547 150.869 102.663 149.825 101.658 149.825C100.652 149.825 95.77 150.797 93.4546 151.283L93.4549 152.459M131.427 152.129L133.081 151.467C133.323 151.423 133.835 152.076 133.941 155.039L132.685 155.833C131.846 155.249 130.42 153.689 131.427 152.129ZM148.958 154.51C149.355 153.915 150.029 152.525 149.553 151.732C148.958 150.739 146.543 150.012 146.311 150.739C146.126 151.321 145.352 153.055 144.988 153.849C145.595 154.598 147.238 155.78 148.958 154.51Z" stroke="black" stroke-width="1.5"/>
</svg>
