<svg width="240" height="240" viewBox="0 0 240 240" fill="none" xmlns="http://www.w3.org/2000/svg">
<path d="M90.6787 182.929L85.6055 171.277L95.8534 179.89L109.145 193.468L112.088 198.433L109.145 197.318L100.724 194.582L90.6787 182.929Z" fill="#00B4A6"/>
<path d="M122.539 215.861L120.509 211.707H121.118L124.162 210.592L127.409 213.531L129.844 219.306H127.916L122.539 215.861Z" fill="#00B4A6"/>
<path d="M131.467 75.9262L131.264 69.3398C132.482 71.2042 136.913 71.5353 138.773 71.4677L136.642 76.2302L134.41 75.0142L131.467 75.9262Z" fill="#00B4A6"/>
<path d="M154.195 82.9179L154.398 71.873L158.355 72.6836L159.979 70.2518L164.545 65.084V67.3132L161.805 72.6836L159.37 76.2302L157.138 77.7501L154.195 82.9179Z" fill="#00B4A6"/>
<path d="M113.407 66.1986L110.87 65.1853V70.3531L113.407 77.0408V66.1986Z" fill="#00B4A6"/>
<path d="M209.111 117.369C214.675 106.445 217.407 94.2837 217.407 81.1876C217.407 36.8097 180.973 1.44922 136.537 1.44922C92.1008 1.44922 56.0781 37.4246 56.0781 81.8025C56.0781 91.904 57.4081 101.201 60.7496 110.074" stroke="#00B4A6" stroke-width="2" stroke-linecap="round"/>
<path d="M210.745 127.576C210.45 128.043 210.59 128.661 211.057 128.955C211.524 129.25 212.142 129.11 212.436 128.643L210.745 127.576ZM63.5703 85.602C63.5703 41.8059 99.1445 6.29883 143.032 6.29883V4.29883C98.0436 4.29883 61.5703 40.6976 61.5703 85.602H63.5703ZM143.032 6.29883C186.919 6.29883 222.493 41.8059 222.493 85.602H224.493C224.493 40.6976 188.02 4.29883 143.032 4.29883V6.29883ZM222.493 85.602C222.493 101.12 218.439 115.373 210.745 127.576L212.436 128.643C220.343 116.103 224.493 101.477 224.493 85.602H222.493ZM65.7527 104.155C64.1975 97.9688 63.5703 92.294 63.5703 85.602H61.5703C61.5703 92.4371 62.2129 98.2776 63.8131 104.642L65.7527 104.155Z" fill="#DE2010"/>
<path d="M93.127 185.462C93.0636 184.388 93.8497 181.862 97.8795 182.62M94.3628 179.02C92.9055 178.957 90.3714 178.641 90.3711 181.388" stroke="white" stroke-width="2"/>
<path d="M92.096 185.057C92.2876 183.683 93.5909 181.088 97.2707 181.701M90.3711 182.277C90.5627 180.902 91.3869 178.882 95.0666 179.496" stroke="#DE2010" stroke-width="1.5"/>
<path d="M146.683 103.488C143.605 107.484 140.599 117.932 152.786 124.939C161.403 135.081 182.976 157.67 200.333 166.89C217.69 176.11 217.106 187.021 214.644 191.324" stroke="black" stroke-width="1.5"/>
<path d="M193.405 113.875C190.943 117.409 185.557 125.861 183.711 131.393C181.864 136.925 178.325 143.533 176.787 146.145L175.863 148.911" stroke="black" stroke-width="1.5"/>
<path d="M155.106 92.2402V102.878C153.347 108.358 149.302 119.415 147.191 119.802" stroke="black" stroke-width="1.5"/>
<path d="M86.7692 147.066C83.5378 152.445 76.2442 164.031 72.9205 167.351C69.5969 170.67 69.0737 173.344 69.2276 174.266C67.381 177.032 63.0415 182.564 60.4565 182.564C57.8714 182.564 57.8406 183.178 58.1483 183.486M81.6552 155.265C82.8862 167.251 84.8308 192.982 82.615 195.933" stroke="black" stroke-width="1.5"/>
<path d="M111.238 195.933C115.854 194.704 124.718 193.905 123.24 200.543V205.153" stroke="black" stroke-width="1.5"/>
<path d="M121.855 93.1308C123.394 94.0528 127.026 95.8968 129.241 95.8968C132.011 95.8968 128.015 96.8188 142.167 96.8188M121.855 93.1308C122.841 92.3418 128.842 93.5145 129.241 93.2539C129.641 92.9933 130.552 93.6857 130.958 94.0645C131.973 93.9632 134.063 93.8213 134.306 94.0645C134.611 94.3685 141.91 96.8188 142.167 96.8188M121.855 93.1308C124.01 94.7931 128.584 98.1987 129.639 98.523C130.958 98.9283 141.403 98.2559 142.167 96.8188" stroke="black" stroke-width="1.5"/>
<path d="M129.335 82.4102C129.335 83.6395 129.426 84.3693 128.318 84.3693C127.21 84.3693 127.241 85.5986 127.394 86.2133C128.164 86.0596 129.703 86.0289 129.703 87.1353C129.703 88.5183 133.395 90.8233 135.242 88.5183C136.719 86.6743 137.704 87.1353 138.011 87.5963C138.627 87.4426 139.673 86.8587 138.934 85.7523C138.196 84.6459 137.658 84.0448 137.35 82.8155" stroke="black" stroke-width="1.5"/>
<path d="M91.3894 183.948L102.007 195.473M91.3894 183.948C91.3894 180.26 94.7741 180.26 96.4664 180.721M91.3894 183.948L84.9258 170.118M102.007 195.473H97.3905L90.4661 198.7C87.6964 198.393 81.7876 197.317 80.3105 195.473C75.6942 194.705 63.2304 189.757 50.305 176.111C47.8431 175.189 42.6421 173.622 41.5342 174.728C40.6102 175.651 27.3545 176.163 23.8465 182.565M102.007 195.473L113.546 198.7M112.162 223.594C113.269 224.701 109.853 225.899 108.007 226.36H102.699M112.162 223.594L99.2361 219.906M112.162 223.594C114.316 223.287 118.255 222.119 116.778 219.906M116.778 219.906C115.301 217.693 105.699 214.374 101.083 212.991M116.778 219.906C118.91 219.507 122.405 218.07 121.622 215.296M113.546 198.7C117.239 200.544 124.625 205.246 124.625 209.303C124.625 209.882 124.531 210.337 124.363 210.686M113.546 198.7L96.4664 180.721M96.4664 180.721L84.9258 170.118M84.9258 170.118C85.6952 167.659 88.3419 163.018 92.7734 164.125L95.0815 166.43M84.9258 170.118C81.8481 170.425 76.1544 172.33 78.0015 177.494L79.3864 179.799M95.0815 166.43V168.735L97.3905 166.43H95.0815ZM79.3864 179.799V182.565L81.6945 179.799H79.3864ZM124.363 210.686C123.354 212.783 119.68 211.082 117.701 209.764L111.238 204.693L102.007 204.232L112.162 208.381C114.008 208.689 118.347 210.225 120.932 213.913C121.278 214.407 121.501 214.867 121.622 215.296M124.363 210.686L127.395 213.913M127.395 213.913C126.384 214.067 124.363 214.927 124.363 217.14M127.395 213.913L129.242 217.371M124.363 217.14L121.622 215.296M124.363 217.14L127.726 218.984M127.726 218.984L131.088 220.828L129.242 217.371M127.726 218.984L129.242 217.371M23.8465 182.565C22.0972 185.757 22.7719 190.414 28.6088 197.317C42.6421 213.913 65.8458 216.833 75.6934 216.218L84.0026 222.211C86.0035 224.516 91.4824 228.573 97.3905 226.36H102.699M23.8465 182.565C23.6567 181.657 23.5513 180.507 23.5938 179.179M38.302 156.748L41.5342 145.684C43.0727 143.226 46.7036 138.401 48.9193 138.769C51.1351 139.138 50.1503 133.083 49.381 130.01L56.3053 114.336L59.075 115.258M38.302 156.748C38.951 156.964 41.3854 157.049 45.931 155.671M38.302 156.748C26.8582 163.967 23.7817 173.31 23.5938 179.179M59.075 115.258C59.8444 111.877 63.9682 103.087 74.3085 94.9737V92.2076L99.2361 89.4416C99.5439 88.6733 100.529 87.1366 102.006 87.1366C103.483 87.1366 108.776 85.2926 111.238 84.3706M59.075 115.258C60.4771 117.053 63.6752 118.99 62.3682 124.478C59.843 135.081 65.6489 130.812 67.7458 132.061C65.773 129.826 63.2141 124.719 68.7605 122.173M111.238 84.3706C111.238 82.9875 111.146 79.2995 110.777 75.6115M111.238 84.3706C110.722 86.9523 113.793 95.5883 115.393 99.5836M110.777 75.6115C109.546 74.3821 107.176 71.5546 107.545 70.0794C108.007 68.2354 107.545 65.9304 107.545 63.6253C107.545 61.7813 107.238 58.2469 107.084 56.7103C107.391 55.0199 108.561 52.2846 110.777 54.8662M110.777 75.6115C110.431 74.8913 110.299 72.5071 110.289 69.5023M110.777 54.8662C110.625 57.3854 110.45 61.0143 110.355 64.5472M110.777 54.8662C110.639 53.4214 110.741 53.9634 110.777 51.505M119.086 26.2838L111.238 34.5819C112.008 34.7355 113.177 36.0571 111.7 40.1139C110.884 42.3544 110.821 48.4725 110.777 51.505M119.086 26.2838C117.547 25.8228 114.931 24.6242 116.778 23.5177C116.778 23.8251 117.239 24.532 119.086 24.9008C120.932 25.2696 121.702 22.2884 121.856 20.7517L128.78 18.9077C130.934 18.754 134.966 17.9857 133.858 16.1417M119.086 26.2838C119.323 26.8985 120.588 27.9435 123.754 27.2058M133.858 16.1417C132.75 14.2976 130.934 13.5293 130.165 13.3756C131.857 12.761 135.797 12.4536 138.012 16.1417C140.228 19.8297 146.322 19.5224 149.091 18.9077L157.862 23.5177H163.863C162.478 24.2861 160.263 26.0994 162.478 27.2058M133.858 16.1417C135.396 17.371 137.274 20.5673 132.473 23.5177M162.478 27.2058C164.694 28.3122 165.864 30.1255 166.171 30.8939L170.788 36.8869C171.557 37.5016 173.096 38.0856 173.096 35.5039L170.788 46.107M162.478 27.2058C161.247 27.8072 157.076 28.6491 150.236 27.2058C143.397 25.7625 142.025 27.8338 140.8 30.8939M170.788 46.107L166.171 62.7032L165.479 64.0862M170.788 46.107C168.787 46.147 164.325 47.2825 162.478 51.505M164.786 65.4692C166.787 63.3179 170.603 60.5826 169.864 66.8523M164.786 65.4692L163.836 68.6963M164.786 65.4692L165.479 64.0862M169.864 66.8523C169.126 73.1219 164.94 79.9141 162.94 82.5264C161.401 82.9874 158.693 83.3562 160.17 81.1434M169.864 66.8523C168.95 66.0839 166.793 65.6537 165.479 70.0794C164.165 74.505 162.21 78.3774 161.397 79.7604L160.17 81.1434M160.17 81.1434L158.785 85.7534M160.17 81.1434L163.836 68.6963M158.785 85.7534L156.477 90.3635C152.784 97.2786 145.091 105.628 138.936 109.342M158.785 85.7534C163.378 85.7534 172.805 86.5077 177.023 89.3807M178.173 90.3635L197.562 94.9735M178.173 90.3635C175.693 91.0891 170.671 93.0268 170.428 94.9735C170.184 96.9202 170.788 101.764 162.94 101.764M178.173 90.3635C177.856 90.0112 177.469 89.6841 177.023 89.3807M197.562 94.9735C198.793 94.5125 201.532 94.1437 202.639 96.3566C203.747 98.5694 203.101 102.196 202.639 103.733M197.562 94.9735C198.963 96.0404 200.924 98.7301 197.562 100.953C194.199 103.177 193.021 106.879 192.851 108.452M202.639 103.733C204.64 106.345 208.641 112.492 208.641 116.18C208.641 120.79 212.333 128.166 210.949 135.081C212.18 134.466 214.365 134.528 213.257 139.691C212.149 144.854 210.641 148.604 210.025 149.833L214.642 156.287C214.655 156.437 214.668 156.591 214.682 156.75M202.639 103.733C201.643 103.752 199.548 104.155 199.142 105.615M214.642 174.728C215.565 175.496 217.319 178.139 216.95 182.564C216.58 186.99 214.026 193.321 212.795 195.934L205.871 207.459C204.024 208.842 198.3 210.501 190.176 206.076C182.051 201.65 166.787 182.103 160.17 172.883C154.631 161.819 141.802 139.549 138.771 139.256C132.48 138.648 132.616 137.412 131.385 136.951L119.547 124.478M214.642 174.728C215.352 173.31 215.341 168.279 215.12 163.473M214.642 174.728C213.737 174.05 210.405 171.863 204.317 168.54C198.229 165.216 195.151 161.481 194.373 160.028M119.547 124.478C118.44 123.371 114.671 122.295 114.825 121.219L113.085 120.329H109.853M119.547 124.478C112.187 121.726 111.385 126.273 111.385 123.814M109.853 120.329L110.001 121.97C110.77 121.97 112.124 122.339 111.385 123.814M109.853 120.329L108.433 118.99M111.385 123.814C110.647 125.289 108.622 125.861 108.007 125.861L105.237 122.173C104.776 119.868 104.406 115.258 106.622 115.258C107.016 115.101 107.488 114.932 108.007 114.773M115.393 115.258C114.168 113.423 110.53 113.997 108.007 114.773M108.007 114.773C108.159 114.092 108.591 113.096 109.392 112.309M119.547 108.804L113.085 111.109C112.653 111.061 112.253 111.064 111.883 111.109M111.883 111.109C110.815 111.238 109.998 111.714 109.392 112.309M111.883 111.109C111.348 109.892 112.124 107.307 117.971 105.002M123.702 103.272C121.396 103.809 119.508 104.396 117.971 105.002M115.393 99.5836C112.931 102.228 108.284 108.475 109.392 112.309M115.393 99.5836C117.086 98.9689 122.317 98.2928 129.703 100.506L138.936 109.342M140.782 111.109L138.936 109.342M110.355 64.5472L112.623 65.9302C112.842 65.9521 113.069 65.9753 113.303 65.9999M110.355 64.5472C110.31 66.2682 110.283 67.9663 110.289 69.5023M163.836 68.6963L164.786 64.5472L157.862 72.8453C157.17 72.5073 156.105 72.2407 154.802 72.0325M163.836 68.6963L160.17 75.6115L157.862 76.9944C156.785 79.2995 154.446 84.0019 153.707 84.3706C153.66 84.3942 153.586 84.4226 153.488 84.4546M110.289 69.5023L111.238 70.0794L112.623 76.5334C112.946 76.9158 113.274 77.2716 113.608 77.6023M118.163 68.6963C118.624 70.233 120.932 72.8453 126.472 71.0013M110.777 51.505C112.699 51.3303 114.182 49.8653 116.316 51.505M110.777 51.505C112.64 49.8978 116.172 46.0264 115.393 43.3986M116.316 51.505C121.856 55.7608 119.348 48.1437 121.856 51.505M116.316 51.505C118.089 50.2552 121.287 47.1883 119.899 44.9186M121.856 51.505C124.363 54.8662 127.395 50.0689 129.703 53.4302M121.856 51.505C123.334 51.3698 125.783 50.3295 123.754 47.2491M129.703 53.4302C131.55 56.1192 139.58 50.7339 143.134 48.6677L146.381 54.8662C147.016 54.0955 147.808 52.9128 148.473 51.505M129.703 53.4302C131.194 53.243 133.651 49.9761 129.703 46.107M148.473 44.9186C149.879 47.876 149.7 48.9083 148.473 51.505M148.473 51.505C151.858 51.3323 158.15 51.6463 158.785 54.0315M165.479 64.0862C165.248 64.2399 164.786 63.56 164.786 59.6113C164.786 54.6753 157.862 58.8006 158.785 54.8662C158.856 54.5632 158.853 54.2856 158.785 54.0315M158.785 54.0315C159.555 54.3715 160.632 53.7747 158.785 48.6677M154.802 72.0325L153.488 84.4546M154.802 72.0325C151.031 71.4295 145.27 71.3155 140.8 71.3707M153.488 84.4546C151.669 85.0482 141.516 86.8767 138.012 82.0654L137.447 80.485M113.303 65.9999L113.608 77.6023M113.303 65.9999C118.331 66.5264 126.733 67.6601 130.552 68.9913M113.608 77.6023C119.385 83.3295 126.648 81.5038 129.703 79.7604C129.913 79.4463 130.215 78.9932 130.552 78.4884M122.029 116.659C122.165 115.398 122.841 112.522 124.464 111.109C126.494 109.342 127.407 105.412 128.016 105.412M130.552 68.9913C131.561 69.3427 132.25 69.7079 132.473 70.0794C133.581 71.9233 136.012 71.7696 137.089 71.4623C138.133 71.4217 139.404 71.388 140.8 71.3707M130.552 68.9913C131.912 70.8159 131.668 74.1013 130.552 78.4884M130.552 78.4884C131.205 77.5113 131.986 76.3409 132.473 75.6115C133.211 74.5051 134.935 75.1505 135.704 75.6115L137.447 80.485M140.8 71.3707C138.971 71.8418 135.739 74.3242 137.447 80.485M117.971 105.002L116.956 103.272M92.6046 204.232C92.4642 206.691 91.8399 212.069 90.4661 213.913C89.0924 215.757 90.5092 218.677 91.3894 219.906M112.162 211.605C111.539 212.13 110.389 213.393 110.767 214.239M108.007 217.371C107.303 217.909 105.957 219.169 106.201 219.906M103.766 224.271C103.054 224.786 101.845 225.925 102.699 226.36M114.217 202.789C114.541 201.249 113.54 200.864 112.999 200.864M68.7605 168.735C69.6736 167.454 70.7492 163.534 67.7458 158.103M63.5858 180.721C63.2476 177.891 60.7042 172.02 53.2364 171.174C43.9017 170.118 37.8138 163.492 32.0303 166.43C27.4036 168.779 25.0282 172.941 24.2281 174.728L23.5938 179.179M214.682 156.75C212.174 157.809 205.413 158.853 198.432 154.556C189.706 149.186 179.864 144.93 177.327 146.045C175.298 146.936 184.328 152.091 189.097 154.556C196.267 158.407 211.298 165.581 214.058 163.473H215.12M214.682 156.75C214.837 158.581 215.007 160.997 215.12 163.473M177.023 89.3807C173.776 89.7717 167.323 91.1339 167.485 93.4551C167.688 96.3566 168.887 99.3747 163.836 99.9401" stroke="black" stroke-width="1.5"/>
<path d="M142.629 74.2305C144.475 75.3061 148.815 76.8121 151.4 74.2305" stroke="black" stroke-width="1.5"/>
<path d="M141.386 68.5948C143.848 67.6728 149.695 66.3819 153.388 68.5948C157.081 70.8076 157.081 70.7461 156.619 70.4388H141.386V68.5948ZM115.997 63.5237C118.459 63.0627 124.306 62.8783 127.999 65.8288L128.922 66.7506L115.535 65.3676L115.997 63.5237Z" stroke="black" stroke-width="1.5"/>
</svg>
