<svg width="240" height="240" viewBox="0 0 240 240" fill="none" xmlns="http://www.w3.org/2000/svg">
<path d="M31.9337 161.534C15.4267 147.103 5 125.89 5 102.241C5 58.76 40.2483 23.5117 83.7293 23.5117C94.5382 23.5117 104.838 25.6899 114.215 29.6314M162.102 94.6937C160.451 77.3406 153.168 61.6296 142.101 49.4095" stroke="#D21034" stroke-width="2"/>
<path d="M166.492 95.5857C164.337 54.0308 129.961 21 87.8699 21C44.3889 21 9.14062 56.2483 9.14062 99.7293C9.14062 121.931 18.3308 141.987 33.1146 156.299" stroke="#007229" stroke-width="2"/>
<path d="M142.852 50.1505C142.655 49.4106 141.831 48.1379 141.298 48.3747M113.402 28.9883C114.019 29.1609 115.341 29.6986 115.696 30.4682M162.682 95.4346L162.238 93.0668" stroke="#D21034" stroke-width="1.5"/>
<path d="M122.863 67.7837C122.859 67.8078 122.85 67.835 122.835 67.86M122.835 67.86C122.786 67.941 122.673 67.9999 122.454 67.86C122.095 67.631 122.505 67.0203 122.812 67.7074L122.835 67.86ZM121.703 67.7074C121.805 67.8091 121.01 69.1034 121.703 67.7074ZM121.703 67.7074C121.96 69.3714 120.631 67.7074 121.703 67.7074Z" stroke="black" stroke-width="1.5"/>
<path d="M103.324 78.3462C103.32 78.3703 103.311 78.3975 103.296 78.4225M103.296 78.4225C103.247 78.5035 103.134 78.5624 102.915 78.4225C102.556 78.1935 102.966 77.5828 103.273 78.2699L103.296 78.4225ZM102.164 78.2699C102.266 78.3716 101.471 79.6659 102.164 78.2699ZM102.164 78.2699C102.421 79.9339 101.092 78.2699 102.164 78.2699Z" stroke="black" stroke-width="1.5"/>
<rect x="48.082" y="90.3242" width="16.5943" height="18.0419" rx="4.25" stroke="black" stroke-width="1.5"/>
<circle cx="52.6044" cy="96.077" r="3.59264" stroke="black" stroke-width="1.5"/>
<circle cx="52.5982" cy="96.0787" r="2.14509" stroke="black" stroke-width="1.5"/>
<path d="M89.5901 65.0119C89.5901 69.2372 92.4069 77.8638 93.8153 81.6489C89.5901 79.8005 85.8931 72.934 82.4599 65.0119C79.0265 57.0894 85.3648 45.7341 85.8929 44.6778C86.4211 43.6215 94.3435 29.3612 109.924 29.8893C125.505 30.4175 138.709 43.3574 139.501 44.1496C140.135 44.7834 140.469 45.47 140.557 45.7341C143.726 56.9311 142.758 72.5822 141.878 79.0081C143.726 89.3072 149.008 92.4762 149.536 92.4762C149.959 92.4762 157.459 93.5325 161.156 94.0607C164.113 96.5958 166.085 99.6944 166.701 100.927C167.229 102.159 167.494 104.835 164.325 105.68C161.156 106.525 158.955 113.426 158.251 116.771C152.969 133.144 140.821 140.275 123.392 136.577C109.449 133.62 97.8645 118.62 93.8153 111.49V107.265C93.8153 105.363 96.4561 103.303 97.7765 102.511L96.9843 88.7791C98.0406 90.6804 103.058 96.6134 105.435 99.3422C107.724 101.631 114.361 106.631 122.6 108.321C130.839 110.011 136.068 104.624 137.653 101.719C143.198 92.7403 142.142 82.9693 141.35 79.0081C140.927 73.5153 139.501 68.6207 138.709 67.1241C138.709 65.5396 132.371 53.656 126.033 48.3749C121.437 44.545 115.382 44.2377 112.829 44.6778C108.868 44.7658 99.942 45.8398 95.928 49.4312C90.3823 54.9769 89.5901 59.7303 89.5901 65.0119Z" fill="#00B4A6"/>
<path d="M86.1543 149.781C86.4051 149.699 86.6707 149.608 86.947 149.507M93.8126 142.123C91.4887 138.742 84.5698 140.714 81.4009 142.123C77.7918 143.62 70.1511 146.93 68.461 148.197C66.3484 149.781 57.3696 152.687 51.0317 157.704C46.9143 160.964 44.6915 158.874 43.6395 156.647M93.8126 142.123V141.594C93.8126 133.797 93.8126 121.566 93.8126 110.961M93.8126 142.123C94.5243 143.158 94.4121 144.17 93.8126 145.109M93.8126 145.109V155.59C88.9713 158.495 77.8099 164.727 71.8945 166.418C64.5003 168.53 58.6905 166.154 61.5954 164.305C63.9193 162.826 79.4648 153.823 86.947 149.507M93.8126 145.109C92.5941 147.017 89.3627 148.624 86.947 149.507M74.7994 180.942C78.2325 176.981 91.4359 170.379 94.3408 166.946C94.696 166.526 95.0473 166.082 95.384 165.622M97.4734 161.928C97.9587 160.675 98.1939 159.411 98.0202 158.231C97.8645 157.174 97.3804 156.183 96.4534 155.327C96.0168 154.924 94.2555 153.12 93.8126 152.95M97.4734 161.928C97.8376 160.873 98.1435 158.55 96.4534 157.704M97.4734 161.928C98.6246 163.388 100.249 166.203 100.036 168.53M97.4734 161.928C97.1618 162.733 96.7471 163.533 96.2713 164.305M98.8301 170.907C99.1635 171.028 98.5709 171.824 98.8301 172.305C99.1765 172.949 99.3085 173.948 98.8301 175.396L97.6857 179.358M98.8301 170.907C98.4735 171.209 98.2412 171.537 98.0202 171.926C97.7686 172.37 97.5317 172.893 97.1426 173.548M98.8301 170.907C99.5963 170.259 99.9536 169.431 100.036 168.53M80.081 189.128C82.9168 188.104 85.3391 186.416 87.5814 184.375M42.8453 122.58C42.8453 138.624 42.8453 153.124 42.8453 153.743C42.8453 154.205 43.0722 155.446 43.6395 156.647M42.8453 122.58C42.8453 111.252 42.8453 99.153 42.8453 90.6279C42.8453 88.6913 44.1657 84.7653 49.4473 84.554C54.7289 84.3428 76.1193 84.466 86.1543 84.554C88.7071 84.4664 93.8126 85.5584 93.8126 90.6279C93.8126 92.7711 93.8126 99.5528 93.8126 107.792M42.8453 122.58C41.19 121.833 39.9234 122.532 38.9363 124.165M27.9763 175.396C27.6503 176.181 27.3254 176.737 27.0005 176.981C24.972 178.502 19.0478 197.554 38.6847 204.445C39.4988 204.731 40.3568 204.996 41.2608 205.237C46.1675 206.55 50.9633 206.802 55.5203 206.375M27.9763 175.396C25.3625 175.22 20.1349 176.083 20.1349 180.942C20.1349 187.016 19.8686 212.103 26.9987 214.48C29.5665 216.383 33.519 218.325 37.8271 218.732M27.9763 175.396C28.1657 174.94 28.3556 174.406 28.5459 173.812M55.5203 206.375C72.0554 204.825 85.843 195.25 89.5874 193.09C91.0501 192.246 92.1597 191.374 93.021 190.473M55.5203 206.375C50.9149 216.744 44.0054 219.316 37.8271 218.732M28.5459 173.812C26.8861 173.196 22.8272 173.072 19.8695 177.509C16.9118 181.945 18.8141 202.597 20.1349 212.367M28.5459 173.812C29.5554 170.659 30.5793 165.792 31.6458 161.664M31.6458 161.664C32.2811 159.205 32.9315 157.008 33.6029 155.59C34.5506 153.59 34.9104 147.349 35.5194 140.802M31.6458 161.664C25.6958 164.921 13.6903 173.865 13.2677 183.583C12.7396 195.73 7.19329 221.927 37.8271 218.732M93.8126 81.9121V81.1199C92.8342 78.6496 92.0505 76.4039 91.4365 74.355C86.7469 58.7058 91.9563 54.5339 95.9259 49.4303C97.7744 47.0537 106.067 44.4656 117.052 44.6769C128.038 44.8882 136.946 61.8421 140.027 70.2926C141.26 75.0464 142.332 86.6654 141.954 89.3062C141.224 94.4118 137.915 105.257 130.52 107.792C123.471 110.209 111.412 107.03 102.792 96.3818M93.8126 81.9121C94.5476 82.2551 95.1548 83.2106 95.6539 84.554M93.8126 81.9121C93.5617 81.795 93.297 81.6366 93.021 81.4409M97.7744 102.51C96.4538 103.303 93.8126 105.468 93.8126 107.792M97.7744 102.51C97.7744 97.7098 97.307 89.0039 95.6539 84.554M97.7744 102.51C98.6547 102.422 100.415 101.824 100.415 100.133M93.8126 107.792C93.8126 108.827 93.8126 109.886 93.8126 110.961M93.8126 110.961C98.5663 120.556 113.355 139.27 134.482 137.369M134.482 137.369C160.889 134.992 156.4 107.792 164.322 105.679C169.801 104.218 166.203 98.9684 162.738 95.5249M134.482 137.369C161.946 131.031 155.344 105.679 162.738 104.359C170.132 103.038 164.322 102.51 160.625 97.2286C157.668 93.0032 149.358 93.3555 145.573 94.0598M145.573 93.2675C146.053 92.5959 148.33 92.5162 151.119 92.7117M141.954 79.2712C143.7 68.7079 142.251 48.2859 140.027 44.6769C110.45 18.0577 92.3168 33.4095 86.1549 44.1487C84.2184 47.6698 80.5564 56.0323 81.4015 61.3139C81.6683 62.9817 82.3396 65.0034 83.2577 67.1235C85.7438 72.8645 90.0404 79.3275 93.021 81.4409M141.954 79.2712C142.984 83.8302 146.259 92.901 151.119 92.7117M141.954 79.2712C142.02 78.0108 142.024 76.7764 141.977 75.5741M151.119 92.7117C153.388 92.8709 155.996 93.2123 158.249 93.5654C159.323 93.7337 160.316 93.9047 161.154 94.0598C161.655 94.4894 162.195 94.9849 162.738 95.5249M95.6539 84.554C95.9836 85.5571 96.3408 86.5247 96.7232 87.4576M115.996 96.1723C117.58 97.2286 119.429 98.1265 124.711 96.4363C126.119 95.6441 130.52 93.5654 130.52 89.3062M115.996 96.1723C118.109 89.5703 120.98 91.4521 122.07 90.3625C124.711 87.7217 129.024 88.2498 130.52 89.3062M115.996 96.1723C120.485 92.4751 122.598 94.0598 123.654 92.7117C124.499 91.6333 128.584 89.992 130.52 89.3062M122.07 78.2149C122.536 78.9477 124.079 79.6857 123.279 81.1197M116.524 86.6654C115.38 86.6654 113.038 86.8238 112.827 87.4576M116.524 86.6654C120.536 86.2642 119.977 85.2541 120.749 83.865M116.524 86.6654C115.89 87.2992 113.795 87.4576 112.827 87.4576M112.827 87.4576C112.563 88.2499 110.714 87.1938 111.242 83.7608M123.279 81.1197C123.023 81.5796 122.634 82.0295 122.07 82.4401C121.372 82.9482 120.994 83.4255 120.749 83.865M123.279 81.1197C122.66 82.0008 121.287 83.9213 120.749 84.554C120.212 85.1868 120.525 84.3583 120.749 83.865M127.351 66.3313C126.645 66.8696 125.568 67.6446 124.353 68.4439M127.351 66.3313L127.615 65.539L126.295 65.8996M127.351 66.3313C127.161 66.173 126.808 65.9989 126.295 65.8996M119.596 68.4439C118.661 69.6158 118.901 70.3706 118.901 71.0847C119.761 70.8199 120.254 70.869 121.308 70.2926M119.596 68.4439C120.159 67.7378 120.958 67.072 122.07 66.5953C122.44 66.4366 122.792 66.3066 123.126 66.2014M119.596 68.4439C119.856 69.2362 120.564 70.7153 121.308 70.2926M121.308 70.2926C122.332 69.7325 123.386 69.0805 124.353 68.4439M123.126 66.2014C123.768 66.5968 124.913 67.5989 124.353 68.4439M123.126 66.2014C124.499 65.7688 125.56 65.7573 126.295 65.8996M118.109 69.2361C118.518 68.0038 120.259 65.6447 121.836 65.0109C123.413 64.3771 126.17 63.9546 127.351 63.9546M99.3589 81.1197C100.017 81.1562 100.709 81.0708 102.264 80.3275M99.3589 81.1197H98.8308L99.4572 80.3275M99.3589 81.1197C99.3722 80.8414 99.4056 80.5775 99.4572 80.3275M100.415 78.3688C100.591 79.3093 101.207 80.8326 102.264 80.3275M100.415 78.3688C101.214 77.4409 102.374 76.8593 103.584 76.5145M100.415 78.3688C99.9574 78.9009 99.6185 79.547 99.4572 80.3275M102.264 80.3275C103.099 80.0021 104.006 79.453 104.905 78.7433M104.905 78.7433C105.702 78.058 106.309 77.7192 107.017 76.6304C106.026 76.5643 105.185 76.1015 103.848 76.4432C103.76 76.4657 103.672 76.4895 103.584 76.5145M104.905 78.7433C105.023 78.6498 104.787 78.8446 104.905 78.7433ZM104.905 78.7433C104.905 77.7094 104.024 76.7478 103.584 76.5145M97.7744 80.3275C98.3906 78.655 100.415 75.5741 105.259 75.5741M100.415 100.133C100.415 98.4433 97.9539 90.9787 96.7232 87.4576M100.415 100.133C100.85 101.454 100.507 104.623 95.6539 106.735C89.588 109.376 113.619 142.914 134.482 130.239C151.171 120.098 156.048 111.049 156.4 107.792M96.7232 87.4576C98.2288 91.1311 100.652 93.7387 102.792 96.3818M102.792 96.3818C107.457 105.115 119.746 121.471 133.689 114.922C151.119 106.735 146.365 93.2674 160.625 101.19M162.738 95.5249C171.805 95.5648 192.104 99.183 200.765 113.338C206.937 123.423 209.505 126.901 209.447 129.447M205.255 136.049C206.989 133.862 208.249 132.515 208.913 131.295C209.25 130.677 209.433 130.092 209.447 129.447M194.163 118.091L195.484 143.443C195.132 149.361 195.009 161.27 197.332 161.559M231.927 173.548C231.769 175.124 234.434 179.147 235.204 182.527M209.447 129.447C213.86 140.714 224.216 163.724 230.342 165.625C236.469 167.527 236.136 177.685 235.204 182.527M235.204 182.527C235.725 184.809 235.38 186.799 232.719 187.544C226.117 189.393 220.307 211.839 189.41 185.96L188.882 185.696C186.945 185.519 183.072 183.847 183.072 178.565C183.072 176.478 183.125 176.45 183.573 177.245M193.635 162.457C195.114 162.034 198.653 163.865 200.237 164.833C202.614 168.882 204.991 177.879 195.484 181.47C192.994 182.411 191.003 182.54 189.41 182.217M193.635 162.457C193.635 154.622 192.685 138.795 188.882 138.161C184.128 137.369 188.354 133.144 183.072 132.88C177.791 132.616 180.167 131.295 176.998 131.295C174.463 131.295 163.266 132.351 157.985 132.88M193.635 162.457C194.185 161.972 195.396 161.519 197.332 161.559M157.985 132.88C156.767 133.238 154.454 134.761 153.293 138.161M157.985 132.88C152.439 130.242 150.59 132.88 150.59 134.2C150.59 134.493 150.729 134.86 150.948 135.256M153.495 151.629C155.185 152.897 156.664 150.221 157.192 148.724L157.985 140.802M153.495 151.629C152.46 150.853 152.059 149.822 152.012 148.196M153.495 151.629C153.671 151.013 153.706 149.358 153.495 148.724C153.284 148.091 152.507 148.196 152.012 148.196M157.985 140.802C157.897 139.57 158.513 136.894 161.682 136.049C164.851 135.204 169.34 133.584 171.189 132.88M157.985 140.802C157.721 145.555 158.09 155.432 161.682 156.911C162.477 157.238 163.08 157.417 163.53 157.485M164.71 143.443C163.443 147.668 164.71 151.629 164.322 155.855C164.533 156.185 164.711 156.586 164.71 156.911C164.71 157.327 164.418 157.62 163.53 157.485M164.71 143.443C166.295 138.161 166.435 138.425 174.093 136.049M164.71 143.443C164.267 147.662 164.081 154.775 166.32 156.429M179.639 138.953C177.373 139.11 172.972 140.237 171.567 143.443M181.224 148.724C181.048 148.02 179.956 147.034 176.998 148.724C174.041 150.414 175.942 153.478 175.414 155.855C175.327 156.246 175.274 156.599 174.886 156.779M181.224 148.724C181.857 149.383 183.776 146.358 184.657 144.763M181.224 148.724C181.4 150.749 181.488 155.379 180.431 157.703M153.293 138.161C153.027 138.94 152.821 139.818 152.703 140.802C152.299 144.168 151.964 146.505 152.012 148.196M153.293 138.161C152.948 137.824 152.47 137.318 152.012 136.764M163.53 157.485C165.819 162.751 175.678 172.637 183.072 171.792M183.072 171.792C190.466 170.946 189.234 167.474 189.41 165.625M183.072 171.792L183.573 177.245M183.072 171.792L189.41 182.217M183.573 177.245C184.244 178.438 185.805 181.486 189.41 182.217M170.888 155.855C169.879 154.659 169.893 153.415 170.216 150.837M170.888 155.855C170.862 156.084 170.792 156.273 170.686 156.429C170.168 157.182 168.787 157.119 167.383 156.779C166.979 156.779 166.627 156.655 166.32 156.429M170.888 155.855C170.98 155.963 171.08 156.062 171.189 156.152M171.567 143.443C171.39 143.849 171.26 144.288 171.189 144.763C170.898 146.701 170.465 148.851 170.216 150.837M171.567 143.443C171.145 144.499 170.283 147.457 170.216 150.837M106.225 71.0847C107.281 72.0019 109.394 74.2894 109.394 76.1025M34.6594 172.756C33.7791 174.252 33.0221 177.668 37.0361 179.358C42.0536 181.47 35.4517 185.431 44.6944 190.977M43.6395 156.647L42.0536 160.344M38.9363 124.165C38.2298 125.334 37.6665 126.981 37.2064 128.918C37.0089 129.75 36.8304 130.635 36.6678 131.559M38.9363 124.165C39.2017 125.397 39.1196 128.602 36.6678 131.559M36.6678 131.559C36.2625 133.861 35.9556 136.403 35.6981 138.953M209.447 165.625C218.98 170.907 219.075 173.988 217.931 174.868M209.447 165.625C210.427 165.009 214.867 164.358 224.797 166.682M209.447 165.625C203.952 162.581 199.969 161.613 197.332 161.559M197.861 156.383C197.597 156.207 197.702 155.432 200.237 153.742M123.39 148.724C125.767 155.855 132.105 170.802 138.443 173.548M107.017 162.457C113.267 171.347 128.302 189.128 138.443 189.128M97.6857 179.358C98.9477 182.933 101.63 193.341 102.264 206.375M97.6857 179.358C96.6037 181.971 96.2995 184.433 95.384 186.739M136.594 56.5606C138.377 59.2884 141.624 66.5191 141.977 75.5741M141.954 63.1623L141.977 75.5741M91.4365 76.6304L92.2288 79.0357M93.021 81.4409L92.2288 79.0357M150.948 135.256C151.217 135.742 151.607 136.272 152.012 136.764M150.948 135.256C150.876 135.645 150.988 136.491 152.012 136.764M174.093 156.905L174.886 156.779M174.886 156.779C174.488 156.964 173.74 156.967 172.245 156.647C171.824 156.557 171.475 156.388 171.189 156.152M165.907 144.235C166.011 144.235 166.451 144.341 167.383 144.763C168.315 145.186 168.9 144.939 169.076 144.763M172.882 145.555C172.985 145.555 173.426 145.661 174.358 146.084C175.289 146.506 175.874 146.26 176.051 146.084M158.621 141.594C158.725 141.594 159.165 141.7 160.097 142.122C161.029 142.545 161.614 142.298 161.79 142.122M171.189 156.152H172.245M166.32 156.429L168.548 156.383M86.947 59.2011C87.2095 63.0053 88.6332 72.2981 92.2288 79.0357M111.771 40.1877C115.468 40.0996 123.813 41.1912 127.615 46.2615M87.5814 184.375C90.3084 181.893 92.7693 178.889 95.384 175.924C95.814 175.437 96.1633 174.996 96.4534 174.595M87.5814 184.375L89.0592 183.583L90.6443 181.3M98.8301 166.946C99.3142 167.122 100.233 167.685 100.036 168.53M35.6981 138.953L37.2064 139.746M35.6981 138.953C35.6359 139.57 35.5765 140.187 35.5194 140.802M35.5194 140.802H37.0361M94.0091 161.664L95.384 165.622M95.384 165.622C95.695 165.196 95.9936 164.755 96.2713 164.305M95.384 161.928L96.2713 164.305M97.4734 170.907L97.1426 173.548M97.1426 173.548C96.9546 173.864 96.7312 174.211 96.4534 174.595M96.2713 171.926L96.4534 174.595M93.021 188.072V190.473M93.021 190.473C94.1645 189.278 94.8704 188.033 95.384 186.739M95.384 186.739V185.431C95.384 184.385 94.6885 184.996 94.3408 185.431M71.8945 151.893C71.9664 152.95 72.5425 155.115 74.2714 155.326M74.7994 151.101C75.4156 151.189 77.1762 153.891 77.1762 155.159M73.215 151.893C73.0389 152.334 73.1091 153.321 74.7994 153.743M111.771 63.1623C112.123 64.1306 112.985 65.9087 113.619 65.275C114.411 64.4827 119.693 59.4652 124.711 59.2011C128.725 58.9899 126.999 59.1131 125.767 58.1448C124.535 57.1765 120.855 56.0322 115.996 59.2011C111.137 62.3701 111.154 63.1623 111.771 63.1623ZM103.056 67.1235C103.936 67.4756 105.697 68.391 105.697 69.2361C105.697 70.2926 94.8696 70.5565 94.0773 77.1585C93.5518 75.5741 92.8161 72.141 94.0773 71.0847C95.3386 70.0284 100.589 68.0038 103.056 67.1235ZM91.4365 141.594C92.4048 141.868 95.4879 142.61 94.0091 144.763C92.5303 146.917 89.8521 147.096 89.3239 146.876L88.4633 143.361C88.9035 142.657 88.9014 141.594 91.4365 141.594ZM160.889 154.798C161.506 154.358 163.319 154.27 163.53 155.326L164.322 156.911C163.794 156.911 160.889 158.231 160.889 154.798Z" stroke="black" stroke-width="1.5"/>
<circle cx="52.6188" cy="95.904" r="0.75" stroke="black" stroke-width="0.612637"/>
<circle cx="59.6005" cy="103.421" r="3.59264" stroke="black" stroke-width="1.5"/>
<circle cx="59.606" cy="103.422" r="2.14509" stroke="black" stroke-width="1.5"/>
<circle cx="59.6149" cy="103.244" r="0.75" stroke="black" stroke-width="0.612637"/>
<path d="M53.4141 120.512C52.0334 120.512 50.9141 121.631 50.9141 123.012C50.9141 124.392 52.0334 125.512 53.4141 125.512V120.512ZM71.9466 125.512H74.4466V120.512H71.9466V125.512ZM53.4141 125.512H71.9466V120.512H53.4141V125.512Z" fill="#D21034"/>
<path d="M53.4141 129.066C52.0334 129.066 50.9141 130.186 50.9141 131.566C50.9141 132.947 52.0334 134.066 53.4141 134.066V129.066ZM72.4218 134.066H74.9218V129.066H72.4218V134.066ZM53.4141 134.066H72.4218V129.066H53.4141V134.066Z" fill="black"/>
<path d="M56.2695 125.262C54.8888 125.262 53.7695 126.381 53.7695 127.762C53.7695 129.142 54.8888 130.262 56.2695 130.262V125.262ZM74.802 130.262H77.302V125.262H74.802V130.262ZM56.2695 130.262H74.802V125.262H56.2695V130.262Z" fill="white"/>
<path d="M60.0801 127.002L53.4141 120.637V133.942L60.0801 127.002Z" fill="#007229"/>
</svg>
