<svg width="240" height="240" viewBox="0 0 240 240" fill="none" xmlns="http://www.w3.org/2000/svg">
<path d="M38.5876 50.4205L39.4704 49.3417C38.3724 49.3417 36.3329 52.7741 38.588 50.4205M61.5277 27.1777C61.299 27.1777 60.665 27.4523 59.9592 28.5507" stroke="#00B4A6" stroke-width="2"/>
<path d="M190.912 131.059C190.709 131.572 190.961 132.153 191.475 132.356C191.989 132.559 192.57 132.307 192.773 131.793L190.912 131.059ZM60.9674 26.7411C60.5105 27.0513 60.3915 27.6732 60.7017 28.1302C61.0119 28.5871 61.6338 28.7061 62.0907 28.3959L60.9674 26.7411ZM39.5271 50.7914C39.8407 50.3368 39.7264 49.7141 39.2718 49.4005C38.8172 49.0868 38.1945 49.2011 37.8808 49.6557L39.5271 50.7914ZM110.634 13.8242C158.053 13.8242 196.494 52.2784 196.494 99.7147H198.494C198.494 51.1745 159.158 11.8242 110.634 11.8242V13.8242ZM128.089 183.829C122.915 184.898 117.569 185.501 112.099 185.593L112.132 187.593C117.728 187.499 123.198 186.882 128.494 185.788L128.089 183.829ZM162.683 168.03C154.167 174.533 144.4 179.478 133.806 182.441L134.345 184.367C145.188 181.334 155.183 176.273 163.897 169.619L162.683 168.03ZM185.541 141.724C182.272 147.545 178.542 152.746 174.064 157.621L175.537 158.974C180.125 153.98 183.944 148.652 187.285 142.703L185.541 141.724ZM196.494 99.7147C196.494 110.875 194.759 121.316 190.912 131.059L192.773 131.793C196.726 121.78 198.494 111.085 198.494 99.7147H196.494ZM62.0907 28.3959C75.8122 19.0812 92.7748 13.8242 110.634 13.8242V11.8242C92.3862 11.8242 75.0301 17.1948 60.9674 26.7411L62.0907 28.3959ZM25.0592 92.6709C26.3103 77.2497 31.2384 62.8059 39.5271 50.7914L37.8808 49.6557C29.3765 61.9828 24.3427 76.7688 23.0658 92.5092L25.0592 92.6709Z" fill="#00B4A6"/>
<path d="M164.13 158.302C164.511 157.903 164.497 157.27 164.098 156.888C163.699 156.506 163.066 156.52 162.684 156.92L164.13 158.302ZM137.088 175.119C136.586 175.348 136.365 175.942 136.595 176.444C136.824 176.946 137.418 177.167 137.92 176.937L137.088 175.119ZM182.337 130.231C182.543 129.719 182.295 129.136 181.783 128.929C181.271 128.723 180.688 128.97 180.482 129.483L182.337 130.231ZM174.205 142.463C173.909 142.93 174.048 143.548 174.515 143.843C174.981 144.139 175.599 144 175.895 143.533L174.205 142.463ZM101.22 11.0781C148.639 11.0781 187.079 49.5323 187.079 96.9686H189.079C189.079 48.4284 149.744 9.07812 101.22 9.07812V11.0781ZM15.425 93.6091C17.1887 47.7303 54.9261 11.0781 101.22 11.0781V9.07812C53.8466 9.07812 15.2312 46.5843 13.4265 93.5322L15.425 93.6091ZM130.201 177.898C124.703 179.9 119.325 181.164 113.345 182.009L113.625 183.99C119.722 183.128 125.238 181.834 130.886 179.777L130.201 177.898ZM162.684 156.92C155.207 164.739 147.052 170.56 137.088 175.119L137.92 176.937C148.114 172.273 156.478 166.304 164.13 158.302L162.684 156.92ZM180.482 129.483C178.516 134.357 176.932 138.156 174.205 142.463L175.895 143.533C178.727 139.058 180.368 135.111 182.337 130.231L180.482 129.483ZM187.079 96.9686C187.079 102.21 186.61 107.34 185.712 112.321L187.68 112.676C188.6 107.579 189.079 102.329 189.079 96.9686H187.079Z" fill="#DE2010"/>
<path d="M116.711 117.563L117.299 115.7L119.554 116.778V117.563L119.064 118.936L116.711 117.563Z" fill="#00B4A6"/>
<path d="M125.338 118.544L122.789 117.563L123.258 116.064L123.279 115.405L126.318 116.778L125.338 118.544Z" fill="#00B4A6"/>
<path d="M117.985 112.954L118.476 110.796L116.711 110.502V112.954H117.985Z" fill="#00B4A6"/>
<path d="M125.828 121.388L127.005 119.524C127.397 120.505 128.867 119.524 128.867 120.897C128.867 121.996 128.148 122.205 127.789 122.172L125.828 121.388Z" fill="#00B4A6"/>
<path d="M124.26 115.405L125.142 112.954C126.24 113.346 127.364 114.752 127.789 115.405L127.397 116.778L124.26 115.405Z" fill="#00B4A6"/>
<path d="M131.122 125.703C130.416 119.976 133.9 118.086 135.73 117.857L136.024 121.388L133.671 125.703H131.122Z" fill="#00B4A6"/>
<path d="M131.512 53.3263C127.983 36.066 118.31 40.2505 112.395 44.4021C121.101 49.737 119.748 58.7528 117.787 62.8391L112.395 69.0176L107.102 77.7459L109.847 87.651H111.317C120.258 86.4741 123.212 92.7834 123.572 96.0851H125.532L126.513 94.516L129.454 89.122L136.316 84.6108L145.63 79.7073L152.492 72.6462C158.923 71.8616 157.655 75.7845 156.511 78.1381L151.904 82.4533L149.747 86.9645C148.669 90.2008 159.649 92.9468 163.57 92.9468L167.197 91.6719C172.609 88.8475 178.537 87.8144 180.824 87.651L206.412 90.9854L236.999 94.4179V59.5047L236.116 58.2298H208.862L204.647 60.1912C197.131 60.5508 181.158 61.27 177.393 61.27C173.628 61.27 169.942 57.3472 168.57 55.3858L163.178 50.09L160.433 49.3054V50.7765L165.433 58.0337H154.943L153.178 60.1912H146.414V61.27H143.179L141.708 59.6028L142.59 58.0337L141.316 57.6415V54.5031L140.238 50.09L138.277 45.5787L136.806 44.4021L137.885 54.5031V55.2877L134.257 54.8955L131.512 53.3263Z" fill="#00B4A6"/>
<path d="M13.185 93.2419C15.8259 93.5112 18.6981 94.4522 21.8121 96.0233C32.3652 101.348 45.6944 113.911 62.2027 132.098M13.185 93.2419L30.6353 92.7516L46.1249 90.4959M13.185 93.2419C23.5069 94.4074 45.1032 102.034 57.6931 122.985M26.3217 113.444C12.0085 114.621 8.47924 122.859 4.55782 126.586C0.636402 130.313 4.55782 142.669 11.4203 144.239C16.9103 145.494 27.6942 163.46 32.3999 172.287C34.6786 171.685 36.836 170.914 38.8703 170.015M57.6931 93.2419C54.9481 89.7113 51.0267 76.1776 52.5952 76.5699M57.6931 93.2419C59.9016 96.0825 54.8034 92.9157 54.1638 97.7532M57.6931 93.2419C58.664 93.5997 59.651 93.5301 60.5765 93.2419M52.5952 76.5699C54.9808 74.2816 59.6342 68.9204 59.1636 65.7822M52.5952 76.5699C53.9998 76.9211 57.6054 71.6105 61.0189 77.2564M62.2027 79.7082C61.8132 78.724 61.4174 77.9155 61.0189 77.2564M64.8497 90.4959C64.1446 91.113 62.4919 92.6455 60.5765 93.2419M81.6137 110.11C85.2084 112.987 93.927 117.877 100.044 114.425C101.155 112.791 103.182 109.169 102.397 107.756C102.561 107.004 103.201 105.442 104.456 105.207C105.711 104.971 105.436 103.735 105.142 103.147L104.753 102.956M81.6137 110.11C74.6475 105.043 60.6873 94.5756 60.5765 93.2419M81.6137 110.11C80.6672 109.819 79.0241 110.221 77.5943 110.801M107.299 101.48L104.946 102.951C104.946 102.951 104.877 102.954 104.753 102.956M107.299 101.48C106.776 99.9434 105.887 96.6352 106.515 95.6937M107.299 101.48H105.73M106.515 95.6937C107.142 94.7522 109.325 94.8437 110.338 95.0072C111.188 94.7457 112.573 93.4773 111.318 90.4959C110.993 89.7221 110.62 88.6981 110.233 87.5538M106.515 95.6937C104.325 96.0533 100.142 95.9683 100.927 92.7516C101.711 89.5349 103.378 90.6921 104.064 90.8882M105.73 43.8144C102.267 46.7565 96.025 53.6999 98.77 57.9365C101.118 61.56 102.055 69.6984 102.318 74.9027M102.318 74.9027C102.363 75.7833 102.388 76.5799 102.397 77.2564C102.397 85.8866 94.6851 90.2017 90.8291 91.2805C100.084 91.202 105.665 77.9756 107.299 71.3722L112.299 63.7227C112.789 64.9322 113.279 67.9593 111.318 70.3915C110.88 70.9358 110.462 71.5362 110.072 72.1567M102.318 74.9027C102.601 78.5117 95.4302 81.5061 91.8094 82.5522C94.8997 80.9114 96.7111 78.7787 97.6476 76.4719M98.4762 72.1567C98.5176 68.0913 96.7527 64.0791 95.1426 61.6632C87.9534 64.8995 75.4963 75.4127 83.1823 91.5747C80.8621 87.6846 76.4963 79.0217 77.5943 75.4911C77.858 74.6432 78.2815 73.4842 78.7978 72.1567M98.4762 72.1567C94.7119 72.7844 91.8097 74.2489 90.8291 74.9027L98.2732 74.3143M98.4762 72.1567C98.4689 72.8771 98.4048 73.5992 98.2732 74.3143M98.2732 74.3143C98.1389 75.0437 97.9342 75.7659 97.6476 76.4719M91.1232 78.9236C91.1517 78.9863 91.2559 79.051 91.4173 79.1151M84.3587 59.0153C82.9931 62.0705 80.4312 67.9568 78.7978 72.1567M60.5765 80.4927C58.8119 79.0217 59.7164 76.9876 57.2029 76.4719C53.3795 75.6873 54.4579 82.4215 55.3402 83.3368C55.8453 83.9684 56.6757 85.1125 57.2029 86.1195M92.6918 37.8321C90.8944 37.5052 86.5939 38.4401 83.7705 44.7951C80.9471 51.15 72.5945 56.2693 68.7711 58.0346C72.7709 57.25 76.3198 49.5351 77.5943 45.7758M110.072 72.1567C108.721 74.3087 107.705 76.703 107.299 77.8448C107.904 80.0475 109.129 84.2897 110.233 87.5538M110.072 72.1567C115.292 67.5474 123.965 56.3672 116.907 48.5215C115.546 47.0098 113.98 45.5224 112.299 44.0873M40.2428 82.2795C40.8313 83.1626 41.8556 83.4794 42.9878 83.5884M46.1249 90.4959C49.066 90.9536 45.7328 96.9686 47.3013 98.93C46.3863 100.957 51.1835 88.613 53.3795 89.7114C54.7223 90.6921 53.9713 95.3995 54.1638 97.7532M46.1249 90.4959C51.5281 82.088 46.6831 83.9444 42.9878 83.5884M54.1638 97.7532C54.0084 98.9281 51.6756 114.233 52.5952 114.425C52.851 114.478 53.1125 114.527 53.3795 114.572C52.7467 114.523 51.194 113.189 50.0463 108.247C48.8986 103.304 50.091 100.499 50.8306 99.7146M64.1619 45.3835C61.7023 54.4143 57.1002 58.5594 52.5952 61.6632M62.2027 60.0941C60.9423 60.3743 58.4327 61.7333 55.1442 64.9251M99.1621 101.97C100.543 103.179 103.842 102.975 104.753 102.956M61.0189 77.2564C63.719 79.0544 71.0551 80.5516 78.7978 72.1567M84.3587 55.9751C81.6791 58.5576 76.0649 65.0564 75.0454 70.3915C74.0258 75.7265 66.0588 75.6219 62.2027 74.9027C66.0588 74.6739 74.0258 73.059 75.0454 68.4301M77.5943 110.801C76.4574 111.263 75.4553 111.838 75.0454 112.268C70.9278 116.583 68.1502 115.534 67.3006 116.123L62.2517 118.706L58.3793 120.688L57.2029 121.29H56.1245M77.5943 110.801C77.5763 111.605 77.5202 112.496 77.4187 113.444C76.6288 120.825 73.0887 131.688 63.3571 132.098M62.2027 132.098L64.6971 136.589M62.2027 132.098C62.5968 132.114 62.9816 132.114 63.3571 132.098M62.2027 132.098C61.0728 129.266 59.7881 126.622 58.3793 124.156M54.1638 156.988C54.1208 156.504 54.1047 155.936 54.13 155.321M13.9693 107.168C19.6553 106.349 31.7333 105.32 34.5567 107.756M38.8703 170.015C51.6796 164.359 59.6083 153.661 62.2027 148.358C68.9075 148.715 71.8971 147.858 72.9866 146.752M38.8703 170.015C60.5688 185.39 105.24 211.528 110.338 193.078C116.205 171.844 130.471 141.377 130.828 127.861M130.828 123.644C129.955 123.263 129.104 122.907 128.279 122.57M116.71 112.66C116.71 110.012 117.164 110.018 118.867 110.471M116.71 112.66C116.71 113.918 116.676 114.593 116.1 115.014M116.71 112.66L117.985 113.199M133.769 118.348C134.88 117.956 135.651 117.407 136.121 118.348M133.769 118.348C132.873 118.74 131.031 120.737 131.031 125.605C131.479 125.682 131.901 125.71 132.298 125.694C134.01 125.627 133.697 124.763 134.572 123.644M133.769 118.348L131.031 116.727M136.121 118.348C136.175 116.603 137.517 113.448 134.749 114.229M136.121 118.348C136.404 118.913 136.193 120.834 135.267 122.57M134.572 123.644V121.29H133.769M134.572 123.644C134.838 123.304 135.069 122.942 135.267 122.57M72.9866 146.752C73.8087 145.918 73.5488 144.942 72.9866 144.239C56.9088 147.573 65.9281 146.2 59.6538 147.181C55.4592 147.836 54.2587 152.19 54.13 155.321M72.9866 146.752C77.8884 150.164 88.0057 158.596 89.2605 165.03M89.2605 165.03C97.9162 151.932 114.666 127.175 115.73 117.472M89.2605 165.03C90.1102 166.599 91.8094 170.051 91.8094 171.306M115.73 117.472C114.34 116.174 115.464 115.479 116.1 115.014M115.73 117.472C116.162 117.875 115.904 117.561 116.514 117.927M118.867 110.471C120.24 105.774 123.534 96.2429 125.73 95.6937M118.867 110.471L117.985 113.199M118.867 110.471C119.471 110.632 120.111 110.878 120.73 111.161M125.73 95.6937C124.878 96.7725 123.097 97.7924 122.789 93.2419C122.48 88.6913 114.29 87.5538 110.233 87.5538M125.73 95.6937C128.339 95.0412 123.509 91.1999 137.499 83.7486M125.73 95.6937L123.377 101.48M139.847 82.5522C139.01 82.9609 138.229 83.3597 137.499 83.7486M139.847 82.5522L137.886 72.1567C135.376 72.1567 135.795 73.5951 136.318 74.3143L137.499 83.7486M139.847 82.5522C141.23 82.3852 144.041 81.4172 146.678 78.9236M166.368 97.6292C164.065 100.595 165.728 102.362 159.258 104.03C158.767 103.917 159.615 104.209 159.062 104.122M166.368 97.6292C167.788 95.7998 169.532 92.2707 165.14 92.7895M166.368 97.6292C165.37 98.4551 162.728 99.7146 160.14 99.7146L156.317 98.8319L151.611 98.3416L149.944 97.9493M116.907 77.8448H118.867M116.907 80.4927H118.867M112.299 44.0873C110.709 42.7307 109.017 41.4208 107.299 40.1814C104.442 38.1205 101.514 36.2544 98.868 34.6922M112.299 44.0873C113.722 43.2155 115.826 42.2093 118.083 41.6124M145.533 55.9751C145.925 53.3599 146.709 47.2664 142.788 43.8144M145.533 55.9751C147.886 54.7327 150.592 52.0911 149.65 49.1099C149.095 47.0505 147.494 42.1472 145.533 39.0089M145.533 55.9751C144.484 56.6234 143.972 57.3942 142.788 57.6803M133.376 47.1546C134.797 47.4174 137.208 48.0942 137.608 49.0017M137.499 49.7045C137.367 50.7763 137.406 51.9137 137.886 53.235C138.949 56.1577 135.214 55.1625 132.298 53.9156C131.77 53.6898 131.318 52.2543 131.318 53.235C131.841 51.5351 131.494 49.5178 127.886 44.0873C127.284 43.1801 126.55 42.5128 125.73 42.0412M137.499 49.7045C137.684 49.4582 137.706 49.2231 137.608 49.0017M137.499 49.7045C137.528 49.4674 137.565 49.2336 137.608 49.0017M142.788 49.8947H143.964M146.709 50.4832H148.278M142.788 57.6803C141.465 58.0001 140.526 57.7144 141.023 55.9751C141.504 54.2914 141.05 52.0239 140.299 49.8947M142.788 57.6803C141.219 59.0079 139.768 61.6632 146.513 61.6632M146.513 61.6632V60.0941H153.376M146.513 61.6632L146.524 62.742M153.376 60.0941L155.14 57.6803H165.532M153.376 60.0941V64.0169M165.532 57.6803L159.846 49.8947C160.238 48.6852 162.395 48.0118 167.885 54.9944C169.976 57.2173 174.826 61.6632 177.492 61.6632M165.532 57.6803C168.375 58.4522 173.806 60.6433 172.787 63.2323C171.767 65.8214 173.393 81.4408 174.333 88.9268M177.492 61.6632C177.958 61.6632 178.883 61.6314 180.139 61.576M177.492 61.6632V69.6069M206.511 60.0941L208.668 57.6803M206.511 60.0941V90.8882M206.511 60.0941C200.356 60.4701 189.433 61.1163 182.786 61.45M208.668 57.6803H236.902V94.4188L206.511 90.8882M208.668 57.6803L206.511 90.8882M206.511 90.8882C200.76 90.2344 187.61 88.6522 181.022 87.5538M181.022 87.5538L183.963 106.972M181.022 87.5538H179.257M181.022 87.5538C180.297 84.0856 179.515 78.5896 179.542 73.4317M182.786 61.45C181.8 61.4995 180.908 61.5422 180.139 61.576M182.786 61.45C181.916 62.2342 181.254 63.3539 180.763 64.7034M177.492 87.5538V78.5804M177.492 87.5538H179.257M177.492 87.5538L174.333 88.9268M146.678 78.9236C147.654 78.0007 148.607 76.8688 149.454 75.4911C150.564 73.6872 151.993 72.7423 153.376 72.5001M146.678 78.9236L146.614 72.1567M125.73 54.9944C126.514 60.0287 127.847 72.1764 126.906 80.4927M159.062 104.122L157.284 106.58M159.062 104.122C158.594 104.104 158.137 104.09 157.689 104.079M123.965 196.804L155.413 112.758M123.965 196.804L129.455 198.374M123.965 196.804C121.798 197.328 118.803 198.791 117.572 201.414M129.455 198.374C131.337 201.826 128.671 207.135 127.102 209.357H118.867C116.717 205.996 116.649 203.379 117.572 201.414M129.455 198.374C127.573 194.921 150.369 145.285 162.003 120.898M162.003 120.898C162.428 120.544 163.006 120.2 163.571 120.104M162.003 120.898C162.525 118.328 162.478 114.102 159.58 112.824M165.532 123.252H174.551M165.532 123.252C165.532 126.821 163.862 160.439 162.632 184.546M165.532 123.252C165.532 120.545 164.572 119.936 163.571 120.104M174.551 123.252C174.975 120.991 176.11 118.284 177.885 120.345M174.551 123.252V185.036M209.06 202.885C200.76 180.786 183.375 134.314 180.237 125.213C179.36 122.666 178.574 121.146 177.885 120.345M209.06 202.885C207.426 207.069 206.08 215.124 213.766 213.869C221.452 212.613 221.804 208.377 221.02 206.415C220.931 206.147 220.79 205.812 220.594 205.435M209.06 202.885L210.628 202.227M215.138 200.335L187.296 119.917C187.569 118.226 186.088 115.044 186.156 112.824M215.138 200.335C218.042 201.598 219.785 203.877 220.594 205.435M215.138 200.335L210.628 202.227M157.284 106.58C165.458 106.58 180.07 106.972 183.963 106.972M157.284 106.58L155.413 112.758M183.963 106.972C184.212 106.972 184.41 106.972 184.551 106.972C185.81 106.972 186.189 109.293 186.17 112.071M105.338 101.48H105.73M153.376 72.5001C155.903 72.0575 157.284 72.7838 157.284 76.0796C156.072 78.1626 154.082 80.1627 152.101 82.0619L149.454 87.5538L150.533 89.4172L153.376 90.9656M153.376 72.5001V71.3722M153.376 90.9656C152.883 90.8672 151.955 90.7068 151.023 90.6014C150.472 90.5391 149.92 90.4959 149.454 90.4959M153.376 90.9656C154.269 91.3389 155.256 91.6828 156.317 91.973M155.413 112.758C157.213 112.291 158.57 112.379 159.58 112.824M177.885 120.345C177.78 117.996 177.781 113.749 181.294 112.66M186.156 112.824C186.163 112.57 186.168 112.319 186.17 112.071M186.156 112.824C184.052 112.285 182.475 112.294 181.294 112.66M178.571 97.8512L171.512 90.1527M171.512 90.1527L165.532 92.7516C165.401 92.7654 165.27 92.778 165.14 92.7895M171.512 90.1527L174.333 88.9268M131.031 116.727C132.34 115.727 133.884 114.473 134.749 114.229M131.031 116.727C130.601 117.169 130.215 117.735 129.875 118.348M131.031 116.727L128.086 114.984M128.279 122.57C128.137 124.751 128.348 129.317 130.828 127.861M128.279 122.57C128.402 122.03 128.639 121.203 128.978 120.309M128.279 122.57C127.504 122.254 126.751 121.955 126.024 121.669M134.749 114.229C137.935 111.067 136.205 104.986 151.611 104.147M130.828 127.861C133.781 126.125 132.2 126.782 135.267 122.57M129.875 118.348C129.525 118.98 129.225 119.662 128.978 120.309M129.875 118.348L127.494 117.271M116.1 115.014L117.333 115.602M128.978 120.309L126.965 119.464M117.985 113.199L119.179 113.739M119.179 113.739L118.573 116.123M119.179 113.739L120.436 114.307M118.573 116.123L117.333 115.602M118.573 116.123L120.044 116.74M116.514 117.927L117.333 115.602M116.514 117.927C117.277 118.385 118.171 118.628 119.179 119.071M120.73 111.161C121.483 111.506 123.577 112.296 124.161 112.66L125.142 113.24M120.73 111.161L120.436 114.307M120.436 114.307L123.377 115.409M119.179 119.071L120.044 116.74M119.179 119.071C120.042 119.451 122.36 120.227 123.377 120.63M120.044 116.74L122.691 117.668M123.377 115.409L122.691 117.668M123.377 115.409L124.309 115.831M122.691 117.668L124.309 118.348M124.309 118.348L123.377 120.63M124.309 118.348L125.436 118.821M123.377 120.63C124.213 120.961 125.098 121.304 126.024 121.669M125.142 113.24L124.309 115.831M125.142 113.24L128.086 114.984M124.309 115.831L126.291 116.727M126.291 116.727L125.436 118.821M126.291 116.727L127.494 117.271M125.436 118.821L126.965 119.464M128.086 114.984L127.494 117.271M126.024 121.669L126.965 119.464M118.083 41.6124C117.756 41.0061 117.201 39.7346 117.593 39.4993M118.083 41.6124C119.276 41.2968 120.511 41.0956 121.71 41.089C123.147 41.0812 124.531 41.3526 125.73 42.0412M125.73 42.0412C124.325 41.2392 121.299 39.8042 120.436 40.48C119.573 41.1557 119.096 41.5165 118.965 41.6124M164.846 95.0072C165.467 95.6369 166.473 97.0874 165.532 97.8512M162.689 100.303C162.825 100.861 162.878 102.171 162.003 102.951M152.101 75.4911C152.199 74.5754 153.964 73.5092 155.14 73.4317C157.336 75.0793 155.474 76.8768 154.65 77.4652C154.193 77.036 152.984 76.0403 151.807 75.4911M141.973 83.7486C141.907 85.913 141.188 89.1787 146.678 88.9268M165.14 92.7895C164.91 92.8098 164.682 92.8266 164.454 92.8401M149.062 87.5538L148.474 89.4172M152.101 91.5747L156.317 91.973M156.317 91.973C158.044 92.4453 159.967 92.7758 162.003 92.8606M162.297 93.5361L164.454 92.8401M164.454 92.8401C163.623 92.8892 162.804 92.8939 162.003 92.8606M162.003 92.8606L162.297 93.8303H162.689L163.571 93.5361M151.611 104.147C152.101 103.904 153.376 103.482 154.552 103.735C155.729 103.989 157.134 104.07 157.689 104.079M151.611 104.147C153.396 104.05 155.41 104.023 157.689 104.079M103.084 101.48H105.73M93.28 76.8641C94.3617 76.7007 96.7497 76.3934 97.6476 76.4719M91.4173 79.1151C92.1812 79.4185 94.2261 79.7082 95.5858 79.7082L93.9662 80.1005L90.3389 79.7082L91.4173 79.1151ZM60.5765 83.3368C61.2052 85.6905 59.1636 80.1005 58.4774 84.5136C57.7911 88.9268 60.3299 87.0635 60.5765 87.5538C61.7604 89.9075 57.6931 88.8287 57.6931 87.5538C57.6931 87.1907 57.4943 86.6761 57.2029 86.1195M57.2029 86.1195C57.2029 85.5842 57.2029 84.1214 57.2029 82.5522C57.2029 80.9831 57.5297 80.5254 57.6931 80.4927C58.0852 78.8452 58.8368 79.8062 59.1636 80.4927M60.5765 107.756L67.3006 104.422M110.233 47.8353C110.745 48.8487 111.428 51.5816 110.072 54.406C108.716 57.2304 109.031 59.3749 109.358 60.0941C109.979 58.7538 111.436 56.1516 112.299 56.4655C113.377 56.8577 115.632 53.4253 113.965 49.8947C112.632 47.0703 112.887 45.9719 113.181 45.7758M55.1442 54.406C54.1321 55.779 53.7729 60.4079 52.5952 61.6632M52.5952 61.6632C48.4812 64.4977 42.4889 64.8946 40.2428 68.9204C42.0504 67.7544 45.9929 65.7232 47.3013 66.9263M59.1636 37.1456C59.5231 38.5371 59.4773 41.8735 56.4186 44.0873C53.3599 46.3011 53.0527 49.7313 53.2815 51.1696C53.9024 49.0121 55.3991 44.9128 56.4186 45.7758C57.4382 46.6388 60.1766 42.6048 61.4184 40.48M50.636 71.3722C49.6225 73.8168 47.1052 79.0634 45.1445 80.4927C43.1838 81.9221 42.8897 83.1521 42.9878 83.5884M55.1442 64.9251C52.294 67.6914 48.8588 71.8344 45.1445 77.8448C37.1448 90.7901 40.4741 72.974 37.5331 72.1567C34.7881 63.0362 35.1449 48.5215 52.5952 33.4187C66.5555 21.3364 84.5548 26.6845 91.8094 30.8688C93.5577 31.7117 96.0528 33.0299 98.868 34.6922M55.1442 64.9251C53.8652 65.2589 51.7721 65.9667 50.0463 66.9263M50.0463 66.9263C48.7737 67.6339 47.7008 68.4784 47.3013 69.4108C46.3602 71.6075 46.1249 73.5951 46.1249 74.3143C47.2355 71.7753 49.5745 66.7431 50.0463 66.9263ZM48.1836 159.93C49.4356 159.603 52.3776 158.223 54.13 155.321M59.6538 148.358C59.425 148.586 58.8499 149.495 58.3793 151.3C57.9088 153.104 56.9415 154.732 56.5167 155.321M66.2222 139.335L64.6971 136.589M64.6971 136.589L69.6534 138.551L71.9082 141.689L73.6729 144.239L63.3571 132.098M73.6729 116.779C73.7901 117.76 72.6798 120.466 67.3006 123.448C61.9213 126.429 59.1117 125.162 58.3793 124.156M58.3793 124.156C58.1537 123.761 57.9249 123.371 57.6931 122.985M57.6931 122.985C59.1309 123.897 62.987 125.031 66.9084 122.271C70.8298 119.511 71.8102 117.788 71.8102 117.271M180.139 61.576C179.448 62.2908 178.214 64.2169 177.713 67.0571M177.492 69.6069C177.492 68.6917 177.575 67.8397 177.713 67.0571M177.492 69.6069V74.0936M177.492 78.5804V74.0936M177.492 78.5804C177.646 80.037 177.927 82.2848 178.261 84.1701M179.257 87.5538C179.093 87.4442 178.925 87.0502 178.761 86.475M179.257 67.0571H177.713M180.763 64.7034L179.257 64.0169L179.542 73.4317M180.763 64.7034C179.895 67.0896 179.559 70.194 179.542 73.4317M177.492 74.0936L178.571 76.8641L179.257 80.2966L178.261 84.1701M178.261 84.1701C178.418 85.0595 178.588 85.8681 178.761 86.475M178.761 86.475H180.139M219.55 67.6455C223.406 68.5772 231.647 71.1711 233.765 74.0936M153.376 64.0169C151.716 62.7093 148.022 60.6237 146.524 62.742M153.376 64.0169V68.2585M146.524 62.742L146.571 67.7436M153.376 68.2585C151.102 67.4657 146.557 66.2529 146.571 67.7436M153.376 68.2585V71.3722M146.571 67.7436L146.614 72.1567M153.376 71.3722L146.614 72.1567M133.376 52.2543L134.749 53.235M145.533 39.0089C143.082 35.0861 140.533 37.0372 133.376 36.7533C128.311 35.838 118.808 33.9092 112.299 36.2629L98.868 34.6922M145.533 39.0089C144.689 41.2602 144.656 39.2704 144.591 39.9896M136.808 53.235V51.1755M140.299 49.8947C139.58 47.857 138.589 45.9461 137.886 44.7951C137.015 43.9996 135.739 41.5352 137.608 49.0017M140.299 49.8947L141.023 50.7774M137.924 42.6582C137.99 41.939 140.767 43.3404 141.611 41.089M117.572 201.414C119.245 202.296 123.495 204.003 127.102 203.767M220.594 205.435C218.808 206.808 214.452 209.318 211.315 208.377M162.632 184.546C163.219 185.302 164.153 186.171 165.336 186.802M162.632 184.546C162.569 185.782 162.507 186.993 162.447 188.174M174.551 185.036C172.874 186.615 171.246 187.376 169.748 187.606M174.551 185.036V193.372M170.63 195.137C170.172 194.072 169.748 190.054 169.748 187.606M169.748 187.606C169.035 187.716 168.352 187.705 167.707 187.606C166.841 187.473 166.044 187.18 165.336 186.802M166.316 191.999C166.316 194.274 165.663 194.189 165.336 193.862V186.802M163.473 192.587L162.447 188.174M162.447 188.174C162.287 191.296 162.137 194.206 162.003 196.804H174.551V193.372M173.375 191.312L174.551 193.372M156.317 110.471C159.791 109.997 166.002 111.171 163.757 119.464M163.571 120.104C163.639 119.886 163.701 119.673 163.757 119.464M186.17 112.071C177.426 108.83 175.631 115.649 175.826 119.464C169.865 121.642 165.297 120.371 163.757 119.464M159.58 112.824L146.317 138.649M181.294 112.66L192.002 136.001M125.632 197.883C126.971 198.177 129.396 199.923 128.377 204.552M210.628 202.227C209.469 204.277 207.532 208.926 209.06 211.123M119.848 87.5538H124.357V92.7516C124.161 91.4766 122.985 88.6522 119.848 87.5538ZM114.946 75.4911C115.469 77.8448 116.201 82.5522 114.946 82.5522C113.691 82.5522 118.475 82.5522 121.024 82.5522V75.4911H114.946ZM148.474 80.2966C148.801 80.2574 149.454 80.4183 149.454 81.3754C149.454 82.3325 149.846 82.1011 150.043 81.8657L148.474 80.2966Z" stroke="black" stroke-width="1.5"/>
<path d="M118.379 113.248L119.065 110.404L120.437 111.287V114.327L118.379 113.248Z" fill="#DE2010"/>
<path d="M119.555 118.838L120.241 116.975L124.065 118.446V119.133L123.28 120.604L119.555 118.838Z" fill="#DE2010"/>
<path d="M118.379 115.896L118.771 114.033L116.81 113.248L116.418 115.014L118.379 115.896Z" fill="#DE2010"/>
<path d="M125.633 119.133L126.222 116.975L129.653 118.446L128.574 120.113L125.633 119.133Z" fill="#DE2010"/>
<path d="M118.379 113.248L119.065 110.404L120.437 111.287V114.327L118.379 113.248Z" stroke="black" stroke-width="2.5"/>
<path d="M119.555 118.838L120.241 116.975L124.065 118.446V119.133L123.28 120.604L119.555 118.838Z" stroke="black" stroke-width="2.5"/>
<path d="M118.379 115.896L118.771 114.033L116.81 113.248L116.418 115.014L118.379 115.896Z" stroke="black" stroke-width="2.5"/>
<path d="M125.633 119.133L126.222 116.975L129.653 118.446L128.574 120.113L125.633 119.133Z" stroke="black" stroke-width="2.5"/>
</svg>
