<svg width="240" height="240" viewBox="0 0 240 240" fill="none" xmlns="http://www.w3.org/2000/svg">
<path d="M114.877 30.1334C104.765 23.6347 92.7319 19.8652 79.8185 19.8652C43.9566 19.8652 14.8848 48.9371 14.8848 84.799C14.8848 119.429 41.9933 147.727 76.1471 149.631" stroke="#097B0D" stroke-width="2"/>
<path d="M75.9338 148.868C40.0718 148.868 11 119.796 11 83.9338C11 48.0718 40.0718 19 75.9338 19C89.7793 19 102.613 23.3334 113.152 30.7179" stroke="#DE2010" stroke-width="2"/>
<path d="M89.108 176.512L88.2441 173.057L96.3069 167.082C98.0346 164.951 102.45 164.37 104.442 164.202H112.288L119.487 162.403V168.234C108.833 165.584 94.7951 172.649 89.108 176.512Z" fill="#097B0D"/>
<path d="M94.1472 106.107L95.227 105.1L103.794 108.051L109.481 114.53L94.1472 106.107Z" fill="#097B0D"/>
<path d="M118.155 118.31L117.004 115.07C127.111 118.497 130.501 117.386 130.933 116.402V112.73C132.834 111.291 134.077 114.578 134.461 116.402C135.728 123.831 124.118 120.769 118.155 118.31Z" fill="#097B0D"/>
<path d="M183.338 127.774L176.643 135.549C176.643 138.932 183.338 137.205 189.673 136.053C196.008 134.901 201.551 133.281 203.71 131.157C205.438 129.459 202.199 124.019 200.363 121.511L195.144 117.012H193.272L191.112 118.02L188.701 117.012C188.053 117.036 186.692 117.393 186.433 118.631C186.174 119.87 185.413 120.059 185.065 119.999L183.841 118.919L177.722 125.326V127.774L183.338 121.007C184.144 126.824 183.673 127.942 183.338 127.774Z" fill="#00B4A6"/>
<path d="M201.551 138.932L205.438 136.449C207.051 141.114 209.349 140.384 210.297 139.436C210.441 139.268 210.693 139.155 210.549 140.048C210.369 141.164 211.233 142.172 211.593 142.46C211.881 142.69 212.985 142.556 213.501 142.46L223.291 151.062L222.751 153.33L223.111 153.546L224.947 155.382L225.163 154.986C225.998 153.978 227.335 154.566 227.898 154.986L228.798 156.605L225.847 162.185C224.155 164.248 220.613 168.606 219.98 169.527C219.346 170.449 216.212 172.575 214.725 173.523L213.105 172.299C212.949 172.023 212.601 171.363 212.457 170.931C212.313 170.499 212.709 169.503 212.925 169.06L211.305 167.188L208.57 168.628L194.892 156.641C196.015 155.403 195.12 153.702 194.532 153.006C199.801 150.386 200.063 147.643 199.535 146.599C200.075 146.071 201.428 144.792 202.522 143.899C203.617 143.007 202.331 140.216 201.551 138.932Z" fill="#00B4A6"/>
<path d="M92.7061 66.7282C93.018 67.2321 93.7571 68.2112 94.2178 68.096C94.4318 68.0425 94.785 67.83 95.3697 67.5396M92.7061 66.7282C92.7587 65.4115 93.8971 64.9176 95.3697 64.8543M92.7061 66.7282C92.1782 65.9843 91.2807 64.4534 91.9142 64.2806C92.1612 64.2132 92.5622 63.9928 93.102 63.8095C93.5999 63.6405 94.2158 63.5032 94.9378 63.547M95.3697 64.8543C95.5376 65.4439 95.7728 66.8065 95.3697 67.5396M95.3697 64.8543C96.3512 64.812 97.4813 64.9611 98.5372 65.1853C98.9096 65.2643 99.2728 65.3527 99.617 65.4454M95.3697 67.5396C96.3584 67.0486 98.0092 66.3351 100.769 65.7923C100.424 65.6765 100.035 65.5578 99.617 65.4454M91.3383 63.0568C91.3383 60.9283 100.049 62.6248 100.769 62.3368M91.3383 63.0568C91.3383 62.794 91.3794 62.5546 91.4561 62.3368M91.3383 63.0568C91.3383 64.2408 91.3982 65.0729 91.4794 65.6932M130.212 76.6626C130.716 86.597 123.085 90.1964 119.486 93.076C116.606 95.3796 113.391 96.1955 112.143 96.3155C110.357 96.3237 108.796 96.1976 107.428 95.9617M100.769 62.3368C101.345 62.1065 99.857 60.9931 99.0411 60.4652C96.7032 60.1375 92.2366 60.1201 91.4561 62.3368M100.769 62.3368C101.129 62.9127 101.849 64.2225 101.849 64.8543C101.849 65.644 101.669 68.9238 100.409 72.5952C99.4011 75.5323 100.949 76.0506 101.849 75.9427M91.4561 62.3368C91.3929 59.4093 91.7271 52.6471 93.57 49.0189C93.6408 48.8796 93.7143 48.7477 93.7905 48.623M110.343 44.4117C107.579 48.2127 102.808 48.395 100.769 48.0111C99.1998 46.8804 95.6959 45.5013 93.7905 48.623M110.343 44.4117C113.799 39.6604 110.343 41.4961 112.791 40.3083C115.264 39.1082 116.432 40.486 116.821 41.1362M110.343 44.4117C111.567 45.3595 114.879 47.7015 118.334 49.4868C117.338 49.0189 115.433 47.7159 115.778 46.2474C116.21 44.4117 120.638 46.2474 121.898 47.8671C123.157 49.4868 121.466 49.6668 123.409 49.3069C124.964 49.0189 123.049 52.0184 121.898 53.5542C122.053 54.874 123.129 57.9239 126.181 59.5652C129.996 61.6169 128.736 65.4683 128.736 66.0442C128.736 66.6201 128.448 71.0114 130.608 70.9754C132.336 70.9467 133.872 70.2196 134.424 69.8596C134.999 71.3594 135.669 74.6757 133.74 75.9427C133.351 76.198 133.03 76.3495 132.768 76.422M130.212 38.0046C129.396 39.1805 127.52 41.2154 126.541 39.9484C125.317 38.3646 126.037 37.2128 120.062 40.3083C117.692 41.5359 117.078 41.5634 116.821 41.1362M130.212 38.0046C129.588 37.4527 128.204 36.4065 127.657 36.6368C127.11 36.8672 127.525 37.7407 127.801 38.1486M130.212 38.0046C132.084 37.8966 135.827 38.7749 135.827 43.1518C135.827 48.623 140.291 44.1957 140.579 47.8671C140.867 51.5385 138.995 50.6747 139.427 52.1144C139.859 53.5542 142.882 52.8343 143.026 55.5699C143.17 58.3054 141.154 57.8736 141.73 60.4652C142.306 63.0568 145.474 62.6248 145.042 65.7923C144.61 68.9598 142.738 69.2837 146.77 71.9473C149.995 74.0782 148.113 77.6104 146.77 79.1102C146.338 80.442 146.222 83.1055 149.217 83.1055C152.212 83.1055 151.233 88.4567 150.369 91.1323C149.121 93.004 147.144 96.8626 149.217 97.3233C151.809 97.8992 150.801 102.65 149.217 102.83C147.633 103.01 147.345 108.554 149.217 108.554C151.089 108.554 149.649 114.889 148.209 114.889C146.77 114.889 145.186 120.216 148.209 124.535C147.547 124.506 146.645 124.191 145.853 123.383M127.801 38.1486L123.949 30.3738M127.801 38.1486L127.225 38.6526L123.661 33.3614C123.253 33.0974 122.401 32.3391 122.257 31.4177M123.949 30.3738C123.325 30.3378 122.113 30.4962 122.257 31.4177M123.949 30.3738C120.033 28.3005 112.887 30.6378 109.803 32.0656C108.208 32.2576 104.815 32.8431 104.008 33.6493C103.001 34.6572 98.5732 31.9577 90.1865 38.6526C89.9106 39.1925 89.5242 40.4451 90.1865 41.1362C90.4167 41.3763 90.5347 41.58 90.5816 41.7481M122.257 31.4177C120.542 33.1574 116.722 36.6368 115.167 36.6368C113.223 36.6368 110.451 34.7292 108.364 34.9451C108.259 34.956 108.138 34.9716 108.004 34.9923M96.9175 43.1518C97.434 40.2486 99.7309 38.262 102.173 36.9695M103.828 36.1983C104.284 36.1046 105.196 35.7658 105.196 35.1611C105.196 34.5564 105.82 34.1892 106.132 34.0813C106.756 33.9829 108.004 34.0275 108.004 34.9923M103.828 36.1983C105.51 35.5111 107.084 35.1339 108.004 34.9923M103.828 36.1983C103.282 36.4218 102.723 36.678 102.173 36.9695M102.173 36.9695C101.705 37.2494 100.466 37.9203 99.2571 38.3646C97.7454 38.92 98.2133 39.0125 95.9096 39.9843C94.0667 40.7618 91.7583 40.6442 90.8344 40.4883C91.2088 41.4961 90.6785 42.132 90.3665 42.324C90.5074 42.2535 90.6698 42.0635 90.5816 41.7481M90.5816 41.7481C89.5141 42.312 87.415 43.7637 87.559 45.0595C87.7509 44.5556 88.3148 43.5622 89.0347 43.6198C89.8618 43.6859 87.3746 46.7926 89.0347 50.5366M91.8998 67.8079C91.9091 67.8993 91.9142 67.9941 91.9142 68.096C91.9142 69.1757 90.9784 78.0303 94.5778 82.0617C97.3185 85.1313 96.9707 91.8318 103.576 94.8226M91.8998 67.8079C91.8265 67.3784 91.6834 66.6299 91.4794 65.6932M91.8998 67.8079C91.8424 67.2438 91.6261 66.8148 91.4794 65.6932M90.6545 62.3368C89.1427 63.0687 86.1768 65.0292 86.4071 67.0161C86.6951 69.4997 88.1708 72.7392 85.9392 73.963C86.935 74.071 88.6747 72.6528 87.6669 66.1162C87.3806 65.5763 87.6355 64.2805 90.9449 63.4166M90.9449 63.4166C90.7813 62.7672 90.5999 62.0872 90.4025 61.401C89.4092 57.9477 92.2382 55.7139 89.5746 51.5385C89.3591 51.2007 89.1808 50.8662 89.0347 50.5366M90.9449 63.4166C91.1527 64.241 91.3319 65.0162 91.4794 65.6932M93.7905 48.623C93.429 49.8987 91.9719 52.0675 89.0347 50.5366M99.653 45.0595C100.997 44.6516 103.605 43.3678 103.288 41.4961C102.893 39.1565 106.168 36.4023 111.747 36.9695C117.326 37.5367 115.958 40.2003 117.578 39.6604C118.874 39.2285 119.054 37.4647 118.982 36.6368C119.461 38.1366 119.7 41.1362 116.821 41.1362M131.688 75.1148C131.592 75.7566 131.727 76.709 132.768 76.422M132.768 76.422C132.563 82.5725 132.112 94.0461 131.688 99.23M130.896 116.004C131.148 117.18 128.693 118.603 116.858 114.889M130.896 116.004C130.888 115.068 130.884 113.879 130.89 112.585M130.896 116.004L132.768 113.737M116.858 114.889C113.787 108.376 107.111 95.3531 104.98 95.3649M116.858 114.889L117.927 118.164M104.98 95.3649C104.48 95.2017 104.013 95.0203 103.576 94.8226M104.98 95.3649C105.72 95.6062 106.533 95.8074 107.428 95.9617M103.576 94.8226C102.701 97.5399 100.726 102.946 99.833 102.83M99.833 102.83C98.4543 102.83 96.9423 103.89 95.3744 105.098M99.833 102.83C99.3272 102.765 101.432 105.362 104.19 108.554M125.533 131.806C126.195 133.246 128.233 138.285 129.168 140.624M125.533 131.806C124.036 133.85 122.797 134.481 122.365 134.541M125.533 131.806C125.122 130.913 122.984 128.647 120.533 126.155M129.168 140.624L126.865 146.564M129.168 140.624C135.179 147.019 147.115 160.328 146.77 162.401C146.424 164.474 148.63 165.473 149.776 165.713M126.865 146.564L122.365 134.541M126.865 146.564C131.452 152.587 141.968 165.453 147.333 168.736M122.365 134.541L112.759 118.164M112.759 118.164C113.071 118.506 113.348 118.809 113.583 119.064C115.233 120.859 118.044 123.624 120.533 126.155M112.759 118.164C111.957 117.285 110.924 116.147 109.792 114.889M120.533 126.155L117.927 118.164M107.428 95.9617L114.051 103.01M100.409 83.1055C101.453 81.8097 103.778 79.1966 104.728 79.1102C105.901 79.0035 105.705 78.0197 116.786 79.7617M100.409 83.1055C101.993 85.7331 103.432 86.1291 107.32 85.9851C110.43 85.8699 115.215 81.8337 117.218 79.8301C117.072 79.8068 116.928 79.784 116.786 79.7617M100.409 83.1055C101.885 82.6976 103.029 82.0905 105.16 82.0617C107.824 82.0257 108.328 81.3131 116.786 79.7617M99.617 64.6404C98.8971 64.1634 96.9534 63.2769 94.9378 63.547M94.9378 63.547C96.4063 63.3369 98.6692 64.725 99.617 65.4454M117.506 61.9769C117.41 61.473 116.542 60.4652 113.835 60.4652C113.201 60.4652 112.625 60.5967 112.107 60.8137M117.506 61.9769C116.12 62.4715 113.93 63.1964 112.107 63.6734M117.506 61.9769C118.622 60.4068 120.314 61.041 117.218 59.8892C114.123 58.7374 111.495 59.6372 110.703 60.1772C110.07 60.6091 109.409 62.688 109.157 63.6734M112.107 60.8137C112.335 61.7099 112.654 63.5367 112.107 63.6734M112.107 60.8137C111.272 61.1638 110.59 61.7363 110.068 62.3368M112.107 63.6734C111.464 63.8416 110.867 63.9789 110.366 64.0645M110.068 62.3368C109.683 63.0184 109.204 64.3182 110.366 64.0645M110.068 62.3368C109.671 62.7948 109.366 63.269 109.157 63.6734M110.366 64.0645C109.669 64.1837 109.16 64.2025 108.976 64.0645C109.025 63.9449 109.085 63.8134 109.157 63.6734M117.434 75.9427C118.382 76.9385 120.119 79.2685 119.486 80.6219M98.0693 80.8019C97.8533 81.7977 97.6661 83.9478 98.6452 84.5813M101.273 75.0788C101.477 74.9348 101.978 74.6397 102.353 74.6109C102.727 74.5821 102.964 75.2708 103.036 75.6187M105.16 75.0788C105.064 74.5869 105.175 73.5958 106.384 73.567C107.593 73.5382 108.328 73.819 108.544 73.963C109.554 74.2509 111.333 74.2149 110.366 71.7673M100.769 72.9551C101.249 72.2832 102.626 71.141 104.296 71.9473M131.688 99.23C131.589 100.434 131.492 101.299 131.4 101.679C131.027 103.214 130.909 108.442 130.89 112.585M131.688 99.23C132.663 99.6982 134.245 101.527 132.768 105.098C130.921 109.561 131.94 112.585 133.74 111.721C135.539 110.857 140.003 116.904 137.699 119.928C137.168 120.625 136.999 121.306 137.063 121.943M139.859 120.792C141.73 118.164 137.915 109.417 135.827 110.137C133.74 110.857 133.956 106.502 135.827 104.09C137.325 102.161 135.515 98.1032 134.424 96.3155M139.859 120.792C140.915 122.039 143.026 125.37 143.026 128.71M139.859 120.792C139.187 121.735 138.992 122.627 139.038 123.383M123.661 43.1518C123.913 36.9968 126.541 45.0595 130.608 44.4117C134.675 43.7638 128.736 49.3069 134.424 49.3069C140.111 49.3069 134.424 53.5542 138.419 54.4181C142.414 55.2819 133.74 62.3368 139.859 64.2806C145.978 66.2244 139.859 69.8596 141.73 72.5952C143.602 75.3308 145.042 73.963 143.026 80.8019C141.01 87.6408 145.042 82.0617 146.77 90.4124C148.497 98.7631 139.859 94.8226 144.178 104.09C148.497 113.358 145.042 107.69 144.178 116.004C143.767 119.958 144.692 122.2 145.853 123.383M143.026 128.71C143.026 132.886 147.489 130.582 147.489 133.03C147.489 135.477 149.649 135.909 148.209 137.493C148.479 136.734 148.746 135.712 148.919 134.541M143.026 128.71L139.038 123.383M145.853 123.383C149.137 126.489 149.422 131.142 148.919 134.541M91.4794 65.6932C90.4845 67.202 88.6028 71.5082 89.0347 76.6626C89.5746 83.1055 91.8422 75.8707 91.3383 82.0617C90.8344 88.2527 85.5433 84.7973 87.559 89.4045C89.5746 94.0118 88.3148 94.8226 85.1473 94.8226C81.9798 94.8226 85.1473 100.203 82.2677 100.203C79.3882 100.203 81.9798 106.538 79.9641 107.114C77.9484 107.69 80.828 112.441 77.9484 113.017C75.0689 113.593 80.396 120.792 77.9484 120.792C75.5008 120.792 79.1002 126.155 75.9327 126.155C73.3987 126.155 74.397 132.37 75.2128 135.477C74.6849 134.181 74.493 130.697 77.9484 127.127M77.9484 127.127C78.8314 126.214 79.6632 124.899 80.4592 123.383M77.9484 127.127C76.1142 131.712 73.2786 141.591 75.2128 147.411M95.3744 105.098L104.19 108.554M95.3744 105.098C94.9919 105.393 94.606 105.696 94.2179 105.995M104.19 108.554C105.961 110.603 108.001 112.897 109.792 114.889M89.0347 176.079C89.0347 178.526 99.2572 165.713 119.558 168.16M89.0347 176.079C90.0212 178.298 91.1952 180.814 92.5137 183.494M89.0347 176.079C89.0347 175.593 88.7211 174.641 88.2106 173.415M119.558 168.16L124.741 185.105M119.558 168.16C119.549 166.586 119.478 164.641 119.323 162.473M80.4592 123.383C83.5574 117.484 86.1138 108.554 89.0347 108.554C89.4637 108.554 89.8962 108.475 90.3305 108.337M80.4592 123.383C82.6902 121.92 84.704 120.782 86.5307 119.928M90.3305 108.337L86.5307 119.928M90.3305 108.337C91.6232 107.927 92.9326 106.985 94.2179 105.995M86.5307 119.928C102.32 112.543 104.125 126.347 111.351 134.541C114.347 137.939 116.321 143.674 117.579 149.659M199.321 146.564C201.74 149.443 194.954 152.755 191.259 154.05C195.368 151.225 195.698 154.585 194.904 156.57M199.321 146.564C200.617 145.76 203.151 143.799 202.921 142.388C202.69 140.977 201.769 139.497 201.337 138.933M199.321 146.564L194.57 148.291M201.337 138.933C202.729 138.285 205.512 136.744 205.512 135.765M201.337 138.933C200.089 139.497 196.528 140.624 192.266 140.624M205.512 135.765C205.512 135.36 205.402 134.49 205.197 133.606M205.512 135.765C205.832 137.248 206.654 139.544 207.892 140.143M173.261 126.155C172.542 129.43 167.358 131.59 167.214 134.541C167.07 137.493 167.07 143.396 165.631 144.116C165.184 144.339 162.783 147.894 159.356 152.755M173.261 126.155L175.349 124.535V123.556M173.261 126.155C173.598 124.623 174.476 123.877 175.349 123.556M120.533 192.492C120.533 190.704 121.505 187.535 124.741 185.105M124.741 185.105C126.369 183.883 128.57 182.848 131.508 182.27C133.459 181.886 135.748 180.456 138.203 178.36M148.919 134.541L159.356 152.755M159.356 152.755C156.65 156.592 153.304 161.244 149.776 165.713M94.2179 105.995L109.792 114.889M117.927 118.164C123.373 120.312 134.298 123.318 134.424 118.164C134.444 117.334 134.398 116.619 134.301 116.004M130.89 112.585C131.922 112.343 133.798 112.806 134.301 116.004M134.301 116.004L137.063 121.943M137.063 121.943C137.22 123.517 138.8 124.818 139.859 125.399C139.515 125.035 139.095 124.311 139.038 123.383M176.513 135.405C176.032 134.062 176.049 132.191 177.005 130.15C177.346 129.421 177.565 128.72 177.691 128.062M176.513 135.405L183.7 127.415V122.807M176.513 135.405C176.643 135.77 176.81 136.095 177.005 136.374M177.691 128.062L183.7 120.792V122.807M177.691 128.062C177.883 127.059 177.86 126.155 177.733 125.399M177.733 125.399C177.579 124.477 177.269 123.775 177.005 123.383C176.586 123.313 175.969 123.328 175.349 123.556M177.733 125.399L184.06 118.776V119.208C184.345 119.63 184.823 120.117 185.284 120.126M191.259 118.164L189.171 117.192C188.835 116.796 187.789 116.559 186.291 118.776C186.053 119.794 185.675 120.133 185.284 120.126M191.259 118.164L185.715 124.031L183.7 122.807M191.259 118.164L192.986 117.192H195.218L199.753 120.792C201.889 123.318 205.599 128.946 203.353 131.241M183.7 122.807L185.284 120.126M203.353 131.241C203.214 131.363 203.07 131.548 202.921 131.806C202.707 132.176 202.148 132.549 201.337 132.919M203.353 131.241C204.198 130.494 204.84 132.07 205.197 133.606M199.321 128.71C198.17 128.518 196.413 128.667 198.601 130.798C200.79 132.929 201.337 133.1 201.337 132.919M201.337 132.919C200.607 133.252 199.673 133.581 198.601 133.902M187.803 125.039C187.611 125.399 186.839 126.378 185.284 127.415C183.729 128.451 179.117 133.82 177.005 136.374M177.005 136.374C177.498 137.081 178.17 137.493 178.877 137.493C180.375 137.493 192.053 135.863 198.601 133.902M186.291 124.535C185.426 125.075 184.014 126.155 185.284 126.155C186.553 126.155 186.868 125.411 186.867 125.039M194.57 122.807L202.417 128.71M205.197 133.606C207.977 132.31 212.495 137.493 209.688 139.797C209.018 140.346 208.418 140.397 207.892 140.143M213.143 142.388C210.494 143.137 210.408 140.972 210.696 139.797C212.207 137.205 216.455 141.452 213.143 142.388ZM213.143 142.388L215.154 144.116M194.904 156.57C194.807 156.811 194.695 157.031 194.57 157.218C193.737 158.468 184.163 159.416 178.877 160.663M194.904 156.57C200.469 152.539 205.882 143.939 207.892 140.143M194.904 156.57L197.306 158.666M211.056 167.342C210.302 167.794 209.51 168.213 208.68 168.592L206.52 166.707M211.056 167.342C217.434 163.515 221.095 157.332 222.678 153.258M211.056 167.342L213.143 169.107M222.678 153.258C222.983 152.474 223.21 151.767 223.366 151.171L220.27 148.511M222.678 153.258L225.021 155.406M225.021 155.406L225.741 156.066C224.359 161.48 217.438 167.584 214.151 169.96L213.143 169.107M225.021 155.406C225.333 154.762 226.288 153.734 227.613 154.77M227.613 154.77C228.937 155.807 229.077 156.402 228.981 156.57C226.797 161.057 220.86 170.709 214.583 173.415C214.048 173.151 213.376 172.697 212.909 172.119M227.613 154.77C224.445 162.948 216.49 169.744 212.909 172.119M213.143 169.107C211.993 170.229 212.244 171.298 212.909 172.119M215.154 144.116C213.572 148.419 208.593 158.058 201.337 162.184M215.154 144.116L220.27 148.511M201.337 162.184L206.52 166.707M201.337 162.184L197.306 158.666M220.27 148.511C218.326 153.133 212.855 163.242 206.52 166.707M191.691 128.062L198.601 133.902M199.753 136.374C199.897 136.992 200.099 138.368 199.753 138.933M188.163 141.812L189.531 141.092M188.163 149.299L190.827 147.715M187.803 153.618L189.171 153.258M147.333 168.736C148.153 167.746 148.97 166.734 149.776 165.713M147.333 168.736C144.251 172.458 141.111 175.877 138.203 178.36M129.996 179.534C131.172 179.951 134.46 180.3 138.203 178.36M153.947 187.957C143.145 202.657 130.669 219.109 123.445 220.856C118.534 222.043 112.231 215.797 106.187 207.178M153.947 187.957C162.737 175.995 170.419 165.192 173.261 164.417C173.933 164.417 175.306 163.985 175.421 162.257C175.423 162.233 175.427 162.208 175.433 162.184M153.947 187.957C155.75 192.54 161.072 199.49 167.934 190.621C174.797 181.752 175.793 167.968 175.433 162.184M153.947 187.957C154.071 189.178 154.253 190.73 154.49 192.492M159.656 215.601C158.132 211.792 156.877 206.514 155.921 201.419M92.5137 183.494C92.4818 185.245 92.9365 189.498 95.0098 192.492C95.3919 193.044 95.7473 193.548 96.0752 194.004M92.5137 183.494C96.2408 191.069 101.123 199.956 106.187 207.178M98.7532 197.459C98.44 197.127 97.5265 196.024 96.0752 194.004M96.0752 194.004C95.2881 197.148 94.621 203.665 98.2493 204.586C98.7137 204.704 99.1708 204.827 99.6171 204.951M106.187 207.178C105.198 206.759 102.657 205.801 99.6171 204.951M99.6171 204.951C97.5294 205.886 93.7716 208.647 95.4417 212.217C96.103 213.631 96.6053 213.701 97.0975 213.224M97.0975 213.224C98.1591 212.196 99.1734 208.62 101.633 210.489C104.512 212.678 99.809 213.225 97.0975 213.224ZM96.0752 213.585C96.3439 214.833 97.155 217.141 98.2493 216.393C99.6171 215.457 101.993 213.945 104.8 215.169M104.8 207.178C102.425 206.842 97.659 206.775 97.6014 209.194M88.2106 173.415C86.6652 169.705 83.3159 163.489 81.4039 160.097C80.9854 158.842 79.5885 155.462 77.0989 151.027M88.2106 173.415C91.1729 170.632 98.2061 164.935 102.641 164.417C108.184 163.769 110.271 164.705 113.871 163.769C116.75 163.02 118.705 162.593 119.323 162.473M119.323 162.473C119.11 159.499 118.74 156.107 118.154 152.683M107.176 138.141C110.295 141.092 116.578 147.255 116.75 148.291C116.923 149.328 117.375 149.635 117.579 149.659M117.579 149.659C117.79 150.663 117.982 151.674 118.154 152.683M108.472 143.828L118.154 152.683M81.4039 133.822C78.9323 137.122 74.2338 144.462 75.2128 147.411M75.2128 147.411C75.4042 147.987 75.6423 148.524 75.9327 149.011C76.3452 149.703 76.7338 150.376 77.0989 151.027M81.044 146.564C79.5302 147.691 76.6218 150.163 77.0989 151.027M155.921 201.419L161.455 196.524M155.921 201.419C155.325 198.239 154.846 195.129 154.49 192.492M161.455 196.524C156.848 196.524 154.892 193.836 154.49 192.492M161.455 196.524C167.306 195.531 176.962 190.072 179.242 176.223M178.877 160.663C176.938 161.12 175.576 161.617 175.433 162.184M178.877 160.663C179.946 166.749 179.954 171.895 179.242 176.223M179.242 176.223C181.952 172.503 187.803 164.805 189.531 163.769C191.259 162.732 195.434 159.935 197.306 158.666M106.384 58.5934C106.012 58.9773 105.419 60.0044 106.024 61.041C106.78 62.3368 112.143 56.1457 119.162 58.3054C118.118 56.9136 114.101 55.0227 106.384 58.5934ZM190.323 122.807L189.531 125.399L194.138 128.71L195.218 126.155L190.323 122.807ZM207.6 136.845L209.688 138.357C210.048 138.01 210.451 137.222 209.184 136.845C207.917 136.468 207.6 136.688 207.6 136.845Z" stroke="black" stroke-width="1.5"/>
<path d="M111.682 62.5943C111.678 62.6101 111.669 62.628 111.654 62.6445M111.654 62.6445C111.606 62.6977 111.495 62.7364 111.28 62.6445C110.929 62.4939 111.33 62.0926 111.631 62.5441L111.654 62.6445ZM110.544 62.5441C110.645 62.611 109.866 63.4616 110.544 62.5441ZM110.544 62.5441C110.796 63.6378 109.494 62.5441 110.544 62.5441Z" stroke="black" stroke-width="1.5"/>
<path d="M95.125 66.3384C95.121 66.3542 95.1122 66.3721 95.0974 66.3886M95.0974 66.3886C95.0493 66.4418 94.9382 66.4805 94.7236 66.3886C94.3724 66.2381 94.7738 65.8367 95.0748 66.2883L95.0974 66.3886ZM93.9875 66.2883C94.0879 66.3551 93.309 67.2058 93.9875 66.2883ZM93.9875 66.2883C94.2395 67.3819 92.9377 66.2883 93.9875 66.2883Z" stroke="black" stroke-width="1.5"/>
</svg>
