<svg width="240" height="240" viewBox="0 0 240 240" fill="none" xmlns="http://www.w3.org/2000/svg">
<path d="M185.328 47.4761C171.285 22.3334 144.412 5.33203 113.568 5.33203C68.2041 5.33203 31.4297 42.1064 31.4297 87.47C31.4297 118.926 49.1119 146.252 75.0789 160.051" stroke="#FFE34F" stroke-width="2"/>
<path d="M187.786 41.1875C173.336 17.6777 147.378 2 117.759 2C72.3955 2 35.6211 38.7744 35.6211 84.138C35.6211 113.235 50.7508 138.798 73.5723 153.39" stroke="#00B4A6" stroke-width="2"/>
<path d="M77.4258 59.2734L79.8439 53.5909C87.8235 53.5909 110.674 43.435 114.301 42.3469C117.203 41.4764 123.248 36.5838 125.908 34.2463C127.802 32.9164 132.485 29.8213 136.064 28.0802C139.643 26.3392 146.018 24.9367 148.759 24.4531C148.638 26.9921 142.835 34.3672 137.394 39.4452C133.041 43.5076 124.619 44.8456 120.951 45.0068C112.923 49.7462 88.5892 56.4926 77.4258 59.2734Z" fill="#00B4A6"/>
<path d="M118.998 45.1094C107.261 49.589 82.8205 58.3977 77.875 58.4407" stroke="#DE2010"/>
<path d="M79.5977 54.6794C86.2633 53.3893 102.605 49.2824 114.216 43.1758" stroke="#FFE34F"/>
<path d="M79.2734 55.6965C85.9391 54.4064 102.442 49.0308 114.322 43.6016" stroke="#FFE34F"/>
<path d="M99.2641 49.7344C99.2641 52.0858 97.47 52.6947 97.2998 52.8828C97.0869 53.118 94.5282 54.5548 93.9961 51.204" stroke="#FFE34F"/>
<path d="M98.7223 50.1602C98.7223 52.1699 97.3198 52.4723 97.1634 52.6331C96.9679 52.834 94.7982 53.7618 94.4219 51.1815" stroke="#00B4A6"/>
<path d="M98.2949 50.1602C98.2949 52.1699 97.4348 52.5791 97.166 52.7404C96.9543 52.8674 95.1591 53.9379 94.8008 51.074" stroke="#DE2010"/>
<path d="M96.6727 52.252C95.9723 52.4844 95.6031 52.0583 95.6135 51.8163L97.5482 51.3516C97.5482 51.5549 97.3731 52.0196 96.6727 52.252Z" stroke="white"/>
<path d="M96.357 52.0987C96.7424 52.021 97.5422 51.9774 97.0797 51.119C96.5016 50.0461 95.779 52.0987 96.357 52.0987Z" fill="#00B4A6" stroke="#00B4A6"/>
<path d="M97.2778 50.0547L96.6328 50.861H95.5039" stroke="black"/>
<path d="M143.686 74.7456C143.367 74.9734 142.893 75.3701 142.356 75.842C141.183 76.8731 139.712 77.6591 138.91 78.4332C138.666 78.665 138.274 79.5219 138.003 79.3954M143.686 74.7456C145.717 75.2292 145.378 77.2688 144.955 78.2281M143.686 74.7456C144.84 73.921 144.228 71.2463 143.839 71.5417M138.003 79.3954C137.826 79.3129 137.701 79.0694 137.701 78.5541C139.474 76.6196 143.069 72.5452 143.263 71.723C143.284 71.63 143.8 71.5711 143.839 71.5417M138.003 79.3954C139.474 79.2762 142.67 79.0377 143.686 79.0377C144.345 79.0377 144.76 78.6466 144.955 78.2281M144.955 78.2281C144.532 79.7473 143.686 82.8704 143.686 83.2089C143.686 83.6321 148.095 87.5616 145.556 91.7932C144.467 93.6068 140.115 96.3274 133.163 95.5415M133.163 95.5415C129.566 96.6757 125.632 98.4353 124.946 100.921C124.635 102.046 124.517 103.667 124.449 105.455M133.163 95.5415C132.102 95.6622 127.725 95.5894 118.698 94.3321M143.839 71.5417C142.921 71.5216 141.183 70.9614 141.57 68.8818C141.807 67.6063 141.671 67.2041 142.562 66.5824M83.1735 41.7994C84.3116 42.8664 85.319 43.4365 86.1963 43.6251C87.7321 45.0306 82.3172 49.5317 79.9089 49.1017M83.1735 41.7994C84.1969 41.0725 85.205 40.4109 86.1963 39.8098M83.1735 41.7994C80.656 41.0177 73.2022 40.4189 63.5266 44.2779M63.5266 44.2779C64.3125 46.696 79.1839 41.8599 78.8212 47.1796M63.5266 44.2779C62.7258 44.8735 61.6394 45.9388 61.0159 47.1796M63.5266 44.2779C64.2582 43.349 65.2831 42.2919 66.5489 41.2825M78.8212 47.1796C75.8747 50.3373 70.6381 52.2869 66.5489 52.5233M78.8212 47.1796C78.7377 48.4039 79.189 48.9731 79.9089 49.1017M61.1692 50.9881C62.0535 52.1899 64.0944 52.6652 66.5489 52.5233M61.1692 50.9881C58.4878 50.2022 52.9798 49.8153 52.3994 54.5548C51.8191 59.2942 55.4246 58.2222 57.2999 57.0937C55.2243 56.6706 52.3185 55.256 57.2999 52.983C62.2813 50.71 61.955 53.0838 61.1692 54.5548L59.4709 57.6378M61.1692 50.9881C63.1666 53.8344 61.7131 51.2368 59.4709 57.6378M61.1692 50.9881C60.7723 50.4486 55.6294 50.7532 57.2999 49.8984M61.0159 47.1796C56.5894 42.9047 60.8454 41.5295 63.5266 41.3763C62.3921 42.0593 61.4081 42.9968 66.5489 41.2825M61.0159 47.1796C60.7449 47.7188 60.5614 48.291 60.5266 48.8723M66.5489 52.5233C66.2467 53.7562 69.1485 57.1542 74.4078 60.479C74.9278 60.8078 75.3315 61.1953 75.6354 61.6276M68.1774 73.7406C67.8367 77.8783 70.2796 81.9744 73.4275 85.2643M75.6354 61.6276C77.7904 64.693 74.9299 70.0087 72.9749 72.5694C72.2104 72.5694 70.9144 72.9476 69.3806 73.3941M75.6354 61.6276C76.1632 60.854 76.7782 59.8927 77.3921 58.8468M79.9089 49.1017C80.9565 49.7815 80.714 51.6175 79.9089 53.7601M115.394 37.9176C114.554 37.5058 113.687 37.1441 112.795 36.8423C109.184 34.4281 99.1215 31.9721 86.1963 39.8098M115.394 37.9176C115.414 39.01 115.14 41.2553 113.883 41.4972M115.394 37.9176C116.549 38.4837 117.652 39.1444 118.698 39.8736M113.883 41.4972C112.311 41.7994 111.344 40.409 111.404 39.5627C111.465 38.7164 111.042 40.3486 112.795 40.1672C114.548 39.9859 113.762 37.5073 110.437 37.4469M113.883 41.4972C113.916 41.7582 113.941 42.0547 113.953 42.3788M102.457 57.6378C102.639 57.0333 108.563 59.0282 109.772 64.2271C110.039 65.3763 110.399 66.1242 110.8 66.5824M110.8 66.5824C111.85 67.7825 113.183 66.9949 113.883 66.222C112.674 67.6728 111.727 65.9399 111.404 64.892C112.009 56.0056 104.755 54.3129 109.772 51.4717C111.081 50.7305 112.005 49.665 112.647 48.483M110.8 66.5824C112.009 68.6037 114.125 73.2854 112.916 75.842C111.707 78.3986 113.057 80.9319 113.883 81.879C113.057 81.2745 111.767 79.1708 111.767 77.0428C111.767 75.842 112.009 75.8338 112.372 74.2621C112.693 72.8696 112.092 67.4651 108.442 66.8605M94.1755 65.3152C95.8077 66.8265 100.342 69.3413 105.42 67.3101C106.605 66.8359 107.604 66.7216 108.442 66.8605M108.442 66.8605L109.107 67.3101C109.639 67.8922 107.072 71.6634 105.722 73.4762C105.103 73.407 104.345 73.3688 103.546 73.3941M97.8026 77.0428C97.984 81.5163 100.342 82.9671 101.913 83.0276C102.257 83.0408 102.84 83.1897 103.546 83.4277M97.8026 77.0428C97.6908 74.2837 100.854 73.4793 103.546 73.3941M97.8026 77.0428H97.4399C96.0697 78.1108 95.5297 83.5354 98.2863 87.2592C101.732 91.914 99.193 97.1129 99.2535 98.2615M111.404 81.3349C112.009 81.5767 112.069 83.0276 112.916 85.2643C113.762 87.501 110.8 88.5287 110.437 87.2592C110.154 86.2672 106.068 84.2785 103.546 83.4277M111.404 81.3349C110.8 81.0931 108.805 81.2662 107.414 78.5541C106.302 76.3844 106.145 78.7785 106.205 80.2468M111.404 81.3349C104.573 79.2422 110.8 83.4277 106.689 82.4835C103.4 81.7282 103.844 78.5417 104.477 77.0428M105.42 77.8892C105.159 77.6143 104.838 77.3195 104.477 77.0428M103.546 83.4277C101.369 83.0928 97.4278 81.5163 99.0721 77.8892C100.417 74.9217 102.852 75.7983 104.477 77.0428M105.42 70.635C105.339 71.5061 104.851 73.2775 103.546 73.3941M124.643 62.7157L125.109 62.2321M129.238 57.9401C129.721 58.1013 130.713 58.1577 130.809 57.0937C130.487 57.4766 129.721 58.3632 129.238 58.8468C128.633 59.4514 129.6 61.0836 129.238 61.0836M129.238 57.9401L125.109 62.2321M129.238 57.9401C129.318 57.3617 128.775 56.7835 128.149 56.3344C126.876 56.0057 127.601 53.8899 124.277 59.1492M129.238 61.0836C128.947 61.0836 126.364 61.8493 125.109 62.2321M129.238 61.0836L130.144 61.3858M125.109 62.2321L123.442 63.0785M136.492 67.7333C137.076 68.6803 138.571 70.0063 139.877 67.7333C139.914 67.4698 139.73 66.8708 142.562 66.5824M142.562 66.5824C143.488 65.9372 143.958 65.0556 142.295 62.7157C139.031 58.1214 131.716 58.1214 129.54 52.983C128.543 50.6287 126.708 47.6398 124.204 44.8188M123.132 116.337C123.244 116.157 123.347 115.955 123.442 115.732M123.132 116.337C126.141 117.211 142.731 124.72 145.257 125.296M123.132 116.337C121.505 117.988 116.29 119.37 110.104 118.755M98.2863 115.007C104.694 116.645 133.574 127.024 132.317 126.734C133.355 126.883 134.491 127.058 135.706 127.256M98.2863 115.007C102.981 116.588 106.872 117.816 110.104 118.755M98.2863 115.007C97.3926 114.491 96.5876 114.009 95.8642 113.559M94.4173 109.203C94.5627 109.053 95.1753 108.002 95.2895 107.752C96.1629 105.846 98.2269 101.359 98.1011 99.1127M94.4173 109.203L95.8642 113.559M94.4173 109.203C93.6292 109.203 93.2647 109.483 93.3167 109.989M99.2535 98.2615C99.2708 98.5907 97.3635 97.3738 96.775 98.8637C95.9286 99.2876 94.1755 99.8937 93.9337 98.9264C93.8539 98.6072 98.5036 99.1778 98.1011 99.1127M99.2535 98.2615C95.8198 98.2615 87.949 93.9493 84.4428 91.7932M84.4428 75.4711L91.9993 80.2468M95.6828 45.1244C96.5292 46.6115 100.93 47.1942 105.234 45.1244C110.614 42.5371 106.085 40.7717 108.442 40.1672M135.706 75.9547C137.995 79.5214 133.409 79.0982 138.003 81.3349M98.1011 99.1127C96.979 98.9313 90.1606 98.7223 90.4275 98.3219C90.7177 97.8866 85.4705 93.8686 82.8106 91.914C80.3283 90.9731 76.5345 88.5114 73.4275 85.2643M126.94 119.42C128.014 117.509 124.775 117.147 125.008 116.337C124.858 116.046 124.373 115.008 123.442 115.732M126.94 119.42L138.91 127.798M126.94 119.42C125.897 121.276 124.897 123.051 110.104 118.755M123.442 115.732C124.387 113.529 124.31 109.139 124.449 105.455M176.084 134.593L177.897 135.923M176.084 134.593C168.497 132.175 155.774 130.739 145.012 128.892M176.084 134.593C176.868 130.982 177.836 126.467 178.851 121.656M182.855 52.983C180.727 54.192 180.195 57.396 180.195 58.8468C180.597 60.9355 181.308 64.3285 181.926 66.5824M182.855 52.983C185.514 51.4717 187.812 48.3282 187.812 49.235M182.855 52.983C184.749 48.1872 189.262 37.4107 192.164 32.6713L192.032 31.5832M187.812 49.235C187.812 49.9604 186.28 53.0838 185.514 54.5548M187.812 49.235C189.042 47.2201 191.162 43.903 193.131 41.1747M196.758 36.9028C199.358 34.9684 204.216 35.8966 202.622 39.1395C202.165 40.0701 201.79 40.7949 201.474 41.3763M196.758 36.9028C195.912 29.568 194.002 14.8984 193.131 14.8984C192.261 14.8984 190.915 16.7523 190.35 17.6792L190.614 19.8555M196.758 36.9028C196.455 37.1284 196.095 37.4766 195.695 37.9176C195.458 38.1789 195.207 38.4728 194.945 38.793M199.721 44.2779C200.167 43.5184 200.581 43.023 201.474 41.3763M201.474 41.3763C203.429 41.1747 207.047 41.6181 205.887 45.0034C204.726 48.3887 203.912 48.9932 203.65 48.8723C205.302 48.9932 208.402 49.8274 207.579 52.1971C206.552 55.1593 207.277 56.731 207.579 57.0937C207.882 57.4564 208.668 60.8418 207.277 63.0785C206.165 64.8678 205.524 67.1287 205.343 68.0355C204.718 71.3604 203.384 78.3003 203.045 79.4609C202.622 80.9118 207.579 157.807 199.721 157.807C196.015 160.691 181.601 165.529 152.024 164.504M86.1963 39.8098C78.204 34.8639 70.9318 37.7875 66.5489 41.2825M59.4709 57.6378C58.7947 59.5685 58.0466 62.318 57.2999 66.2824C55.184 77.516 63.836 75.0083 69.3806 73.3941M60.5266 48.8723C57.8981 47.5423 52.2059 46.1036 50.4648 50.9881C52.3773 49.7499 56.4218 47.7985 57.2999 49.8984M60.5266 48.8723C58.7573 49.3329 57.7648 49.6606 57.2999 49.8984M63.5266 63.0785C61.0013 66.7919 58.6366 74.0539 69.3806 73.3941M68.1774 60.479C66.9028 62.2081 65.3589 66.14 69.3806 68.0355M79.9089 53.7601C79.2914 55.4032 78.3431 57.2266 77.3921 58.8468M79.9089 53.7601C87.8992 51.9661 102.755 47.7861 113.953 42.3788M121.923 44.972C117.918 45.0789 115.134 44.2706 113.94 43.6251C113.965 43.1801 113.968 42.7603 113.953 42.3788M121.923 44.972C119.319 45.9855 116.125 47.1997 112.647 48.483M121.923 44.972C122.645 44.9528 123.406 44.9038 124.204 44.8188M77.3921 58.8468C81.5585 59.423 99.2155 53.4385 112.647 48.483M113.953 42.3788C115.628 41.5699 117.222 40.7335 118.698 39.8736M118.698 39.8736C121.192 38.4206 123.352 36.9002 125.008 35.3312C134.195 26.6261 144.912 25.5783 149.364 23.9662C146.304 30.9464 138.562 41.1684 130.144 43.6251C127.991 44.2536 126.003 44.6275 124.204 44.8188M84.0761 54.5548C84.256 54.9175 84.508 55.643 84.0761 55.643M81.5976 55.5221C81.8192 55.7639 82.1295 56.2838 81.5976 56.4289M78.9377 56.1871C79.1377 56.5497 79.4177 57.2751 78.9377 57.2751M142.356 128.419C140.38 128.825 136.016 130.361 134.372 140.034C132.317 152.124 138.003 143.298 138.003 151.761C137.035 154.69 137.121 162.515 141.57 163.933C141.457 164.407 140.212 163.379 139.571 163.779M142.356 128.419C143.225 128.581 144.111 128.738 145.012 128.892M142.356 128.419C141.782 128.313 141.216 128.21 140.659 128.109M145.012 128.892C145.75 124.763 148.237 128.759 148.578 127.447M148.578 127.447C148.628 127.255 148.632 127.061 148.578 126.855C148.462 126.41 147.862 126.059 146.946 125.752M148.578 127.447C154.845 128.338 167.935 130.216 170.16 130.603C172.843 131.07 177.287 127.464 178.709 122.248M178.851 121.656C182.061 106.44 185.735 88.2631 185.514 86.3524C185.152 83.2089 183.58 68.8818 182.855 68.8818C182.637 68.8818 182.298 67.9382 181.926 66.5824M178.851 121.656C178.808 121.863 178.761 122.06 178.709 122.248M181.926 66.5824C182.503 69.4647 184.24 79.2191 182.855 81.879C181.469 84.5389 179.204 108.792 178.709 122.248M190.614 19.8555L192.164 18.5255L194.945 38.793M190.614 19.8555L192.032 31.5832M192.032 31.5832L193.131 41.1747M193.131 41.1747C193.763 40.2994 194.379 39.4847 194.945 38.793M114.665 161.801C110.917 164.094 88.4333 162.186 78.9377 152.85M114.665 161.801C117.64 162.166 121.343 162.661 125.008 163.006M114.665 161.801C105.366 161.801 101.521 158.413 100.761 156.719M89.2749 232.888C86.2521 196.375 73.7197 165.418 72.9529 146.563C72.1066 125.752 84.4679 116.256 93.3167 109.989M132.317 152.85C132.557 155.939 133.305 160.789 134.372 163.368M134.372 163.368C133.72 163.403 133.032 163.419 132.317 163.417M134.372 163.368C136.977 164.564 138.615 164.376 139.571 163.779M135.706 127.256C133.95 127.163 129.739 128.766 126.94 135.923C123.442 144.87 132.095 145.716 128.149 151.761M135.706 127.256C136.722 127.421 137.794 127.603 138.91 127.798M125.008 163.006C129.294 159.016 124.108 163.852 125.008 157.807M125.008 163.006C127.548 163.246 130.069 163.414 132.317 163.417M130.624 158.774C130.503 159.814 130.673 162.199 132.317 163.417M89.0331 128.419C97.8188 134.911 118.558 147.893 131.229 147.893C120.976 147.022 104.307 136.165 97.2546 130.845M145.257 125.296C143.725 126.248 140.659 123.986 140.659 128.109M145.257 125.296C145.892 125.44 146.463 125.59 146.946 125.752M140.659 128.109C140.065 128.002 139.482 127.898 138.91 127.798M146.946 125.752C146.542 126.148 145.395 127.246 144.044 128.469C142.693 129.693 142.756 126.734 142.956 127.702M95.8642 113.559C95.0899 112.814 93.4177 110.973 93.3167 109.989M139.571 163.779C141.519 163.936 143.414 164.069 145.257 164.181C147.596 164.322 149.851 164.429 152.024 164.504M158.553 234.339C155.409 232.646 153.717 222.248 151.48 217.896C149.243 213.543 146.946 195.891 148.159 193.473C149.372 191.055 145.858 189.604 148.159 178.965C148.336 178.094 150.81 168.962 152.024 164.504M123.132 106.543L124.449 105.455M135.097 67.3101C135.842 67.7938 137.246 69.0392 136.911 70.1514M110.8 85.2643C110.356 85.627 109.663 86.3524 110.437 86.3524C111.211 86.3524 111.001 85.3852 110.8 84.9016M72.9749 77.0428C72.4262 79.1184 71.7485 83.6684 73.4275 85.2643M93.3167 177.393C97.0732 192.143 105.998 215.042 111.642 220.072M89.0331 181.746C93.1924 196.979 103.23 221.281 110.104 228.052M85.5269 192.022C88.4904 205.483 94.4173 233.323 94.4173 236.999M189.504 39.1395C189.401 39.3842 189.479 39.8736 190.614 39.8736M187.086 45.9707C187.167 46.1042 187.545 46.3878 188.416 46.4543M184.305 54.5548C184.386 55.148 184.741 56.3344 185.514 56.3344M195.695 45.0034V47.3006M201.474 49.235V51.0487M205.887 52.318L205.222 53.9503M206.672 57.9401V59.1492M126.94 50.1418C127.404 50.4642 128.295 51.3508 128.149 52.318C127.968 53.5271 122.044 53.7084 121.923 57.6378C121.826 60.7813 121.52 61.2448 121.379 61.0836C120.694 59.1088 120.085 54.591 123.132 52.318C126.179 50.045 126.94 49.9201 126.94 50.1418Z" stroke="black"/>
<path d="M129.148 60.1088C129.146 60.1303 129.141 60.1545 129.132 60.1769M129.132 60.1769C129.102 60.2493 129.035 60.3018 128.905 60.1769C128.691 59.9725 128.935 59.4272 129.118 60.0406L129.132 60.1769ZM128.458 60.0406C128.519 60.1315 128.045 61.2871 128.458 60.0406ZM128.458 60.0406C128.611 61.5264 127.82 60.0406 128.458 60.0406Z" stroke="black"/>
</svg>
