<svg width="240" height="240" viewBox="0 0 240 240" fill="none" xmlns="http://www.w3.org/2000/svg">
<g clip-path="url(#clip0_4524_409)">
<path d="M185.984 176.841C185.477 177.061 185.244 177.65 185.463 178.157C185.683 178.663 186.272 178.896 186.779 178.677L185.984 176.841ZM204.246 61.1147C232.97 86.6417 235.562 130.621 210.035 159.344L211.53 160.673C237.79 131.124 235.124 85.8805 205.575 59.6197L204.246 61.1147ZM210.035 159.344C203.073 167.178 194.997 172.937 185.984 176.841L186.779 178.677C196.059 174.656 204.375 168.724 211.53 160.673L210.035 159.344ZM161.415 43.6244C176.727 44.3616 191.895 50.1384 204.246 61.1147L205.575 59.6197C192.87 48.3292 177.262 42.385 161.511 41.6267L161.415 43.6244Z" fill="#00B4A6"/>
<path d="M161.59 48.6887C177.864 48.9652 194.123 54.8417 207.243 66.5021C236.38 92.396 239.009 137.007 213.115 166.144C204.663 175.654 194.217 182.34 182.966 186.132" stroke="#DE2010" stroke-width="2"/>
<path d="M92.7822 44.6638L91.7703 40.6162C90.9608 39.402 90.5898 34.4605 90.5055 32.1416C92.4281 35.4809 125.458 27.7146 141.732 23.4141C134.565 27.04 119.572 35.0761 116.941 38.213C114.31 41.3498 106.569 42.1341 103.028 42.1341C96.0456 40.1103 93.2882 42.9773 92.7822 44.6638Z" fill="#DE2010"/>
<path d="M89.873 56.8065C90.8849 55.5922 90.2947 50.9881 89.873 48.8378C89.873 47.5224 91.1379 48.2897 91.7703 48.8378V51.2411L92.7822 55.0357L89.873 56.8065Z" fill="#DE2010"/>
<path d="M92.2771 38.851C100.575 32.1725 150.039 27.2564 160.58 26.3288V38.851C150.36 28.1249 102.017 34.8456 92.2771 38.851Z" fill="#00B4A6"/>
<path d="M86.0793 55.1677C87.1924 51.9297 86.0371 48.8434 85.3204 47.705C85.8263 47.9158 87.0406 48.3374 87.8501 48.3374C88.862 48.3374 87.3441 56.9385 85.3204 59.5947C83.7014 61.7197 85.1518 64.2747 86.0793 65.2866C82.5377 62.6557 82.2426 59.3839 82.5377 58.0769L86.0793 55.1677Z" fill="#00B4A6"/>
<path d="M90.7593 29.7439C91.9398 27.9731 95.3381 24.3556 99.4868 24.052C96.156 23.6726 89.7474 24.2797 90.7593 29.7439Z" fill="#00B4A6"/>
<path d="M101.16 64.7143C100.573 64.4149 99.713 63.8638 98.7392 63.0642M103.681 43.9405C102.908 42.7815 101.673 41.9 100.252 41.4732M100.555 50.5958C102 49.0159 103.964 45.6343 100.252 44.7469C95.6127 43.6376 95.2091 44.9486 94.0998 46.9654C92.9906 48.9823 92.6878 53.4194 94.4024 54.0245C95.774 54.5085 96.0497 56.3103 96.0161 57.1506M101.563 47.7722C99.4452 47.5033 95.2899 47.4898 95.6127 49.5874C96.0161 52.2093 96.3187 52.6127 97.5289 53.1169C98.7392 53.6211 98.9409 55.5371 99.0418 56.0414C99.1427 56.5456 101.362 60.0751 101.967 57.3523C102.572 54.6296 99.6469 55.0329 102.572 52.6127C105.497 50.1924 101.059 50.5958 100.555 51.4026M98.7392 63.0642C98.0332 63.1289 94.9067 78.9329 96.7221 82.1599C98.5375 85.3869 100.05 81.3531 101.16 72.5797C102.048 65.561 100.387 62.1256 99.4452 61.2852C99.4452 60.8819 99.5663 60.1961 100.05 60.6802C100.656 61.2852 102.175 66.9325 101.967 70.5629C101.828 72.9831 101.261 81.2523 99.6469 83.7734C99.2435 84.8827 97.3272 85.9919 95.3101 81.5548C94.5454 79.8727 94.5156 77.3839 94.8714 74.6981M98.7392 63.0642C98.5595 62.9167 98.3759 62.7607 98.1895 62.5962M98.1895 62.5962C97.2605 61.7769 96.2597 60.7481 95.3101 59.5123M98.1895 62.5962C97.3996 64.5578 96.3602 67.5937 95.6127 70.7583M92.6796 44.7469C93.3568 43.4379 94.2847 42.4529 95.3103 41.9236C96.9396 41.0828 98.7058 41.0088 100.252 41.4732M92.6796 44.7469C92.2062 45.6621 91.8553 46.7357 91.6793 47.9227M92.6796 44.7469C92.3348 43.7178 91.9522 42.433 91.5919 41.0116M160.565 39.4024C160.901 32.8811 161.19 20.0603 159.657 20.9477C158.742 21.4776 154.674 20.9031 149.773 20.6089M160.565 39.4024C158.374 35.6807 150.096 30.6533 132.93 33.7434M160.565 39.4024C161.271 42.8308 162.259 51.8861 160.565 60.6802C160.58 60.8556 160.583 61.0884 160.565 61.3596M100.252 41.4732C102.383 42.0947 104.464 42.2518 106.405 42.114M132.93 33.7434C128.235 34.5885 122.875 36.0408 116.793 38.2931C115.051 39.6784 111.148 41.7771 106.405 42.114M132.93 33.7434C126.845 36.5372 111.79 45.1906 109.935 52.6127C107.615 61.8903 104.791 57.2518 106.405 52.6127C107.696 48.9014 106.573 46.0842 106.405 42.114M99.0418 23.6662C95.4131 23.8259 92.6902 24.3194 91.6793 25.4857C90.4758 26.8741 90.0986 29.3 90.1838 32.0412M99.0418 23.6662C109.532 23.2044 127.592 25.5324 133.737 22.4604C138.057 20.3007 144.413 20.2872 149.773 20.6089M99.0418 23.6662C103.11 17.9868 112.557 7.63641 126.979 9.1493C139.657 10.4792 147.42 17.6294 149.773 20.6089M90.658 36.5792C90.9112 38.113 91.241 39.6271 91.5919 41.0116M90.658 36.5792C87.884 36.7736 83.135 38.0373 82.6144 41.4732M90.658 36.5792C90.4055 35.0498 90.2291 33.5008 90.1838 32.0412M91.6793 47.9227C91.3676 50.0245 91.6042 52.4819 92.6796 55.0449M91.6793 47.9227C91.0501 48.1833 90.1973 48.4062 89.259 48.4581M84.8212 46.9938C84.0526 46.2977 83.3825 45.3102 82.9051 43.9405C82.5825 43.0151 82.5049 42.1961 82.6144 41.4732M84.8212 46.9938C85.9643 49.5724 87.3426 55.2139 83.7118 57.1506C80.081 59.0874 84.0144 63.5381 86.4349 65.5213C86.0988 64.0761 85.8097 60.7822 87.3427 59.1682C88.28 58.1814 89.5772 57.4176 90.658 56.7753M84.8212 46.9938C86.1667 48.2123 87.8142 48.538 89.259 48.4581M92.6796 55.0449C92.7764 55.2755 92.88 55.5071 92.9906 55.7392C93.6665 57.1584 94.4682 58.4167 95.3101 59.5123M92.6796 55.0449C92.6796 55.5662 91.7869 56.1045 90.658 56.7753M89.259 48.4581C89.797 49.2715 90.429 51.5236 88.6539 54.0245M91.5919 41.0116C89.1077 42.2255 83.8342 44.0173 82.6144 41.4732M90.658 56.7753C91.326 57.7406 92.2613 60.2561 90.658 62.5962C89.0547 64.9363 91.545 66.5298 92.9906 67.034C92.6339 66.1662 92.571 63.5646 95.0276 59.9203M95.3101 59.5123C95.2124 59.6497 95.1183 59.7857 95.0276 59.9203M90.1838 32.0412C93.9098 32.8833 104.912 33.4772 119.113 29.1167C133.313 24.7563 140.427 23.1989 142.209 22.9653M104.085 85.8918L119.718 99.5057C122.182 101.97 124.588 103.572 126.576 104.356M159.766 64.0087C159.621 64.2529 159.451 64.4905 159.254 64.7143C158.402 65.6799 156.974 67.8285 155.925 69.8818M159.766 64.0087C157.713 64.3112 154.231 64.8154 152.698 64.4121C151.165 64.0087 152.194 62.4288 153.404 61.6893L160.565 61.3596M159.766 64.0087C160.31 63.0955 160.515 62.0888 160.565 61.3596M139.687 65.3197C139.366 65.3518 138.991 65.3717 138.578 65.3733M130.005 61.5884L127.585 58.7648M130.005 61.5884C131.817 64.6535 135.964 65.3828 138.578 65.3733M130.005 61.5884L128.514 61.8369M127.585 58.7648V61.9918M127.585 58.7648L128.514 61.8369M127.585 61.9918L134.745 65.3197L138.578 65.3733M127.585 61.9918L128.514 61.8369M149.37 68.7483C150.072 69.5738 151.636 70.9241 153.404 71.2952M155.273 71.2694C154.823 72.3286 154.552 73.2718 154.614 73.8914C154.792 75.6711 149.708 87.1097 144.629 92.685M155.273 71.2694C155.462 70.8223 155.684 70.3546 155.925 69.8818M155.273 71.2694C154.644 71.4346 154.012 71.4228 153.404 71.2952M155.925 69.8818L153.404 71.2952M151.79 64.0087C149.37 64.0423 145.194 66.1264 147.857 74.1939C151.185 84.2783 150.983 83.2698 148.462 83.8749C145.94 84.48 147.252 83.169 145.84 83.8749C144.428 84.5808 144.024 84.7825 144.125 85.8918M138.074 75.5049C136.325 76.9503 133.596 79.9823 136.662 80.5471C140.494 81.253 142.713 81.5555 142.007 83.0682C141.442 84.2783 141.973 83.8413 142.007 84.0766M144.629 92.685C143.953 93.4277 143.276 94.0664 142.612 94.5643C142.372 94.844 141.848 95.824 140.784 96.3616M144.629 92.685C145.134 92.151 144.932 90.2281 144.629 89.3205C144.387 88.5944 142.377 89.0179 141.402 89.3205C141.032 88.5473 139.97 87.1826 138.679 87.9087C137.776 88.4162 135.278 88.6576 133.132 88.757M144.629 92.685C143.083 92.5383 139.829 92.1239 139.183 91.6399C138.538 91.1558 134.88 89.5163 133.132 88.757M133.132 88.757C132.207 88.7998 131.349 88.8162 130.711 88.8162C131.854 91.539 134.972 95.6058 137.771 96.4804C139.081 96.8895 140.058 96.7287 140.784 96.3616M95.0276 59.9203L95.6127 70.7583M95.6127 70.7583C95.3024 72.0719 95.0424 73.4078 94.8714 74.6981M94.8714 74.6981C93.0006 83.3035 86.193 100.716 73.9288 101.523M73.9288 101.523C73.9288 101.119 73.5052 100.554 71.8108 101.523C70.1164 102.491 56.2453 102.8 49.5215 102.834C43.8399 103.674 31.3673 109.409 26.9297 125.624C21.3825 145.894 18.7603 144.885 19.0628 153.457L16.3395 162.533C16.5047 162.755 16.8004 163.034 17.2472 163.363M73.9288 101.523C75.1054 111.876 80.565 135.507 91.7802 141.558C101.496 148.012 125.103 158.54 141.805 149.02C144.965 147.373 150.338 140.549 146.545 126.431C142.753 112.313 134.274 106.25 130.509 104.984M48.6136 146.297C50.429 147.642 54.5036 151.198 56.2787 154.667C56.8233 155.731 57.0274 156.874 57.0157 157.995M42.8648 152.449L49.9247 159.104M57.3881 149.322C57.913 150.701 58.5735 154.365 57.0157 157.995M57.0157 157.995C57.0092 158.612 56.9375 159.222 56.8212 159.81M61.5232 152.449C60.328 153.827 57.7144 157.229 56.8212 159.81M56.8212 159.81C56.4598 161.638 55.6679 163.247 55.0684 164.147C54.7322 168.483 53.7169 176.792 52.3453 175.34C52.1773 175.162 51.937 174.984 51.6393 174.806M51.7401 106.565C53.3875 108.649 56.8233 114.814 57.3881 122.801M130.509 104.984C130.25 104.981 129.981 104.973 129.702 104.96C129.257 104.938 128.787 104.902 128.291 104.85C127.766 104.763 127.191 104.599 126.576 104.356M130.509 104.984C131.65 104.995 132.613 104.902 133.434 104.722M133.434 104.722C136.628 105.975 145.174 108.501 153.807 108.582L155.622 110.195M133.434 104.722C138.242 103.671 138.206 99.6621 140.784 96.3616M155.622 110.195C160.699 112.044 170.791 119.412 170.549 134.095L171.154 148.112M155.622 110.195C158.413 112.582 163.368 119.17 160.867 126.431M171.154 148.112L179.223 140.247C180.03 139.473 182.692 138.008 186.888 138.331C191.084 138.653 198.991 139.742 202.42 140.247C203.227 140.885 204.598 142.647 203.63 144.583L188.098 160.113M171.154 148.112L160.867 158.324M157.135 162.029C155.326 162.146 152.355 163.154 153.03 166.163M157.135 162.029L160.867 158.324M157.135 162.029L160.072 163.113M188.098 160.113C186.316 156.415 181.906 149.968 178.517 153.76C175.802 156.798 177.74 159.737 179.828 161.476M188.098 160.113C189.174 161.693 190.64 165.518 187.897 168.18C184.467 171.508 187.695 178.265 184.064 179.676M181.341 162.533C180.873 162.266 180.346 161.908 179.828 161.476M179.828 161.476C179.727 163.005 179.707 166.083 180.433 166.163M180.433 166.163C181.159 166.244 181.744 167.205 181.946 167.676M180.433 166.163L178.517 169.491M178.517 169.491C179.391 169.995 181.301 171.73 181.946 174.634C182.591 177.539 183.627 179.206 184.064 179.676M178.517 169.491L165.607 165.155L160.072 163.113M184.064 179.676C183.955 180.474 183.612 181.636 182.94 182.399M180.433 183.004C181.549 183.413 182.365 183.052 182.94 182.399M174.382 177.458C174.12 177.17 173.614 176.722 172.869 176.205M172.869 176.205C172.028 177.511 169.944 179.73 168.33 178.164M172.869 176.205C172.385 175.87 171.801 175.506 171.119 175.138M168.33 178.164C166.891 176.766 156.511 171.777 149.874 168.698M168.33 178.164L171.119 175.138M162.884 184.517L158.144 181.088C156.925 180.661 156.763 180.587 155.649 180.08M145.335 174.031C144.265 173.189 143.444 172.45 142.915 171.911C142.823 170.901 142.928 170.108 143.166 169.491M145.335 174.031C147.516 175.749 151.743 178.302 155.649 180.08M145.335 174.031C145.239 174.208 145.158 174.412 145.095 174.634M155.649 180.08H149.168C145.289 179.505 144.586 176.438 145.095 174.634M149.874 168.698C149.072 168.326 148.325 167.982 147.655 167.676C146.305 167.339 143.973 167.402 143.166 169.491M149.874 168.698L153.03 166.163M153.03 166.163C153.132 166.62 153.318 167.123 153.605 167.676C156.698 169.121 163.832 172.335 167.624 173.626C168.984 174.089 170.15 174.617 171.119 175.138M169.742 193.593C171.39 193.627 174.503 193.21 173.777 191.273M178.618 185.122C179.302 186.467 179.715 189.297 175.895 189.862M145.095 174.634C143.561 173.155 140.05 171.185 138.275 175.138C136.875 178.257 147.981 184.469 157.337 188.9M164.195 191.979C163.294 191.598 162.311 191.172 161.27 190.708M161.27 190.708C161.729 191.703 162.612 193.421 163.506 194.702M161.27 190.708C160.026 190.153 158.7 189.545 157.337 188.9M172.869 197.727C169.339 199.744 166.414 197.122 164.901 196.215C164.477 195.96 163.99 195.395 163.506 194.702M163.506 194.702L160.766 199.442M163.506 194.702C161.28 194.382 157.58 197.01 155.966 198.398M157.337 188.9C156.866 188.615 155.925 188.752 155.925 191.576M155.925 191.576C155.925 194.4 155.952 197.3 155.966 198.398M155.925 191.576C148.744 192.271 142.578 190.081 140.393 188.9M155.966 198.398C155.952 198.41 155.939 198.422 155.925 198.433L154.311 200.627M155.966 198.398C156.591 199.048 157.619 200.571 156.732 201.459C155.844 202.346 155.852 204.114 155.966 204.887L156.228 208.619M156.228 208.619C157.135 209.661 158.507 211.745 156.732 211.745C154.957 211.745 155.656 216.72 156.228 219.207L153.202 219.677M156.228 208.619L153.202 209.987M68.8858 224.754C69.1278 227.174 80.4843 229.325 86.1322 230.098L103.406 227.414M68.8858 224.754C68.6437 222.333 66.3643 221.392 65.2549 221.224C65.3558 220.585 65.497 219.106 65.2549 218.3M68.8858 224.754C70.3581 225.123 74.1881 225.863 77.7297 225.863C82.1567 225.863 82.4097 232.193 103.406 227.414M65.2549 218.3C65.0129 217.493 57.9596 201.492 54.4633 193.593C53.9254 193.156 52.8697 191.657 52.9504 189.156C53.0311 186.655 50.698 182.399 49.5213 180.584M65.2549 218.3C65.7029 219.703 68.2179 222.534 74.694 222.636M49.5213 180.584L51.6393 174.806M49.5213 180.584C49.6271 180.752 48.7062 183.851 44.1761 194.904C39.646 205.956 37.7164 217.408 37.3179 221.752M51.6393 174.806C49.5059 173.533 44.4228 172.312 41.8562 171.811C26.7631 168.465 19.7099 165.172 17.2472 163.363M126.576 104.356C125.298 104.958 123.611 107.351 127.08 112.111M17.2472 163.363C12.8431 179.759 4.31742 210.313 5.04359 226.77M71.4074 188.9C79.9466 196.078 101.382 205.371 118.81 185.122M182.94 182.399C183.118 185.839 182.663 192.505 180.147 197.727M176.702 202.467C178.141 201.195 179.269 199.549 180.147 197.727M180.147 197.727C179.604 206.803 174.725 225.419 159.556 227.275C158.608 227.544 156.564 227.638 155.966 225.863C155.369 224.088 153.874 221 153.202 219.677M153.202 219.677L103.406 227.414M157.741 148.112C158.11 151.424 159.253 158.104 160.867 158.324M146.445 173.626C147.857 173.155 150.378 171.811 149.168 170.197C147.957 168.584 146.108 168.18 145.335 168.18C144.707 168.046 143.394 168.12 143.166 169.491M140.393 173.626C141.401 174.068 143.367 175.204 143.166 176.205C142.965 177.207 141.57 177.794 140.898 177.962M154.311 164.449C155.421 163.541 157.962 162.271 159.253 164.449C160.544 166.627 159.052 167.508 158.144 167.676H155.649M175.895 176.752C177.71 176.181 180.796 174.554 178.618 172.617M202.42 142.823C199.983 142.401 193.591 141.406 187.52 140.799C181.449 140.192 180.471 143.069 178.843 144.583L160.072 163.113M128.291 152.449L127.312 149.02M145.335 61.6893C143.419 60.58 136.863 51.5041 130.005 54.3277C131.971 52.289 138.234 50.288 147.453 59.8741C147.298 60.9691 146.769 62.5191 145.335 61.6893ZM181.341 159.306C182.686 158.264 184.689 155.817 181.946 154.365C179.203 152.913 178.988 155.844 179.223 157.491L181.341 159.306Z" stroke="black" stroke-width="1.5"/>
</g>
<defs>
<clipPath id="clip0_4524_409">
<rect width="240" height="240" fill="white"/>
</clipPath>
</defs>
</svg>
