<svg width="240" height="240" viewBox="0 0 240 240" fill="none" xmlns="http://www.w3.org/2000/svg">
<path d="M153.723 127.221L147.413 124.34C148.071 139.814 142.566 145.374 139.593 146.426L144.943 150.404C158.332 142.173 156.375 131.519 153.723 127.221Z" fill="#00B4A6"/>
<path d="M47.133 133.668V130.376C35.939 134.875 23.9036 131.885 19.2852 129.827L19.6967 133.668C30.0127 141.131 42.2859 136.778 47.133 133.668Z" fill="#00B4A6"/>
<path d="M153.723 127.221L147.413 124.34C148.071 139.814 142.566 145.374 139.593 146.426L144.943 150.404C158.332 142.173 156.375 131.519 153.723 127.221Z" stroke="black" stroke-width="1.5"/>
<path d="M47.133 133.668V130.376C35.939 134.875 23.9036 131.885 19.2852 129.827L19.6967 133.668C30.0127 141.131 42.2859 136.778 47.133 133.668Z" stroke="black" stroke-width="1.5"/>
<path d="M103.12 201.586C95.9531 203.741 88.3543 204.9 80.485 204.9C37.1389 204.9 2 169.761 2 126.415C2 83.0686 37.1389 47.9297 80.485 47.9297C95.6853 47.9297 109.876 52.2507 121.897 59.7315" stroke="#097B0D" stroke-width="2" stroke-linecap="round"/>
<path d="M103.53 197.742C96.3633 199.898 88.7645 201.056 80.8952 201.056C37.5491 201.056 2.41016 165.917 2.41016 122.571C2.41016 79.2248 37.5491 44.0859 80.8952 44.0859C96.0954 44.0859 110.286 48.407 122.307 55.8878" stroke="#7B0909" stroke-width="2" stroke-linecap="round"/>
<path d="M82.7005 88.6334C82.344 88.2769 82.13 87.3142 84.1267 86.3158C85.0792 85.8396 85.9279 85.5451 86.8015 85.2639M82.7005 88.6334C84.84 88.2769 88.0138 87.3857 87.8712 86.6726C87.7286 85.9595 87.4552 85.4364 86.8015 85.2639M82.7005 88.6334C82.7792 89.0112 82.9788 89.4589 83.3357 89.8813M97.6756 100.756C97.7945 101.053 97.9609 100.613 97.6756 96.4775C97.5566 94.7518 97.1438 93.4005 96.634 92.3772M97.6756 100.756H103.38M97.6756 100.756C97.0644 100.742 96.3151 100.783 95.5366 100.912M93.9319 125.002C93.5753 122.862 93.0405 117.977 93.7536 115.553C94.5282 112.919 95.0335 112.44 97.1415 111.774M93.9319 125.002C95.0607 126.903 97.4968 130.386 98.2105 129.102M93.9319 125.002C93.9867 125.385 93.5458 125.243 91.4615 121.971M109.442 108.778C106.708 109.373 100.635 110.74 98.2105 111.453C97.8134 111.569 97.4593 111.674 97.1415 111.774M103.38 100.756H105.341L111.225 100.578M103.38 100.756C102.37 99.4488 100.492 96.0497 101.063 92.912M101.063 92.912C99.8336 92.8526 97.2268 92.6624 96.634 92.3772M101.063 92.912C101.775 92.3413 100.766 90.8916 100.172 90.2381M96.634 92.3772C95.9219 90.948 95.0208 90.1584 94.4667 89.8813L90.7229 90.7727C86.5291 92.0309 84.3264 91.0538 83.3357 89.8813M145.276 123.041C143.941 122.078 142.5 121 140.997 119.846M145.276 123.041C145.685 123.336 146.162 123.645 146.702 123.966M145.276 123.041L144.562 120.223M224.787 156.022C222.412 154.156 217.285 151.756 210.702 149.076M98.2105 129.102C99.1025 127.498 97.3198 125.893 100.35 122.862C100.653 122.56 101 122.263 101.382 121.971M98.2105 129.102C98.0321 129.34 97.7825 129.815 98.2105 129.815M110.512 117.514C108.431 118.19 104.064 119.923 101.382 121.971M99.2808 120.188C99.7902 120.783 100.924 121.971 101.382 121.971M94.2891 109.314C94.8836 110.241 96.2863 112.032 97.1415 111.774M86.8015 85.2639C88.2173 84.8083 89.6986 84.3876 91.7932 83.2852C95.1805 81.5024 100.706 85.781 105.341 85.4245C106.114 85.4244 108.015 86.3157 109.442 89.8813C110.869 93.447 115.623 98.6169 117.821 100.756C119.38 102.114 121.551 103.979 124.061 106.098M83.3357 89.8813L53.1067 90.049M44.7277 85.9595C43.4798 85.7812 42.2327 87.564 42.0544 89.7033C42.0449 89.8171 42.0269 89.9323 42.002 90.049M44.7277 85.9595C45.7261 86.1021 47.6396 86.3755 48.4715 86.4943M44.7277 85.9595C49.8621 82.1088 52.453 87.0813 53.1067 90.049M53.1067 90.049L51.1465 90.0598C50.745 91.6993 49.7897 94.1261 48.2933 95.6285M48.2933 95.6285C47.1319 96.7946 45.6445 97.4039 43.8372 96.656C42.0851 95.931 41.2954 95.1446 41.0238 94.3384M48.2933 95.6285L50.0889 110.205M91.4615 121.971C91.2865 121.696 91.1 121.4 90.9012 121.079C87.6922 115.909 91.436 110.918 90.7229 105.748C90.2889 102.601 93.0605 101.319 95.5366 100.912M91.4615 121.971C90.0097 121.866 88.3222 121.745 86.4864 121.615M86.4864 121.615C85.9788 122.079 85.4231 122.766 85.057 123.576M86.4864 121.615C84.6859 121.486 82.7428 121.349 80.7397 121.209M98.2105 129.815C98.6384 129.815 91.1388 129.459 87.3355 129.28C86.4338 128.728 85.7998 128.141 85.3749 127.545M98.2105 129.815C98.2949 130.998 98.5657 133.023 99.074 134.094M106.768 130.35C106.806 130.354 106.845 130.359 106.883 130.363M106.054 132.133C106.488 131.726 107.26 130.802 106.883 130.363M106.883 130.363L105.876 129.993M106.883 130.363C107.319 130.418 107.694 130.51 108.015 130.634M108.79 131.063C110.837 132.669 108.89 136.298 108.015 136.59C106.946 136.946 101.063 134.807 99.8148 134.807C99.5263 134.807 99.2806 134.529 99.074 134.094M108.79 131.063C110.374 132.608 113.792 135.698 114.79 135.698C115.788 135.698 121.03 138.432 123.525 139.799M108.79 131.063C108.577 130.896 108.32 130.751 108.015 130.634M123.525 139.799C122.991 139.026 121.707 137.338 120.852 136.768C119.996 136.197 118.237 132.711 117.464 131.039M123.525 139.799C125.003 141.277 127.996 143.605 131.069 144.434M210.702 149.076C221.84 151.046 226.428 145.59 231.122 154.239M210.702 149.076C204.214 146.434 196.313 143.52 188.24 140.578M231.122 154.239C232.814 157.357 234.52 162.31 236.552 170.105C242.685 193.638 231.264 197.263 224.787 196.133C220.216 196.243 215.488 195.514 210.702 194.153M231.122 154.239L225.855 144.434C224.37 140.155 221.078 130.742 219.794 127.319M219.794 127.319C218.19 123.041 193.053 132.489 192.696 134.094M219.794 127.319C215.8 119.903 206.226 115.553 201.938 114.305M42.002 90.049C40.4147 88.6858 36.5984 87.1005 34.0312 91.6643C33.1446 93.2406 32.5029 94.7487 32.0386 96.1212M42.002 90.049C41.7173 91.3823 40.5367 92.8922 41.0238 94.3384M41.0238 94.3384C40.5289 94.3384 40.2709 104.322 36.7054 105.57C33.1399 106.818 30.8223 103.609 30.8223 102.896C30.8223 102.38 30.8223 99.716 32.0386 96.1212M35.4574 92.9122C36.612 92.5557 39.1198 92.0209 39.9143 92.734M32.0386 96.1212C31.2766 93.9225 28.5404 90.4877 23.6913 94.3384C23.2753 94.8138 22.5146 96.4777 22.7999 99.3301C22.8496 99.8276 22.8786 100.335 22.906 100.84M30.4659 96.656C29.218 100.043 33.1399 105.926 27.7918 106.461C23.1899 106.921 23.0755 103.95 22.906 100.84M22.906 100.84C20.0778 104.14 15.3838 112.95 19.2346 121.793M19.2346 121.793C20.0666 123.278 22.7646 126.357 26.9006 126.784M19.2346 121.793V129.191M50.0889 110.205L50.9674 117.336C51.0163 117.532 51.1564 117.783 51.4193 118.049M50.0889 110.205C49.8059 110.243 49.5034 110.287 49.185 110.338M35.4574 116.445C36.5248 113.108 44.551 111.073 49.185 110.338M25.4742 106.996C31.5356 107.622 43.9794 108.07 45.2629 104.857M49.185 110.338C45.3817 109.997 37.3115 109.599 35.4574 110.74M37.2406 131.42C38.4562 131.447 40.4142 131.364 42.4913 131.039M58.8119 119.757C57.8936 119.706 57.1648 119.67 56.6722 119.653C53.6706 119.55 52.115 118.752 51.4193 118.049M58.8119 119.757C59.4746 120.41 59.9632 121.03 60.3096 121.615M58.8119 119.757C63.358 120.009 72.55 120.634 80.7397 121.209M51.4193 118.049C49.9614 117.752 46.9744 117.443 46.6891 118.584C46.3326 120.01 42.9454 125.537 45.0847 126.784M54.7115 124.289C54.2956 123.635 53.6419 122.292 54.355 122.149M60.3096 121.615C61.1999 123.116 61.1507 124.382 60.7046 125.358M60.3096 121.615C60.5037 122.744 60.8544 125.073 60.7046 125.358M60.7046 125.358C60.2784 126.291 59.4899 126.96 58.8119 127.319C56.9697 126.844 52.4653 126.464 49.185 128.746C48.5585 129.181 47.831 129.55 47.0457 129.862M85.057 123.576C84.5279 124.745 84.3948 126.17 85.3749 127.545M85.057 123.576C85.0441 124.751 85.0896 127.191 85.3749 127.545M47.0457 129.862V130.35M47.0457 129.862C45.6309 130.423 44.0285 130.797 42.4913 131.039M47.0457 130.35V133.024C45.8286 133.882 44.6393 134.606 43.4798 135.212M47.0457 130.35C48.0821 130.212 49.2841 130.771 50.4329 131.85M47.0457 130.35C46.3797 130.545 45.726 130.727 45.0847 130.896M54.7115 146.395C54.9096 145.181 54.9736 143.986 54.9273 142.829M55.4246 135.52L54.9273 142.829M54.9273 142.829C54.7372 138.077 52.6875 133.965 50.4329 131.85M50.4329 131.85H56.316C56.9836 131.354 58.7959 130.363 60.7046 130.363C64.0608 128.22 71.1977 124.217 72.8956 125.358M41.0238 157.983C43.3285 157.388 48.5796 155.487 51.1465 152.634M100.35 160.3C99.2801 158.703 91.9713 160.3 87.8712 160.3C84.5911 160.3 75.7227 159.171 75.018 159.944C69.8537 160.478 58.8119 161.691 55.9595 162.261C52.394 162.974 22.0868 169.392 19.2346 136.59V132.89M100.35 160.3C101.421 161.897 103.38 169.571 103.38 173.314C103.38 176.309 103.321 200.056 104.807 211.109M100.35 160.3C100.391 150.673 98.4813 133.523 99.074 134.094M72.8956 125.358C75.018 126.784 82.0653 136.233 82.7005 144.434M72.8956 125.358L80.7397 121.209M127.804 100.756C127.899 100.646 128.014 100.525 128.147 100.4M128.147 100.4C129.018 99.5806 130.653 98.5878 132.261 99.3301C134.579 100.4 132.618 98.2605 137.61 99.3301C139.002 99.6286 139.965 99.7882 140.64 99.8711M128.147 100.4C128.686 99.6273 130.051 98.1179 131.192 98.2605C132.333 98.4031 133.093 98.6765 133.331 98.7953C133.806 98.617 134.864 98.2605 135.292 98.2605C135.72 98.2605 139.868 99.3887 141.888 99.9529C141.641 99.9585 141.262 99.9473 140.64 99.8711M128.147 100.4C129.578 100.519 132.725 100.756 133.866 100.756C135.007 100.756 138.857 100.166 140.64 99.8711M129.409 74.3716C130.122 74.9659 131.334 76.6892 130.479 78.8285C129.409 81.5026 126.2 88.6336 126.556 89.7033C126.842 90.559 128.102 91.6049 128.696 92.0209C129.112 92.0803 130.193 92.3061 131.192 92.734C132.44 93.2688 131.905 91.8426 132.261 91.1295C132.618 90.4164 135.47 92.0209 136.362 92.0209C137.253 92.0209 139.036 91.3078 138.679 87.564M137.253 86.6726C136.082 85.5317 134.269 85.7218 133.509 85.9595L134.757 83.8202M127.804 74.3716C128.241 74.7876 129.281 75.7978 129.944 76.5109M122.634 73.8368C124.239 74.1339 127.519 74.9065 127.804 75.6196C128.161 76.5109 126.913 77.9371 123.882 77.0458C122.928 76.765 122.38 76.5549 122.1 76.3321M122.634 73.8368C122.146 75.3022 121.49 75.8475 122.1 76.3321M122.634 73.8368C123.062 73.4089 123.05 69.4988 122.991 67.5972M122.1 76.3321C122.516 77.1642 123.49 78.8642 124.061 79.0068C124.774 79.1851 122.634 83.2854 122.456 83.9985C122.278 84.7116 121.921 88.9902 123.348 95.0515C123.5 95.7015 123.608 96.2265 123.681 96.656C123.757 97.1058 123.795 97.451 123.807 97.7257M124.061 106.098V104.678C122.669 98.1387 123.884 99.6354 123.807 97.7257M124.061 106.098C129.084 110.341 135.463 115.601 140.997 119.846M123.807 97.7257C124.664 97.6068 126.521 97.0482 127.091 95.7646C127.804 94.1602 130.479 93.4471 131.192 93.8036C131.905 94.1602 133.331 94.1602 133.331 93.8036C133.331 93.4471 137.431 92.5557 143.314 95.7646C149.197 98.9736 141.353 101.469 147.593 101.648C153.833 101.826 167.203 87.7423 165.777 80.6113C166.312 79.7199 166.098 76.5823 160.964 71.1627C154.546 64.3883 166.134 63.6752 154.367 59.2183C144.954 55.6528 140.818 51.7902 139.927 50.3046C139.571 52.2656 129.409 54.0483 127.27 55.2963C125.558 56.2946 123.697 63.3186 122.981 66.7059M140.997 119.846C141.841 120.302 143.076 120.425 144.562 120.223M174.691 95.4081L175.582 87.9561M174.691 95.4081C175.285 94.0889 176.545 91.1012 176.83 89.7034C177.115 88.3056 178.019 87.1005 178.435 86.6727L178.791 82.7507C179.148 78.8286 180.182 70.3427 181.465 67.7756C182.749 65.2084 182.713 63.1404 182.535 62.4273C182.297 58.5053 181.144 50.1263 178.435 47.987C175.047 45.3129 176.652 43.3519 170.412 43.1736C164.173 42.9953 166.312 36.0426 158.111 34.2599C149.911 32.4771 151.337 26.9506 149.197 29.803C147.058 32.6554 147.771 35.8643 144.384 33.9033C140.997 31.9422 127.448 37.2905 126.913 39.6081C126.378 41.9256 126.556 51.1959 122.456 51.1959C122.743 51.3646 123.071 51.8164 123.348 52.6445M174.691 95.4081C174.43 96.9725 174.188 99.8905 174.691 101.959M175.582 103.787C175.161 103.365 174.875 102.72 174.691 101.959M168.451 91.486C168.57 91.9614 169.271 92.5557 171.125 91.1295C172.398 90.1504 174.208 89.1714 175.582 87.9561M168.451 91.486C169.105 88.9308 170.234 83.4994 169.521 82.2158C168.629 80.6114 169.877 80.6113 170.769 78.2938C171.482 76.4398 174.275 74.6688 175.582 74.0151C179.504 72.4106 177.543 81.1461 177.543 84.355C177.543 85.8017 176.71 86.9585 175.582 87.9561M168.451 91.486C169.072 93.2596 169.957 96.6144 169.774 98.9736M171.838 78.2938C173.692 80.2905 175.107 81.1462 175.582 81.3245C175.701 82.2158 175.653 84.0342 174.513 84.1769C173.086 84.3551 172.908 85.0682 171.125 85.7813C169.699 86.3518 170.293 84.5928 170.769 83.642C172.195 83.4994 171.601 81.2056 171.125 80.0765M174.691 75.0848C175.582 74.6689 177.187 75.0848 176.474 80.0765M122.991 67.5972C124.421 59.2209 124.046 54.7345 123.348 52.6445M122.991 67.5972C122.987 67.3176 122.984 67.0194 122.981 66.7059M123.348 52.6445C122.946 53.7313 122.932 61.9726 122.981 66.7059M168.986 56.0094C169.996 56.3065 172.052 57.079 172.195 57.7921C172.373 58.6835 173.621 54.4049 169.699 52.6221C166.561 51.1959 164.47 48.4624 163.816 47.2739M141.888 107.174C143.077 106.877 145.275 105.855 144.562 104.144C143.849 102.432 143.314 99.9839 143.136 98.9736M133.153 110.027C133.45 111.572 134.828 114.769 137.966 115.197M133.509 73.8368C133.569 74.4313 134.115 75.6914 135.827 75.9762M140.818 79.3634L141.254 79.0068M142.78 77.7589L141.254 79.0068M142.78 77.7589L141.175 77.2241M142.78 77.7589C142.946 77.7454 143.125 77.7316 143.314 77.7176M149.732 77.7589C150.018 78.1868 148.068 78.888 147.058 79.1851C146.947 79.1774 146.827 79.413 146.702 79.4047M149.732 77.7589C150.386 77.6995 151.765 77.6163 152.05 77.7589M149.732 77.7589C149.558 77.4971 147.817 77.4889 145.988 77.5629M141.254 79.0068C141.489 78.9386 142.43 79.1927 143.538 79.2353M91.6145 91.3078C92.7436 91.1295 95.0374 91.5218 95.18 94.5168C95.3226 97.5118 95.4771 100.028 95.5366 100.912M143.314 77.7176C143.266 78.1373 143.244 79.2233 143.538 79.2353M143.314 77.7176C144.097 77.6598 145.054 77.6006 145.988 77.5629M143.538 79.2353C144.598 79.2761 145.81 79.3462 146.702 79.4047M145.988 77.5629C146.464 78.1106 147.272 79.4406 146.702 79.4047M128.089 78.2713C127.486 78.0868 126.98 78.0061 126.556 77.9998C126.43 77.998 126.312 78.0027 126.2 78.0133M128.089 78.2713C128.113 78.2786 128.137 78.2861 128.161 78.2937C130.871 79.1495 129.528 79.2445 128.518 79.1851C128.416 79.2163 128.296 79.2497 128.161 79.2833M128.089 78.2713L128.161 79.2833M128.161 79.2833C127.994 79.3248 127.803 79.3666 127.597 79.4047C127.279 79.4635 126.924 79.5134 126.556 79.5398C126.439 79.5483 126.319 79.5544 126.2 79.5576M126.2 78.0133C125.038 78.1235 124.637 78.8652 124.595 79.3634C125.078 79.5242 125.642 79.5725 126.2 79.5576M126.2 78.0133V79.5576M174.691 101.959C175.897 102.421 177.553 103.386 178.791 104.826M174.691 101.959C167.036 109.91 155.813 115.904 151.158 117.907M146.702 123.966C147.777 121.03 154.975 127.545 178.791 104.826M146.702 123.966C147.137 124.225 147.613 124.492 148.128 124.767C149.26 125.372 150.577 126.013 152.05 126.685M146.702 123.966L154.975 132.588M146.702 123.966C147.104 125.528 147.427 127.649 147.457 129.993M178.791 104.826C179.721 105.329 180.612 105.794 181.465 106.224C197.165 114.132 200.16 110.194 201.938 114.305M201.938 114.305C202.065 114.6 202.136 114.897 202.145 115.197C202.323 121.079 203.927 114.84 192.696 127.319C190.854 130.097 187.384 136.637 188.24 140.578M188.24 140.578C178.055 136.865 167.596 133.107 159.359 129.792C156.654 128.703 154.188 127.661 152.05 126.685M210.702 212V194.153M210.702 194.153C199.991 191.108 174.723 179.47 178.791 177.875M154.367 77.0458C155.14 77.6994 156.221 79.3276 154.367 80.6113M108.015 130.634C108.805 130.505 110.137 130.116 111.225 129.388M112.829 127.498C112.547 128.288 111.938 128.911 111.225 129.388M111.225 129.388C111.878 129.388 113.221 129.388 113.364 129.388M113.364 129.388C113.507 129.388 115.206 127.415 116.038 126.428M113.364 129.388V129.815C113.746 129.9 114.492 129.991 115.147 129.88M118.712 126.963C118.059 127.676 116.573 129.209 115.86 129.637C115.656 129.759 115.409 129.836 115.147 129.88M115.147 129.88C115.519 130.233 116.454 130.902 117.464 131.039M119.069 130.363C119.128 130.597 118.962 131.063 117.821 131.063C117.702 131.063 117.583 131.054 117.464 131.039M117.821 107.353C119.247 108.482 121.493 111.631 119.069 115.197C116.038 119.653 125.13 118.214 122.1 124.289M169.774 98.9736C169.712 99.7765 169.526 100.464 169.164 100.935C167.738 102.789 166.668 105.986 166.312 107.353C165.572 107.247 165.459 106.89 163.816 108.105M169.774 98.9736C170.191 100.794 169.583 105.169 163.816 108.105M163.816 108.105C162.689 108.938 160.841 110.512 157.576 113.414C155.47 115.286 153.268 116.788 151.158 117.907M19.2346 129.191V132.89M19.2346 129.191C20.0133 129.977 21.4861 130.889 23.6913 131.594M19.2346 132.89C20.2991 133.55 21.9389 134.68 24.0768 135.698M19.2346 132.89L23.6913 131.594M42.4913 131.039L39.8584 136.768M39.8584 136.768C38.7753 137.133 37.7237 137.398 36.7054 137.578M39.8584 136.768C41.0297 136.373 42.2376 135.86 43.4798 135.212M35.4574 132.607L32.0386 137.845M35.4574 132.607C36.6713 132.507 37.9537 132.352 39.3057 132.133M35.4574 132.607C34.655 132.674 33.8826 132.716 33.1399 132.736M32.0386 137.845C33.5015 137.937 35.0599 137.869 36.7054 137.578M32.0386 137.845C31.2726 137.797 30.5328 137.705 29.8203 137.578M27.4353 132.436L24.0768 135.698M27.4353 132.436C26.0109 132.23 24.7644 131.937 23.6913 131.594M27.4353 132.436C27.837 132.494 28.253 132.545 28.6832 132.588M24.0768 135.698C24.5213 135.91 24.9873 136.117 25.4742 136.314M39.3057 132.133L36.7054 137.578M39.3057 132.133C41.1076 131.841 43.0332 131.435 45.0847 130.896M33.1399 132.736L29.8203 137.578M33.1399 132.736C31.5129 132.782 30.0284 132.723 28.6832 132.588M29.8203 137.578C28.2311 137.296 26.7779 136.841 25.4742 136.314M28.6832 132.588L25.4742 136.314M45.0847 130.896L43.4798 135.212M139.231 146.395C137.207 144.937 135.794 144.199 135.113 144.434C133.835 144.875 132.444 144.804 131.069 144.434M139.231 146.395C140.701 147.453 142.493 148.889 144.562 150.607M139.231 146.395C140.622 145.649 141.795 144.746 142.78 143.731M152.05 126.685C153.251 128.04 154.447 130.1 154.975 132.588M144.562 150.607C145.058 150.292 145.533 149.976 145.988 149.659M144.562 150.607C146.581 153.245 151.491 158.698 154.988 159.41C155.832 160.119 156.695 160.841 157.576 161.574M154.975 132.588C155.314 134.188 155.377 135.965 154.988 137.845M147.457 129.993L154.988 137.845M147.457 129.993C147.485 132.148 147.265 134.492 146.633 136.768M154.988 137.845C154.657 139.446 153.997 141.123 152.9 142.829M146.633 136.768L152.9 142.829M146.633 136.768C146.269 138.077 145.768 139.363 145.099 140.578M152.9 142.829C152.142 144.009 151.175 145.202 149.963 146.395M145.099 140.578L149.963 146.395M145.099 140.578C144.479 141.703 143.714 142.767 142.78 143.731M149.963 146.395C148.853 147.487 147.537 148.579 145.988 149.659M142.78 143.731L145.988 149.659M157.576 161.574C152.9 162.261 172.721 175.752 178.791 177.875M157.576 161.574C157.755 161.922 169.913 162.154 172.195 160.3M178.791 177.875C182.535 179.185 186.941 176.926 191.147 175.231M131.069 144.434C130.753 151.871 128.907 180.102 129.763 189.006C130.21 193.663 131.981 190.274 133.15 189.006M151.158 117.907C150.118 118.459 149.1 118.917 148.128 119.281C146.843 119.762 145.637 120.077 144.562 120.223M43.4798 91.3078C42.7667 92.2586 41.5544 94.1958 42.4102 94.3384C43.4798 94.5167 47.0453 95.0515 47.2236 94.5167C47.4019 93.9819 47.5802 91.3078 46.8671 91.3078C46.154 91.3078 44.1929 90.9512 43.4798 91.3078ZM33.1399 100.043C34.3878 98.8605 37.4185 99.5084 37.4185 100.578C37.4185 104.696 37.2402 104.678 33.6747 103.787C30.8223 103.074 32.1296 100.994 33.1399 100.043ZM25.4742 105.213C26.1873 104.976 27.8275 104.571 28.6832 104.857C29.7528 105.213 29.0397 100.578 27.4353 101.113C25.8308 101.648 25.4742 100.935 25.4742 105.213ZM136.362 74.7282C137.61 74.8471 140.426 74.8709 141.71 74.0151C143.314 72.9455 146.88 71.341 148.128 72.4107C149.126 73.2664 150.564 74.3123 151.158 74.7282C149.138 74.5499 144.848 74.4786 143.849 75.6196C142.601 77.0458 136.362 75.4413 136.362 74.7282ZM91.6145 93.2688C92.6842 94.3386 94.1817 96.9059 91.6145 98.6171H83.7704C82.7081 97.607 81.1339 95.3727 83.3357 93.0906L91.6145 93.2688ZM84.3052 94.8733C84.0675 95.2297 83.7347 96.0494 84.3052 96.4775C85.0183 97.0126 85.5532 95.2299 84.3052 94.8733ZM133.397 164.635C133.043 165.694 132.443 168.025 132.867 168.873C133.397 169.933 134.456 167.284 133.397 164.635ZM133.397 150.607C133.044 151.667 132.443 153.998 132.867 154.846C133.397 155.905 134.456 153.256 133.397 150.607ZM133.397 177.875C133.044 178.935 132.443 181.266 132.867 182.114C133.397 183.174 134.456 180.524 133.397 177.875Z" stroke="black" stroke-width="1.5"/>
<mask id="path-5-inside-1_4524_414" fill="white">
<ellipse cx="87.3319" cy="95.7714" rx="1.24793" ry="1.24793"/>
</mask>
<path d="M87.0798 95.7714C87.0798 95.6321 87.1927 95.5193 87.3319 95.5193V98.5193C88.8495 98.5193 90.0798 97.289 90.0798 95.7714H87.0798ZM87.3319 95.5193C87.4711 95.5193 87.584 95.6321 87.584 95.7714H84.584C84.584 97.289 85.8143 98.5193 87.3319 98.5193V95.5193ZM87.584 95.7714C87.584 95.9106 87.4711 96.0234 87.3319 96.0234V93.0234C85.8143 93.0234 84.584 94.2537 84.584 95.7714H87.584ZM87.3319 96.0234C87.1927 96.0234 87.0798 95.9106 87.0798 95.7714H90.0798C90.0798 94.2537 88.8495 93.0234 87.3319 93.0234V96.0234Z" fill="black" mask="url(#path-5-inside-1_4524_414)"/>
<mask id="path-7-inside-2_4524_414" fill="white">
<ellipse cx="90.5389" cy="95.7714" rx="1.24793" ry="1.24793"/>
</mask>
<path d="M90.2869 95.7714C90.2869 95.6321 90.3997 95.5193 90.5389 95.5193V98.5193C92.0566 98.5193 93.2869 97.289 93.2869 95.7714H90.2869ZM90.5389 95.5193C90.6782 95.5193 90.791 95.6321 90.791 95.7714H87.791C87.791 97.289 89.0213 98.5193 90.5389 98.5193V95.5193ZM90.791 95.7714C90.791 95.9106 90.6782 96.0234 90.5389 96.0234V93.0234C89.0213 93.0234 87.791 94.2537 87.791 95.7714H90.791ZM90.5389 96.0234C90.3997 96.0234 90.2869 95.9106 90.2869 95.7714H93.2869C93.2869 94.2537 92.0566 93.0234 90.5389 93.0234V96.0234Z" fill="black" mask="url(#path-7-inside-2_4524_414)"/>
<path d="M144.811 78.3754C144.81 78.3741 144.808 78.373 144.806 78.3721M144.806 78.3721C144.799 78.3696 144.788 78.3711 144.773 78.3889C144.748 78.4181 144.802 78.4359 144.808 78.3821L144.806 78.3721ZM144.711 78.4309C144.717 78.4204 144.61 78.3795 144.711 78.4309ZM144.711 78.4309C144.685 78.322 144.618 78.478 144.711 78.4309Z" stroke="black" stroke-width="1.5"/>
<path d="M127.219 78.9812C127.216 78.9779 127.212 78.9747 127.206 78.9725M127.206 78.9725C127.188 78.9655 127.157 78.9697 127.117 79.0175C127.051 79.0957 127.195 79.1434 127.213 78.9992L127.206 78.9725ZM126.953 79.13C126.969 79.102 126.68 78.9922 126.953 79.13ZM126.953 79.13C126.882 78.8381 126.702 79.2563 126.953 79.13Z" stroke="black" stroke-width="1.5"/>
<path d="M73.778 96.832C72.743 99.4936 72.8919 111.47 73.7792 114.132" stroke="#7B0909" stroke-width="1.5"/>
<path d="M71.739 96.832C70.7039 99.4936 70.8528 111.47 71.7401 114.132" stroke="white" stroke-width="1.5"/>
<path d="M69.7683 96.832C68.7332 99.4936 68.8821 111.47 69.7694 114.132" stroke="black" stroke-width="1.5"/>
<path d="M71.4141 100.777C71.4141 102.112 71.4141 108.119 71.4141 109.454" stroke="#097B0D" stroke-width="1.5"/>
</svg>
