<svg width="240" height="240" viewBox="0 0 240 240" fill="none" xmlns="http://www.w3.org/2000/svg">
<path d="M52.7894 117.881C41.7411 105.811 35 89.7328 35 72.08C35 34.6056 65.379 4.22656 102.853 4.22656C140.328 4.22656 170.707 34.6056 170.707 72.08C170.707 82.3915 168.407 92.1658 164.292 100.918" stroke="#097B0D" stroke-width="2"/>
<path d="M167.129 104.522C173.172 94.3761 176.642 82.5201 176.642 69.8535C176.642 32.379 146.263 2 108.789 2C71.3146 2 40.9355 32.379 40.9355 69.8535C40.9355 86.5914 46.9961 101.914 57.0424 113.746" stroke="#7B0909" stroke-width="2"/>
<path d="M138.37 172.48C138.116 170.699 139.536 170.183 140.278 170.147C141.628 169.617 144.095 170.147 144.095 172.48C144.095 174.346 142.328 174.883 141.445 174.918C140.526 174.848 138.624 174.261 138.37 172.48Z" fill="#7B0909"/>
<path d="M143.809 197.267C143.555 195.486 144.976 194.97 145.718 194.935C147.067 194.404 149.535 194.935 149.535 197.267C149.535 199.133 147.768 199.67 146.884 199.706C145.965 199.635 144.064 199.048 143.809 197.267Z" fill="#097B0D"/>
<path d="M79.5391 168.617V184.154C80.7419 184.956 97.0807 184.989 105.1 185.156L107.104 185.657C107.271 180.144 107.505 168.817 107.104 167.614C106.703 166.411 104.598 164.774 103.596 164.106C98.083 163.939 86.5557 164.607 83.5486 164.106C80.3598 163.576 79.5391 167.28 79.5391 168.617Z" fill="#00B4A6"/>
<path d="M75.4312 100.847C71.9961 101.472 66.9297 105.065 62.2986 108.988M108.435 94.108C110.104 95.3521 115.006 95.0872 117.248 94.7993C124.08 93.5936 124.159 91.1705 129.516 85.7955M108.435 94.108C108.32 96.8727 110.422 101.573 119.753 98.2551C127.661 95.4435 134.179 86.6276 137.61 77.174M108.435 94.108C106.512 93.5441 103.984 92.7121 100.486 87.8873M108.435 94.108C107.882 96.6552 107.189 101.323 106.463 104.908M117.507 56.5249C115.779 56.5856 115.987 54.5918 116.308 53.5874M117.507 56.5249C117.868 56.5249 118.246 56.5184 118.63 56.5045M117.507 56.5249C116.151 56.5249 115.319 56.429 114.829 56.3028M116.308 53.5874C117.192 53.0909 118.338 52.8137 119.753 53.0615M116.308 53.5874C115.436 54.0768 114.818 54.7792 114.448 55.4017M119.753 53.0615C120.153 54.0296 120.488 56.0735 118.63 56.5045M119.753 53.0615C119.839 53.0765 119.925 53.0933 120.013 53.1122M118.63 56.5045C121.302 56.4081 124.242 55.9569 123.546 54.8834M114.224 53.0615C116.47 52.056 121.533 50.7535 123.814 53.5874M95.4755 55.5651C96.0552 55.3733 96.7351 55.2947 97.4627 55.4017C97.7723 55.4473 98.0703 55.5024 98.3559 55.5651M95.4755 55.5651C95.2451 56.6844 95.2163 58.8635 96.9443 58.6253M95.4755 55.5651C95.3244 55.6151 95.1801 55.6728 95.0435 55.7369M96.9443 58.6253C95.9294 58.7053 95.0223 58.6688 94.4387 58.4257C93.9367 58.2165 93.6828 57.906 93.6281 57.5617M96.9443 58.6253C97.4586 58.5847 98.0005 58.5143 98.5421 58.4257M98.3559 55.5651C98.7777 56.2019 99.4056 57.6654 98.5421 58.4257M98.3559 55.5651C99.8098 55.8843 100.939 56.3999 101.61 56.8448M98.5421 58.4257C99.7597 58.2265 100.975 57.9355 101.869 57.6862M101.091 55.4017C99.0178 54.4954 94.4042 53.447 92.538 56.5045M93.6281 57.5617L92.538 57.0433C92.8702 57.1009 93.625 57.0779 93.9867 56.5249M93.6281 57.5617C93.5749 57.2274 93.7094 56.8613 93.9867 56.5249M93.9867 56.5249C94.1103 56.3749 94.2623 56.2309 94.4387 56.0982M94.4387 56.0982L93.6281 55.8337L95.0435 55.7369M94.4387 56.0982C94.6168 55.9643 94.8198 55.842 95.0435 55.7369M120.013 53.1122C120.502 53.0133 121.481 52.7453 121.481 52.4642C121.481 52.1129 121.111 53.4341 121.296 53.5107M120.013 53.1122C120.419 53.1999 120.847 53.3305 121.296 53.5107M121.296 53.5107C121.357 53.5354 121.419 53.5609 121.481 53.5874C121.81 53.7276 122.097 53.8618 122.345 53.9902M122.345 53.9902C123.008 54.15 124.35 54.3738 124.419 53.9902C124.269 54.2879 123.885 54.8834 123.546 54.8834M122.345 53.9902C122.996 54.3269 123.378 54.6234 123.546 54.8834M101.61 56.8448C102.057 57.1417 102.301 57.407 102.301 57.5617C102.168 57.6015 102.023 57.6432 101.869 57.6862M101.61 56.8448C101.783 57.1016 102.076 57.6294 101.869 57.6862M114.448 55.4017C114.359 55.5517 114.284 55.6971 114.224 55.8337C114.146 55.959 114.244 56.1524 114.829 56.3028M114.448 55.4017C114.489 55.683 114.621 56.2569 114.829 56.3028M110.595 48.4899C110.624 49.0083 110.941 50.0278 111.978 49.9587C113.274 49.8723 116.729 47.0211 121.481 47.0211C125.283 47.0211 126.06 47.5971 125.974 47.8851C125.254 46.8195 123.157 44.6884 120.531 44.6884C117.248 44.6884 117.11 45.5524 115.779 45.9844C114.448 46.4163 111.459 47.8851 111.027 47.8851C110.682 47.8851 110.595 48.2883 110.595 48.4899ZM110.595 48.4899C109.835 48.0062 109.702 46.6755 109.731 46.0706M102.819 50.9615C103.162 50.9873 103.4 50.9294 103.511 50.7362C103.673 50.4525 103.72 50.1916 103.694 49.9587M102.819 50.9615C101.016 50.8255 96.3162 48.3686 92.106 51.0818C88.2181 53.5874 89.8596 52.205 90.9828 50.7362C92.106 49.2675 93.3156 47.8851 96.5123 47.8851C99.0697 47.8851 101.783 48.5187 102.819 48.8355C103.145 48.9983 103.632 49.3971 103.694 49.9587M102.819 50.9615C103.914 51.5775 105.912 56.6284 105.498 61.8815C105.267 65.5447 104.115 72.1629 105.757 72.6813M114.448 71.8174C115.582 72.0247 117.334 68.5342 114.829 68.5342M114.448 71.8174C113.381 71.6222 111.898 71.7209 111.018 72.0766M114.448 71.8174L111.018 72.0766M105.757 72.6813C107.082 72.267 107.455 72.3295 108.245 72.4878M105.757 72.6813L108.245 72.4878M111.018 72.0766C110.728 72.1933 110.374 72.3378 109.904 72.5086C109.501 72.5662 109.04 72.6469 108.349 72.5086C108.313 72.5015 108.279 72.4945 108.245 72.4878M92.1645 41.4916C90.1118 50.118 88.4183 58.2412 88.2181 59.376C87.7574 61.9865 91.436 69.6465 93.7662 76.6557M92.1645 41.4916C95.4254 27.7879 101.436 12.8144 117.766 22.5704C120.185 24.5864 125.922 31.6942 129.516 43.9972C130.014 45.6992 130.422 47.3101 130.755 48.8355M92.1645 41.4916C96.1769 37.5173 104.219 29.1886 104.288 27.668C104.292 27.5876 104.303 27.501 104.323 27.4088M107.571 20.6697C106.18 22.2791 104.665 25.754 104.323 27.4088M104.323 27.4088C106.039 28.5031 109.213 30.8474 113.014 31.4695C117.766 32.247 129.316 49.2362 130.799 49.0358M130.799 49.0358C133.409 61.1664 132.474 67.8437 132.627 71.8174C132.719 74.2202 131.651 80.2807 129.516 85.7955M130.799 49.0358C130.784 48.9692 130.77 48.9024 130.755 48.8355M105.411 26.1128C106.736 27.2936 110.284 29.6724 113.878 29.7415C117.472 29.8106 122.461 36.567 124.505 39.9365C123.613 37.3157 121.447 31.7114 119.926 30.2599M105.498 79.4204C106.563 78.3548 109.075 76.3101 110.595 76.6557C112.496 77.0877 111.459 76.8285 113.274 76.3101C114.725 75.8954 118.947 77.2317 120.877 77.9517M105.498 79.4204C106.246 79.5068 108.055 79.5932 109.299 79.2475C110.854 78.8155 112.669 79.4204 113.274 78.9884C113.757 78.6428 118.544 78.1532 120.877 77.9517M105.498 79.4204C106.909 80.5148 110.509 82.9282 112.928 82.4444C115.347 81.9605 117.046 81.2636 117.593 80.9756L120.877 77.9517M111.114 86.5915C111.718 85.4683 113.533 85.1227 116.038 85.9867M83.207 39.9365C82.631 27.9847 86.8703 6.01658 113.274 13.7579C118.928 15.745 130.341 25.5426 130.755 48.8355M93.7662 76.6557C91.2737 72.9827 85.9809 65.5157 82.819 57.6862M93.7662 76.6557C83.7589 61.5879 84.1698 42.9604 85.4533 35.5301M93.7662 76.6557C95.9937 81.4939 98.4555 85.086 100.486 87.8873M145.759 104.13C146.315 97.1119 147.05 84.2815 146.453 78.9884M141.439 74.2364C142.764 73.9485 145.172 75.187 144.204 82.4444C143.236 89.7017 143.801 96.9303 144.204 99.6375M141.439 87.8873L123.546 106.722M124.505 18.0777C129.344 24.1696 138.916 40.3836 138.502 56.5045C138.087 72.6254 132.108 82.7489 129.516 85.7955M141.267 44.6884C142.13 48.0867 140.368 56.9223 140.23 65.0782C140.174 68.3613 139.24 72.6836 137.61 77.174M45.7102 137.998C46.3924 134.095 47.9123 127.384 49.8961 122.619M45.7102 137.998C46.6875 133.894 51.6032 132.318 58.1515 132.001M45.7102 137.998C44.0097 150.912 41.2109 176.445 42.525 182.925M62.2986 108.988C58.7296 112.011 55.4191 115.229 53.3132 117.436C52.0839 118.192 50.9273 120.143 49.8961 122.619M62.2986 108.988C68.0303 96.4501 80.1587 68.6374 82.819 57.6862M82.819 57.6862C81.3697 54.0972 80.1866 50.432 79.5783 47.0211C77.1591 33.4565 84.4166 13.4121 105.843 10.129C122.985 7.50251 132.569 18.8264 135.219 24.8167C139.135 31.6093 146.969 47.4162 146.969 56.3028C146.969 62.779 145.853 68.1813 145.333 71.8174M49.8961 122.619C60.1645 120.719 82.3776 117.712 89.0821 120.891C95.7866 124.071 96.8291 120.834 96.5123 118.818M100.486 87.8873C96.4038 95.2024 85.0386 110.593 76.4679 113.634M145.333 71.8174C144.961 74.4181 144.895 76.1153 145.759 76.6557C146.084 76.8586 146.308 77.7003 146.453 78.9884M145.333 71.8174C148.286 74.5567 153.087 81.0236 155.427 89.9609M158.719 128.494C157.855 125.384 154.917 124.347 156.645 104.13C157.089 98.9451 156.532 94.178 155.427 89.9609M155.427 89.9609C162.457 97.5063 178.383 117.677 185.848 137.998C191.621 153.714 191.083 156.249 189.397 155.019M188.8 153.291C188.295 153.424 189.51 153.481 188.8 153.291ZM188.8 153.291C189.434 153.296 187.749 153.861 187.749 156.487C187.749 159.114 188.903 154.751 187.837 155.5C179.278 169.118 169.527 161.868 171.16 162.433M188.8 153.291C189.362 154.061 188.903 154.658 189.397 155.019M188.8 153.291C187.915 154.011 185.001 151.995 180.424 138.171M182.565 148.107C181.96 141.8 181.269 145.169 180.75 139.64C180.7 139.099 180.587 138.612 180.424 138.171M149.906 138.171C155.781 131.346 161.311 131.605 164.68 129.79C168.05 127.976 170.815 129.013 172.024 131.605C173.116 133.943 178.919 134.102 180.424 138.171M149.906 138.171C148.006 138.113 144.204 138.551 144.204 140.763C144.204 142.975 145.989 143.528 146.881 143.528M149.906 138.171C147.744 140.684 146.951 142.412 146.881 143.528M149.647 144.737C148.409 146.609 147.435 149.904 153.449 148.107C154.738 147.721 155.616 147.41 156.213 147.156M149.647 144.737C150.829 143.877 152.101 142.962 153.449 142.02M149.647 144.737C149.02 145.325 147.805 145.433 147.215 144.737M166.408 134.024C166.725 133.736 167.169 134.024 166.408 134.024ZM166.408 134.024C162.821 135.878 159.365 138.017 156.213 140.127M160.101 145.774C158.46 147.185 155.004 150.491 154.313 152.427C153.449 154.846 156.3 155.451 157.596 155.019C158.42 154.744 160.364 152.79 162.693 151.16M160.101 145.774C161.973 144.392 169.501 140.331 171.506 139.64M160.101 145.774C156.213 146.552 159.098 145.932 156.213 147.156M174.703 145.774C173.926 146.251 172.373 147.092 170.555 147.846M170.555 147.846C169.409 148.322 168.157 148.763 166.927 149.057C165.481 149.403 164.024 150.228 162.693 151.16M170.555 147.846C168.868 148.995 165.012 151.109 163.557 152.427M162.837 157.475C163.621 157.475 165.169 157.032 166.408 156.487M162.837 157.475V157.029L162.146 156.487V157.356M162.837 157.475C162.559 157.475 162.331 157.432 162.146 157.356M175.48 152.168C173.683 153.481 171.448 153.924 170.555 153.982C169.844 154.387 167.574 155.975 166.408 156.487M171.16 162.433V163.297M171.16 162.433C171.16 162.433 170.736 162.224 170.555 162.017C169.029 160.604 166.339 157.702 166.408 156.487M171.16 163.297C171.794 164.622 175.549 166.337 179.627 165.646M171.16 163.297C168.24 162.19 174.88 187.971 176.44 195.712M171.16 163.297C171.621 165.491 175.065 168.918 179.282 168.116C184.552 167.113 185.842 163.436 186.796 162.017C187.558 160.882 189.452 159.528 190.304 158.993M189.397 155.019C196.22 163.342 205.339 187.936 203.836 197.786C201.113 215.621 195.957 216.864 191.032 214.099C186.108 211.334 177.035 198.65 176.863 197.786C176.839 197.669 176.684 196.919 176.44 195.712M146.881 143.528C146.847 144.068 146.983 144.464 147.215 144.737M163.557 152.427L162.693 151.16M163.557 152.427C160.862 155.122 161.064 156.257 161.502 156.487C161.532 156.691 161.599 156.876 161.714 157.029M157.873 147.846L156.213 147.156M153.449 142.02L154.313 140.763L156.213 140.127M153.449 142.02C154.339 141.397 155.262 140.763 156.213 140.127M106.463 104.908C109.395 106.348 116.418 109.055 121.049 108.364M106.463 104.908C105.995 107.214 105.514 109.643 105.046 112.079M121.049 108.364C125.68 107.673 128.681 106.636 129.603 106.204M121.049 108.364C130.449 100 136.007 84.0858 137.61 77.174M105.046 112.079L121.481 126.939C122.461 128.84 123.365 132.227 119.149 130.568M105.046 112.079C104.897 112.857 104.749 113.636 104.604 114.412M119.149 130.568C114.932 128.909 107.695 119.106 104.604 114.412M119.149 130.568C124.439 134.742 137.458 143.419 147.215 144.737M119.149 130.568C122.186 133.131 131.103 134.784 142.476 120.891C153.849 106.999 149.866 87.1674 146.453 78.9884M104.604 114.412C104.083 117.189 103.593 119.926 103.175 122.447M118.457 121.496C123.469 121.266 133.957 120.408 135.823 118.818M103.175 122.447C102.396 127.148 101.869 131.098 101.869 133.16C101.869 136.171 93.2139 135.153 82.6886 133.842M103.175 122.447C109.709 129.07 123.14 142.56 124.592 143.528C126.406 144.737 131.331 153.291 128.22 153.291C125.732 153.291 114.57 144.515 109.299 140.127M82.6886 133.842C94.2947 140.732 119.65 154.71 128.22 155.5C130.627 155.722 133.797 155.873 137.292 155.973M82.6886 133.842C74.5861 132.833 65.3753 131.651 58.1515 132.001M161.714 157.029C155.914 157.136 146.245 156.23 137.292 155.973M161.714 157.029C161.818 157.166 161.959 157.279 162.146 157.356M60.2251 190.355C55.3868 189.664 45.1573 187.453 42.9455 184.135C42.7743 183.878 42.6352 183.469 42.525 182.925M179.282 182.061C180.438 182.752 184.08 184.135 189.397 184.135M58.1515 132.001C62.6543 139.354 71.6482 154.467 75.3447 162.111M79.5783 184.135C78.5415 182.752 76.4679 179.366 76.4679 176.877C76.4679 173.767 79.5783 172.385 76.4679 164.609C76.1901 163.914 75.8093 163.072 75.3447 162.111M79.5783 184.135C83.4037 184.538 86.202 185.31 92.3652 185.172C100.069 184.999 106.446 184.697 107.327 186.381M79.5783 184.135V168.065C79.7798 166.625 80.5284 163.884 84.1573 164.177C88.4427 164.522 99.0178 164.321 103.338 164.177C104.261 164.35 106.572 165.369 107.05 168.065L107.327 186.381M79.5783 184.135C78.0416 184.966 75.2534 187.252 74.9026 190.355M107.327 186.381C107.914 187.504 108.653 188.859 107.154 190.155M82.6886 193.811C85.9141 194.33 94.4387 193.811 101.005 192.256C104.074 191.529 106.37 190.833 107.154 190.155M74.9127 191.738C75.5175 196.49 75.0855 196.231 75.3447 198.823M74.9127 191.738C72.0904 192.602 65.5126 194.33 61.7802 194.33C57.1147 194.33 55.9052 195.021 55.0412 202.71C54.35 208.862 54.7532 218.924 55.0412 223.187C60.3979 223.302 70.1781 221.666 66.4457 214.201C61.7802 204.87 59.0155 207.413 58.6699 201.069M74.9127 191.738C74.8521 191.262 74.8524 190.8 74.9026 190.355M75.3447 198.823C75.5521 200.896 76.8711 202.797 77.5047 203.488C77.4471 205.418 77.7812 209.501 79.5783 210.4C81.8246 211.523 80.7911 213.089 84.8485 215.065C88.2178 216.707 103.079 211.264 106.016 206.253C107.193 204.244 107.726 202.47 107.914 201.069M75.3447 198.823C75.2008 205.389 76.468 218.729 82.6886 219.558C88.9092 220.387 92.538 215.739 93.5747 213.896C92.0198 222.709 84.3301 234.591 69.7287 236.838C55.1272 239.084 65.2359 228.025 55.0412 227.679C46.8854 227.403 41.9663 218.403 40.5262 213.937M108.51 194.33C108.912 193.625 108.601 196.036 108.51 194.33ZM108.51 194.33C107.376 199.686 99.8818 199.427 97.4626 201.069C95.5273 202.382 87.9013 202.71 84.3301 202.71M108.51 194.33C108.459 193.371 108.235 192.312 107.731 191.219C107.569 190.867 107.378 190.512 107.154 190.155M108.51 194.33C108.554 194.442 108.559 194.756 108.539 195.194C109.817 196.576 108.06 199.976 107.914 201.069M107.914 201.069C105.841 203.574 100.072 208.585 96.3395 208.585C92.6071 208.585 88.6212 208.989 87.0949 209.19M42.525 182.925C41.5132 182.868 39.5241 183.651 39.6623 187.245C39.7095 188.472 40.4291 189.425 41.4734 190.155M48.6476 192.256C46.7128 192.142 43.4885 191.564 41.4734 190.155M41.4734 190.155L40.5262 198.304C39.2555 198.803 37.2839 200.447 37.4514 203.488M57.4601 193.811C55.4442 195.309 49.7189 198.65 42.9455 200.032C34.4787 201.76 40.5262 212.301 38.107 206.253C37.6966 205.227 37.4965 204.307 37.4514 203.488M37.4514 203.488C37.6891 205.986 38.6144 211.093 40.5262 213.937M49.8571 223.187C48.1291 221.459 44.0332 217.415 41.4734 215.065C41.1339 214.754 40.8185 214.372 40.5262 213.937M72.4934 198.823C71.5718 207.608 73.703 224.055 89.6002 219.558M74.9026 190.355C74.805 188.498 74.707 185.715 74.6983 182.925C74.6868 179.226 74.8325 175.516 75.3447 173.94C76.2433 171.175 75.4311 168.18 74.9127 167.028L75.3447 162.111M137.292 155.973C140.394 161.674 146.72 174.873 147.215 182.061C147.709 189.25 152.153 207.059 154.313 215.065M93.5747 187.936C94.3234 188.589 95.5444 190.263 94.4385 191.738M95.4757 195.712C96.2244 196.365 97.4454 198.039 96.3395 199.514M97.0305 203.488C97.7792 204.141 99.0001 205.815 97.8942 207.29M97.4626 209.795C98.2114 210.448 97.8942 210.918 97.4626 211.846M77.5047 188.628C76.8135 189.002 75.6385 190.442 76.4679 193.207C77.5047 196.663 75.4312 197.959 76.4679 199.514C77.5047 201.069 77.6777 203.488 79.5783 204.87M103.511 48.4899L103.694 49.9587M176.44 195.712C177.869 196.753 184.246 206.99 186.294 207.533M161.235 147.567C161.721 147.558 162.693 147.844 162.693 149.057M155.221 141.553C155.707 141.544 156.679 141.829 156.679 143.043M151.365 145.061C151.08 145.031 150.148 144.9 149.906 145.774C149.664 146.648 150.442 147.43 150.71 147.567C153.773 147.567 152.423 145.897 151.366 145.062C151.081 145.032 150.149 144.901 149.907 145.775M155.221 152.557C154.979 153.431 155.756 154.213 156.024 154.35C159.087 154.35 157.737 153.002 156.679 152.168C156.395 152.137 155.464 151.684 155.222 152.558M153.717 140.55C153.666 140.572 153.344 140.516 152.464 140.127M175.48 152.558C175.075 152.973 174.466 154.058 175.268 155.085M139.02 170.225C140.748 169.534 144.204 169.067 144.204 172.73C144.204 177.309 136.082 173.94 139.02 170.225ZM144.204 195.194C145.932 194.503 149.388 194.036 149.388 197.699C149.388 202.278 141.267 198.909 144.204 195.194ZM147.215 144.059C147.398 144.206 147.451 145.329 148.204 144.551C149.146 143.578 148.705 143.043 148.204 143.043C147.803 143.043 147.87 142.377 147.703 142.555L147.215 144.059Z" stroke="black" stroke-width="1.5"/>
<path d="M81.6523 168.684C81.6523 167.579 82.5478 166.684 83.6523 166.684H87.601C88.7055 166.684 89.601 167.579 89.601 168.684V172.114C89.601 173.218 88.7055 174.114 87.601 174.114H83.6523C82.5478 174.114 81.6523 173.218 81.6523 172.114V168.684Z" stroke="black" stroke-width="1.5"/>
<circle cx="84.5824" cy="169.274" r="1.15076" stroke="black" stroke-width="1.5"/>
<circle cx="84.5846" cy="169.27" r="0.75" stroke="black" stroke-width="0.919147"/>
<circle cx="87.5251" cy="172.211" r="0.75" stroke="black" stroke-width="0.573555"/>
<path d="M118.551 54.9735C118.538 54.9885 118.518 55.003 118.493 55.0128M118.493 55.0128C118.412 55.0443 118.27 55.0257 118.088 54.809C117.789 54.4542 118.443 54.2379 118.523 54.8917L118.493 55.0128ZM117.345 54.2987C117.417 54.4259 116.108 54.9234 117.345 54.2987ZM117.345 54.2987C117.021 55.6219 116.206 53.7261 117.345 54.2987Z" stroke="black" stroke-width="1.5"/>
<path d="M97.4997 56.9735C97.4868 56.9885 97.4675 57.003 97.4424 57.0128M97.4424 57.0128C97.3613 57.0443 97.2196 57.0257 97.0372 56.809C96.7385 56.4542 97.3926 56.2379 97.4727 56.8917L97.4424 57.0128ZM96.2938 56.2987C96.3661 56.4259 95.0577 56.9234 96.2938 56.2987ZM96.2938 56.2987C95.9705 57.6219 95.1555 55.7261 96.2938 56.2987Z" stroke="black" stroke-width="1.5"/>
</svg>
